<svg width="382" height="184" viewBox="0 0 382 184" fill="none" xmlns="http://www.w3.org/2000/svg">
<path d="M15.7002 1.20264C14.5135 1.20264 13.3535 1.55453 12.3668 2.21382C11.3801 2.87311 10.611 3.81018 10.1569 4.90654C9.7028 6.00289 9.58398 7.20929 9.81549 8.37318C10.047 9.53706 10.6184 10.6062 11.4576 11.4453C12.2967 12.2844 13.3658 12.8558 14.5297 13.0873C15.6935 13.3189 16.8999 13.2 17.9963 12.7459C19.0927 12.2918 20.0297 11.5228 20.689 10.5361C21.3483 9.54936 21.7002 8.38932 21.7002 7.20264C21.6971 5.61227 21.064 4.08792 19.9395 2.96336C18.8149 1.83881 17.2906 1.20569 15.7002 1.20264V1.20264ZM18.931 7.66417H15.7002C15.5778 7.66417 15.4604 7.61555 15.3738 7.52899C15.2873 7.44244 15.2387 7.32504 15.2387 7.20264V3.97187C15.2387 3.84946 15.2873 3.73207 15.3738 3.64551C15.4604 3.55895 15.5778 3.51033 15.7002 3.51033C15.8226 3.51033 15.94 3.55895 16.0266 3.64551C16.1131 3.73207 16.1617 3.84946 16.1617 3.97187V6.7411H18.931C19.0534 6.7411 19.1708 6.78972 19.2573 6.87628C19.3439 6.96283 19.3925 7.08023 19.3925 7.20264C19.3925 7.32504 19.3439 7.44244 19.2573 7.52899C19.1708 7.61555 19.0534 7.66417 18.931 7.66417Z" fill="#AEB9E1"/>
<path d="M29.115 11.2026H28.007L31.2116 2.47536H32.3025L35.507 11.2026H34.3991L31.7911 3.85605H31.7229L29.115 11.2026ZM29.5241 7.79355H33.99V8.73105H29.5241V7.79355ZM37.7357 7.26514V11.2026H36.73V4.65718H37.7016V5.67991H37.7868C37.9403 5.34752 38.1732 5.08048 38.4857 4.87877C38.7982 4.67423 39.2016 4.57195 39.6959 4.57195C40.1391 4.57195 40.5269 4.66286 40.8593 4.84468C41.1917 5.02366 41.4502 5.29639 41.6349 5.66286C41.8195 6.0265 41.9118 6.48673 41.9118 7.04355V11.2026H40.9062V7.11173C40.9062 6.59752 40.7726 6.19695 40.5056 5.91002C40.2385 5.62025 39.8721 5.47536 39.4062 5.47536C39.0851 5.47536 38.7982 5.54497 38.5454 5.68417C38.2954 5.82338 38.0979 6.0265 37.953 6.29355C37.8081 6.56059 37.7357 6.88445 37.7357 7.26514ZM46.4086 11.339C45.8177 11.339 45.2993 11.1984 44.8532 10.9171C44.4101 10.6359 44.0635 10.2424 43.8135 9.73673C43.5663 9.23105 43.4427 8.64014 43.4427 7.964C43.4427 7.28218 43.5663 6.68701 43.8135 6.17849C44.0635 5.66997 44.4101 5.27508 44.8532 4.99383C45.2993 4.71258 45.8177 4.57195 46.4086 4.57195C46.9996 4.57195 47.5166 4.71258 47.9598 4.99383C48.4058 5.27508 48.7524 5.66997 48.9996 6.17849C49.2496 6.68701 49.3746 7.28218 49.3746 7.964C49.3746 8.64014 49.2496 9.23105 48.9996 9.73673C48.7524 10.2424 48.4058 10.6359 47.9598 10.9171C47.5166 11.1984 46.9996 11.339 46.4086 11.339ZM46.4086 10.4356C46.8575 10.4356 47.2268 10.3205 47.5166 10.0904C47.8064 9.86031 48.0209 9.55775 48.1601 9.18275C48.2993 8.80775 48.3689 8.4015 48.3689 7.964C48.3689 7.5265 48.2993 7.11883 48.1601 6.74099C48.0209 6.36315 47.8064 6.05775 47.5166 5.8248C47.2268 5.59184 46.8575 5.47536 46.4086 5.47536C45.9598 5.47536 45.5905 5.59184 45.3007 5.8248C45.0109 6.05775 44.7964 6.36315 44.6572 6.74099C44.518 7.11883 44.4484 7.5265 44.4484 7.964C44.4484 8.4015 44.518 8.80775 44.6572 9.18275C44.7964 9.55775 45.0109 9.86031 45.3007 10.0904C45.5905 10.3205 45.9598 10.4356 46.4086 10.4356ZM50.9097 11.2026V4.65718H51.8813V5.67991H51.9665C52.1029 5.33048 52.3231 5.05917 52.627 4.86599C52.931 4.66997 53.2961 4.57195 53.7222 4.57195C54.154 4.57195 54.5134 4.66997 54.8003 4.86599C55.0901 5.05917 55.316 5.33048 55.4779 5.67991H55.5461C55.7137 5.34184 55.9651 5.07338 56.3003 4.87451C56.6356 4.67281 57.0376 4.57195 57.5063 4.57195C58.0915 4.57195 58.5702 4.75519 58.9424 5.12167C59.3145 5.48531 59.5006 6.05207 59.5006 6.82195V11.2026H58.4949V6.82195C58.4949 6.339 58.3628 5.99383 58.0986 5.78644C57.8344 5.57906 57.5233 5.47536 57.1654 5.47536C56.7052 5.47536 56.3486 5.61457 56.0958 5.89298C55.843 6.16855 55.7165 6.51798 55.7165 6.94127V11.2026H54.6938V6.71968C54.6938 6.34752 54.5731 6.04781 54.3316 5.82053C54.0901 5.59042 53.779 5.47536 53.3983 5.47536C53.137 5.47536 52.8927 5.54497 52.6654 5.68417C52.441 5.82338 52.2591 6.01656 52.1199 6.26372C51.9836 6.50803 51.9154 6.7907 51.9154 7.11173V11.2026H50.9097ZM63.2655 11.356C62.8508 11.356 62.4743 11.2779 62.1363 11.1217C61.7982 10.9626 61.5297 10.7339 61.3309 10.4356C61.132 10.1345 61.0326 9.77082 61.0326 9.34468C61.0326 8.96968 61.1064 8.6657 61.2542 8.43275C61.4019 8.19695 61.5993 8.0123 61.8465 7.87877C62.0937 7.74525 62.3664 7.64582 62.6647 7.58048C62.9658 7.5123 63.2684 7.45832 63.5724 7.41855C63.9701 7.36741 64.2925 7.32906 64.5397 7.30349C64.7897 7.27508 64.9715 7.2282 65.0851 7.16286C65.2016 7.09752 65.2599 6.98389 65.2599 6.82195V6.78786C65.2599 6.36741 65.1448 6.0407 64.9147 5.80775C64.6874 5.5748 64.3422 5.45832 63.8792 5.45832C63.3991 5.45832 63.0226 5.56343 62.7499 5.77366C62.4772 5.98389 62.2854 6.20832 62.1746 6.44695L61.2201 6.10605C61.3905 5.70832 61.6178 5.39866 61.9019 5.17707C62.1888 4.95264 62.5013 4.79639 62.8394 4.70832C63.1803 4.61741 63.5155 4.57195 63.8451 4.57195C64.0553 4.57195 64.2968 4.59752 64.5695 4.64866C64.8451 4.69695 65.1107 4.79781 65.3664 4.95122C65.6249 5.10463 65.8394 5.33616 66.0099 5.64582C66.1803 5.95548 66.2655 6.37025 66.2655 6.89014V11.2026H65.2599V10.3163H65.2087C65.1405 10.4583 65.0269 10.6103 64.8678 10.7722C64.7087 10.9342 64.4971 11.072 64.2329 11.1856C63.9687 11.2992 63.6462 11.356 63.2655 11.356ZM63.4189 10.4526C63.8167 10.4526 64.1519 10.3745 64.4246 10.2183C64.7002 10.062 64.9076 9.86031 65.0468 9.61315C65.1888 9.36599 65.2599 9.10605 65.2599 8.83332V7.91286C65.2172 7.964 65.1235 8.01088 64.9786 8.05349C64.8366 8.09326 64.6718 8.12877 64.4843 8.16002C64.2996 8.18843 64.1192 8.214 63.9431 8.23673C63.7698 8.25661 63.6292 8.27366 63.5212 8.28786C63.2599 8.32195 63.0155 8.37735 62.7883 8.45406C62.5638 8.52792 62.382 8.64014 62.2428 8.7907C62.1064 8.93843 62.0383 9.14014 62.0383 9.39582C62.0383 9.74525 62.1675 10.0095 62.426 10.1884C62.6874 10.3646 63.0184 10.4526 63.4189 10.4526ZM69.1068 2.47536V11.2026H68.1011V2.47536H69.1068ZM71.5965 13.6572C71.426 13.6572 71.2741 13.643 71.1405 13.6146C71.007 13.589 70.9147 13.5634 70.8635 13.5379L71.1192 12.6515C71.3635 12.714 71.5795 12.7367 71.767 12.7197C71.9545 12.7026 72.1206 12.6188 72.2655 12.4683C72.4133 12.3205 72.5482 12.0805 72.6704 11.7481L72.8579 11.2367L70.4374 4.65718H71.5283L73.3351 9.87309H73.4033L75.2101 4.65718H76.301L73.5226 12.1572C73.3976 12.4953 73.2428 12.7751 73.0582 12.9967C72.8735 13.2211 72.659 13.3873 72.4147 13.4953C72.1732 13.6032 71.9005 13.6572 71.5965 13.6572ZM81.4978 2.47536L84.0887 9.82195H84.191L86.7819 2.47536H87.8898L84.6853 11.2026H83.5944L80.3898 2.47536H81.4978ZM91.1626 11.339C90.5716 11.339 90.0532 11.1984 89.6072 10.9171C89.164 10.6359 88.8174 10.2424 88.5674 9.73673C88.3202 9.23105 88.1966 8.64014 88.1966 7.964C88.1966 7.28218 88.3202 6.68701 88.5674 6.17849C88.8174 5.66997 89.164 5.27508 89.6072 4.99383C90.0532 4.71258 90.5716 4.57195 91.1626 4.57195C91.7535 4.57195 92.2705 4.71258 92.7137 4.99383C93.1597 5.27508 93.5063 5.66997 93.7535 6.17849C94.0035 6.68701 94.1285 7.28218 94.1285 7.964C94.1285 8.64014 94.0035 9.23105 93.7535 9.73673C93.5063 10.2424 93.1597 10.6359 92.7137 10.9171C92.2705 11.1984 91.7535 11.339 91.1626 11.339ZM91.1626 10.4356C91.6114 10.4356 91.9807 10.3205 92.2705 10.0904C92.5603 9.86031 92.7748 9.55775 92.914 9.18275C93.0532 8.80775 93.1228 8.4015 93.1228 7.964C93.1228 7.5265 93.0532 7.11883 92.914 6.74099C92.7748 6.36315 92.5603 6.05775 92.2705 5.8248C91.9807 5.59184 91.6114 5.47536 91.1626 5.47536C90.7137 5.47536 90.3444 5.59184 90.0546 5.8248C89.7648 6.05775 89.5503 6.36315 89.4111 6.74099C89.2719 7.11883 89.2023 7.5265 89.2023 7.964C89.2023 8.4015 89.2719 8.80775 89.4111 9.18275C89.5503 9.55775 89.7648 9.86031 90.0546 10.0904C90.3444 10.3205 90.7137 10.4356 91.1626 10.4356ZM96.6693 2.47536V11.2026H95.6636V2.47536H96.6693ZM102.636 8.5265V4.65718H103.642V11.2026H102.636V10.0947H102.568C102.415 10.4271 102.176 10.7097 101.852 10.9427C101.528 11.1728 101.119 11.2879 100.625 11.2879C100.216 11.2879 99.8522 11.1984 99.534 11.0194C99.2158 10.8376 98.9658 10.5649 98.784 10.2012C98.6022 9.83474 98.5113 9.37309 98.5113 8.81627V4.65718H99.517V8.74809C99.517 9.22536 99.6505 9.60605 99.9175 9.89014C100.187 10.1742 100.531 10.3163 100.949 10.3163C101.199 10.3163 101.453 10.2524 101.712 10.1245C101.973 9.99667 102.192 9.80065 102.368 9.53644C102.547 9.27224 102.636 8.93559 102.636 8.5265ZM105.484 11.2026V4.65718H106.456V5.67991H106.541C106.677 5.33048 106.897 5.05917 107.201 4.86599C107.505 4.66997 107.87 4.57195 108.296 4.57195C108.728 4.57195 109.088 4.66997 109.375 4.86599C109.664 5.05917 109.89 5.33048 110.052 5.67991H110.12C110.288 5.34184 110.539 5.07338 110.875 4.87451C111.21 4.67281 111.612 4.57195 112.081 4.57195C112.666 4.57195 113.144 4.75519 113.517 5.12167C113.889 5.48531 114.075 6.05207 114.075 6.82195V11.2026H113.069V6.82195C113.069 6.339 112.937 5.99383 112.673 5.78644C112.409 5.57906 112.098 5.47536 111.74 5.47536C111.279 5.47536 110.923 5.61457 110.67 5.89298C110.417 6.16855 110.291 6.51798 110.291 6.94127V11.2026H109.268V6.71968C109.268 6.34752 109.147 6.04781 108.906 5.82053C108.664 5.59042 108.353 5.47536 107.973 5.47536C107.711 5.47536 107.467 5.54497 107.24 5.68417C107.015 5.82338 106.833 6.01656 106.694 6.26372C106.558 6.50803 106.49 6.7907 106.49 7.11173V11.2026H105.484ZM118.658 11.339C118.027 11.339 117.483 11.1998 117.026 10.9214C116.571 10.6401 116.22 10.2481 115.973 9.74525C115.729 9.23957 115.607 8.6515 115.607 7.98105C115.607 7.31059 115.729 6.71968 115.973 6.20832C116.22 5.69411 116.564 5.29355 117.005 5.00661C117.448 4.71684 117.965 4.57195 118.556 4.57195C118.897 4.57195 119.233 4.62877 119.566 4.74241C119.898 4.85605 120.201 5.0407 120.473 5.29639C120.746 5.54923 120.963 5.88445 121.125 6.30207C121.287 6.71968 121.368 7.23389 121.368 7.84468V8.27082H116.323V7.4015H120.345C120.345 7.03218 120.272 6.70264 120.124 6.41286C119.979 6.12309 119.772 5.8944 119.502 5.72678C119.235 5.55917 118.919 5.47536 118.556 5.47536C118.155 5.47536 117.809 5.5748 117.516 5.77366C117.226 5.96968 117.003 6.22536 116.847 6.5407C116.691 6.85605 116.612 7.19411 116.612 7.55491V8.13445C116.612 8.62877 116.698 9.04781 116.868 9.39156C117.041 9.73247 117.282 9.99241 117.588 10.1714C117.895 10.3475 118.252 10.4356 118.658 10.4356C118.922 10.4356 119.161 10.3987 119.374 10.3248C119.59 10.2481 119.776 10.1345 119.932 9.98389C120.088 9.83048 120.209 9.64014 120.294 9.41286L121.266 9.68559C121.164 10.0151 120.992 10.3049 120.75 10.5549C120.509 10.8021 120.21 10.9953 119.855 11.1345C119.5 11.2708 119.101 11.339 118.658 11.339ZM125.932 3.41286V2.47536H132.478V3.41286H129.733V11.2026H128.676V3.41286H125.932ZM133.293 11.2026V4.65718H134.264V5.64582H134.332C134.452 5.32195 134.668 5.05917 134.98 4.85747C135.293 4.65576 135.645 4.55491 136.037 4.55491C136.111 4.55491 136.203 4.55633 136.314 4.55917C136.425 4.56201 136.508 4.56627 136.565 4.57195V5.59468C136.531 5.58616 136.453 5.57338 136.331 5.55633C136.212 5.53644 136.085 5.5265 135.952 5.5265C135.633 5.5265 135.349 5.59326 135.099 5.72678C134.852 5.85747 134.656 6.03928 134.511 6.27224C134.369 6.50235 134.298 6.76514 134.298 7.06059V11.2026H133.293ZM140.302 11.339C139.672 11.339 139.128 11.1998 138.67 10.9214C138.216 10.6401 137.865 10.2481 137.618 9.74525C137.373 9.23957 137.251 8.6515 137.251 7.98105C137.251 7.31059 137.373 6.71968 137.618 6.20832C137.865 5.69411 138.209 5.29355 138.649 5.00661C139.092 4.71684 139.609 4.57195 140.2 4.57195C140.541 4.57195 140.878 4.62877 141.21 4.74241C141.543 4.85605 141.845 5.0407 142.118 5.29639C142.391 5.54923 142.608 5.88445 142.77 6.30207C142.932 6.71968 143.013 7.23389 143.013 7.84468V8.27082H137.967V7.4015H141.99C141.99 7.03218 141.916 6.70264 141.768 6.41286C141.623 6.12309 141.416 5.8944 141.146 5.72678C140.879 5.55917 140.564 5.47536 140.2 5.47536C139.8 5.47536 139.453 5.5748 139.16 5.77366C138.871 5.96968 138.648 6.22536 138.491 6.5407C138.335 6.85605 138.257 7.19411 138.257 7.55491V8.13445C138.257 8.62877 138.342 9.04781 138.513 9.39156C138.686 9.73247 138.926 9.99241 139.233 10.1714C139.54 10.3475 139.896 10.4356 140.302 10.4356C140.567 10.4356 140.805 10.3987 141.018 10.3248C141.234 10.2481 141.42 10.1345 141.577 9.98389C141.733 9.83048 141.854 9.64014 141.939 9.41286L142.91 9.68559C142.808 10.0151 142.636 10.3049 142.395 10.5549C142.153 10.8021 141.855 10.9953 141.5 11.1345C141.145 11.2708 140.746 11.339 140.302 11.339ZM145.548 7.26514V11.2026H144.543V4.65718H145.514V5.67991H145.599C145.753 5.34752 145.986 5.08048 146.298 4.87877C146.611 4.67423 147.014 4.57195 147.508 4.57195C147.952 4.57195 148.339 4.66286 148.672 4.84468C149.004 5.02366 149.263 5.29639 149.447 5.66286C149.632 6.0265 149.724 6.48673 149.724 7.04355V11.2026H148.719V7.11173C148.719 6.59752 148.585 6.19695 148.318 5.91002C148.051 5.62025 147.685 5.47536 147.219 5.47536C146.898 5.47536 146.611 5.54497 146.358 5.68417C146.108 5.82338 145.91 6.0265 145.766 6.29355C145.621 6.56059 145.548 6.88445 145.548 7.26514ZM154.034 11.339C153.488 11.339 153.007 11.2012 152.589 10.9256C152.171 10.6472 151.845 10.2552 151.609 9.74951C151.373 9.24099 151.255 8.64014 151.255 7.94695C151.255 7.25945 151.373 6.66286 151.609 6.15718C151.845 5.6515 152.173 5.26088 152.593 4.98531C153.014 4.70974 153.5 4.57195 154.051 4.57195C154.477 4.57195 154.813 4.64298 155.061 4.78502C155.311 4.92423 155.501 5.08332 155.632 5.2623C155.765 5.43843 155.869 5.58332 155.943 5.69695H156.028V2.47536H157.034V11.2026H156.062V10.197H155.943C155.869 10.3163 155.764 10.4668 155.627 10.6487C155.491 10.8276 155.296 10.9881 155.044 11.1302C154.791 11.2694 154.454 11.339 154.034 11.339ZM154.17 10.4356C154.573 10.4356 154.914 10.3305 155.193 10.1203C155.471 9.90718 155.683 9.61315 155.828 9.23815C155.973 8.86031 156.045 8.42423 156.045 7.92991C156.045 7.44127 155.974 7.01372 155.832 6.64724C155.69 6.27792 155.48 5.99099 155.201 5.78644C154.923 5.57906 154.579 5.47536 154.17 5.47536C153.744 5.47536 153.389 5.58474 153.105 5.80349C152.823 6.0194 152.612 6.31343 152.47 6.68559C152.331 7.05491 152.261 7.46968 152.261 7.92991C152.261 8.39582 152.332 8.81911 152.474 9.1998C152.619 9.57764 152.832 9.87877 153.113 10.1032C153.397 10.3248 153.75 10.4356 154.17 10.4356Z" fill="#AEB9E1"/>
<path d="M10.7082 43.8086H22.6362V41.1686H14.4762C15.6042 37.8566 22.4442 36.5606 22.4442 31.3766C22.4442 28.2566 20.1642 26.2886 16.7322 26.2886C13.0842 26.2886 10.6362 28.5446 10.7562 32.0006H13.7082C13.5882 30.0326 14.7642 28.8806 16.5402 28.8806C18.2202 28.8806 19.3482 29.8886 19.3482 31.5446C19.3482 35.6486 10.7082 36.3926 10.7082 43.3526V43.8086ZM31.0118 44.0246C34.8998 44.0246 37.3238 41.6246 37.3238 38.0246C37.3238 34.6166 35.1638 32.2166 31.6838 32.2166C30.2678 32.2166 28.9478 32.7446 28.2518 33.5366L28.1318 33.4886L28.3238 29.1206H36.3638V26.5046H25.6838L25.2518 36.5366H28.0838C28.5158 35.4806 29.5478 34.7126 31.0358 34.7126C33.0278 34.7126 34.2758 36.0326 34.2758 38.0966C34.2758 40.0406 33.0758 41.4086 31.0358 41.4086C29.1638 41.4086 27.9398 40.2566 27.9158 38.5526H24.8918C24.9398 41.8166 27.3398 44.0246 31.0118 44.0246ZM43.3769 43.8086H46.6169C46.6169 36.7046 48.9689 32.8646 51.8969 28.6646V26.5046H39.5609V32.3126H41.9609V29.1206H48.3209C45.8249 32.7206 43.3769 37.0406 43.3769 43.8086Z" fill="white"/>
<rect x="59.7002" y="26.8086" width="45" height="18" rx="2" fill="#05C168" fill-opacity="0.2"/>
<rect x="60.0002" y="27.1086" width="44.4" height="17.4" rx="1.7" stroke="#05C168" stroke-opacity="0.2" stroke-width="0.6"/>
<path d="M65.7402 38.8086H66.7702V31.5986H65.7802C65.7102 32.3186 65.2402 32.7986 64.2802 32.7986H64.0002V33.5886H65.7402V38.8086ZM70.8425 38.8886C72.3325 38.8886 73.3525 37.9786 73.3525 36.4586C73.3525 35.0286 72.4525 34.0886 71.1225 34.0886C70.2325 34.0886 69.5625 34.5286 69.3325 35.1986H69.2825C69.2925 33.5286 69.6325 32.4086 70.9425 32.4086C71.6525 32.4086 72.1825 32.7686 72.2825 33.3986H73.2825C73.1625 32.2486 72.3125 31.5086 70.9425 31.5086C69.1625 31.5086 68.2425 32.7686 68.2425 35.4786C68.2425 37.7186 69.1425 38.8886 70.8425 38.8886ZM70.8725 37.9886C69.9925 37.9886 69.4125 37.4186 69.4125 36.4686C69.4125 35.5586 69.9625 34.8786 70.8825 34.8786C71.7425 34.8786 72.3125 35.4686 72.3125 36.4186C72.3125 37.3786 71.7425 37.9886 70.8725 37.9886ZM74.3381 38.8086H75.3681V37.7586H74.3381V38.8086ZM78.957 38.8786C80.507 38.8786 81.557 38.1086 81.557 36.8886C81.557 36.0086 81.037 35.2986 80.107 35.1886V35.1386C81.017 34.9786 81.437 34.2686 81.437 33.4786C81.437 32.3086 80.497 31.5186 78.957 31.5186C77.427 31.5186 76.487 32.2986 76.487 33.4686C76.487 34.2686 76.927 34.9686 77.827 35.1386V35.1886C76.887 35.3186 76.357 36.0586 76.357 36.8986C76.357 38.1186 77.407 38.8786 78.957 38.8786ZM78.957 34.7586C77.997 34.7586 77.547 34.2686 77.547 33.5686C77.547 32.8386 78.077 32.3786 78.957 32.3786C79.827 32.3786 80.387 32.8286 80.387 33.5686C80.387 34.2386 79.957 34.7586 78.957 34.7586ZM78.957 37.9886C78.067 37.9886 77.467 37.5386 77.467 36.7586C77.467 36.1086 77.927 35.5886 78.957 35.5886C79.977 35.5886 80.457 36.0786 80.457 36.7586C80.457 37.5186 79.877 37.9886 78.957 37.9886ZM83.601 38.8086H84.371L89.001 31.5186H88.231L83.601 38.8086ZM83.921 35.4886C84.801 35.4886 85.391 34.7886 85.391 33.5186C85.391 32.2986 84.841 31.5586 83.941 31.5586C83.041 31.5586 82.451 32.2586 82.451 33.5086C82.451 34.7386 83.001 35.4886 83.921 35.4886ZM83.931 34.8686C83.481 34.8686 83.181 34.5386 83.181 33.5186C83.181 32.4986 83.491 32.1786 83.931 32.1786C84.361 32.1786 84.661 32.4986 84.661 33.5186C84.661 34.5386 84.361 34.8686 83.931 34.8686ZM88.681 38.8486C89.561 38.8486 90.151 38.1486 90.151 36.8886C90.151 35.6586 89.601 34.9086 88.701 34.9086C87.801 34.9086 87.211 35.6186 87.211 36.8686C87.211 38.0986 87.761 38.8486 88.681 38.8486ZM88.691 38.2286C88.241 38.2286 87.941 37.8986 87.941 36.8786C87.941 35.8586 88.241 35.5386 88.691 35.5386C89.111 35.5386 89.411 35.8586 89.411 36.8786C89.411 37.9086 89.111 38.2286 88.691 38.2286Z" fill="#14CA74"/>
<path d="M94.0339 38.4751L99.3672 33.1418" stroke="#14CA74" stroke-width="0.8" stroke-linecap="round" stroke-linejoin="round"/>
<path d="M99.3672 38.1699V33.1416H94.3389" stroke="#14CA74" stroke-width="0.8" stroke-linecap="round" stroke-linejoin="round"/>
<g filter="url(#filter0_d_214_4023)">
<rect x="255" y="22" width="90" height="27" rx="4" fill="#0A1330" shape-rendering="crispEdges"/>
<rect x="255.3" y="22.3" width="89.4" height="26.4" rx="3.7" stroke="#0B1739" stroke-width="0.6" shape-rendering="crispEdges"/>
<rect x="264.465" y="32.8789" width="9.06956" height="9.12111" rx="1" stroke="#AEB9E1" stroke-width="0.8"/>
<path d="M264.465 35.9272H273.534V40.9994C273.534 41.5517 273.087 41.9994 272.534 41.9994H265.465C264.913 41.9994 264.465 41.5517 264.465 40.9994V35.9272Z" fill="#AEB9E1" stroke="#AEB9E1" stroke-width="0.8"/>
<path d="M271.516 32V33.6537" stroke="#AEB9E1" stroke-width="0.8" stroke-linecap="round" stroke-linejoin="round"/>
<path d="M266.555 32V33.6537" stroke="#AEB9E1" stroke-width="0.8" stroke-linecap="round" stroke-linejoin="round"/>
<path d="M279.14 40.08C280.39 40.08 281.19 39.5 281.19 38.1V32.71H280.11V38.01C280.11 38.82 279.7 39.17 278.94 39.17C278.61 39.17 278.34 39.09 278.15 38.98V39.87C278.37 39.99 278.74 40.08 279.14 40.08ZM284.592 40.09C285.482 40.09 286.142 39.63 286.392 38.95H286.452V40H287.482V34.71H286.492L286.452 35.75H286.392C286.142 35.07 285.482 34.62 284.592 34.62C283.302 34.62 282.432 35.58 282.432 37.35C282.432 39.12 283.302 40.09 284.592 40.09ZM284.952 39.24C284.072 39.24 283.492 38.59 283.492 37.35C283.492 36.1 284.072 35.46 284.952 35.46C285.932 35.46 286.442 36.24 286.442 37.05V37.65C286.442 38.47 285.932 39.24 284.952 39.24ZM288.925 40H289.945V37.11C289.945 36.2 290.515 35.48 291.425 35.48C292.265 35.48 292.655 35.99 292.655 37.07V40H293.685V36.86C293.685 35.24 292.875 34.63 291.795 34.63C291.015 34.63 290.315 35.01 290.005 35.76H289.945L289.905 34.71H288.925V40ZM297.024 40H301.864V39.09H298.314C298.674 37.53 301.784 36.99 301.784 34.79C301.784 33.53 300.864 32.7 299.464 32.7C297.994 32.7 297.004 33.62 297.044 35.03H298.054C298.004 34.13 298.574 33.59 299.404 33.59C300.194 33.59 300.714 34.08 300.714 34.84C300.714 36.68 297.024 37.01 297.024 39.82V40ZM305.326 40.08C306.876 40.08 307.926 38.79 307.926 36.39C307.926 34.05 306.926 32.71 305.336 32.71C303.756 32.71 302.696 33.99 302.696 36.38C302.696 38.73 303.716 40.08 305.326 40.08ZM305.316 39.2C304.336 39.2 303.736 38.37 303.736 36.39C303.736 34.4 304.336 33.58 305.316 33.58C306.296 33.58 306.896 34.41 306.896 36.39C306.896 38.37 306.296 39.2 305.316 39.2ZM308.713 40H313.553V39.09H310.003C310.363 37.53 313.473 36.99 313.473 34.79C313.473 33.53 312.553 32.7 311.153 32.7C309.683 32.7 308.693 33.62 308.733 35.03H309.743C309.693 34.13 310.263 33.59 311.093 33.59C311.883 33.59 312.403 34.08 312.403 34.84C312.403 36.68 308.713 37.01 308.713 39.82V40ZM317.517 40H318.547V38.23H319.527V37.38H318.547V32.79H317.207L313.977 37.43V38.23H317.517V40ZM315.027 37.38L317.517 33.83V37.38H315.027Z" fill="#AEB9E1"/>
<g opacity="0.8">
<path d="M350 35.5L353 38.5L356 35.5" stroke="#AEB9E1" stroke-linecap="round" stroke-linejoin="round"/>
</g>
</g>
<path d="M25.3535 168.833L290.349 168.833" stroke="#0B1739" stroke-width="0.6"/>
<path d="M25.3535 136.447L290.349 136.447" stroke="#0B1739" stroke-width="0.6"/>
<path d="M25.3535 104.06L290.349 104.06" stroke="#0B1739" stroke-width="0.6"/>
<path d="M25.3535 71.6733L290.349 71.6733" stroke="#0B1739" stroke-width="0.6"/>
<path d="M94.3154 168.833L94.3154 71.6735" stroke="#0B1739" stroke-width="0.6" stroke-dasharray="5 5"/>
<path d="M35.124 168.833L35.124 71.6735" stroke="#0B1739" stroke-width="0.6" stroke-dasharray="5 5"/>
<path d="M155.318 168.833L155.318 71.6735" stroke="#0B1739" stroke-width="0.6" stroke-dasharray="5 5"/>
<path d="M217.083 168.833L217.083 71.6735" stroke="#0B1739" stroke-width="0.6" stroke-dasharray="5 5"/>
<path d="M278.847 168.833L278.847 71.6735" stroke="#0B1739" stroke-width="0.6" stroke-dasharray="5 5"/>
<path opacity="0.2" d="M73.103 137.678L35.124 168.833H278.848H381V120.32L357.292 99.8463L303.638 114.979L278.848 126.996L257.914 114.979L242.065 82.4883L222.926 94.0603H173.284L152.65 119.875H128.427L108.391 147.469L91.0459 153.255L73.103 137.678Z" fill="url(#paint0_linear_214_4023)"/>
<path d="M35.124 168.833L73.103 137.678L91.0459 153.255L108.391 147.469L128.427 119.875H152.65L173.284 94.0603H222.926L242.065 82.4883L257.914 114.979L278.848 126.996L303.015 114.979L357.292 99.4012L380.688 119.875" stroke="#00C2FF" stroke-width="1.2" stroke-linecap="round" stroke-linejoin="round"/>
<path d="M14.8439 171.533C16.0839 171.533 16.9239 170.501 16.9239 168.581C16.9239 166.709 16.1239 165.637 14.8519 165.637C13.5879 165.637 12.7399 166.661 12.7399 168.573C12.7399 170.453 13.5559 171.533 14.8439 171.533ZM14.8359 170.829C14.0519 170.829 13.5719 170.165 13.5719 168.581C13.5719 166.989 14.0519 166.333 14.8359 166.333C15.6199 166.333 16.0999 166.997 16.0999 168.581C16.0999 170.165 15.6199 170.829 14.8359 170.829Z" fill="#AEB9E1"/>
<path d="M3.91686 138.534H4.74086V132.766H3.94886C3.89286 133.342 3.51686 133.726 2.74886 133.726H2.52486V134.358H3.91686V138.534ZM7.92667 138.598C9.16667 138.598 10.0067 137.566 10.0067 135.646C10.0067 133.774 9.20667 132.702 7.93467 132.702C6.67067 132.702 5.82267 133.726 5.82267 135.638C5.82267 137.518 6.63867 138.598 7.92667 138.598ZM7.91867 137.894C7.13467 137.894 6.65467 137.23 6.65467 135.646C6.65467 134.054 7.13467 133.398 7.91867 133.398C8.70267 133.398 9.18267 134.062 9.18267 135.646C9.18267 137.23 8.70267 137.894 7.91867 137.894ZM12.6767 138.598C13.9167 138.598 14.7567 137.566 14.7567 135.646C14.7567 133.774 13.9567 132.702 12.6847 132.702C11.4207 132.702 10.5727 133.726 10.5727 135.638C10.5727 137.518 11.3887 138.598 12.6767 138.598ZM12.6687 137.894C11.8847 137.894 11.4047 137.23 11.4047 135.646C11.4047 134.054 11.8847 133.398 12.6687 133.398C13.4527 133.398 13.9327 134.062 13.9327 135.646C13.9327 137.23 13.4527 137.894 12.6687 137.894Z" fill="#AEB9E1"/>
<path d="M0.485484 105.598H4.35748V104.87H1.51748C1.80548 103.622 4.29348 103.19 4.29348 101.43C4.29348 100.422 3.55748 99.7581 2.43748 99.7581C1.26148 99.7581 0.469484 100.494 0.501484 101.622H1.30948C1.26948 100.902 1.72548 100.47 2.38948 100.47C3.02148 100.47 3.43748 100.862 3.43748 101.47C3.43748 102.942 0.485484 103.206 0.485484 105.454V105.598ZM7.13505 105.67C8.39105 105.67 9.19105 104.87 9.19105 103.678C9.19105 102.542 8.46305 101.75 7.31905 101.75C6.79905 101.75 6.33505 101.958 6.10305 102.278L6.05505 102.262L6.13505 100.55H8.88705V99.8301H5.40705L5.27105 103.102H6.05505C6.21505 102.718 6.59905 102.446 7.15105 102.446C7.87105 102.446 8.34305 102.926 8.34305 103.71C8.34305 104.438 7.90305 104.942 7.14305 104.942C6.43905 104.942 5.98305 104.502 5.98305 103.838H5.15905C5.16705 104.934 5.93505 105.67 7.13505 105.67ZM11.9786 105.662C13.2186 105.662 14.0586 104.63 14.0586 102.71C14.0586 100.838 13.2586 99.7661 11.9866 99.7661C10.7226 99.7661 9.87461 100.79 9.87461 102.702C9.87461 104.582 10.6906 105.662 11.9786 105.662ZM11.9706 104.958C11.1866 104.958 10.7066 104.294 10.7066 102.71C10.7066 101.118 11.1866 100.462 11.9706 100.462C12.7546 100.462 13.2346 101.126 13.2346 102.71C13.2346 104.294 12.7546 104.958 11.9706 104.958Z" fill="#AEB9E1"/>
<path d="M2.38505 72.7346C3.64105 72.7346 4.44105 71.9346 4.44105 70.7426C4.44105 69.6066 3.71305 68.8146 2.56905 68.8146C2.04905 68.8146 1.58505 69.0226 1.35305 69.3426L1.30505 69.3266L1.38505 67.6146H4.13705V66.8946H0.657047L0.521047 70.1666H1.30505C1.46505 69.7826 1.84905 69.5106 2.40105 69.5106C3.12105 69.5106 3.59305 69.9906 3.59305 70.7746C3.59305 71.5026 3.15305 72.0066 2.39305 72.0066C1.68905 72.0066 1.23305 71.5666 1.23305 70.9026H0.409047C0.417047 71.9986 1.18505 72.7346 2.38505 72.7346ZM7.22861 72.7266C8.46861 72.7266 9.30861 71.6946 9.30861 69.7746C9.30861 67.9026 8.50861 66.8306 7.23661 66.8306C5.97261 66.8306 5.12461 67.8546 5.12461 69.7666C5.12461 71.6466 5.94061 72.7266 7.22861 72.7266ZM7.22061 72.0226C6.43661 72.0226 5.95661 71.3586 5.95661 69.7746C5.95661 68.1826 6.43661 67.5266 7.22061 67.5266C8.00461 67.5266 8.48461 68.1906 8.48461 69.7746C8.48461 71.3586 8.00461 72.0226 7.22061 72.0226ZM11.9786 72.7266C13.2186 72.7266 14.0586 71.6946 14.0586 69.7746C14.0586 67.9026 13.2586 66.8306 11.9866 66.8306C10.7226 66.8306 9.87461 67.8546 9.87461 69.7666C9.87461 71.6466 10.6906 72.7266 11.9786 72.7266ZM11.9706 72.0226C11.1866 72.0226 10.7066 71.3586 10.7066 69.7746C10.7066 68.1826 11.1866 67.5266 11.9706 67.5266C12.7546 67.5266 13.2346 68.1906 13.2346 69.7746C13.2346 71.3586 12.7546 72.0226 11.9706 72.0226Z" fill="#AEB9E1"/>
<path d="M31.1425 180.585C32.1425 180.585 32.7825 180.121 32.7825 179.001V174.689H31.9185V178.929C31.9185 179.577 31.5905 179.857 30.9825 179.857C30.7185 179.857 30.5025 179.793 30.3505 179.705V180.417C30.5265 180.513 30.8225 180.585 31.1425 180.585ZM35.5043 180.593C36.2163 180.593 36.7443 180.225 36.9443 179.681H36.9923V180.521H37.8163V176.289H37.0243L36.9923 177.121H36.9443C36.7443 176.577 36.2163 176.217 35.5043 176.217C34.4723 176.217 33.7763 176.985 33.7763 178.401C33.7763 179.817 34.4723 180.593 35.5043 180.593ZM35.7923 179.913C35.0883 179.913 34.6243 179.393 34.6243 178.401C34.6243 177.401 35.0883 176.889 35.7923 176.889C36.5763 176.889 36.9843 177.513 36.9843 178.161V178.641C36.9843 179.297 36.5763 179.913 35.7923 179.913ZM38.9705 180.521H39.7865V178.209C39.7865 177.481 40.2425 176.905 40.9705 176.905C41.6425 176.905 41.9545 177.313 41.9545 178.177V180.521H42.7785V178.009C42.7785 176.713 42.1305 176.225 41.2665 176.225C40.6425 176.225 40.0825 176.529 39.8345 177.129H39.7865L39.7545 176.289H38.9705V180.521ZM46.7375 180.521H47.5615V174.753H46.7695C46.7135 175.329 46.3375 175.713 45.5695 175.713H45.3455V176.345H46.7375V180.521Z" fill="#AEB9E1"/>
<path d="M125.142 180.585C126.142 180.585 126.782 180.121 126.782 179.001V174.689H125.918V178.929C125.918 179.577 125.59 179.857 124.982 179.857C124.718 179.857 124.502 179.793 124.35 179.705V180.417C124.526 180.513 124.822 180.585 125.142 180.585ZM129.504 180.593C130.216 180.593 130.744 180.225 130.944 179.681H130.992V180.521H131.816V176.289H131.024L130.992 177.121H130.944C130.744 176.577 130.216 176.217 129.504 176.217C128.472 176.217 127.776 176.985 127.776 178.401C127.776 179.817 128.472 180.593 129.504 180.593ZM129.792 179.913C129.088 179.913 128.624 179.393 128.624 178.401C128.624 177.401 129.088 176.889 129.792 176.889C130.576 176.889 130.984 177.513 130.984 178.161V178.641C130.984 179.297 130.576 179.913 129.792 179.913ZM132.971 180.521H133.787V178.209C133.787 177.481 134.243 176.905 134.971 176.905C135.643 176.905 135.955 177.313 135.955 178.177V180.521H136.779V178.009C136.779 176.713 136.131 176.225 135.267 176.225C134.643 176.225 134.083 176.529 133.835 177.129H133.787L133.755 176.289H132.971V180.521ZM141.537 180.577C142.777 180.577 143.617 179.961 143.617 178.985C143.617 178.281 143.201 177.713 142.457 177.625V177.585C143.185 177.457 143.521 176.889 143.521 176.257C143.521 175.321 142.769 174.689 141.537 174.689C140.313 174.689 139.561 175.313 139.561 176.249C139.561 176.889 139.913 177.449 140.633 177.585V177.625C139.881 177.729 139.457 178.321 139.457 178.993C139.457 179.969 140.297 180.577 141.537 180.577ZM141.537 177.281C140.769 177.281 140.409 176.889 140.409 176.329C140.409 175.745 140.833 175.377 141.537 175.377C142.233 175.377 142.681 175.737 142.681 176.329C142.681 176.865 142.337 177.281 141.537 177.281ZM141.537 179.865C140.825 179.865 140.345 179.505 140.345 178.881C140.345 178.361 140.713 177.945 141.537 177.945C142.353 177.945 142.737 178.337 142.737 178.881C142.737 179.489 142.273 179.865 141.537 179.865Z" fill="#AEB9E1"/>
<path d="M220.142 180.585C221.142 180.585 221.782 180.121 221.782 179.001V174.689H220.918V178.929C220.918 179.577 220.59 179.857 219.982 179.857C219.718 179.857 219.502 179.793 219.35 179.705V180.417C219.526 180.513 219.822 180.585 220.142 180.585ZM224.504 180.593C225.216 180.593 225.744 180.225 225.944 179.681H225.992V180.521H226.816V176.289H226.024L225.992 177.121H225.944C225.744 176.577 225.216 176.217 224.504 176.217C223.472 176.217 222.776 176.985 222.776 178.401C222.776 179.817 223.472 180.593 224.504 180.593ZM224.792 179.913C224.088 179.913 223.624 179.393 223.624 178.401C223.624 177.401 224.088 176.889 224.792 176.889C225.576 176.889 225.984 177.513 225.984 178.161V178.641C225.984 179.297 225.576 179.913 224.792 179.913ZM227.971 180.521H228.787V178.209C228.787 177.481 229.243 176.905 229.971 176.905C230.643 176.905 230.955 177.313 230.955 178.177V180.521H231.779V178.009C231.779 176.713 231.131 176.225 230.267 176.225C229.643 176.225 229.083 176.529 228.835 177.129H228.787L228.755 176.289H227.971V180.521ZM235.737 180.521H236.561V174.753H235.769C235.713 175.329 235.337 175.713 234.569 175.713H234.345V176.345H235.737V180.521ZM239.819 180.585C241.011 180.585 241.827 179.857 241.827 178.641C241.827 177.497 241.107 176.745 240.043 176.745C239.331 176.745 238.795 177.097 238.611 177.633H238.571C238.579 176.297 238.851 175.401 239.899 175.401C240.467 175.401 240.891 175.689 240.971 176.193H241.771C241.675 175.273 240.995 174.681 239.899 174.681C238.475 174.681 237.739 175.689 237.739 177.857C237.739 179.649 238.459 180.585 239.819 180.585ZM239.843 179.865C239.139 179.865 238.675 179.409 238.675 178.649C238.675 177.921 239.115 177.377 239.851 177.377C240.539 177.377 240.995 177.849 240.995 178.609C240.995 179.377 240.539 179.865 239.843 179.865Z" fill="#AEB9E1"/>
<path d="M318.142 180.585C319.142 180.585 319.782 180.121 319.782 179.001V174.689H318.918V178.929C318.918 179.577 318.59 179.857 317.982 179.857C317.718 179.857 317.502 179.793 317.35 179.705V180.417C317.526 180.513 317.822 180.585 318.142 180.585ZM322.504 180.593C323.216 180.593 323.744 180.225 323.944 179.681H323.992V180.521H324.816V176.289H324.024L323.992 177.121H323.944C323.744 176.577 323.216 176.217 322.504 176.217C321.472 176.217 320.776 176.985 320.776 178.401C320.776 179.817 321.472 180.593 322.504 180.593ZM322.792 179.913C322.088 179.913 321.624 179.393 321.624 178.401C321.624 177.401 322.088 176.889 322.792 176.889C323.576 176.889 323.984 177.513 323.984 178.161V178.641C323.984 179.297 323.576 179.913 322.792 179.913ZM325.971 180.521H326.787V178.209C326.787 177.481 327.243 176.905 327.971 176.905C328.643 176.905 328.955 177.313 328.955 178.177V180.521H329.779V178.009C329.779 176.713 329.131 176.225 328.267 176.225C327.643 176.225 327.083 176.529 326.835 177.129H326.787L326.755 176.289H325.971V180.521ZM332.449 180.521H336.321V179.793H333.481C333.769 178.545 336.257 178.113 336.257 176.353C336.257 175.345 335.521 174.681 334.401 174.681C333.225 174.681 332.433 175.417 332.465 176.545H333.273C333.233 175.825 333.689 175.393 334.353 175.393C334.985 175.393 335.401 175.785 335.401 176.393C335.401 177.865 332.449 178.129 332.449 180.377V180.521ZM339.492 180.521H340.316V179.105H341.1V178.425H340.316V174.753H339.244L336.66 178.465V179.105H339.492V180.521ZM337.5 178.425L339.492 175.585V178.425H337.5Z" fill="#AEB9E1"/>
<defs>
<filter id="filter0_d_214_4023" x="255" y="22" width="106" height="29" filterUnits="userSpaceOnUse" color-interpolation-filters="sRGB">
<feFlood flood-opacity="0" result="BackgroundImageFix"/>
<feColorMatrix in="SourceAlpha" type="matrix" values="0 0 0 0 0 0 0 0 0 0 0 0 0 0 0 0 0 0 127 0" result="hardAlpha"/>
<feOffset dx="1" dy="1"/>
<feGaussianBlur stdDeviation="0.5"/>
<feComposite in2="hardAlpha" operator="out"/>
<feColorMatrix type="matrix" values="0 0 0 0 0.06125 0 0 0 0 0.0969792 0 0 0 0 0.204167 0 0 0 0.4 0"/>
<feBlend mode="normal" in2="BackgroundImageFix" result="effect1_dropShadow_214_4023"/>
<feBlend mode="normal" in="SourceGraphic" in2="effect1_dropShadow_214_4023" result="shape"/>
</filter>
<linearGradient id="paint0_linear_214_4023" x1="156.986" y1="82.4883" x2="156.986" y2="168.833" gradientUnits="userSpaceOnUse">
<stop stop-color="#57C3FF"/>
<stop offset="1" stop-color="#57C3FF" stop-opacity="0"/>
</linearGradient>
</defs>
</svg>
