<svg width="500" height="150" viewBox="0 0 382 121" fill="none" xmlns="http://www.w3.org/2000/svg">
<path d="M25.3535 105.833L290.349 105.833" stroke="#0B1739" stroke-width="0.6"/>
<path d="M25.3535 73.4468L290.349 73.4467" stroke="#0B1739" stroke-width="0.6"/>
<path d="M25.3535 41.0601L290.349 41.06" stroke="#0B1739" stroke-width="0.6"/>
<path d="M25.3535 8.67334L290.349 8.6733" stroke="#0B1739" stroke-width="0.6"/>
<path d="M94.3154 105.833L94.3154 8.67355" stroke="#0B1739" stroke-width="0.6" stroke-dasharray="5 5"/>
<path d="M35.124 105.833L35.124 8.67355" stroke="#0B1739" stroke-width="0.6" stroke-dasharray="5 5"/>
<path d="M155.318 105.833L155.318 8.67355" stroke="#0B1739" stroke-width="0.6" stroke-dasharray="5 5"/>
<path d="M217.083 105.833L217.083 8.67355" stroke="#0B1739" stroke-width="0.6" stroke-dasharray="5 5"/>
<path d="M278.847 105.833L278.847 8.67355" stroke="#0B1739" stroke-width="0.6" stroke-dasharray="5 5"/>
<path opacity="0.2" d="M73.103 74.6777L35.124 105.833H278.848H381V57.3198L357.292 36.8463L303.638 51.9788L278.848 63.9959L257.914 51.9788L242.065 19.4883L222.926 31.0603H173.284L152.65 56.8746H128.427L108.391 84.4693L91.0459 90.2553L73.103 74.6777Z" fill="url(#paint0_linear_89_6259)"/>
<path d="M35.124 105.833L73.103 74.6777L91.0459 90.2553L108.391 84.4693L128.427 56.8746H152.65L173.284 31.0603H222.926L242.065 19.4883L257.914 51.9788L278.848 63.9959L303.015 51.9788L357.292 36.4012L380.688 56.8746" stroke="#00C2FF" stroke-width="1.2" stroke-linecap="round" stroke-linejoin="round"/>
<path d="M14.8439 108.533C16.0839 108.533 16.9239 107.501 16.9239 105.581C16.9239 103.709 16.1239 102.637 14.8519 102.637C13.5879 102.637 12.7399 103.661 12.7399 105.573C12.7399 107.453 13.5559 108.533 14.8439 108.533ZM14.8359 107.829C14.0519 107.829 13.5719 107.165 13.5719 105.581C13.5719 103.989 14.0519 103.333 14.8359 103.333C15.6199 103.333 16.0999 103.997 16.0999 105.581C16.0999 107.165 15.6199 107.829 14.8359 107.829Z" fill="#AEB9E1"/>
<path d="M3.91686 75.5337H4.74086V69.7657H3.94886C3.89286 70.3417 3.51686 70.7257 2.74886 70.7257H2.52486V71.3577H3.91686V75.5337ZM7.92667 75.5977C9.16667 75.5977 10.0067 74.5657 10.0067 72.6457C10.0067 70.7737 9.20667 69.7017 7.93467 69.7017C6.67067 69.7017 5.82267 70.7257 5.82267 72.6377C5.82267 74.5177 6.63867 75.5977 7.92667 75.5977ZM7.91867 74.8937C7.13467 74.8937 6.65467 74.2297 6.65467 72.6457C6.65467 71.0537 7.13467 70.3977 7.91867 70.3977C8.70267 70.3977 9.18267 71.0617 9.18267 72.6457C9.18267 74.2297 8.70267 74.8937 7.91867 74.8937ZM12.6767 75.5977C13.9167 75.5977 14.7567 74.5657 14.7567 72.6457C14.7567 70.7737 13.9567 69.7017 12.6847 69.7017C11.4207 69.7017 10.5727 70.7257 10.5727 72.6377C10.5727 74.5177 11.3887 75.5977 12.6767 75.5977ZM12.6687 74.8937C11.8847 74.8937 11.4047 74.2297 11.4047 72.6457C11.4047 71.0537 11.8847 70.3977 12.6687 70.3977C13.4527 70.3977 13.9327 71.0617 13.9327 72.6457C13.9327 74.2297 13.4527 74.8937 12.6687 74.8937Z" fill="#AEB9E1"/>
<path d="M0.485484 42.5981H4.35748V41.8701H1.51748C1.80548 40.6221 4.29348 40.1901 4.29348 38.4301C4.29348 37.4221 3.55748 36.7581 2.43748 36.7581C1.26148 36.7581 0.469484 37.4941 0.501484 38.6221H1.30948C1.26948 37.9021 1.72548 37.4701 2.38948 37.4701C3.02148 37.4701 3.43748 37.8621 3.43748 38.4701C3.43748 39.9421 0.485484 40.2061 0.485484 42.4541V42.5981ZM7.13505 42.6701C8.39105 42.6701 9.19105 41.8701 9.19105 40.6781C9.19105 39.5421 8.46305 38.7501 7.31905 38.7501C6.79905 38.7501 6.33505 38.9581 6.10305 39.2781L6.05505 39.2621L6.13505 37.5501H8.88705V36.8301H5.40705L5.27105 40.1021H6.05505C6.21505 39.7181 6.59905 39.4461 7.15105 39.4461C7.87105 39.4461 8.34305 39.9261 8.34305 40.7101C8.34305 41.4381 7.90305 41.9421 7.14305 41.9421C6.43905 41.9421 5.98305 41.5021 5.98305 40.8381H5.15905C5.16705 41.9341 5.93505 42.6701 7.13505 42.6701ZM11.9786 42.6621C13.2186 42.6621 14.0586 41.6301 14.0586 39.7101C14.0586 37.8381 13.2586 36.7661 11.9866 36.7661C10.7226 36.7661 9.87461 37.7901 9.87461 39.7021C9.87461 41.5821 10.6906 42.6621 11.9786 42.6621ZM11.9706 41.9581C11.1866 41.9581 10.7066 41.2941 10.7066 39.7101C10.7066 38.1181 11.1866 37.4621 11.9706 37.4621C12.7546 37.4621 13.2346 38.1261 13.2346 39.7101C13.2346 41.2941 12.7546 41.9581 11.9706 41.9581Z" fill="#AEB9E1"/>
<path d="M2.38505 9.7346C3.64105 9.7346 4.44105 8.9346 4.44105 7.7426C4.44105 6.6066 3.71305 5.8146 2.56905 5.8146C2.04905 5.8146 1.58505 6.0226 1.35305 6.3426L1.30505 6.3266L1.38505 4.6146H4.13705V3.8946H0.657047L0.521047 7.1666H1.30505C1.46505 6.7826 1.84905 6.5106 2.40105 6.5106C3.12105 6.5106 3.59305 6.9906 3.59305 7.7746C3.59305 8.5026 3.15305 9.0066 2.39305 9.0066C1.68905 9.0066 1.23305 8.5666 1.23305 7.9026H0.409047C0.417047 8.9986 1.18505 9.7346 2.38505 9.7346ZM7.22861 9.7266C8.46861 9.7266 9.30861 8.6946 9.30861 6.7746C9.30861 4.9026 8.50861 3.8306 7.23661 3.8306C5.97261 3.8306 5.12461 4.8546 5.12461 6.7666C5.12461 8.6466 5.94061 9.7266 7.22861 9.7266ZM7.22061 9.0226C6.43661 9.0226 5.95661 8.3586 5.95661 6.7746C5.95661 5.1826 6.43661 4.5266 7.22061 4.5266C8.00461 4.5266 8.48461 5.1906 8.48461 6.7746C8.48461 8.3586 8.00461 9.0226 7.22061 9.0226ZM11.9786 9.7266C13.2186 9.7266 14.0586 8.6946 14.0586 6.7746C14.0586 4.9026 13.2586 3.8306 11.9866 3.8306C10.7226 3.8306 9.87461 4.8546 9.87461 6.7666C9.87461 8.6466 10.6906 9.7266 11.9786 9.7266ZM11.9706 9.0226C11.1866 9.0226 10.7066 8.3586 10.7066 6.7746C10.7066 5.1826 11.1866 4.5266 11.9706 4.5266C12.7546 4.5266 13.2346 5.1906 13.2346 6.7746C13.2346 8.3586 12.7546 9.0226 11.9706 9.0226Z" fill="#AEB9E1"/>
<path d="M31.1425 117.585C32.1425 117.585 32.7825 117.121 32.7825 116.001V111.689H31.9185V115.929C31.9185 116.577 31.5905 116.857 30.9825 116.857C30.7185 116.857 30.5025 116.793 30.3505 116.705V117.417C30.5265 117.513 30.8225 117.585 31.1425 117.585ZM35.5043 117.593C36.2163 117.593 36.7443 117.225 36.9443 116.681H36.9923V117.521H37.8163V113.289H37.0243L36.9923 114.121H36.9443C36.7443 113.577 36.2163 113.217 35.5043 113.217C34.4723 113.217 33.7763 113.985 33.7763 115.401C33.7763 116.817 34.4723 117.593 35.5043 117.593ZM35.7923 116.913C35.0883 116.913 34.6243 116.393 34.6243 115.401C34.6243 114.401 35.0883 113.889 35.7923 113.889C36.5763 113.889 36.9843 114.513 36.9843 115.161V115.641C36.9843 116.297 36.5763 116.913 35.7923 116.913ZM38.9705 117.521H39.7865V115.209C39.7865 114.481 40.2425 113.905 40.9705 113.905C41.6425 113.905 41.9545 114.313 41.9545 115.177V117.521H42.7785V115.009C42.7785 113.713 42.1305 113.225 41.2665 113.225C40.6425 113.225 40.0825 113.529 39.8345 114.129H39.7865L39.7545 113.289H38.9705V117.521ZM46.7375 117.521H47.5615V111.753H46.7695C46.7135 112.329 46.3375 112.713 45.5695 112.713H45.3455V113.345H46.7375V117.521Z" fill="#AEB9E1"/>
<path d="M125.142 117.585C126.142 117.585 126.782 117.121 126.782 116.001V111.689H125.918V115.929C125.918 116.577 125.59 116.857 124.982 116.857C124.718 116.857 124.502 116.793 124.35 116.705V117.417C124.526 117.513 124.822 117.585 125.142 117.585ZM129.504 117.593C130.216 117.593 130.744 117.225 130.944 116.681H130.992V117.521H131.816V113.289H131.024L130.992 114.121H130.944C130.744 113.577 130.216 113.217 129.504 113.217C128.472 113.217 127.776 113.985 127.776 115.401C127.776 116.817 128.472 117.593 129.504 117.593ZM129.792 116.913C129.088 116.913 128.624 116.393 128.624 115.401C128.624 114.401 129.088 113.889 129.792 113.889C130.576 113.889 130.984 114.513 130.984 115.161V115.641C130.984 116.297 130.576 116.913 129.792 116.913ZM132.971 117.521H133.787V115.209C133.787 114.481 134.243 113.905 134.971 113.905C135.643 113.905 135.955 114.313 135.955 115.177V117.521H136.779V115.009C136.779 113.713 136.131 113.225 135.267 113.225C134.643 113.225 134.083 113.529 133.835 114.129H133.787L133.755 113.289H132.971V117.521ZM141.537 117.577C142.777 117.577 143.617 116.961 143.617 115.985C143.617 115.281 143.201 114.713 142.457 114.625V114.585C143.185 114.457 143.521 113.889 143.521 113.257C143.521 112.321 142.769 111.689 141.537 111.689C140.313 111.689 139.561 112.313 139.561 113.249C139.561 113.889 139.913 114.449 140.633 114.585V114.625C139.881 114.729 139.457 115.321 139.457 115.993C139.457 116.969 140.297 117.577 141.537 117.577ZM141.537 114.281C140.769 114.281 140.409 113.889 140.409 113.329C140.409 112.745 140.833 112.377 141.537 112.377C142.233 112.377 142.681 112.737 142.681 113.329C142.681 113.865 142.337 114.281 141.537 114.281ZM141.537 116.865C140.825 116.865 140.345 116.505 140.345 115.881C140.345 115.361 140.713 114.945 141.537 114.945C142.353 114.945 142.737 115.337 142.737 115.881C142.737 116.489 142.273 116.865 141.537 116.865Z" fill="#AEB9E1"/>
<path d="M220.142 117.585C221.142 117.585 221.782 117.121 221.782 116.001V111.689H220.918V115.929C220.918 116.577 220.59 116.857 219.982 116.857C219.718 116.857 219.502 116.793 219.35 116.705V117.417C219.526 117.513 219.822 117.585 220.142 117.585ZM224.504 117.593C225.216 117.593 225.744 117.225 225.944 116.681H225.992V117.521H226.816V113.289H226.024L225.992 114.121H225.944C225.744 113.577 225.216 113.217 224.504 113.217C223.472 113.217 222.776 113.985 222.776 115.401C222.776 116.817 223.472 117.593 224.504 117.593ZM224.792 116.913C224.088 116.913 223.624 116.393 223.624 115.401C223.624 114.401 224.088 113.889 224.792 113.889C225.576 113.889 225.984 114.513 225.984 115.161V115.641C225.984 116.297 225.576 116.913 224.792 116.913ZM227.971 117.521H228.787V115.209C228.787 114.481 229.243 113.905 229.971 113.905C230.643 113.905 230.955 114.313 230.955 115.177V117.521H231.779V115.009C231.779 113.713 231.131 113.225 230.267 113.225C229.643 113.225 229.083 113.529 228.835 114.129H228.787L228.755 113.289H227.971V117.521ZM235.737 117.521H236.561V111.753H235.769C235.713 112.329 235.337 112.713 234.569 112.713H234.345V113.345H235.737V117.521ZM239.819 117.585C241.011 117.585 241.827 116.857 241.827 115.641C241.827 114.497 241.107 113.745 240.043 113.745C239.331 113.745 238.795 114.097 238.611 114.633H238.571C238.579 113.297 238.851 112.401 239.899 112.401C240.467 112.401 240.891 112.689 240.971 113.193H241.771C241.675 112.273 240.995 111.681 239.899 111.681C238.475 111.681 237.739 112.689 237.739 114.857C237.739 116.649 238.459 117.585 239.819 117.585ZM239.843 116.865C239.139 116.865 238.675 116.409 238.675 115.649C238.675 114.921 239.115 114.377 239.851 114.377C240.539 114.377 240.995 114.849 240.995 115.609C240.995 116.377 240.539 116.865 239.843 116.865Z" fill="#AEB9E1"/>
<path d="M318.142 117.585C319.142 117.585 319.782 117.121 319.782 116.001V111.689H318.918V115.929C318.918 116.577 318.59 116.857 317.982 116.857C317.718 116.857 317.502 116.793 317.35 116.705V117.417C317.526 117.513 317.822 117.585 318.142 117.585ZM322.504 117.593C323.216 117.593 323.744 117.225 323.944 116.681H323.992V117.521H324.816V113.289H324.024L323.992 114.121H323.944C323.744 113.577 323.216 113.217 322.504 113.217C321.472 113.217 320.776 113.985 320.776 115.401C320.776 116.817 321.472 117.593 322.504 117.593ZM322.792 116.913C322.088 116.913 321.624 116.393 321.624 115.401C321.624 114.401 322.088 113.889 322.792 113.889C323.576 113.889 323.984 114.513 323.984 115.161V115.641C323.984 116.297 323.576 116.913 322.792 116.913ZM325.971 117.521H326.787V115.209C326.787 114.481 327.243 113.905 327.971 113.905C328.643 113.905 328.955 114.313 328.955 115.177V117.521H329.779V115.009C329.779 113.713 329.131 113.225 328.267 113.225C327.643 113.225 327.083 113.529 326.835 114.129H326.787L326.755 113.289H325.971V117.521ZM332.449 117.521H336.321V116.793H333.481C333.769 115.545 336.257 115.113 336.257 113.353C336.257 112.345 335.521 111.681 334.401 111.681C333.225 111.681 332.433 112.417 332.465 113.545H333.273C333.233 112.825 333.689 112.393 334.353 112.393C334.985 112.393 335.401 112.785 335.401 113.393C335.401 114.865 332.449 115.129 332.449 117.377V117.521ZM339.492 117.521H340.316V116.105H341.1V115.425H340.316V111.753H339.244L336.66 115.465V116.105H339.492V117.521ZM337.5 115.425L339.492 112.585V115.425H337.5Z" fill="#AEB9E1"/>
<defs>
<linearGradient id="paint0_linear_89_6259" x1="156.986" y1="19.4883" x2="156.986" y2="105.833" gradientUnits="userSpaceOnUse">
<stop stop-color="#57C3FF"/>
<stop offset="1" stop-color="#57C3FF" stop-opacity="0"/>
</linearGradient>
</defs>
</svg>
