<svg width="451" height="275" viewBox="0 0 451 275" fill="none" xmlns="http://www.w3.org/2000/svg">
<path d="M363.991 268.568H365.395L368.647 259.82H367.531L365.191 266.264L364.735 267.608H364.651L364.195 266.252L361.879 259.82H360.739L363.991 268.568ZM369.629 261.224H370.601V259.82H369.629V261.224ZM369.629 268.568H370.601V262.268H369.629V268.568ZM374.986 268.676C376.426 268.676 377.554 267.872 377.734 266.66H376.798C376.63 267.404 375.934 267.872 374.986 267.872C373.774 267.872 372.982 267.044 372.946 265.592H377.758C377.95 263.66 376.966 262.172 374.938 262.172C373.114 262.172 371.986 263.468 371.986 265.436C371.986 267.392 373.138 268.676 374.986 268.676ZM374.926 262.964C375.97 262.964 376.774 263.504 376.81 264.836H372.97C373.09 263.672 373.834 262.964 374.926 262.964ZM379.879 268.568H381.151L382.435 263.504H382.483L383.815 268.568H385.087L386.743 262.268H385.795L384.439 267.596H384.403L383.047 262.268H381.955L380.635 267.596H380.587L379.207 262.268H378.223L379.879 268.568ZM390.477 268.568H391.437V264.812C391.521 263.732 392.217 263.108 393.321 263.108C393.465 263.108 393.597 263.12 393.705 263.132V262.208C393.597 262.196 393.465 262.184 393.321 262.184C392.469 262.184 391.725 262.628 391.449 263.432H391.401L391.341 262.268H390.477V268.568ZM397.181 268.676C398.621 268.676 399.749 267.872 399.929 266.66H398.993C398.825 267.404 398.129 267.872 397.181 267.872C395.969 267.872 395.177 267.044 395.141 265.592H399.953C400.145 263.66 399.161 262.172 397.133 262.172C395.309 262.172 394.181 263.468 394.181 265.436C394.181 267.392 395.333 268.676 397.181 268.676ZM397.121 262.964C398.165 262.964 398.969 263.504 399.005 264.836H395.165C395.285 263.672 396.029 262.964 397.121 262.964ZM401.364 270.572H402.336V267.26H402.408C402.72 268.112 403.536 268.676 404.628 268.676C406.176 268.676 407.22 267.5 407.22 265.424C407.22 263.348 406.176 262.16 404.628 262.16C403.536 262.16 402.72 262.736 402.408 263.576H402.336L402.3 262.268H401.376L401.364 270.572ZM404.304 267.86C403.044 267.86 402.348 266.864 402.348 265.796V265.04C402.348 263.972 403.044 262.976 404.304 262.976C405.456 262.976 406.236 263.828 406.236 265.424C406.236 267.008 405.456 267.86 404.304 267.86ZM411.327 268.676C413.175 268.676 414.351 267.344 414.351 265.424C414.351 263.444 413.139 262.172 411.327 262.172C409.467 262.172 408.279 263.504 408.279 265.436C408.279 267.392 409.503 268.676 411.327 268.676ZM411.327 267.836C410.067 267.836 409.275 266.924 409.275 265.436C409.275 263.888 410.103 262.988 411.327 262.988C412.587 262.988 413.367 263.912 413.367 265.424C413.367 266.948 412.551 267.836 411.327 267.836ZM415.731 268.568H416.691V264.812C416.775 263.732 417.471 263.108 418.575 263.108C418.719 263.108 418.851 263.12 418.959 263.132V262.208C418.851 262.196 418.719 262.184 418.575 262.184C417.723 262.184 416.979 262.628 416.703 263.432H416.655L416.595 262.268H415.731V268.568ZM422.039 268.568H423.239V267.752H422.339C421.907 267.752 421.775 267.644 421.775 267.2V263.072H423.239V262.268H421.775V260.252L420.803 260.384V262.268H419.579V263.072H420.803V267.368C420.803 268.16 421.115 268.568 422.039 268.568Z" fill="#CB3CFF"/>
<path d="M1.05682 268.568V259.841H2.11364V267.63H6.17045V268.568H1.05682ZM9.59659 268.721C9.18182 268.721 8.8054 268.643 8.46733 268.487C8.12926 268.328 7.8608 268.099 7.66193 267.801C7.46307 267.5 7.36364 267.136 7.36364 266.71C7.36364 266.335 7.4375 266.031 7.58523 265.798C7.73295 265.562 7.9304 265.378 8.17756 265.244C8.42472 265.11 8.69744 265.011 8.99574 264.946C9.29688 264.878 9.59943 264.824 9.90341 264.784C10.3011 264.733 10.6236 264.694 10.8707 264.669C11.1207 264.64 11.3026 264.593 11.4162 264.528C11.5327 264.463 11.5909 264.349 11.5909 264.187V264.153C11.5909 263.733 11.4759 263.406 11.2457 263.173C11.0185 262.94 10.6733 262.824 10.2102 262.824C9.73011 262.824 9.35369 262.929 9.08097 263.139C8.80824 263.349 8.61648 263.574 8.50568 263.812L7.55114 263.471C7.72159 263.074 7.94886 262.764 8.23295 262.542C8.51989 262.318 8.83239 262.162 9.17045 262.074C9.51136 261.983 9.84659 261.937 10.1761 261.937C10.3864 261.937 10.6278 261.963 10.9006 262.014C11.1761 262.062 11.4418 262.163 11.6974 262.316C11.956 262.47 12.1705 262.701 12.3409 263.011C12.5114 263.321 12.5966 263.735 12.5966 264.255V268.568H11.5909V267.682H11.5398C11.4716 267.824 11.358 267.976 11.1989 268.137C11.0398 268.299 10.8281 268.437 10.5639 268.551C10.2997 268.664 9.97727 268.721 9.59659 268.721ZM9.75 267.818C10.1477 267.818 10.483 267.74 10.7557 267.583C11.0313 267.427 11.2386 267.226 11.3778 266.978C11.5199 266.731 11.5909 266.471 11.5909 266.199V265.278C11.5483 265.329 11.4545 265.376 11.3097 265.419C11.1676 265.458 11.0028 265.494 10.8153 265.525C10.6307 265.554 10.4503 265.579 10.2741 265.602C10.1009 265.622 9.96023 265.639 9.85227 265.653C9.59091 265.687 9.34659 265.743 9.11932 265.819C8.89489 265.893 8.71307 266.005 8.57386 266.156C8.4375 266.304 8.36932 266.505 8.36932 266.761C8.36932 267.11 8.49858 267.375 8.7571 267.554C9.01847 267.73 9.34943 267.818 9.75 267.818ZM19.0685 263.488L18.1651 263.744C18.1083 263.593 18.0245 263.447 17.9137 263.305C17.8058 263.16 17.658 263.041 17.4705 262.947C17.283 262.853 17.043 262.807 16.7504 262.807C16.3498 262.807 16.016 262.899 15.7489 263.083C15.4847 263.265 15.3526 263.497 15.3526 263.778C15.3526 264.028 15.4435 264.226 15.6254 264.37C15.8072 264.515 16.0913 264.636 16.4776 264.733L17.4492 264.971C18.0344 265.113 18.4705 265.331 18.7575 265.623C19.0444 265.913 19.1879 266.287 19.1879 266.744C19.1879 267.119 19.0799 267.454 18.864 267.75C18.6509 268.045 18.3526 268.278 17.9691 268.449C17.5856 268.619 17.1396 268.704 16.631 268.704C15.9634 268.704 15.4109 268.559 14.9734 268.27C14.5359 267.98 14.2589 267.557 14.1424 267L15.0969 266.761C15.1879 267.113 15.3597 267.378 15.6126 267.554C15.8683 267.73 16.2021 267.818 16.614 267.818C17.0827 267.818 17.4549 267.718 17.7305 267.52C18.0089 267.318 18.1481 267.076 18.1481 266.795C18.1481 266.568 18.0685 266.378 17.9094 266.224C17.7504 266.068 17.506 265.951 17.1765 265.875L16.0856 265.619C15.4862 265.477 15.0458 265.257 14.7646 264.958C14.4862 264.657 14.3469 264.281 14.3469 263.829C14.3469 263.46 14.4506 263.133 14.658 262.849C14.8683 262.565 15.1538 262.342 15.5146 262.18C15.8782 262.018 16.2901 261.937 16.7504 261.937C17.3981 261.937 17.9066 262.079 18.2759 262.363C18.6481 262.647 18.9123 263.022 19.0685 263.488ZM23.5483 262.022V262.875H20.1562V262.022H23.5483ZM21.1449 260.454H22.1506V266.693C22.1506 266.977 22.1918 267.19 22.2741 267.332C22.3594 267.471 22.4673 267.565 22.598 267.613C22.7315 267.659 22.8722 267.682 23.0199 267.682C23.1307 267.682 23.2216 267.676 23.2926 267.664C23.3636 267.65 23.4205 267.639 23.4631 267.63L23.6676 268.534C23.5994 268.559 23.5043 268.585 23.3821 268.61C23.2599 268.639 23.1051 268.653 22.9176 268.653C22.6335 268.653 22.3551 268.592 22.0824 268.47C21.8125 268.348 21.5881 268.162 21.4091 267.912C21.233 267.662 21.1449 267.346 21.1449 266.966V260.454ZM31.3168 268.687C30.9588 268.682 30.6009 268.613 30.2429 268.483C29.8849 268.352 29.5582 268.132 29.2628 267.822C28.9673 267.51 28.7301 267.088 28.5511 266.557C28.3722 266.022 28.2827 265.352 28.2827 264.545C28.2827 263.772 28.3551 263.088 28.5 262.491C28.6449 261.892 28.8551 261.387 29.1307 260.978C29.4063 260.566 29.7386 260.254 30.1278 260.041C30.5199 259.828 30.9616 259.721 31.4531 259.721C31.9418 259.721 32.3764 259.819 32.7571 260.015C33.1406 260.208 33.4531 260.478 33.6946 260.825C33.9361 261.172 34.0923 261.571 34.1634 262.022H33.1236C33.027 261.63 32.8395 261.305 32.5611 261.047C32.2827 260.788 31.9134 260.659 31.4531 260.659C30.777 260.659 30.2443 260.953 29.8551 261.541C29.4688 262.129 29.2741 262.954 29.2713 264.017H29.3395C29.4986 263.775 29.6875 263.569 29.9062 263.399C30.1278 263.226 30.3722 263.092 30.6392 262.998C30.9063 262.905 31.1889 262.858 31.4872 262.858C31.9872 262.858 32.4446 262.983 32.8594 263.233C33.2741 263.48 33.6065 263.822 33.8565 264.26C34.1065 264.694 34.2315 265.193 34.2315 265.755C34.2315 266.295 34.1108 266.789 33.8693 267.238C33.6278 267.684 33.2884 268.039 32.8509 268.304C32.4162 268.565 31.9048 268.693 31.3168 268.687ZM31.3168 267.75C31.6747 267.75 31.9957 267.66 32.2798 267.481C32.5668 267.302 32.7926 267.062 32.9574 266.761C33.125 266.46 33.2088 266.125 33.2088 265.755C33.2088 265.395 33.1278 265.066 32.9659 264.771C32.8068 264.473 32.5866 264.235 32.3054 264.059C32.027 263.883 31.7088 263.795 31.3509 263.795C31.081 263.795 30.8295 263.849 30.5966 263.957C30.3636 264.062 30.1591 264.207 29.983 264.392C29.8097 264.576 29.6733 264.788 29.5739 265.027C29.4744 265.262 29.4247 265.511 29.4247 265.772C29.4247 266.119 29.5057 266.443 29.6676 266.744C29.8324 267.045 30.0568 267.288 30.3409 267.473C30.6278 267.657 30.9531 267.75 31.3168 267.75ZM39.2994 268.568V262.022H40.271V263.045H40.3562C40.4925 262.696 40.7127 262.424 41.0167 262.231C41.3207 262.035 41.6857 261.937 42.1119 261.937C42.5437 261.937 42.9031 262.035 43.19 262.231C43.4798 262.424 43.7056 262.696 43.8675 263.045H43.9357C44.1033 262.707 44.3548 262.439 44.69 262.24C45.0252 262.038 45.4272 261.937 45.896 261.937C46.4812 261.937 46.9599 262.12 47.332 262.487C47.7042 262.851 47.8903 263.417 47.8903 264.187V268.568H46.8846V264.187C46.8846 263.704 46.7525 263.359 46.4883 263.152C46.2241 262.944 45.913 262.841 45.555 262.841C45.0948 262.841 44.7383 262.98 44.4854 263.258C44.2326 263.534 44.1062 263.883 44.1062 264.307V268.568H43.0835V264.085C43.0835 263.713 42.9627 263.413 42.7212 263.186C42.4798 262.956 42.1687 262.841 41.788 262.841C41.5266 262.841 41.2823 262.91 41.055 263.049C40.8306 263.189 40.6488 263.382 40.5096 263.629C40.3732 263.873 40.305 264.156 40.305 264.477V268.568H39.2994ZM52.3881 268.704C51.7972 268.704 51.2788 268.564 50.8327 268.282C50.3896 268.001 50.043 267.608 49.793 267.102C49.5458 266.596 49.4222 266.005 49.4222 265.329C49.4222 264.647 49.5458 264.052 49.793 263.544C50.043 263.035 50.3896 262.64 50.8327 262.359C51.2788 262.078 51.7972 261.937 52.3881 261.937C52.979 261.937 53.4961 262.078 53.9393 262.359C54.3853 262.64 54.7319 263.035 54.979 263.544C55.229 264.052 55.354 264.647 55.354 265.329C55.354 266.005 55.229 266.596 54.979 267.102C54.7319 267.608 54.3853 268.001 53.9393 268.282C53.4961 268.564 52.979 268.704 52.3881 268.704ZM52.3881 267.801C52.837 267.801 53.2063 267.686 53.4961 267.456C53.7859 267.226 54.0004 266.923 54.1396 266.548C54.2788 266.173 54.3484 265.767 54.3484 265.329C54.3484 264.892 54.2788 264.484 54.1396 264.106C54.0004 263.728 53.7859 263.423 53.4961 263.19C53.2063 262.957 52.837 262.841 52.3881 262.841C51.9393 262.841 51.57 262.957 51.2802 263.19C50.9904 263.423 50.7759 263.728 50.6367 264.106C50.4975 264.484 50.4279 264.892 50.4279 265.329C50.4279 265.767 50.4975 266.173 50.6367 266.548C50.7759 266.923 50.9904 267.226 51.2802 267.456C51.57 267.686 51.9393 267.801 52.3881 267.801ZM57.8949 264.63V268.568H56.8892V262.022H57.8608V263.045H57.946C58.0994 262.713 58.3324 262.446 58.6449 262.244C58.9574 262.039 59.3608 261.937 59.8551 261.937C60.2983 261.937 60.6861 262.028 61.0185 262.21C61.3509 262.389 61.6094 262.662 61.794 263.028C61.9787 263.392 62.071 263.852 62.071 264.409V268.568H61.0653V264.477C61.0653 263.963 60.9318 263.562 60.6648 263.275C60.3977 262.985 60.0313 262.841 59.5653 262.841C59.2443 262.841 58.9574 262.91 58.7045 263.049C58.4545 263.189 58.2571 263.392 58.1122 263.659C57.9673 263.926 57.8949 264.25 57.8949 264.63ZM66.7553 262.022V262.875H63.3633V262.022H66.7553ZM64.3519 260.454H65.3576V266.693C65.3576 266.977 65.3988 267.19 65.4812 267.332C65.5664 267.471 65.6744 267.565 65.805 267.613C65.9386 267.659 66.0792 267.682 66.2269 267.682C66.3377 267.682 66.4286 267.676 66.4996 267.664C66.5707 267.65 66.6275 267.639 66.6701 267.63L66.8746 268.534C66.8065 268.559 66.7113 268.585 66.5891 268.61C66.467 268.639 66.3121 268.653 66.1246 268.653C65.8406 268.653 65.5621 268.592 65.2894 268.47C65.0195 268.348 64.7951 268.162 64.6161 267.912C64.44 267.662 64.3519 267.346 64.3519 266.966V260.454ZM69.4144 264.63V268.568H68.4087V259.841H69.4144V263.045H69.4996C69.6531 262.707 69.8832 262.439 70.19 262.24C70.4996 262.038 70.9116 261.937 71.4258 261.937C71.8718 261.937 72.2624 262.027 72.5977 262.206C72.9329 262.382 73.1928 262.653 73.3775 263.02C73.565 263.383 73.6587 263.846 73.6587 264.409V268.568H72.6531V264.477C72.6531 263.957 72.5181 263.555 72.2482 263.271C71.9812 262.984 71.6104 262.841 71.136 262.841C70.8065 262.841 70.511 262.91 70.2496 263.049C69.9911 263.189 69.7866 263.392 69.636 263.659C69.4883 263.926 69.4144 264.25 69.4144 264.63ZM80.1349 263.488L79.2315 263.744C79.1747 263.593 79.0909 263.447 78.9801 263.305C78.8722 263.16 78.7244 263.041 78.5369 262.947C78.3494 262.853 78.1094 262.807 77.8168 262.807C77.4162 262.807 77.0824 262.899 76.8153 263.083C76.5511 263.265 76.419 263.497 76.419 263.778C76.419 264.028 76.5099 264.226 76.6918 264.37C76.8736 264.515 77.1577 264.636 77.544 264.733L78.5156 264.971C79.1009 265.113 79.5369 265.331 79.8239 265.623C80.1108 265.913 80.2543 266.287 80.2543 266.744C80.2543 267.119 80.1463 267.454 79.9304 267.75C79.7173 268.045 79.419 268.278 79.0355 268.449C78.652 268.619 78.206 268.704 77.6974 268.704C77.0298 268.704 76.4773 268.559 76.0398 268.27C75.6023 267.98 75.3253 267.557 75.2088 267L76.1634 266.761C76.2543 267.113 76.4261 267.378 76.679 267.554C76.9347 267.73 77.2685 267.818 77.6804 267.818C78.1491 267.818 78.5213 267.718 78.7969 267.52C79.0753 267.318 79.2145 267.076 79.2145 266.795C79.2145 266.568 79.1349 266.378 78.9759 266.224C78.8168 266.068 78.5724 265.951 78.2429 265.875L77.152 265.619C76.5526 265.477 76.1122 265.257 75.831 264.958C75.5526 264.657 75.4134 264.281 75.4134 263.829C75.4134 263.46 75.517 263.133 75.7244 262.849C75.9347 262.565 76.2202 262.342 76.581 262.18C76.9446 262.018 77.3565 261.937 77.8168 261.937C78.4645 261.937 78.973 262.079 79.3423 262.363C79.7145 262.647 79.9787 263.022 80.1349 263.488Z" fill="#AEB9E1"/>
<path d="M0 241.223L423.608 241.223" stroke="#0B1739" stroke-width="0.6"/>
<path d="M12 11.6156C12 11.7381 11.9514 11.8555 11.8648 11.942C11.7783 12.0286 11.6609 12.0772 11.5385 12.0772H0.461538C0.339131 12.0772 0.221737 12.0286 0.135181 11.942C0.0486262 11.8555 0 11.7381 0 11.6156V2.38488C0 2.26247 0.0486262 2.14508 0.135181 2.05852C0.221737 1.97197 0.339131 1.92334 0.461538 1.92334C0.583946 1.92334 0.70134 1.97197 0.787895 2.05852C0.874451 2.14508 0.923077 2.26247 0.923077 2.38488V8.65603L3.825 5.74834C3.9125 5.66167 4.03069 5.61305 4.15385 5.61305C4.27701 5.61305 4.39519 5.66167 4.48269 5.74834L6 7.27142L8.80962 4.4618L7.97885 3.6368C7.91623 3.57007 7.8738 3.48697 7.85644 3.39713C7.83908 3.30728 7.84752 3.21436 7.88077 3.12911C7.9167 3.04555 7.97623 2.9743 8.05207 2.92409C8.1279 2.87387 8.21674 2.84688 8.30769 2.84642H10.6154C10.7378 2.84642 10.8552 2.89504 10.9417 2.9816C11.0283 3.06815 11.0769 3.18555 11.0769 3.30796V5.61565C11.0772 5.70677 11.0505 5.79593 11.0002 5.87191C10.9499 5.94788 10.8782 6.00726 10.7942 6.04257C10.7373 6.06518 10.6766 6.07692 10.6154 6.07719C10.4928 6.07667 10.3751 6.02918 10.2865 5.94449L9.46154 5.11372L6.32885 8.25219C6.24134 8.33885 6.12316 8.38747 6 8.38747C5.87684 8.38747 5.75866 8.33885 5.67115 8.25219L4.15385 6.72911L0.923077 9.95988V11.1541H11.5385C11.6609 11.1541 11.7783 11.2027 11.8648 11.2893C11.9514 11.3758 12 11.4932 12 11.6156Z" fill="#AEB9E1"/>
<path d="M19.0568 11V2.27273H20.1136V10.0625H24.1705V11H19.0568ZM27.5966 11.1534C27.1818 11.1534 26.8054 11.0753 26.4673 10.919C26.1293 10.7599 25.8608 10.5312 25.6619 10.233C25.4631 9.93182 25.3636 9.56818 25.3636 9.14205C25.3636 8.76705 25.4375 8.46307 25.5852 8.23011C25.733 7.99432 25.9304 7.80966 26.1776 7.67614C26.4247 7.54261 26.6974 7.44318 26.9957 7.37784C27.2969 7.30966 27.5994 7.25568 27.9034 7.21591C28.3011 7.16477 28.6236 7.12642 28.8707 7.10085C29.1207 7.07244 29.3026 7.02557 29.4162 6.96023C29.5327 6.89489 29.5909 6.78125 29.5909 6.61932V6.58523C29.5909 6.16477 29.4759 5.83807 29.2457 5.60511C29.0185 5.37216 28.6733 5.25568 28.2102 5.25568C27.7301 5.25568 27.3537 5.3608 27.081 5.57102C26.8082 5.78125 26.6165 6.00568 26.5057 6.24432L25.5511 5.90341C25.7216 5.50568 25.9489 5.19602 26.233 4.97443C26.5199 4.75 26.8324 4.59375 27.1705 4.50568C27.5114 4.41477 27.8466 4.36932 28.1761 4.36932C28.3864 4.36932 28.6278 4.39489 28.9006 4.44602C29.1761 4.49432 29.4418 4.59517 29.6974 4.74858C29.956 4.90199 30.1705 5.13352 30.3409 5.44318C30.5114 5.75284 30.5966 6.16761 30.5966 6.6875V11H29.5909V10.1136H29.5398C29.4716 10.2557 29.358 10.4077 29.1989 10.5696C29.0398 10.7315 28.8281 10.8693 28.5639 10.983C28.2997 11.0966 27.9773 11.1534 27.5966 11.1534ZM27.75 10.25C28.1477 10.25 28.483 10.1719 28.7557 10.0156C29.0313 9.85938 29.2386 9.65767 29.3778 9.41051C29.5199 9.16335 29.5909 8.90341 29.5909 8.63068V7.71023C29.5483 7.76136 29.4545 7.80824 29.3097 7.85085C29.1676 7.89062 29.0028 7.92614 28.8153 7.95739C28.6307 7.9858 28.4503 8.01136 28.2741 8.03409C28.1009 8.05398 27.9602 8.07102 27.8523 8.08523C27.5909 8.11932 27.3466 8.17472 27.1193 8.25142C26.8949 8.32528 26.7131 8.4375 26.5739 8.58807C26.4375 8.7358 26.3693 8.9375 26.3693 9.19318C26.3693 9.54261 26.4986 9.80682 26.7571 9.9858C27.0185 10.1619 27.3494 10.25 27.75 10.25ZM37.0685 5.92045L36.1651 6.17614C36.1083 6.02557 36.0245 5.87926 35.9137 5.73722C35.8058 5.59233 35.658 5.47301 35.4705 5.37926C35.283 5.28551 35.043 5.23864 34.7504 5.23864C34.3498 5.23864 34.016 5.33097 33.7489 5.51562C33.4847 5.69744 33.3526 5.92898 33.3526 6.21023C33.3526 6.46023 33.4435 6.65767 33.6254 6.80256C33.8072 6.94744 34.0913 7.06818 34.4776 7.16477L35.4492 7.40341C36.0344 7.54545 36.4705 7.76278 36.7575 8.0554C37.0444 8.34517 37.1879 8.71875 37.1879 9.17614C37.1879 9.55114 37.0799 9.88636 36.864 10.1818C36.6509 10.4773 36.3526 10.7102 35.9691 10.8807C35.5856 11.0511 35.1396 11.1364 34.631 11.1364C33.9634 11.1364 33.4109 10.9915 32.9734 10.7017C32.5359 10.4119 32.2589 9.98864 32.1424 9.43182L33.0969 9.19318C33.1879 9.54545 33.3597 9.80966 33.6126 9.9858C33.8683 10.1619 34.2021 10.25 34.614 10.25C35.0827 10.25 35.4549 10.1506 35.7305 9.9517C36.0089 9.75 36.1481 9.50852 36.1481 9.22727C36.1481 9 36.0685 8.80966 35.9094 8.65625C35.7504 8.5 35.506 8.38352 35.1765 8.30682L34.0856 8.05114C33.4862 7.90909 33.0458 7.68892 32.7646 7.39062C32.4862 7.08949 32.3469 6.71307 32.3469 6.26136C32.3469 5.89205 32.4506 5.56534 32.658 5.28125C32.8683 4.99716 33.1538 4.77415 33.5146 4.61222C33.8782 4.45028 34.2901 4.36932 34.7504 4.36932C35.3981 4.36932 35.9066 4.51136 36.2759 4.79545C36.6481 5.07955 36.9123 5.45455 37.0685 5.92045ZM41.5483 4.45455V5.30682H38.1562V4.45455H41.5483ZM39.1449 2.88636H40.1506V9.125C40.1506 9.40909 40.1918 9.62216 40.2741 9.7642C40.3594 9.90341 40.4673 9.99716 40.598 10.0455C40.7315 10.0909 40.8722 10.1136 41.0199 10.1136C41.1307 10.1136 41.2216 10.108 41.2926 10.0966C41.3636 10.0824 41.4205 10.071 41.4631 10.0625L41.6676 10.9659C41.5994 10.9915 41.5043 11.017 41.3821 11.0426C41.2599 11.071 41.1051 11.0852 40.9176 11.0852C40.6335 11.0852 40.3551 11.0241 40.0824 10.902C39.8125 10.7798 39.5881 10.5938 39.4091 10.3438C39.233 10.0938 39.1449 9.77841 39.1449 9.39773V2.88636ZM46.4361 11V4.45455H47.4077V5.47727H47.4929C47.6293 5.12784 47.8494 4.85653 48.1534 4.66335C48.4574 4.46733 48.8224 4.36932 49.2486 4.36932C49.6804 4.36932 50.0398 4.46733 50.3267 4.66335C50.6165 4.85653 50.8423 5.12784 51.0043 5.47727H51.0724C51.2401 5.1392 51.4915 4.87074 51.8267 4.67188C52.1619 4.47017 52.5639 4.36932 53.0327 4.36932C53.6179 4.36932 54.0966 4.55256 54.4688 4.91903C54.8409 5.28267 55.027 5.84943 55.027 6.61932V11H54.0213V6.61932C54.0213 6.13636 53.8892 5.79119 53.625 5.58381C53.3608 5.37642 53.0497 5.27273 52.6918 5.27273C52.2315 5.27273 51.875 5.41193 51.6222 5.69034C51.3693 5.96591 51.2429 6.31534 51.2429 6.73864V11H50.2202V6.51705C50.2202 6.14489 50.0994 5.84517 49.858 5.6179C49.6165 5.38778 49.3054 5.27273 48.9247 5.27273C48.6634 5.27273 48.419 5.34233 48.1918 5.48153C47.9673 5.62074 47.7855 5.81392 47.6463 6.06108C47.5099 6.3054 47.4418 6.58807 47.4418 6.90909V11H46.4361ZM59.5249 11.1364C58.9339 11.1364 58.4155 10.9957 57.9695 10.7145C57.5263 10.4332 57.1797 10.0398 56.9297 9.53409C56.6825 9.02841 56.5589 8.4375 56.5589 7.76136C56.5589 7.07955 56.6825 6.48437 56.9297 5.97585C57.1797 5.46733 57.5263 5.07244 57.9695 4.79119C58.4155 4.50994 58.9339 4.36932 59.5249 4.36932C60.1158 4.36932 60.6328 4.50994 61.076 4.79119C61.522 5.07244 61.8686 5.46733 62.1158 5.97585C62.3658 6.48437 62.4908 7.07955 62.4908 7.76136C62.4908 8.4375 62.3658 9.02841 62.1158 9.53409C61.8686 10.0398 61.522 10.4332 61.076 10.7145C60.6328 10.9957 60.1158 11.1364 59.5249 11.1364ZM59.5249 10.233C59.9737 10.233 60.343 10.1179 60.6328 9.88778C60.9226 9.65767 61.1371 9.35511 61.2763 8.98011C61.4155 8.60511 61.4851 8.19886 61.4851 7.76136C61.4851 7.32386 61.4155 6.91619 61.2763 6.53835C61.1371 6.16051 60.9226 5.85511 60.6328 5.62216C60.343 5.3892 59.9737 5.27273 59.5249 5.27273C59.076 5.27273 58.7067 5.3892 58.4169 5.62216C58.1271 5.85511 57.9126 6.16051 57.7734 6.53835C57.6342 6.91619 57.5646 7.32386 57.5646 7.76136C57.5646 8.19886 57.6342 8.60511 57.7734 8.98011C57.9126 9.35511 58.1271 9.65767 58.4169 9.88778C58.7067 10.1179 59.076 10.233 59.5249 10.233ZM65.0316 7.0625V11H64.0259V4.45455H64.9975V5.47727H65.0827C65.2362 5.14489 65.4691 4.87784 65.7816 4.67614C66.0941 4.47159 66.4975 4.36932 66.9918 4.36932C67.435 4.36932 67.8228 4.46023 68.1552 4.64205C68.4876 4.82102 68.7461 5.09375 68.9308 5.46023C69.1154 5.82386 69.2077 6.28409 69.2077 6.84091V11H68.2021V6.90909C68.2021 6.39489 68.0685 5.99432 67.8015 5.70739C67.5344 5.41761 67.168 5.27273 66.7021 5.27273C66.381 5.27273 66.0941 5.34233 65.8413 5.48153C65.5913 5.62074 65.3938 5.82386 65.2489 6.09091C65.104 6.35795 65.0316 6.68182 65.0316 7.0625ZM73.892 4.45455V5.30682H70.5V4.45455H73.892ZM71.4886 2.88636H72.4943V9.125C72.4943 9.40909 72.5355 9.62216 72.6179 9.7642C72.7031 9.90341 72.8111 9.99716 72.9418 10.0455C73.0753 10.0909 73.2159 10.1136 73.3636 10.1136C73.4744 10.1136 73.5653 10.108 73.6364 10.0966C73.7074 10.0824 73.7642 10.071 73.8068 10.0625L74.0114 10.9659C73.9432 10.9915 73.848 11.017 73.7259 11.0426C73.6037 11.071 73.4489 11.0852 73.2614 11.0852C72.9773 11.0852 72.6989 11.0241 72.4261 10.902C72.1563 10.7798 71.9318 10.5938 71.7528 10.3438C71.5767 10.0938 71.4886 9.77841 71.4886 9.39773V2.88636ZM76.5511 7.0625V11H75.5455V2.27273H76.5511V5.47727H76.6364C76.7898 5.1392 77.0199 4.87074 77.3267 4.67188C77.6364 4.47017 78.0483 4.36932 78.5625 4.36932C79.0085 4.36932 79.3991 4.45881 79.7344 4.63778C80.0696 4.81392 80.3295 5.08523 80.5142 5.4517C80.7017 5.81534 80.7955 6.27841 80.7955 6.84091V11H79.7898V6.90909C79.7898 6.3892 79.6548 5.98722 79.3849 5.70312C79.1179 5.41619 78.7472 5.27273 78.2727 5.27273C77.9432 5.27273 77.6477 5.34233 77.3864 5.48153C77.1278 5.62074 76.9233 5.82386 76.7727 6.09091C76.625 6.35795 76.5511 6.68182 76.5511 7.0625ZM90.1353 8.32386V4.45455H91.141V11H90.1353V9.89205H90.0671C89.9137 10.2244 89.6751 10.5071 89.3512 10.7401C89.0273 10.9702 88.6183 11.0852 88.1239 11.0852C87.7148 11.0852 87.3512 10.9957 87.033 10.8168C86.7148 10.6349 86.4648 10.3622 86.283 9.99858C86.1012 9.6321 86.0103 9.17045 86.0103 8.61364V4.45455H87.016V8.54545C87.016 9.02273 87.1495 9.40341 87.4165 9.6875C87.6864 9.97159 88.0302 10.1136 88.4478 10.1136C88.6978 10.1136 88.9521 10.0497 89.2106 9.92188C89.4719 9.79403 89.6907 9.59801 89.8668 9.33381C90.0458 9.0696 90.1353 8.73295 90.1353 8.32386ZM92.983 13.4545V4.45455H93.9545V5.49432H94.0739C94.1477 5.38068 94.25 5.2358 94.3807 5.05966C94.5142 4.88068 94.7045 4.72159 94.9517 4.58239C95.2017 4.44034 95.5398 4.36932 95.9659 4.36932C96.517 4.36932 97.0028 4.5071 97.4233 4.78267C97.8438 5.05824 98.1719 5.44886 98.4077 5.95455C98.6435 6.46023 98.7614 7.05682 98.7614 7.74432C98.7614 8.4375 98.6435 9.03835 98.4077 9.54688C98.1719 10.0526 97.8452 10.4446 97.4276 10.723C97.0099 10.9986 96.5284 11.1364 95.983 11.1364C95.5625 11.1364 95.2259 11.0668 94.973 10.9276C94.7202 10.7855 94.5256 10.625 94.3892 10.446C94.2528 10.2642 94.1477 10.1136 94.0739 9.99432H93.9886V13.4545H92.983ZM93.9716 7.72727C93.9716 8.22159 94.044 8.65767 94.1889 9.03551C94.3338 9.41051 94.5455 9.70455 94.8239 9.91761C95.1023 10.1278 95.4432 10.233 95.8466 10.233C96.267 10.233 96.6179 10.1222 96.8991 9.90057C97.1832 9.67614 97.3963 9.375 97.5384 8.99716C97.6832 8.61648 97.7557 8.19318 97.7557 7.72727C97.7557 7.26705 97.6847 6.85227 97.5426 6.48295C97.4034 6.1108 97.1918 5.81676 96.9077 5.60085C96.6264 5.3821 96.2727 5.27273 95.8466 5.27273C95.4375 5.27273 95.0938 5.37642 94.8153 5.58381C94.5369 5.78835 94.3267 6.07528 94.1847 6.4446C94.0426 6.81108 93.9716 7.23864 93.9716 7.72727ZM103.142 4.45455V5.30682H99.75V4.45455H103.142ZM100.739 2.88636H101.744V9.125C101.744 9.40909 101.786 9.62216 101.868 9.7642C101.953 9.90341 102.061 9.99716 102.192 10.0455C102.325 10.0909 102.466 10.1136 102.614 10.1136C102.724 10.1136 102.815 10.108 102.886 10.0966C102.957 10.0824 103.014 10.071 103.057 10.0625L103.261 10.9659C103.193 10.9915 103.098 11.017 102.976 11.0426C102.854 11.071 102.699 11.0852 102.511 11.0852C102.227 11.0852 101.949 11.0241 101.676 10.902C101.406 10.7798 101.182 10.5938 101.003 10.3438C100.827 10.0938 100.739 9.77841 100.739 9.39773V2.88636ZM104.655 11V4.45455H105.661V11H104.655ZM105.166 3.36364C104.97 3.36364 104.801 3.29687 104.659 3.16335C104.52 3.02983 104.45 2.86932 104.45 2.68182C104.45 2.49432 104.52 2.33381 104.659 2.20028C104.801 2.06676 104.97 2 105.166 2C105.362 2 105.53 2.06676 105.669 2.20028C105.811 2.33381 105.882 2.49432 105.882 2.68182C105.882 2.86932 105.811 3.02983 105.669 3.16335C105.53 3.29687 105.362 3.36364 105.166 3.36364ZM107.502 11V4.45455H108.474V5.47727H108.559C108.696 5.12784 108.916 4.85653 109.22 4.66335C109.524 4.46733 109.889 4.36932 110.315 4.36932C110.747 4.36932 111.106 4.46733 111.393 4.66335C111.683 4.85653 111.909 5.12784 112.071 5.47727H112.139C112.306 5.1392 112.558 4.87074 112.893 4.67188C113.228 4.47017 113.63 4.36932 114.099 4.36932C114.684 4.36932 115.163 4.55256 115.535 4.91903C115.907 5.28267 116.093 5.84943 116.093 6.61932V11H115.088V6.61932C115.088 6.13636 114.956 5.79119 114.691 5.58381C114.427 5.37642 114.116 5.27273 113.758 5.27273C113.298 5.27273 112.941 5.41193 112.689 5.69034C112.436 5.96591 112.309 6.31534 112.309 6.73864V11H111.287V6.51705C111.287 6.14489 111.166 5.84517 110.924 5.6179C110.683 5.38778 110.372 5.27273 109.991 5.27273C109.73 5.27273 109.485 5.34233 109.258 5.48153C109.034 5.62074 108.852 5.81392 108.713 6.06108C108.576 6.3054 108.508 6.58807 108.508 6.90909V11H107.502ZM120.676 11.1364C120.046 11.1364 119.502 10.9972 119.044 10.7188C118.59 10.4375 118.239 10.0455 117.992 9.54261C117.748 9.03693 117.625 8.44886 117.625 7.77841C117.625 7.10795 117.748 6.51705 117.992 6.00568C118.239 5.49148 118.583 5.09091 119.023 4.80398C119.466 4.5142 119.983 4.36932 120.574 4.36932C120.915 4.36932 121.252 4.42614 121.584 4.53977C121.917 4.65341 122.219 4.83807 122.492 5.09375C122.765 5.34659 122.982 5.68182 123.144 6.09943C123.306 6.51705 123.387 7.03125 123.387 7.64205V8.06818H118.341V7.19886H122.364C122.364 6.82955 122.29 6.5 122.142 6.21023C121.998 5.92045 121.79 5.69176 121.52 5.52415C121.253 5.35653 120.938 5.27273 120.574 5.27273C120.174 5.27273 119.827 5.37216 119.534 5.57102C119.245 5.76705 119.022 6.02273 118.865 6.33807C118.709 6.65341 118.631 6.99148 118.631 7.35227V7.93182C118.631 8.42614 118.716 8.84517 118.887 9.18892C119.06 9.52983 119.3 9.78977 119.607 9.96875C119.914 10.1449 120.27 10.233 120.676 10.233C120.941 10.233 121.179 10.196 121.392 10.1222C121.608 10.0455 121.794 9.93182 121.951 9.78125C122.107 9.62784 122.228 9.4375 122.313 9.21023L123.284 9.48295C123.182 9.8125 123.01 10.1023 122.769 10.3523C122.527 10.5994 122.229 10.7926 121.874 10.9318C121.519 11.0682 121.12 11.1364 120.676 11.1364Z" fill="#AEB9E1"/>
<path d="M7.36364 31.6867C8.07955 31.6924 8.79545 31.8287 9.51136 32.0958C10.2273 32.3628 10.8807 32.806 11.4716 33.4253C12.0625 34.039 12.5369 34.877 12.8949 35.9395C13.2528 37.002 13.4318 38.3344 13.4318 39.9367C13.4318 41.4878 13.2841 42.8657 12.9886 44.0702C12.6989 45.2691 12.2784 46.2805 11.7273 47.1043C11.1818 47.9282 10.517 48.5532 9.73295 48.9793C8.95455 49.4055 8.07386 49.6185 7.09091 49.6185C6.11364 49.6185 5.24148 49.4253 4.47443 49.039C3.71307 48.6469 3.08807 48.1043 2.59943 47.4111C2.11648 46.7123 1.80682 45.9026 1.67045 44.9822H3.75C3.9375 45.7833 4.30966 46.4452 4.86648 46.968C5.42898 47.485 6.17045 47.7435 7.09091 47.7435C8.4375 47.7435 9.5 47.1555 10.2784 45.9793C11.0625 44.8032 11.4545 43.1412 11.4545 40.9935H11.3182C11 41.4708 10.6222 41.8827 10.1847 42.2293C9.74716 42.5759 9.26136 42.843 8.72727 43.0305C8.19318 43.218 7.625 43.3117 7.02273 43.3117C6.02273 43.3117 5.10511 43.0645 4.26989 42.5702C3.44034 42.0702 2.77557 41.3856 2.27557 40.5162C1.78125 39.6412 1.53409 38.6412 1.53409 37.5162C1.53409 36.4481 1.77273 35.4708 2.25 34.5844C2.73295 33.6924 3.40909 32.9822 4.27841 32.4537C5.15341 31.9253 6.18182 31.6697 7.36364 31.6867ZM7.36364 33.5617C6.64773 33.5617 6.00284 33.7407 5.42898 34.0986C4.8608 34.4509 4.40909 34.9282 4.07386 35.5305C3.74432 36.127 3.57955 36.789 3.57955 37.5162C3.57955 38.2435 3.73864 38.9055 4.05682 39.502C4.38068 40.093 4.82102 40.5645 5.37784 40.9168C5.94034 41.2634 6.57955 41.4367 7.29545 41.4367C7.83523 41.4367 8.33807 41.3316 8.80398 41.1214C9.26989 40.9055 9.67614 40.6128 10.0227 40.2435C10.375 39.8685 10.6506 39.4452 10.8494 38.9736C11.0483 38.4964 11.1477 37.9992 11.1477 37.4822C11.1477 36.8003 10.983 36.1611 10.6534 35.5645C10.3295 34.968 9.88068 34.485 9.30682 34.1157C8.73864 33.7464 8.09091 33.5617 7.36364 33.5617ZM22.9197 31.9253V49.3799H20.8061V34.1412H20.7038L16.4425 36.9708V34.8231L20.8061 31.9253H22.9197ZM28.4084 49.5162C27.9879 49.5162 27.6271 49.3657 27.326 49.0645C27.0249 48.7634 26.8743 48.4026 26.8743 47.9822C26.8743 47.5617 27.0249 47.2009 27.326 46.8998C27.6271 46.5986 27.9879 46.4481 28.4084 46.4481C28.8288 46.4481 29.1896 46.5986 29.4908 46.8998C29.7919 47.2009 29.9425 47.5617 29.9425 47.9822C29.9425 48.2606 29.8714 48.5162 29.7294 48.7492C29.593 48.9822 29.4084 49.1697 29.1754 49.3117C28.9482 49.4481 28.6925 49.5162 28.4084 49.5162ZM38.7592 49.6185C37.6342 49.6185 36.6314 49.4253 35.7507 49.039C34.8757 48.6526 34.1797 48.1157 33.6626 47.4282C33.1513 46.735 32.8729 45.931 32.8274 45.0162H34.9751C35.0206 45.5787 35.2138 46.0645 35.5547 46.4736C35.8956 46.877 36.3416 47.1895 36.8928 47.4111C37.4439 47.6327 38.0547 47.7435 38.7251 47.7435C39.4751 47.7435 40.1399 47.6128 40.7195 47.3515C41.299 47.0901 41.7536 46.7265 42.0831 46.2606C42.4126 45.7947 42.5774 45.2549 42.5774 44.6412C42.5774 43.9992 42.4183 43.4339 42.1001 42.9452C41.782 42.4509 41.3161 42.0645 40.7024 41.7861C40.0888 41.5077 39.3388 41.3685 38.4524 41.3685H37.0547V39.4935H38.4524C39.1456 39.4935 39.7536 39.3685 40.2763 39.1185C40.8047 38.8685 41.2166 38.5162 41.5121 38.0617C41.8132 37.6072 41.9638 37.0731 41.9638 36.4594C41.9638 35.8685 41.8331 35.3543 41.5717 34.9168C41.3104 34.4793 40.9411 34.1384 40.4638 33.8941C39.9922 33.6498 39.4354 33.5276 38.7933 33.5276C38.1911 33.5276 37.6229 33.6384 37.0888 33.86C36.5604 34.0759 36.1286 34.3912 35.7933 34.806C35.4581 35.2151 35.2763 35.7094 35.2479 36.289H33.2024C33.2365 35.3742 33.5121 34.5731 34.0291 33.8856C34.5462 33.1924 35.2223 32.6526 36.0575 32.2662C36.8984 31.8799 37.8217 31.6867 38.8274 31.6867C39.907 31.6867 40.8331 31.9055 41.6058 32.343C42.3786 32.7748 42.9723 33.3458 43.3871 34.056C43.8018 34.7662 44.0092 35.5333 44.0092 36.3572C44.0092 37.3401 43.7507 38.1782 43.2337 38.8714C42.7223 39.5645 42.0263 40.0447 41.1456 40.3117V40.4481C42.2479 40.6299 43.1087 41.0986 43.728 41.8543C44.3473 42.6043 44.657 43.5333 44.657 44.6412C44.657 45.5901 44.3984 46.4424 43.8814 47.1981C43.37 47.9481 42.6712 48.539 41.7848 48.9708C40.8984 49.4026 39.8899 49.6185 38.7592 49.6185ZM57.0405 46.1072V45.1867C57.0405 44.5503 57.1712 43.968 57.4325 43.4395C57.6996 42.9055 58.0859 42.4793 58.5916 42.1611C59.103 41.8373 59.7223 41.6753 60.4496 41.6753C61.1882 41.6753 61.8075 41.8373 62.3075 42.1611C62.8075 42.4793 63.1854 42.9055 63.4411 43.4395C63.6967 43.968 63.8246 44.5503 63.8246 45.1867V46.1072C63.8246 46.7435 63.6939 47.3287 63.4325 47.8628C63.1768 48.3912 62.7962 48.8174 62.2905 49.1412C61.7905 49.4594 61.1768 49.6185 60.4496 49.6185C59.7109 49.6185 59.0888 49.4594 58.5831 49.1412C58.0774 48.8174 57.6939 48.3912 57.4325 47.8628C57.1712 47.3287 57.0405 46.7435 57.0405 46.1072ZM58.7791 45.1867V46.1072C58.7791 46.6356 58.9041 47.11 59.1541 47.5305C59.4041 47.9452 59.8359 48.1526 60.4496 48.1526C61.0462 48.1526 61.4666 47.9452 61.7109 47.5305C61.9609 47.11 62.0859 46.6356 62.0859 46.1072V45.1867C62.0859 44.6583 61.9666 44.1867 61.728 43.7719C61.4893 43.3515 61.0632 43.1412 60.4496 43.1412C59.853 43.1412 59.424 43.3515 59.1626 43.7719C58.907 44.1867 58.7791 44.6583 58.7791 45.1867ZM48.3473 36.1185V35.1981C48.3473 34.5617 48.478 33.9793 48.7393 33.4509C49.0064 32.9168 49.3928 32.4907 49.8984 32.1725C50.4098 31.8486 51.0291 31.6867 51.7564 31.6867C52.495 31.6867 53.1143 31.8486 53.6143 32.1725C54.1143 32.4907 54.4922 32.9168 54.7479 33.4509C55.0036 33.9793 55.1314 34.5617 55.1314 35.1981V36.1185C55.1314 36.7549 55.0007 37.3401 54.7393 37.8742C54.4837 38.4026 54.103 38.8287 53.5973 39.1526C53.0973 39.4708 52.4837 39.6299 51.7564 39.6299C51.0178 39.6299 50.3956 39.4708 49.8899 39.1526C49.3842 38.8287 49.0007 38.4026 48.7393 37.8742C48.478 37.3401 48.3473 36.7549 48.3473 36.1185ZM50.0859 35.1981V36.1185C50.0859 36.6469 50.2109 37.1214 50.4609 37.5418C50.7109 37.9566 51.1428 38.164 51.7564 38.164C52.353 38.164 52.7734 37.9566 53.0178 37.5418C53.2678 37.1214 53.3928 36.6469 53.3928 36.1185V35.1981C53.3928 34.6697 53.2734 34.1981 53.0348 33.7833C52.7962 33.3628 52.37 33.1526 51.7564 33.1526C51.1598 33.1526 50.7308 33.3628 50.4695 33.7833C50.2138 34.1981 50.0859 34.6697 50.0859 35.1981ZM48.995 49.3799L60.995 31.9253H62.9382L50.9382 49.3799H48.995Z" fill="white"/>
<rect x="72" y="31.3799" width="47" height="18" rx="2" fill="#05C168" fill-opacity="0.2"/>
<rect x="72.3" y="31.6799" width="46.4" height="17.4" rx="1.7" stroke="#05C168" stroke-opacity="0.2" stroke-width="0.6"/>
<path d="M76.43 43.3799H81.27V42.4699H77.72C78.08 40.9099 81.19 40.3699 81.19 38.1699C81.19 36.9099 80.27 36.0799 78.87 36.0799C77.4 36.0799 76.41 36.9999 76.45 38.4099H77.46C77.41 37.5099 77.98 36.9699 78.81 36.9699C79.6 36.9699 80.12 37.4599 80.12 38.2199C80.12 40.0599 76.43 40.3899 76.43 43.1999V43.3799ZM84.792 43.4499C86.342 43.4499 87.392 42.6799 87.392 41.4599C87.392 40.5799 86.872 39.8699 85.942 39.7599V39.7099C86.852 39.5499 87.272 38.8399 87.272 38.0499C87.272 36.8799 86.332 36.0899 84.792 36.0899C83.262 36.0899 82.322 36.8699 82.322 38.0399C82.322 38.8399 82.762 39.5399 83.662 39.7099V39.7599C82.722 39.8899 82.192 40.6299 82.192 41.4699C82.192 42.6899 83.242 43.4499 84.792 43.4499ZM84.792 39.3299C83.832 39.3299 83.382 38.8399 83.382 38.1399C83.382 37.4099 83.912 36.9499 84.792 36.9499C85.662 36.9499 86.222 37.3999 86.222 38.1399C86.222 38.8099 85.792 39.3299 84.792 39.3299ZM84.792 42.5599C83.902 42.5599 83.302 42.1099 83.302 41.3299C83.302 40.6799 83.762 40.1599 84.792 40.1599C85.812 40.1599 86.292 40.6499 86.292 41.3299C86.292 42.0899 85.712 42.5599 84.792 42.5599ZM88.3859 43.3799H89.4159V42.3299H88.3859V43.3799ZM92.9548 43.4699C94.5248 43.4699 95.5248 42.4699 95.5248 40.9799C95.5248 39.5599 94.6148 38.5699 93.1848 38.5699C92.5348 38.5699 91.9548 38.8299 91.6648 39.2299L91.6048 39.2099L91.7048 37.0699H95.1448V36.1699H90.7948L90.6248 40.2599H91.6048C91.8048 39.7799 92.2848 39.4399 92.9748 39.4399C93.8748 39.4399 94.4648 40.0399 94.4648 41.0199C94.4648 41.9299 93.9148 42.5599 92.9648 42.5599C92.0848 42.5599 91.5148 42.0099 91.5148 41.1799H90.4848C90.4948 42.5499 91.4548 43.4699 92.9548 43.4699ZM97.6293 43.3799H98.3993L103.029 36.0899H102.259L97.6293 43.3799ZM97.9493 40.0599C98.8293 40.0599 99.4193 39.3599 99.4193 38.0899C99.4193 36.8699 98.8693 36.1299 97.9693 36.1299C97.0693 36.1299 96.4793 36.8299 96.4793 38.0799C96.4793 39.3099 97.0293 40.0599 97.9493 40.0599ZM97.9593 39.4399C97.5093 39.4399 97.2093 39.1099 97.2093 38.0899C97.2093 37.0699 97.5193 36.7499 97.9593 36.7499C98.3893 36.7499 98.6893 37.0699 98.6893 38.0899C98.6893 39.1099 98.3893 39.4399 97.9593 39.4399ZM102.709 43.4199C103.589 43.4199 104.179 42.7199 104.179 41.4599C104.179 40.2299 103.629 39.4799 102.729 39.4799C101.829 39.4799 101.239 40.1899 101.239 41.4399C101.239 42.6699 101.789 43.4199 102.709 43.4199ZM102.719 42.7999C102.269 42.7999 101.969 42.4699 101.969 41.4499C101.969 40.4299 102.269 40.1099 102.719 40.1099C103.139 40.1099 103.439 40.4299 103.439 41.4499C103.439 42.4799 103.139 42.7999 102.719 42.7999Z" fill="#14CA74"/>
<path d="M108.333 43.0464L113.667 37.7131" stroke="#14CA74" stroke-width="0.8" stroke-linecap="round" stroke-linejoin="round"/>
<path d="M113.667 42.7412V37.7129H108.638" stroke="#14CA74" stroke-width="0.8" stroke-linecap="round" stroke-linejoin="round"/>
<path d="M30.9432 222H30.2045L32.3409 216.182H33.0682L35.2045 222H34.4659L32.7273 217.102H32.6818L30.9432 222ZM31.2159 219.727H34.1932V220.352H31.2159V219.727ZM38.7699 220.216V217.636H39.4403V222H38.7699V221.261H38.7244C38.6222 221.483 38.4631 221.671 38.2472 221.827C38.0313 221.98 37.7585 222.057 37.429 222.057C37.1562 222.057 36.9138 221.997 36.7017 221.878C36.4896 221.757 36.3229 221.575 36.2017 221.332C36.0805 221.088 36.0199 220.78 36.0199 220.409V217.636H36.6903V220.364C36.6903 220.682 36.7794 220.936 36.9574 221.125C37.1373 221.314 37.3665 221.409 37.6449 221.409C37.8116 221.409 37.9811 221.366 38.1534 221.281C38.3277 221.196 38.4735 221.065 38.5909 220.889C38.7102 220.713 38.7699 220.489 38.7699 220.216ZM42.4297 223.727C42.1058 223.727 41.8274 223.686 41.5945 223.602C41.3615 223.521 41.1674 223.413 41.0121 223.278C40.8587 223.146 40.7365 223.004 40.6456 222.852L41.1797 222.477C41.2403 222.557 41.317 222.648 41.4098 222.75C41.5026 222.854 41.6295 222.944 41.7905 223.02C41.9534 223.098 42.1664 223.136 42.4297 223.136C42.782 223.136 43.0727 223.051 43.3018 222.881C43.531 222.71 43.6456 222.443 43.6456 222.08V221.193H43.5888C43.5395 221.273 43.4695 221.371 43.3786 221.489C43.2895 221.604 43.1607 221.707 42.9922 221.798C42.8255 221.887 42.6001 221.932 42.3161 221.932C41.9638 221.932 41.6475 221.848 41.3672 221.682C41.0888 221.515 40.8681 221.273 40.7053 220.955C40.5443 220.636 40.4638 220.25 40.4638 219.795C40.4638 219.348 40.5424 218.959 40.6996 218.628C40.8568 218.295 41.0755 218.037 41.3558 217.855C41.6361 217.671 41.96 217.58 42.3274 217.58C42.6115 217.58 42.8369 217.627 43.0036 217.722C43.1721 217.814 43.3009 217.92 43.3899 218.04C43.4808 218.157 43.5509 218.254 43.6001 218.33H43.6683V217.636H44.3161V222.125C44.3161 222.5 44.2308 222.805 44.0604 223.04C43.8918 223.277 43.6645 223.45 43.3786 223.56C43.0945 223.671 42.7782 223.727 42.4297 223.727ZM42.407 221.33C42.6759 221.33 42.9032 221.268 43.0888 221.145C43.2744 221.022 43.4155 220.845 43.5121 220.614C43.6087 220.383 43.657 220.106 43.657 219.784C43.657 219.47 43.6096 219.192 43.5149 218.952C43.4202 218.711 43.2801 218.523 43.0945 218.386C42.9089 218.25 42.6797 218.182 42.407 218.182C42.1229 218.182 41.8861 218.254 41.6967 218.398C41.5092 218.542 41.3681 218.735 41.2734 218.977C41.1806 219.22 41.1342 219.489 41.1342 219.784C41.1342 220.087 41.1816 220.355 41.2763 220.588C41.3729 220.819 41.5149 221.001 41.7024 221.134C41.8918 221.264 42.1267 221.33 42.407 221.33ZM47.782 222V221.489L49.7024 219.386C49.9278 219.14 50.1134 218.926 50.2592 218.744C50.4051 218.561 50.513 218.388 50.5831 218.227C50.6551 218.064 50.6911 217.894 50.6911 217.716C50.6911 217.511 50.6418 217.334 50.5433 217.185C50.4467 217.035 50.3142 216.92 50.1456 216.838C49.977 216.757 49.7876 216.716 49.5774 216.716C49.3539 216.716 49.1589 216.762 48.9922 216.855C48.8274 216.946 48.6996 217.074 48.6087 217.239C48.5196 217.403 48.4751 217.597 48.4751 217.818H47.8047C47.8047 217.477 47.8833 217.178 48.0405 216.92C48.1977 216.663 48.4117 216.462 48.6825 216.318C48.9553 216.174 49.2611 216.102 49.6001 216.102C49.9411 216.102 50.2431 216.174 50.5064 216.318C50.7696 216.462 50.9761 216.656 51.1257 216.901C51.2753 217.145 51.3501 217.417 51.3501 217.716C51.3501 217.93 51.3113 218.139 51.2337 218.344C51.1579 218.546 51.0253 218.773 50.8359 219.023C50.6484 219.271 50.388 219.574 50.0547 219.932L48.7479 221.33V221.375H51.4524V222H47.782ZM54.5234 222.08C54.0954 222.08 53.7308 221.963 53.4297 221.73C53.1286 221.495 52.8984 221.155 52.7393 220.71C52.5803 220.263 52.5007 219.723 52.5007 219.091C52.5007 218.462 52.5803 217.925 52.7393 217.48C52.9003 217.033 53.1314 216.692 53.4325 216.457C53.7356 216.221 54.0992 216.102 54.5234 216.102C54.9477 216.102 55.3104 216.221 55.6115 216.457C55.9145 216.692 56.1456 217.033 56.3047 217.48C56.4657 217.925 56.5462 218.462 56.5462 219.091C56.5462 219.723 56.4666 220.263 56.3075 220.71C56.1484 221.155 55.9183 221.495 55.6172 221.73C55.3161 221.963 54.9515 222.08 54.5234 222.08ZM54.5234 221.455C54.9477 221.455 55.2772 221.25 55.5121 220.841C55.7469 220.432 55.8643 219.848 55.8643 219.091C55.8643 218.587 55.8104 218.158 55.7024 217.804C55.5964 217.45 55.4429 217.18 55.2422 216.994C55.0433 216.809 54.8037 216.716 54.5234 216.716C54.103 216.716 53.7744 216.923 53.5376 217.338C53.3009 217.751 53.1825 218.335 53.1825 219.091C53.1825 219.595 53.2356 220.023 53.3416 220.375C53.4477 220.727 53.6001 220.995 53.799 221.179C53.9998 221.363 54.2412 221.455 54.5234 221.455ZM57.6257 222V221.489L59.5462 219.386C59.7715 219.14 59.9571 218.926 60.103 218.744C60.2488 218.561 60.3568 218.388 60.4268 218.227C60.4988 218.064 60.5348 217.894 60.5348 217.716C60.5348 217.511 60.4856 217.334 60.3871 217.185C60.2905 217.035 60.1579 216.92 59.9893 216.838C59.8208 216.757 59.6314 216.716 59.4212 216.716C59.1977 216.716 59.0026 216.762 58.8359 216.855C58.6712 216.946 58.5433 217.074 58.4524 217.239C58.3634 217.403 58.3189 217.597 58.3189 217.818H57.6484C57.6484 217.477 57.727 217.178 57.8842 216.92C58.0414 216.663 58.2554 216.462 58.5263 216.318C58.799 216.174 59.1049 216.102 59.4439 216.102C59.7848 216.102 60.0869 216.174 60.3501 216.318C60.6134 216.462 60.8198 216.656 60.9695 216.901C61.1191 217.145 61.1939 217.417 61.1939 217.716C61.1939 217.93 61.1551 218.139 61.0774 218.344C61.0017 218.546 60.8691 218.773 60.6797 219.023C60.4922 219.271 60.2318 219.574 59.8984 219.932L58.5916 221.33V221.375H61.2962V222H57.6257ZM64.4354 222.08C64.0604 222.08 63.7261 222.015 63.4325 221.886C63.1409 221.758 62.9089 221.579 62.7365 221.349C62.5661 221.118 62.4732 220.85 62.4581 220.545H63.174C63.1892 220.733 63.2536 220.895 63.3672 221.031C63.4808 221.166 63.6295 221.27 63.8132 221.344C63.9969 221.418 64.2005 221.455 64.424 221.455C64.674 221.455 64.8956 221.411 65.0888 221.324C65.282 221.237 65.4335 221.116 65.5433 220.96C65.6532 220.805 65.7081 220.625 65.7081 220.42C65.7081 220.206 65.6551 220.018 65.549 219.855C65.4429 219.69 65.2876 219.562 65.0831 219.469C64.8786 219.376 64.6286 219.33 64.3331 219.33H63.8672V218.705H64.3331C64.5642 218.705 64.7668 218.663 64.9411 218.58C65.1172 218.496 65.2545 218.379 65.353 218.227C65.4534 218.076 65.5036 217.898 65.5036 217.693C65.5036 217.496 65.46 217.325 65.3729 217.179C65.2857 217.033 65.1626 216.92 65.0036 216.838C64.8464 216.757 64.6607 216.716 64.4467 216.716C64.246 216.716 64.0566 216.753 63.8786 216.827C63.7024 216.899 63.5585 217.004 63.4467 217.142C63.335 217.278 63.2744 217.443 63.2649 217.636H62.5831C62.5945 217.331 62.6863 217.064 62.8587 216.835C63.031 216.604 63.2564 216.424 63.5348 216.295C63.8151 216.167 64.1229 216.102 64.4581 216.102C64.8179 216.102 65.1267 216.175 65.3842 216.321C65.6418 216.465 65.8397 216.655 65.978 216.892C66.1162 217.129 66.1854 217.384 66.1854 217.659C66.1854 217.987 66.0992 218.266 65.9268 218.497C65.7564 218.728 65.5244 218.888 65.2308 218.977V219.023C65.5982 219.083 65.8852 219.24 66.0916 219.491C66.2981 219.741 66.4013 220.051 66.4013 220.42C66.4013 220.737 66.3151 221.021 66.1428 221.273C65.9723 221.523 65.7393 221.72 65.4439 221.864C65.1484 222.008 64.8123 222.08 64.4354 222.08Z" fill="#AEB9E1"/>
<path d="M110.886 217.636C110.852 217.348 110.714 217.125 110.472 216.966C110.229 216.807 109.932 216.727 109.58 216.727C109.322 216.727 109.097 216.769 108.903 216.852C108.712 216.936 108.563 217.05 108.455 217.196C108.348 217.342 108.295 217.508 108.295 217.693C108.295 217.848 108.332 217.982 108.406 218.094C108.482 218.204 108.579 218.295 108.696 218.369C108.813 218.441 108.937 218.501 109.065 218.548C109.194 218.594 109.312 218.631 109.42 218.659L110.011 218.818C110.163 218.858 110.331 218.913 110.517 218.983C110.705 219.053 110.884 219.149 111.054 219.27C111.226 219.389 111.368 219.543 111.48 219.73C111.592 219.918 111.648 220.148 111.648 220.42C111.648 220.735 111.565 221.019 111.401 221.273C111.238 221.527 110.999 221.728 110.685 221.878C110.372 222.027 109.992 222.102 109.545 222.102C109.129 222.102 108.768 222.035 108.463 221.901C108.16 221.766 107.921 221.579 107.747 221.338C107.575 221.098 107.477 220.818 107.455 220.5H108.182C108.201 220.72 108.275 220.902 108.403 221.045C108.534 221.187 108.699 221.294 108.898 221.364C109.098 221.432 109.314 221.466 109.545 221.466C109.814 221.466 110.056 221.422 110.27 221.335C110.484 221.246 110.653 221.123 110.778 220.966C110.903 220.807 110.966 220.621 110.966 220.409C110.966 220.216 110.912 220.059 110.804 219.938C110.696 219.816 110.554 219.718 110.378 219.642C110.202 219.566 110.011 219.5 109.807 219.443L109.091 219.239C108.636 219.108 108.277 218.921 108.011 218.679C107.746 218.437 107.614 218.119 107.614 217.727C107.614 217.402 107.702 217.117 107.878 216.875C108.056 216.631 108.295 216.441 108.594 216.307C108.895 216.17 109.231 216.102 109.602 216.102C109.977 216.102 110.311 216.17 110.602 216.304C110.894 216.437 111.125 216.618 111.295 216.849C111.468 217.08 111.559 217.343 111.568 217.636H110.886ZM114.545 222.091C114.124 222.091 113.762 221.998 113.457 221.812C113.154 221.625 112.92 221.364 112.755 221.028C112.592 220.691 112.511 220.299 112.511 219.852C112.511 219.405 112.592 219.011 112.755 218.67C112.92 218.328 113.149 218.061 113.442 217.869C113.738 217.676 114.083 217.58 114.477 217.58C114.704 217.58 114.928 217.617 115.15 217.693C115.371 217.769 115.573 217.892 115.755 218.062C115.937 218.231 116.082 218.455 116.19 218.733C116.298 219.011 116.352 219.354 116.352 219.761V220.045H112.988V219.466H115.67C115.67 219.22 115.621 219 115.522 218.807C115.425 218.614 115.287 218.461 115.107 218.349C114.929 218.238 114.719 218.182 114.477 218.182C114.21 218.182 113.978 218.248 113.783 218.381C113.59 218.511 113.442 218.682 113.337 218.892C113.233 219.102 113.181 219.328 113.181 219.568V219.955C113.181 220.284 113.238 220.563 113.352 220.793C113.467 221.02 113.627 221.193 113.832 221.312C114.036 221.43 114.274 221.489 114.545 221.489C114.721 221.489 114.88 221.464 115.022 221.415C115.166 221.364 115.29 221.288 115.394 221.188C115.498 221.085 115.579 220.958 115.636 220.807L116.283 220.989C116.215 221.208 116.101 221.402 115.94 221.568C115.779 221.733 115.58 221.862 115.343 221.955C115.106 222.045 114.84 222.091 114.545 222.091ZM117.371 223.636V217.636H118.019V218.33H118.099C118.148 218.254 118.216 218.157 118.303 218.04C118.392 217.92 118.519 217.814 118.684 217.722C118.851 217.627 119.076 217.58 119.36 217.58C119.728 217.58 120.051 217.671 120.332 217.855C120.612 218.039 120.831 218.299 120.988 218.636C121.145 218.973 121.224 219.371 121.224 219.83C121.224 220.292 121.145 220.692 120.988 221.031C120.831 221.368 120.613 221.63 120.335 221.815C120.056 221.999 119.735 222.091 119.371 222.091C119.091 222.091 118.867 222.045 118.698 221.952C118.53 221.857 118.4 221.75 118.309 221.631C118.218 221.509 118.148 221.409 118.099 221.33H118.042V223.636H117.371ZM118.031 219.818C118.031 220.148 118.079 220.438 118.175 220.69C118.272 220.94 118.413 221.136 118.599 221.278C118.784 221.419 119.012 221.489 119.281 221.489C119.561 221.489 119.795 221.415 119.982 221.267C120.172 221.117 120.314 220.917 120.408 220.665C120.505 220.411 120.553 220.129 120.553 219.818C120.553 219.511 120.506 219.235 120.411 218.989C120.318 218.741 120.177 218.545 119.988 218.401C119.8 218.255 119.565 218.182 119.281 218.182C119.008 218.182 118.779 218.251 118.593 218.389C118.407 218.526 118.267 218.717 118.173 218.963C118.078 219.207 118.031 219.492 118.031 219.818ZM124.485 222V221.489L126.406 219.386C126.631 219.14 126.817 218.926 126.962 218.744C127.108 218.561 127.216 218.388 127.286 218.227C127.358 218.064 127.394 217.894 127.394 217.716C127.394 217.511 127.345 217.334 127.246 217.185C127.15 217.035 127.017 216.92 126.849 216.838C126.68 216.757 126.491 216.716 126.281 216.716C126.057 216.716 125.862 216.762 125.695 216.855C125.531 216.946 125.403 217.074 125.312 217.239C125.223 217.403 125.178 217.597 125.178 217.818H124.508C124.508 217.477 124.586 217.178 124.744 216.92C124.901 216.663 125.115 216.462 125.386 216.318C125.658 216.174 125.964 216.102 126.303 216.102C126.644 216.102 126.946 216.174 127.21 216.318C127.473 216.462 127.679 216.656 127.829 216.901C127.978 217.145 128.053 217.417 128.053 217.716C128.053 217.93 128.014 218.139 127.937 218.344C127.861 218.546 127.728 218.773 127.539 219.023C127.352 219.271 127.091 219.574 126.758 219.932L125.451 221.33V221.375H128.156V222H124.485ZM131.227 222.08C130.799 222.08 130.434 221.963 130.133 221.73C129.832 221.495 129.602 221.155 129.442 220.71C129.283 220.263 129.204 219.723 129.204 219.091C129.204 218.462 129.283 217.925 129.442 217.48C129.603 217.033 129.835 216.692 130.136 216.457C130.439 216.221 130.802 216.102 131.227 216.102C131.651 216.102 132.013 216.221 132.315 216.457C132.618 216.692 132.849 217.033 133.008 217.48C133.169 217.925 133.249 218.462 133.249 219.091C133.249 219.723 133.17 220.263 133.011 220.71C132.852 221.155 132.621 221.495 132.32 221.73C132.019 221.963 131.655 222.08 131.227 222.08ZM131.227 221.455C131.651 221.455 131.98 221.25 132.215 220.841C132.45 220.432 132.567 219.848 132.567 219.091C132.567 218.587 132.513 218.158 132.406 217.804C132.299 217.45 132.146 217.18 131.945 216.994C131.746 216.809 131.507 216.716 131.227 216.716C130.806 216.716 130.478 216.923 130.241 217.338C130.004 217.751 129.886 218.335 129.886 219.091C129.886 219.595 129.939 220.023 130.045 220.375C130.151 220.727 130.303 220.995 130.502 221.179C130.703 221.363 130.944 221.455 131.227 221.455ZM134.329 222V221.489L136.249 219.386C136.475 219.14 136.66 218.926 136.806 218.744C136.952 218.561 137.06 218.388 137.13 218.227C137.202 218.064 137.238 217.894 137.238 217.716C137.238 217.511 137.189 217.334 137.09 217.185C136.994 217.035 136.861 216.92 136.692 216.838C136.524 216.757 136.335 216.716 136.124 216.716C135.901 216.716 135.706 216.762 135.539 216.855C135.374 216.946 135.246 217.074 135.156 217.239C135.067 217.403 135.022 217.597 135.022 217.818H134.352C134.352 217.477 134.43 217.178 134.587 216.92C134.745 216.663 134.959 216.462 135.229 216.318C135.502 216.174 135.808 216.102 136.147 216.102C136.488 216.102 136.79 216.174 137.053 216.318C137.317 216.462 137.523 216.656 137.673 216.901C137.822 217.145 137.897 217.417 137.897 217.716C137.897 217.93 137.858 218.139 137.781 218.344C137.705 218.546 137.572 218.773 137.383 219.023C137.195 219.271 136.935 219.574 136.602 219.932L135.295 221.33V221.375H137.999V222H134.329ZM141.138 222.08C140.763 222.08 140.429 222.015 140.136 221.886C139.844 221.758 139.612 221.579 139.44 221.349C139.269 221.118 139.176 220.85 139.161 220.545H139.877C139.892 220.733 139.957 220.895 140.07 221.031C140.184 221.166 140.333 221.27 140.516 221.344C140.7 221.418 140.904 221.455 141.127 221.455C141.377 221.455 141.599 221.411 141.792 221.324C141.985 221.237 142.137 221.116 142.246 220.96C142.356 220.805 142.411 220.625 142.411 220.42C142.411 220.206 142.358 220.018 142.252 219.855C142.146 219.69 141.991 219.562 141.786 219.469C141.582 219.376 141.332 219.33 141.036 219.33H140.57V218.705H141.036C141.267 218.705 141.47 218.663 141.644 218.58C141.82 218.496 141.958 218.379 142.056 218.227C142.156 218.076 142.207 217.898 142.207 217.693C142.207 217.496 142.163 217.325 142.076 217.179C141.989 217.033 141.866 216.92 141.707 216.838C141.549 216.757 141.364 216.716 141.15 216.716C140.949 216.716 140.76 216.753 140.582 216.827C140.406 216.899 140.262 217.004 140.15 217.142C140.038 217.278 139.978 217.443 139.968 217.636H139.286C139.298 217.331 139.389 217.064 139.562 216.835C139.734 216.604 139.96 216.424 140.238 216.295C140.518 216.167 140.826 216.102 141.161 216.102C141.521 216.102 141.83 216.175 142.087 216.321C142.345 216.465 142.543 216.655 142.681 216.892C142.819 217.129 142.888 217.384 142.888 217.659C142.888 217.987 142.802 218.266 142.63 218.497C142.46 218.728 142.228 218.888 141.934 218.977V219.023C142.301 219.083 142.588 219.24 142.795 219.491C143.001 219.741 143.104 220.051 143.104 220.42C143.104 220.737 143.018 221.021 142.846 221.273C142.675 221.523 142.442 221.72 142.147 221.864C141.852 222.008 141.515 222.08 141.138 222.08Z" fill="#AEB9E1"/>
<path d="M189.614 219.091C189.614 219.705 189.503 220.235 189.281 220.682C189.06 221.129 188.756 221.473 188.369 221.716C187.983 221.958 187.542 222.08 187.045 222.08C186.549 222.08 186.108 221.958 185.722 221.716C185.335 221.473 185.031 221.129 184.81 220.682C184.588 220.235 184.477 219.705 184.477 219.091C184.477 218.477 184.588 217.947 184.81 217.5C185.031 217.053 185.335 216.708 185.722 216.466C186.108 216.223 186.549 216.102 187.045 216.102C187.542 216.102 187.983 216.223 188.369 216.466C188.756 216.708 189.06 217.053 189.281 217.5C189.503 217.947 189.614 218.477 189.614 219.091ZM188.932 219.091C188.932 218.587 188.848 218.162 188.679 217.815C188.512 217.469 188.286 217.206 188 217.028C187.716 216.85 187.398 216.761 187.045 216.761C186.693 216.761 186.374 216.85 186.088 217.028C185.804 217.206 185.578 217.469 185.409 217.815C185.242 218.162 185.159 218.587 185.159 219.091C185.159 219.595 185.242 220.02 185.409 220.366C185.578 220.713 185.804 220.975 186.088 221.153C186.374 221.331 186.693 221.42 187.045 221.42C187.398 221.42 187.716 221.331 188 221.153C188.286 220.975 188.512 220.713 188.679 220.366C188.848 220.02 188.932 219.595 188.932 219.091ZM192.48 222.091C192.071 222.091 191.719 221.994 191.423 221.801C191.128 221.608 190.901 221.342 190.741 221.003C190.582 220.664 190.503 220.277 190.503 219.841C190.503 219.398 190.584 219.007 190.747 218.668C190.912 218.327 191.141 218.061 191.435 217.869C191.73 217.676 192.075 217.58 192.469 217.58C192.776 217.58 193.052 217.636 193.298 217.75C193.545 217.864 193.746 218.023 193.903 218.227C194.061 218.432 194.158 218.67 194.196 218.943H193.526C193.474 218.744 193.361 218.568 193.185 218.415C193.01 218.259 192.776 218.182 192.48 218.182C192.219 218.182 191.99 218.25 191.793 218.386C191.598 218.521 191.445 218.711 191.335 218.957C191.227 219.202 191.173 219.489 191.173 219.818C191.173 220.155 191.226 220.449 191.332 220.699C191.44 220.949 191.592 221.143 191.787 221.281C191.984 221.42 192.215 221.489 192.48 221.489C192.654 221.489 192.812 221.458 192.955 221.398C193.097 221.337 193.217 221.25 193.315 221.136C193.414 221.023 193.484 220.886 193.526 220.727H194.196C194.158 220.985 194.064 221.217 193.915 221.423C193.767 221.628 193.571 221.791 193.327 221.912C193.084 222.031 192.802 222.091 192.48 222.091ZM197.074 217.636V218.205H194.812V217.636H197.074ZM195.472 216.591H196.142V220.75C196.142 220.939 196.17 221.081 196.224 221.176C196.281 221.269 196.353 221.331 196.44 221.364C196.529 221.394 196.623 221.409 196.722 221.409C196.795 221.409 196.856 221.405 196.903 221.398C196.951 221.388 196.989 221.381 197.017 221.375L197.153 221.977C197.108 221.994 197.045 222.011 196.963 222.028C196.882 222.047 196.778 222.057 196.653 222.057C196.464 222.057 196.278 222.016 196.097 221.935C195.917 221.853 195.767 221.729 195.648 221.562C195.53 221.396 195.472 221.186 195.472 220.932V216.591ZM200.321 222V221.489L202.241 219.386C202.467 219.14 202.652 218.926 202.798 218.744C202.944 218.561 203.052 218.388 203.122 218.227C203.194 218.064 203.23 217.894 203.23 217.716C203.23 217.511 203.181 217.334 203.082 217.185C202.986 217.035 202.853 216.92 202.685 216.838C202.516 216.757 202.327 216.716 202.116 216.716C201.893 216.716 201.698 216.762 201.531 216.855C201.366 216.946 201.239 217.074 201.148 217.239C201.059 217.403 201.014 217.597 201.014 217.818H200.344C200.344 217.477 200.422 217.178 200.58 216.92C200.737 216.663 200.951 216.462 201.222 216.318C201.494 216.174 201.8 216.102 202.139 216.102C202.48 216.102 202.782 216.174 203.045 216.318C203.309 216.462 203.515 216.656 203.665 216.901C203.814 217.145 203.889 217.417 203.889 217.716C203.889 217.93 203.85 218.139 203.773 218.344C203.697 218.546 203.564 218.773 203.375 219.023C203.188 219.271 202.927 219.574 202.594 219.932L201.287 221.33V221.375H203.991V222H200.321ZM207.062 222.08C206.634 222.08 206.27 221.963 205.969 221.73C205.668 221.495 205.438 221.155 205.278 220.71C205.119 220.263 205.04 219.723 205.04 219.091C205.04 218.462 205.119 217.925 205.278 217.48C205.439 217.033 205.67 216.692 205.972 216.457C206.275 216.221 206.638 216.102 207.062 216.102C207.487 216.102 207.849 216.221 208.151 216.457C208.454 216.692 208.685 217.033 208.844 217.48C209.005 217.925 209.085 218.462 209.085 219.091C209.085 219.723 209.006 220.263 208.847 220.71C208.688 221.155 208.457 221.495 208.156 221.73C207.855 221.963 207.491 222.08 207.062 222.08ZM207.062 221.455C207.487 221.455 207.816 221.25 208.051 220.841C208.286 220.432 208.403 219.848 208.403 219.091C208.403 218.587 208.349 218.158 208.241 217.804C208.135 217.45 207.982 217.18 207.781 216.994C207.582 216.809 207.343 216.716 207.062 216.716C206.642 216.716 206.313 216.923 206.077 217.338C205.84 217.751 205.722 218.335 205.722 219.091C205.722 219.595 205.775 220.023 205.881 220.375C205.987 220.727 206.139 220.995 206.338 221.179C206.539 221.363 206.78 221.455 207.062 221.455ZM210.165 222V221.489L212.085 219.386C212.311 219.14 212.496 218.926 212.642 218.744C212.788 218.561 212.896 218.388 212.966 218.227C213.038 218.064 213.074 217.894 213.074 217.716C213.074 217.511 213.025 217.334 212.926 217.185C212.83 217.035 212.697 216.92 212.528 216.838C212.36 216.757 212.17 216.716 211.96 216.716C211.737 216.716 211.542 216.762 211.375 216.855C211.21 216.946 211.082 217.074 210.991 217.239C210.902 217.403 210.858 217.597 210.858 217.818H210.188C210.188 217.477 210.266 217.178 210.423 216.92C210.58 216.663 210.795 216.462 211.065 216.318C211.338 216.174 211.644 216.102 211.983 216.102C212.324 216.102 212.626 216.174 212.889 216.318C213.152 216.462 213.359 216.656 213.509 216.901C213.658 217.145 213.733 217.417 213.733 217.716C213.733 217.93 213.694 218.139 213.616 218.344C213.541 218.546 213.408 218.773 213.219 219.023C213.031 219.271 212.771 219.574 212.438 219.932L211.131 221.33V221.375H213.835V222H210.165ZM216.974 222.08C216.599 222.08 216.265 222.015 215.972 221.886C215.68 221.758 215.448 221.579 215.276 221.349C215.105 221.118 215.012 220.85 214.997 220.545H215.713C215.728 220.733 215.793 220.895 215.906 221.031C216.02 221.166 216.169 221.27 216.352 221.344C216.536 221.418 216.74 221.455 216.963 221.455C217.213 221.455 217.435 221.411 217.628 221.324C217.821 221.237 217.973 221.116 218.082 220.96C218.192 220.805 218.247 220.625 218.247 220.42C218.247 220.206 218.194 220.018 218.088 219.855C217.982 219.69 217.827 219.562 217.622 219.469C217.418 219.376 217.168 219.33 216.872 219.33H216.406V218.705H216.872C217.103 218.705 217.306 218.663 217.48 218.58C217.656 218.496 217.794 218.379 217.892 218.227C217.992 218.076 218.043 217.898 218.043 217.693C218.043 217.496 217.999 217.325 217.912 217.179C217.825 217.033 217.702 216.92 217.543 216.838C217.385 216.757 217.2 216.716 216.986 216.716C216.785 216.716 216.596 216.753 216.418 216.827C216.241 216.899 216.098 217.004 215.986 217.142C215.874 217.278 215.813 217.443 215.804 217.636H215.122C215.134 217.331 215.225 217.064 215.398 216.835C215.57 216.604 215.795 216.424 216.074 216.295C216.354 216.167 216.662 216.102 216.997 216.102C217.357 216.102 217.666 216.175 217.923 216.321C218.181 216.465 218.379 216.655 218.517 216.892C218.655 217.129 218.724 217.384 218.724 217.659C218.724 217.987 218.638 218.266 218.466 218.497C218.295 218.728 218.063 218.888 217.77 218.977V219.023C218.137 219.083 218.424 219.24 218.631 219.491C218.837 219.741 218.94 220.051 218.94 220.42C218.94 220.737 218.854 221.021 218.682 221.273C218.511 221.523 218.278 221.72 217.983 221.864C217.688 222.008 217.351 222.08 216.974 222.08Z" fill="#AEB9E1"/>
<path d="M265.318 216.182V222H264.636L261.466 217.432H261.409V222H260.705V216.182H261.386L264.568 220.761H264.625V216.182H265.318ZM268.41 222.091C268.016 222.091 267.67 221.997 267.373 221.81C267.077 221.622 266.846 221.36 266.68 221.023C266.515 220.686 266.433 220.292 266.433 219.841C266.433 219.386 266.515 218.99 266.68 218.651C266.846 218.312 267.077 218.048 267.373 217.861C267.67 217.673 268.016 217.58 268.41 217.58C268.804 217.58 269.148 217.673 269.444 217.861C269.741 218.048 269.972 218.312 270.137 218.651C270.304 218.99 270.387 219.386 270.387 219.841C270.387 220.292 270.304 220.686 270.137 221.023C269.972 221.36 269.741 221.622 269.444 221.81C269.148 221.997 268.804 222.091 268.41 222.091ZM268.41 221.489C268.709 221.489 268.955 221.412 269.148 221.259C269.342 221.105 269.485 220.903 269.577 220.653C269.67 220.403 269.717 220.133 269.717 219.841C269.717 219.549 269.67 219.277 269.577 219.026C269.485 218.774 269.342 218.57 269.148 218.415C268.955 218.259 268.709 218.182 268.41 218.182C268.111 218.182 267.864 218.259 267.671 218.415C267.478 218.57 267.335 218.774 267.242 219.026C267.149 219.277 267.103 219.549 267.103 219.841C267.103 220.133 267.149 220.403 267.242 220.653C267.335 220.903 267.478 221.105 267.671 221.259C267.864 221.412 268.111 221.489 268.41 221.489ZM274.822 217.636L273.209 222H272.527L270.913 217.636H271.641L272.845 221.114H272.891L274.095 217.636H274.822ZM277.946 222V221.489L279.866 219.386C280.092 219.14 280.277 218.926 280.423 218.744C280.569 218.561 280.677 218.388 280.747 218.227C280.819 218.064 280.855 217.894 280.855 217.716C280.855 217.511 280.806 217.334 280.707 217.185C280.611 217.035 280.478 216.92 280.31 216.838C280.141 216.757 279.952 216.716 279.741 216.716C279.518 216.716 279.323 216.762 279.156 216.855C278.991 216.946 278.864 217.074 278.773 217.239C278.684 217.403 278.639 217.597 278.639 217.818H277.969C277.969 217.477 278.047 217.178 278.205 216.92C278.362 216.663 278.576 216.462 278.847 216.318C279.119 216.174 279.425 216.102 279.764 216.102C280.105 216.102 280.407 216.174 280.67 216.318C280.934 216.462 281.14 216.656 281.29 216.901C281.439 217.145 281.514 217.417 281.514 217.716C281.514 217.93 281.475 218.139 281.398 218.344C281.322 218.546 281.189 218.773 281 219.023C280.812 219.271 280.552 219.574 280.219 219.932L278.912 221.33V221.375H281.616V222H277.946ZM284.688 222.08C284.259 222.08 283.895 221.963 283.594 221.73C283.293 221.495 283.063 221.155 282.903 220.71C282.744 220.263 282.665 219.723 282.665 219.091C282.665 218.462 282.744 217.925 282.903 217.48C283.064 217.033 283.295 216.692 283.597 216.457C283.9 216.221 284.263 216.102 284.688 216.102C285.112 216.102 285.474 216.221 285.776 216.457C286.079 216.692 286.31 217.033 286.469 217.48C286.63 217.925 286.71 218.462 286.71 219.091C286.71 219.723 286.631 220.263 286.472 220.71C286.312 221.155 286.082 221.495 285.781 221.73C285.48 221.963 285.116 222.08 284.688 222.08ZM284.688 221.455C285.112 221.455 285.441 221.25 285.676 220.841C285.911 220.432 286.028 219.848 286.028 219.091C286.028 218.587 285.974 218.158 285.866 217.804C285.76 217.45 285.607 217.18 285.406 216.994C285.207 216.809 284.968 216.716 284.688 216.716C284.267 216.716 283.938 216.923 283.702 217.338C283.465 217.751 283.347 218.335 283.347 219.091C283.347 219.595 283.4 220.023 283.506 220.375C283.612 220.727 283.764 220.995 283.963 221.179C284.164 221.363 284.405 221.455 284.688 221.455ZM287.79 222V221.489L289.71 219.386C289.936 219.14 290.121 218.926 290.267 218.744C290.413 218.561 290.521 218.388 290.591 218.227C290.663 218.064 290.699 217.894 290.699 217.716C290.699 217.511 290.65 217.334 290.551 217.185C290.455 217.035 290.322 216.92 290.153 216.838C289.985 216.757 289.795 216.716 289.585 216.716C289.362 216.716 289.167 216.762 289 216.855C288.835 216.946 288.707 217.074 288.616 217.239C288.527 217.403 288.483 217.597 288.483 217.818H287.812C287.812 217.477 287.891 217.178 288.048 216.92C288.205 216.663 288.42 216.462 288.69 216.318C288.963 216.174 289.269 216.102 289.608 216.102C289.949 216.102 290.251 216.174 290.514 216.318C290.777 216.462 290.984 216.656 291.134 216.901C291.283 217.145 291.358 217.417 291.358 217.716C291.358 217.93 291.319 218.139 291.241 218.344C291.166 218.546 291.033 218.773 290.844 219.023C290.656 219.271 290.396 219.574 290.062 219.932L288.756 221.33V221.375H291.46V222H287.79ZM294.599 222.08C294.224 222.08 293.89 222.015 293.597 221.886C293.305 221.758 293.073 221.579 292.901 221.349C292.73 221.118 292.637 220.85 292.622 220.545H293.338C293.353 220.733 293.418 220.895 293.531 221.031C293.645 221.166 293.794 221.27 293.977 221.344C294.161 221.418 294.365 221.455 294.588 221.455C294.838 221.455 295.06 221.411 295.253 221.324C295.446 221.237 295.598 221.116 295.707 220.96C295.817 220.805 295.872 220.625 295.872 220.42C295.872 220.206 295.819 220.018 295.713 219.855C295.607 219.69 295.452 219.562 295.247 219.469C295.043 219.376 294.793 219.33 294.497 219.33H294.031V218.705H294.497C294.728 218.705 294.931 218.663 295.105 218.58C295.281 218.496 295.419 218.379 295.517 218.227C295.617 218.076 295.668 217.898 295.668 217.693C295.668 217.496 295.624 217.325 295.537 217.179C295.45 217.033 295.327 216.92 295.168 216.838C295.01 216.757 294.825 216.716 294.611 216.716C294.41 216.716 294.221 216.753 294.043 216.827C293.866 216.899 293.723 217.004 293.611 217.142C293.499 217.278 293.438 217.443 293.429 217.636H292.747C292.759 217.331 292.85 217.064 293.023 216.835C293.195 216.604 293.42 216.424 293.699 216.295C293.979 216.167 294.287 216.102 294.622 216.102C294.982 216.102 295.291 216.175 295.548 216.321C295.806 216.465 296.004 216.655 296.142 216.892C296.28 217.129 296.349 217.384 296.349 217.659C296.349 217.987 296.263 218.266 296.091 218.497C295.92 218.728 295.688 218.888 295.395 218.977V219.023C295.762 219.083 296.049 219.24 296.256 219.491C296.462 219.741 296.565 220.051 296.565 220.42C296.565 220.737 296.479 221.021 296.307 221.273C296.136 221.523 295.903 221.72 295.608 221.864C295.313 222.008 294.976 222.08 294.599 222.08Z" fill="#AEB9E1"/>
<path d="M340.5 222H338.705V216.182H340.58C341.144 216.182 341.627 216.298 342.028 216.531C342.43 216.762 342.738 217.095 342.952 217.528C343.166 217.96 343.273 218.477 343.273 219.08C343.273 219.686 343.165 220.207 342.949 220.645C342.733 221.08 342.419 221.416 342.006 221.651C341.593 221.884 341.091 222 340.5 222ZM339.409 221.375H340.455C340.936 221.375 341.334 221.282 341.651 221.097C341.967 220.911 342.203 220.647 342.358 220.304C342.513 219.961 342.591 219.553 342.591 219.08C342.591 218.61 342.514 218.205 342.361 217.866C342.207 217.526 341.978 217.264 341.673 217.082C341.368 216.899 340.989 216.807 340.534 216.807H339.409V221.375ZM346.193 222.091C345.773 222.091 345.41 221.998 345.105 221.812C344.802 221.625 344.568 221.364 344.403 221.028C344.241 220.691 344.159 220.299 344.159 219.852C344.159 219.405 344.241 219.011 344.403 218.67C344.568 218.328 344.797 218.061 345.091 217.869C345.386 217.676 345.731 217.58 346.125 217.58C346.352 217.58 346.577 217.617 346.798 217.693C347.02 217.769 347.222 217.892 347.403 218.062C347.585 218.231 347.73 218.455 347.838 218.733C347.946 219.011 348 219.354 348 219.761V220.045H344.636V219.466H347.318C347.318 219.22 347.269 219 347.17 218.807C347.074 218.614 346.936 218.461 346.756 218.349C346.578 218.238 346.367 218.182 346.125 218.182C345.858 218.182 345.627 218.248 345.432 218.381C345.239 218.511 345.09 218.682 344.986 218.892C344.882 219.102 344.83 219.328 344.83 219.568V219.955C344.83 220.284 344.886 220.563 345 220.793C345.116 221.02 345.276 221.193 345.48 221.312C345.685 221.43 345.922 221.489 346.193 221.489C346.369 221.489 346.528 221.464 346.67 221.415C346.814 221.364 346.938 221.288 347.043 221.188C347.147 221.085 347.227 220.958 347.284 220.807L347.932 220.989C347.864 221.208 347.749 221.402 347.588 221.568C347.427 221.733 347.228 221.862 346.991 221.955C346.755 222.045 346.489 222.091 346.193 222.091ZM350.793 222.091C350.384 222.091 350.031 221.994 349.736 221.801C349.44 221.608 349.213 221.342 349.054 221.003C348.895 220.664 348.815 220.277 348.815 219.841C348.815 219.398 348.897 219.007 349.06 218.668C349.224 218.327 349.454 218.061 349.747 217.869C350.043 217.676 350.387 217.58 350.781 217.58C351.088 217.58 351.365 217.636 351.611 217.75C351.857 217.864 352.059 218.023 352.216 218.227C352.373 218.432 352.471 218.67 352.509 218.943H351.838C351.787 218.744 351.673 218.568 351.497 218.415C351.323 218.259 351.088 218.182 350.793 218.182C350.531 218.182 350.302 218.25 350.105 218.386C349.91 218.521 349.758 218.711 349.648 218.957C349.54 219.202 349.486 219.489 349.486 219.818C349.486 220.155 349.539 220.449 349.645 220.699C349.753 220.949 349.904 221.143 350.099 221.281C350.296 221.42 350.527 221.489 350.793 221.489C350.967 221.489 351.125 221.458 351.267 221.398C351.409 221.337 351.529 221.25 351.628 221.136C351.726 221.023 351.796 220.886 351.838 220.727H352.509C352.471 220.985 352.377 221.217 352.227 221.423C352.08 221.628 351.884 221.791 351.639 221.912C351.397 222.031 351.115 222.091 350.793 222.091ZM355.727 222V221.489L357.648 219.386C357.873 219.14 358.059 218.926 358.205 218.744C358.35 218.561 358.458 218.388 358.528 218.227C358.6 218.064 358.636 217.894 358.636 217.716C358.636 217.511 358.587 217.334 358.489 217.185C358.392 217.035 358.259 216.92 358.091 216.838C357.922 216.757 357.733 216.716 357.523 216.716C357.299 216.716 357.104 216.762 356.938 216.855C356.773 216.946 356.645 217.074 356.554 217.239C356.465 217.403 356.42 217.597 356.42 217.818H355.75C355.75 217.477 355.829 217.178 355.986 216.92C356.143 216.663 356.357 216.462 356.628 216.318C356.901 216.174 357.206 216.102 357.545 216.102C357.886 216.102 358.188 216.174 358.452 216.318C358.715 216.462 358.921 216.656 359.071 216.901C359.221 217.145 359.295 217.417 359.295 217.716C359.295 217.93 359.257 218.139 359.179 218.344C359.103 218.546 358.971 218.773 358.781 219.023C358.594 219.271 358.333 219.574 358 219.932L356.693 221.33V221.375H359.398V222H355.727ZM362.469 222.08C362.041 222.08 361.676 221.963 361.375 221.73C361.074 221.495 360.844 221.155 360.685 220.71C360.526 220.263 360.446 219.723 360.446 219.091C360.446 218.462 360.526 217.925 360.685 217.48C360.846 217.033 361.077 216.692 361.378 216.457C361.681 216.221 362.045 216.102 362.469 216.102C362.893 216.102 363.256 216.221 363.557 216.457C363.86 216.692 364.091 217.033 364.25 217.48C364.411 217.925 364.491 218.462 364.491 219.091C364.491 219.723 364.412 220.263 364.253 220.71C364.094 221.155 363.864 221.495 363.562 221.73C363.261 221.963 362.897 222.08 362.469 222.08ZM362.469 221.455C362.893 221.455 363.223 221.25 363.457 220.841C363.692 220.432 363.81 219.848 363.81 219.091C363.81 218.587 363.756 218.158 363.648 217.804C363.542 217.45 363.388 217.18 363.188 216.994C362.989 216.809 362.749 216.716 362.469 216.716C362.048 216.716 361.72 216.923 361.483 217.338C361.246 217.751 361.128 218.335 361.128 219.091C361.128 219.595 361.181 220.023 361.287 220.375C361.393 220.727 361.545 220.995 361.744 221.179C361.945 221.363 362.187 221.455 362.469 221.455ZM365.571 222V221.489L367.491 219.386C367.717 219.14 367.902 218.926 368.048 218.744C368.194 218.561 368.302 218.388 368.372 218.227C368.444 218.064 368.48 217.894 368.48 217.716C368.48 217.511 368.431 217.334 368.332 217.185C368.236 217.035 368.103 216.92 367.935 216.838C367.766 216.757 367.577 216.716 367.366 216.716C367.143 216.716 366.948 216.762 366.781 216.855C366.616 216.946 366.489 217.074 366.398 217.239C366.309 217.403 366.264 217.597 366.264 217.818H365.594C365.594 217.477 365.672 217.178 365.83 216.92C365.987 216.663 366.201 216.462 366.472 216.318C366.744 216.174 367.05 216.102 367.389 216.102C367.73 216.102 368.032 216.174 368.295 216.318C368.559 216.462 368.765 216.656 368.915 216.901C369.064 217.145 369.139 217.417 369.139 217.716C369.139 217.93 369.1 218.139 369.023 218.344C368.947 218.546 368.814 218.773 368.625 219.023C368.438 219.271 368.177 219.574 367.844 219.932L366.537 221.33V221.375H369.241V222H365.571ZM372.381 222.08C372.006 222.08 371.671 222.015 371.378 221.886C371.086 221.758 370.854 221.579 370.682 221.349C370.511 221.118 370.419 220.85 370.403 220.545H371.119C371.134 220.733 371.199 220.895 371.312 221.031C371.426 221.166 371.575 221.27 371.759 221.344C371.942 221.418 372.146 221.455 372.369 221.455C372.619 221.455 372.841 221.411 373.034 221.324C373.227 221.237 373.379 221.116 373.489 220.96C373.598 220.805 373.653 220.625 373.653 220.42C373.653 220.206 373.6 220.018 373.494 219.855C373.388 219.69 373.233 219.562 373.028 219.469C372.824 219.376 372.574 219.33 372.278 219.33H371.812V218.705H372.278C372.509 218.705 372.712 218.663 372.886 218.58C373.063 218.496 373.2 218.379 373.298 218.227C373.399 218.076 373.449 217.898 373.449 217.693C373.449 217.496 373.405 217.325 373.318 217.179C373.231 217.033 373.108 216.92 372.949 216.838C372.792 216.757 372.606 216.716 372.392 216.716C372.191 216.716 372.002 216.753 371.824 216.827C371.648 216.899 371.504 217.004 371.392 217.142C371.28 217.278 371.22 217.443 371.21 217.636H370.528C370.54 217.331 370.632 217.064 370.804 216.835C370.976 216.604 371.202 216.424 371.48 216.295C371.76 216.167 372.068 216.102 372.403 216.102C372.763 216.102 373.072 216.175 373.33 216.321C373.587 216.465 373.785 216.655 373.923 216.892C374.062 217.129 374.131 217.384 374.131 217.659C374.131 217.987 374.045 218.266 373.872 218.497C373.702 218.728 373.47 218.888 373.176 218.977V219.023C373.544 219.083 373.83 219.24 374.037 219.491C374.243 219.741 374.347 220.051 374.347 220.42C374.347 220.737 374.26 221.021 374.088 221.273C373.918 221.523 373.685 221.72 373.389 221.864C373.094 222.008 372.758 222.08 372.381 222.08Z" fill="#AEB9E1"/>
<path d="M417.932 216.182H418.636V220.341C418.636 220.712 418.568 221.027 418.432 221.287C418.295 221.546 418.103 221.743 417.855 221.878C417.607 222.012 417.314 222.08 416.977 222.08C416.659 222.08 416.376 222.022 416.128 221.906C415.88 221.789 415.685 221.622 415.543 221.406C415.401 221.19 415.33 220.934 415.33 220.636H416.023C416.023 220.801 416.063 220.945 416.145 221.068C416.228 221.189 416.342 221.284 416.486 221.352C416.63 221.42 416.794 221.455 416.977 221.455C417.18 221.455 417.352 221.412 417.494 221.327C417.636 221.241 417.744 221.116 417.818 220.952C417.894 220.785 417.932 220.581 417.932 220.341V216.182ZM421.241 222.102C420.965 222.102 420.714 222.05 420.489 221.946C420.263 221.84 420.084 221.688 419.952 221.489C419.819 221.288 419.753 221.045 419.753 220.761C419.753 220.511 419.802 220.309 419.901 220.153C419.999 219.996 420.131 219.873 420.295 219.784C420.46 219.695 420.642 219.629 420.841 219.585C421.042 219.54 421.243 219.504 421.446 219.477C421.711 219.443 421.926 219.418 422.091 219.401C422.258 219.382 422.379 219.35 422.455 219.307C422.532 219.263 422.571 219.187 422.571 219.08V219.057C422.571 218.777 422.494 218.559 422.341 218.403C422.189 218.248 421.959 218.17 421.651 218.17C421.33 218.17 421.08 218.241 420.898 218.381C420.716 218.521 420.588 218.67 420.514 218.83L419.878 218.602C419.991 218.337 420.143 218.131 420.332 217.983C420.524 217.833 420.732 217.729 420.957 217.67C421.185 217.61 421.408 217.58 421.628 217.58C421.768 217.58 421.929 217.597 422.111 217.631C422.295 217.663 422.472 217.73 422.642 217.832C422.814 217.935 422.957 218.089 423.071 218.295C423.185 218.502 423.241 218.778 423.241 219.125V222H422.571V221.409H422.537C422.491 221.504 422.416 221.605 422.31 221.713C422.204 221.821 422.063 221.913 421.886 221.989C421.71 222.064 421.495 222.102 421.241 222.102ZM421.344 221.5C421.609 221.5 421.832 221.448 422.014 221.344C422.198 221.24 422.336 221.105 422.429 220.94C422.524 220.776 422.571 220.602 422.571 220.42V219.807C422.543 219.841 422.48 219.872 422.384 219.901C422.289 219.927 422.179 219.951 422.054 219.972C421.931 219.991 421.811 220.008 421.693 220.023C421.578 220.036 421.484 220.047 421.412 220.057C421.238 220.08 421.075 220.116 420.923 220.168C420.774 220.217 420.652 220.292 420.56 220.392C420.469 220.491 420.423 220.625 420.423 220.795C420.423 221.028 420.509 221.205 420.682 221.324C420.856 221.441 421.077 221.5 421.344 221.5ZM425.136 219.375V222H424.465V217.636H425.113V218.318H425.17C425.272 218.097 425.427 217.919 425.636 217.784C425.844 217.648 426.113 217.58 426.442 217.58C426.738 217.58 426.996 217.64 427.218 217.761C427.44 217.881 427.612 218.062 427.735 218.307C427.858 218.549 427.92 218.856 427.92 219.227V222H427.249V219.273C427.249 218.93 427.16 218.663 426.982 218.472C426.804 218.278 426.56 218.182 426.249 218.182C426.035 218.182 425.844 218.228 425.675 218.321C425.509 218.414 425.377 218.549 425.281 218.727C425.184 218.905 425.136 219.121 425.136 219.375ZM431.384 222V221.489L433.304 219.386C433.529 219.14 433.715 218.926 433.861 218.744C434.007 218.561 434.115 218.388 434.185 218.227C434.257 218.064 434.293 217.894 434.293 217.716C434.293 217.511 434.243 217.334 434.145 217.185C434.048 217.035 433.916 216.92 433.747 216.838C433.579 216.757 433.389 216.716 433.179 216.716C432.955 216.716 432.76 216.762 432.594 216.855C432.429 216.946 432.301 217.074 432.21 217.239C432.121 217.403 432.077 217.597 432.077 217.818H431.406C431.406 217.477 431.485 217.178 431.642 216.92C431.799 216.663 432.013 216.462 432.284 216.318C432.557 216.174 432.863 216.102 433.202 216.102C433.543 216.102 433.845 216.174 434.108 216.318C434.371 216.462 434.578 216.656 434.727 216.901C434.877 217.145 434.952 217.417 434.952 217.716C434.952 217.93 434.913 218.139 434.835 218.344C434.759 218.546 434.627 218.773 434.438 219.023C434.25 219.271 433.99 219.574 433.656 219.932L432.349 221.33V221.375H435.054V222H431.384ZM438.125 222.08C437.697 222.08 437.332 221.963 437.031 221.73C436.73 221.495 436.5 221.155 436.341 220.71C436.182 220.263 436.102 219.723 436.102 219.091C436.102 218.462 436.182 217.925 436.341 217.48C436.502 217.033 436.733 216.692 437.034 216.457C437.337 216.221 437.701 216.102 438.125 216.102C438.549 216.102 438.912 216.221 439.213 216.457C439.516 216.692 439.747 217.033 439.906 217.48C440.067 217.925 440.148 218.462 440.148 219.091C440.148 219.723 440.068 220.263 439.909 220.71C439.75 221.155 439.52 221.495 439.219 221.73C438.918 221.963 438.553 222.08 438.125 222.08ZM438.125 221.455C438.549 221.455 438.879 221.25 439.114 220.841C439.348 220.432 439.466 219.848 439.466 219.091C439.466 218.587 439.412 218.158 439.304 217.804C439.198 217.45 439.045 217.18 438.844 216.994C438.645 216.809 438.405 216.716 438.125 216.716C437.705 216.716 437.376 216.923 437.139 217.338C436.902 217.751 436.784 218.335 436.784 219.091C436.784 219.595 436.837 220.023 436.943 220.375C437.049 220.727 437.202 220.995 437.401 221.179C437.601 221.363 437.843 221.455 438.125 221.455ZM441.227 222V221.489L443.148 219.386C443.373 219.14 443.559 218.926 443.705 218.744C443.85 218.561 443.958 218.388 444.028 218.227C444.1 218.064 444.136 217.894 444.136 217.716C444.136 217.511 444.087 217.334 443.989 217.185C443.892 217.035 443.759 216.92 443.591 216.838C443.422 216.757 443.233 216.716 443.023 216.716C442.799 216.716 442.604 216.762 442.438 216.855C442.273 216.946 442.145 217.074 442.054 217.239C441.965 217.403 441.92 217.597 441.92 217.818H441.25C441.25 217.477 441.329 217.178 441.486 216.92C441.643 216.663 441.857 216.462 442.128 216.318C442.401 216.174 442.706 216.102 443.045 216.102C443.386 216.102 443.688 216.174 443.952 216.318C444.215 216.462 444.421 216.656 444.571 216.901C444.721 217.145 444.795 217.417 444.795 217.716C444.795 217.93 444.757 218.139 444.679 218.344C444.603 218.546 444.471 218.773 444.281 219.023C444.094 219.271 443.833 219.574 443.5 219.932L442.193 221.33V221.375H444.898V222H441.227ZM445.81 220.807V220.227L448.366 216.182H448.787V217.08H448.503L446.571 220.136V220.182H450.014V220.807H445.81ZM448.548 222V220.631V220.361V216.182H449.219V222H448.548Z" fill="#AEB9E1"/>
<rect x="36" y="86" width="13" height="85" fill="#00C2FF"/>
<rect x="36" y="99" width="13" height="101" fill="#CB3CFF"/>
<rect x="115" y="138" width="13" height="62" fill="#CB3CFF"/>
<path d="M115 138H128V86H115V138Z" fill="#00C2FF"/>
<rect width="13" height="36" transform="matrix(1 0 0 -1 194 122)" fill="#00C2FF"/>
<rect x="194" y="104" width="13" height="96" fill="#CB3CFF"/>
<rect x="273" y="112" width="14" height="88" fill="#CB3CFF"/>
<rect x="273" y="86" width="14" height="39" fill="#00C2FF"/>
<rect x="353" y="138" width="13" height="62" fill="#CB3CFF"/>
<rect x="353" y="86" width="13" height="83" fill="#00C2FF"/>
<rect x="432" y="97" width="15" height="103" fill="#CB3CFF"/>
<rect x="432" y="86" width="15" height="23" fill="#00C2FF"/>
<rect x="342.547" y="28.5" width="7" height="7" rx="3.5" fill="#00C2FF"/>
<path d="M361.297 36H358.604V27.2727H361.416C362.263 27.2727 362.987 27.4474 363.589 27.7969C364.192 28.1435 364.653 28.642 364.974 29.2926C365.295 29.9403 365.456 30.7159 365.456 31.6193C365.456 32.5284 365.294 33.3111 364.97 33.9673C364.646 34.6207 364.175 35.1236 363.555 35.4759C362.936 35.8253 362.183 36 361.297 36ZM359.661 35.0625H361.229C361.95 35.0625 362.548 34.9233 363.023 34.6449C363.497 34.3665 363.851 33.9702 364.084 33.456C364.317 32.9418 364.433 32.3295 364.433 31.6193C364.433 30.9148 364.318 30.3082 364.088 29.7997C363.858 29.2884 363.514 28.8963 363.057 28.6236C362.599 28.348 362.03 28.2102 361.348 28.2102H359.661V35.0625ZM369.751 36.1364C369.161 36.1364 368.642 35.9957 368.196 35.7145C367.753 35.4332 367.406 35.0398 367.156 34.5341C366.909 34.0284 366.786 33.4375 366.786 32.7614C366.786 32.0795 366.909 31.4844 367.156 30.9759C367.406 30.4673 367.753 30.0724 368.196 29.7912C368.642 29.5099 369.161 29.3693 369.751 29.3693C370.342 29.3693 370.859 29.5099 371.303 29.7912C371.749 30.0724 372.095 30.4673 372.342 30.9759C372.592 31.4844 372.717 32.0795 372.717 32.7614C372.717 33.4375 372.592 34.0284 372.342 34.5341C372.095 35.0398 371.749 35.4332 371.303 35.7145C370.859 35.9957 370.342 36.1364 369.751 36.1364ZM369.751 35.233C370.2 35.233 370.57 35.1179 370.859 34.8878C371.149 34.6577 371.364 34.3551 371.503 33.9801C371.642 33.6051 371.712 33.1989 371.712 32.7614C371.712 32.3239 371.642 31.9162 371.503 31.5384C371.364 31.1605 371.149 30.8551 370.859 30.6222C370.57 30.3892 370.2 30.2727 369.751 30.2727C369.303 30.2727 368.933 30.3892 368.643 30.6222C368.354 30.8551 368.139 31.1605 368 31.5384C367.861 31.9162 367.791 32.3239 367.791 32.7614C367.791 33.1989 367.861 33.6051 368 33.9801C368.139 34.3551 368.354 34.6577 368.643 34.8878C368.933 35.1179 369.303 35.233 369.751 35.233ZM375.513 36L373.518 29.4545H374.575L375.99 34.4659H376.058L377.456 29.4545H378.53L379.911 34.4489H379.979L381.393 29.4545H382.45L380.456 36H379.467L378.036 30.9716H377.933L376.501 36H375.513ZM384.786 32.0625V36H383.78V29.4545H384.751V30.4773H384.837C384.99 30.1449 385.223 29.8778 385.536 29.6761C385.848 29.4716 386.251 29.3693 386.746 29.3693C387.189 29.3693 387.577 29.4602 387.909 29.642C388.241 29.821 388.5 30.0938 388.685 30.4602C388.869 30.8239 388.962 31.2841 388.962 31.8409V36H387.956V31.9091C387.956 31.3949 387.822 30.9943 387.555 30.7074C387.288 30.4176 386.922 30.2727 386.456 30.2727C386.135 30.2727 385.848 30.3423 385.595 30.4815C385.345 30.6207 385.148 30.8239 385.003 31.0909C384.858 31.358 384.786 31.6818 384.786 32.0625ZM393.646 29.4545V30.3068H390.254V29.4545H393.646ZM391.243 27.8864H392.248V34.125C392.248 34.4091 392.289 34.6222 392.372 34.7642C392.457 34.9034 392.565 34.9972 392.696 35.0455C392.829 35.0909 392.97 35.1136 393.118 35.1136C393.228 35.1136 393.319 35.108 393.39 35.0966C393.461 35.0824 393.518 35.071 393.561 35.0625L393.765 35.9659C393.697 35.9915 393.602 36.017 393.48 36.0426C393.358 36.071 393.203 36.0852 393.015 36.0852C392.731 36.0852 392.453 36.0241 392.18 35.902C391.91 35.7798 391.686 35.5938 391.507 35.3438C391.331 35.0938 391.243 34.7784 391.243 34.3977V27.8864ZM395.159 36V29.4545H396.164V36H395.159ZM395.67 28.3636C395.474 28.3636 395.305 28.2969 395.163 28.1634C395.024 28.0298 394.954 27.8693 394.954 27.6818C394.954 27.4943 395.024 27.3338 395.163 27.2003C395.305 27.0668 395.474 27 395.67 27C395.866 27 396.034 27.0668 396.173 27.2003C396.315 27.3338 396.386 27.4943 396.386 27.6818C396.386 27.8693 396.315 28.0298 396.173 28.1634C396.034 28.2969 395.866 28.3636 395.67 28.3636ZM398.006 36V29.4545H398.978V30.4773H399.063C399.2 30.1278 399.42 29.8565 399.724 29.6634C400.028 29.4673 400.393 29.3693 400.819 29.3693C401.251 29.3693 401.61 29.4673 401.897 29.6634C402.187 29.8565 402.413 30.1278 402.575 30.4773H402.643C402.81 30.1392 403.062 29.8707 403.397 29.6719C403.732 29.4702 404.134 29.3693 404.603 29.3693C405.188 29.3693 405.667 29.5526 406.039 29.919C406.411 30.2827 406.597 30.8494 406.597 31.6193V36H405.592V31.6193C405.592 31.1364 405.46 30.7912 405.195 30.5838C404.931 30.3764 404.62 30.2727 404.262 30.2727C403.802 30.2727 403.445 30.4119 403.192 30.6903C402.94 30.9659 402.813 31.3153 402.813 31.7386V36H401.79V31.517C401.79 31.1449 401.67 30.8452 401.428 30.6179C401.187 30.3878 400.876 30.2727 400.495 30.2727C400.234 30.2727 399.989 30.3423 399.762 30.4815C399.538 30.6207 399.356 30.8139 399.217 31.0611C399.08 31.3054 399.012 31.5881 399.012 31.9091V36H398.006ZM411.18 36.1364C410.55 36.1364 410.006 35.9972 409.548 35.7188C409.094 35.4375 408.743 35.0455 408.496 34.5426C408.251 34.0369 408.129 33.4489 408.129 32.7784C408.129 32.108 408.251 31.517 408.496 31.0057C408.743 30.4915 409.087 30.0909 409.527 29.804C409.97 29.5142 410.487 29.3693 411.078 29.3693C411.419 29.3693 411.756 29.4261 412.088 29.5398C412.42 29.6534 412.723 29.8381 412.996 30.0938C413.268 30.3466 413.486 30.6818 413.648 31.0994C413.81 31.517 413.891 32.0312 413.891 32.642V33.0682H408.845V32.1989H412.868C412.868 31.8295 412.794 31.5 412.646 31.2102C412.501 30.9205 412.294 30.6918 412.024 30.5241C411.757 30.3565 411.442 30.2727 411.078 30.2727C410.678 30.2727 410.331 30.3722 410.038 30.571C409.749 30.767 409.526 31.0227 409.369 31.3381C409.213 31.6534 409.135 31.9915 409.135 32.3523V32.9318C409.135 33.4261 409.22 33.8452 409.391 34.1889C409.564 34.5298 409.804 34.7898 410.111 34.9688C410.418 35.1449 410.774 35.233 411.18 35.233C411.445 35.233 411.683 35.196 411.896 35.1222C412.112 35.0455 412.298 34.9318 412.455 34.7812C412.611 34.6278 412.732 34.4375 412.817 34.2102L413.788 34.483C413.686 34.8125 413.514 35.1023 413.273 35.3523C413.031 35.5994 412.733 35.7926 412.378 35.9318C412.023 36.0682 411.624 36.1364 411.18 36.1364Z" fill="#AEB9E1"/>
<rect x="262" y="28.5" width="7" height="7" rx="3.5" fill="#CB3CFF"/>
<path d="M283.784 27.2727H284.841V33.0511C284.841 33.6477 284.7 34.1804 284.419 34.6491C284.141 35.1151 283.747 35.483 283.239 35.7528C282.73 36.0199 282.134 36.1534 281.449 36.1534C280.764 36.1534 280.168 36.0199 279.659 35.7528C279.151 35.483 278.756 35.1151 278.474 34.6491C278.196 34.1804 278.057 33.6477 278.057 33.0511V27.2727H279.114V32.9659C279.114 33.392 279.207 33.7713 279.395 34.1037C279.582 34.4332 279.849 34.6932 280.196 34.8835C280.545 35.071 280.963 35.1648 281.449 35.1648C281.935 35.1648 282.352 35.071 282.702 34.8835C283.051 34.6932 283.318 34.4332 283.503 34.1037C283.69 33.7713 283.784 33.392 283.784 32.9659V27.2727ZM286.815 38.4545V29.4545H287.787V30.4943H287.906C287.98 30.3807 288.082 30.2358 288.213 30.0597C288.346 29.8807 288.537 29.7216 288.784 29.5824C289.034 29.4403 289.372 29.3693 289.798 29.3693C290.349 29.3693 290.835 29.5071 291.255 29.7827C291.676 30.0582 292.004 30.4489 292.24 30.9545C292.475 31.4602 292.593 32.0568 292.593 32.7443C292.593 33.4375 292.475 34.0384 292.24 34.5469C292.004 35.0526 291.677 35.4446 291.26 35.723C290.842 35.9986 290.36 36.1364 289.815 36.1364C289.395 36.1364 289.058 36.0668 288.805 35.9276C288.552 35.7855 288.358 35.625 288.221 35.446C288.085 35.2642 287.98 35.1136 287.906 34.9943H287.821V38.4545H286.815ZM287.804 32.7273C287.804 33.2216 287.876 33.6577 288.021 34.0355C288.166 34.4105 288.377 34.7045 288.656 34.9176C288.934 35.1278 289.275 35.233 289.679 35.233C290.099 35.233 290.45 35.1222 290.731 34.9006C291.015 34.6761 291.228 34.375 291.37 33.9972C291.515 33.6165 291.588 33.1932 291.588 32.7273C291.588 32.267 291.517 31.8523 291.375 31.483C291.235 31.1108 291.024 30.8168 290.74 30.6009C290.458 30.3821 290.105 30.2727 289.679 30.2727C289.27 30.2727 288.926 30.3764 288.647 30.5838C288.369 30.7884 288.159 31.0753 288.017 31.4446C287.875 31.8111 287.804 32.2386 287.804 32.7273ZM296.974 29.4545V30.3068H293.582V29.4545H296.974ZM294.571 27.8864H295.576V34.125C295.576 34.4091 295.618 34.6222 295.7 34.7642C295.785 34.9034 295.893 34.9972 296.024 35.0455C296.157 35.0909 296.298 35.1136 296.446 35.1136C296.556 35.1136 296.647 35.108 296.718 35.0966C296.789 35.0824 296.846 35.071 296.889 35.0625L297.093 35.9659C297.025 35.9915 296.93 36.017 296.808 36.0426C296.686 36.071 296.531 36.0852 296.343 36.0852C296.059 36.0852 295.781 36.0241 295.508 35.902C295.238 35.7798 295.014 35.5938 294.835 35.3438C294.659 35.0938 294.571 34.7784 294.571 34.3977V27.8864ZM298.487 36V29.4545H299.493V36H298.487ZM298.998 28.3636C298.802 28.3636 298.633 28.2969 298.491 28.1634C298.352 28.0298 298.282 27.8693 298.282 27.6818C298.282 27.4943 298.352 27.3338 298.491 27.2003C298.633 27.0668 298.802 27 298.998 27C299.194 27 299.362 27.0668 299.501 27.2003C299.643 27.3338 299.714 27.4943 299.714 27.6818C299.714 27.8693 299.643 28.0298 299.501 28.1634C299.362 28.2969 299.194 28.3636 298.998 28.3636ZM301.335 36V29.4545H302.306V30.4773H302.391C302.528 30.1278 302.748 29.8565 303.052 29.6634C303.356 29.4673 303.721 29.3693 304.147 29.3693C304.579 29.3693 304.938 29.4673 305.225 29.6634C305.515 29.8565 305.741 30.1278 305.903 30.4773H305.971C306.138 30.1392 306.39 29.8707 306.725 29.6719C307.06 29.4702 307.462 29.3693 307.931 29.3693C308.516 29.3693 308.995 29.5526 309.367 29.919C309.739 30.2827 309.925 30.8494 309.925 31.6193V36H308.92V31.6193C308.92 31.1364 308.788 30.7912 308.523 30.5838C308.259 30.3764 307.948 30.2727 307.59 30.2727C307.13 30.2727 306.773 30.4119 306.521 30.6903C306.268 30.9659 306.141 31.3153 306.141 31.7386V36H305.119V31.517C305.119 31.1449 304.998 30.8452 304.756 30.6179C304.515 30.3878 304.204 30.2727 303.823 30.2727C303.562 30.2727 303.317 30.3423 303.09 30.4815C302.866 30.6207 302.684 30.8139 302.545 31.0611C302.408 31.3054 302.34 31.5881 302.34 31.9091V36H301.335ZM314.509 36.1364C313.878 36.1364 313.334 35.9972 312.876 35.7188C312.422 35.4375 312.071 35.0455 311.824 34.5426C311.58 34.0369 311.457 33.4489 311.457 32.7784C311.457 32.108 311.58 31.517 311.824 31.0057C312.071 30.4915 312.415 30.0909 312.855 29.804C313.298 29.5142 313.815 29.3693 314.406 29.3693C314.747 29.3693 315.084 29.4261 315.416 29.5398C315.749 29.6534 316.051 29.8381 316.324 30.0938C316.597 30.3466 316.814 30.6818 316.976 31.0994C317.138 31.517 317.219 32.0312 317.219 32.642V33.0682H312.173V32.1989H316.196C316.196 31.8295 316.122 31.5 315.974 31.2102C315.83 30.9205 315.622 30.6918 315.352 30.5241C315.085 30.3565 314.77 30.2727 314.406 30.2727C314.006 30.2727 313.659 30.3722 313.366 30.571C313.077 30.767 312.854 31.0227 312.697 31.3381C312.541 31.6534 312.463 31.9915 312.463 32.3523V32.9318C312.463 33.4261 312.548 33.8452 312.719 34.1889C312.892 34.5298 313.132 34.7898 313.439 34.9688C313.746 35.1449 314.102 35.233 314.509 35.233C314.773 35.233 315.011 35.196 315.224 35.1222C315.44 35.0455 315.626 34.9318 315.783 34.7812C315.939 34.6278 316.06 34.4375 316.145 34.2102L317.116 34.483C317.014 34.8125 316.842 35.1023 316.601 35.3523C316.359 35.5994 316.061 35.7926 315.706 35.9318C315.351 36.0682 314.952 36.1364 314.509 36.1364Z" fill="#AEB9E1"/>
</svg>
