<svg width="421" height="139" viewBox="0 0 421 139" fill="none" xmlns="http://www.w3.org/2000/svg">
<path d="M0.943182 136H0.204545L2.34091 130.182H3.06818L5.20455 136H4.46591L2.72727 131.102H2.68182L0.943182 136ZM1.21591 133.727H4.19318V134.352H1.21591V133.727ZM8.76989 134.216V131.636H9.44034V136H8.76989V135.261H8.72443C8.62216 135.483 8.46307 135.671 8.24716 135.827C8.03125 135.98 7.75852 136.057 7.42898 136.057C7.15625 136.057 6.91383 135.997 6.7017 135.878C6.48958 135.757 6.32292 135.575 6.2017 135.332C6.08049 135.088 6.01989 134.78 6.01989 134.409V131.636H6.69034V134.364C6.69034 134.682 6.77936 134.936 6.95739 135.125C7.13731 135.314 7.36648 135.409 7.64489 135.409C7.81155 135.409 7.98106 135.366 8.15341 135.281C8.32765 135.196 8.47348 135.065 8.59091 134.889C8.71023 134.713 8.76989 134.489 8.76989 134.216ZM12.4297 137.727C12.1058 137.727 11.8274 137.686 11.5945 137.602C11.3615 137.521 11.1674 137.413 11.0121 137.278C10.8587 137.146 10.7365 137.004 10.6456 136.852L11.1797 136.477C11.2403 136.557 11.317 136.648 11.4098 136.75C11.5026 136.854 11.6295 136.944 11.7905 137.02C11.9534 137.098 12.1664 137.136 12.4297 137.136C12.782 137.136 13.0727 137.051 13.3018 136.881C13.531 136.71 13.6456 136.443 13.6456 136.08V135.193H13.5888C13.5395 135.273 13.4695 135.371 13.3786 135.489C13.2895 135.604 13.1607 135.707 12.9922 135.798C12.8255 135.887 12.6001 135.932 12.3161 135.932C11.9638 135.932 11.6475 135.848 11.3672 135.682C11.0888 135.515 10.8681 135.273 10.7053 134.955C10.5443 134.636 10.4638 134.25 10.4638 133.795C10.4638 133.348 10.5424 132.959 10.6996 132.628C10.8568 132.295 11.0755 132.037 11.3558 131.855C11.6361 131.671 11.96 131.58 12.3274 131.58C12.6115 131.58 12.8369 131.627 13.0036 131.722C13.1721 131.814 13.3009 131.92 13.3899 132.04C13.4808 132.157 13.5509 132.254 13.6001 132.33H13.6683V131.636H14.3161V136.125C14.3161 136.5 14.2308 136.805 14.0604 137.04C13.8918 137.277 13.6645 137.45 13.3786 137.56C13.0945 137.671 12.7782 137.727 12.4297 137.727ZM12.407 135.33C12.6759 135.33 12.9032 135.268 13.0888 135.145C13.2744 135.022 13.4155 134.845 13.5121 134.614C13.6087 134.383 13.657 134.106 13.657 133.784C13.657 133.47 13.6096 133.192 13.5149 132.952C13.4202 132.711 13.2801 132.523 13.0945 132.386C12.9089 132.25 12.6797 132.182 12.407 132.182C12.1229 132.182 11.8861 132.254 11.6967 132.398C11.5092 132.542 11.3681 132.735 11.2734 132.977C11.1806 133.22 11.1342 133.489 11.1342 133.784C11.1342 134.087 11.1816 134.355 11.2763 134.588C11.3729 134.819 11.5149 135.001 11.7024 135.134C11.8918 135.264 12.1267 135.33 12.407 135.33ZM17.782 136V135.489L19.7024 133.386C19.9278 133.14 20.1134 132.926 20.2592 132.744C20.4051 132.561 20.513 132.388 20.5831 132.227C20.6551 132.064 20.6911 131.894 20.6911 131.716C20.6911 131.511 20.6418 131.334 20.5433 131.185C20.4467 131.035 20.3142 130.92 20.1456 130.838C19.977 130.757 19.7876 130.716 19.5774 130.716C19.3539 130.716 19.1589 130.762 18.9922 130.855C18.8274 130.946 18.6996 131.074 18.6087 131.239C18.5196 131.403 18.4751 131.597 18.4751 131.818H17.8047C17.8047 131.477 17.8833 131.178 18.0405 130.92C18.1977 130.663 18.4117 130.462 18.6825 130.318C18.9553 130.174 19.2611 130.102 19.6001 130.102C19.9411 130.102 20.2431 130.174 20.5064 130.318C20.7696 130.462 20.9761 130.656 21.1257 130.901C21.2753 131.145 21.3501 131.417 21.3501 131.716C21.3501 131.93 21.3113 132.139 21.2337 132.344C21.1579 132.546 21.0253 132.773 20.8359 133.023C20.6484 133.271 20.388 133.574 20.0547 133.932L18.7479 135.33V135.375H21.4524V136H17.782ZM24.5234 136.08C24.0954 136.08 23.7308 135.963 23.4297 135.73C23.1286 135.495 22.8984 135.155 22.7393 134.71C22.5803 134.263 22.5007 133.723 22.5007 133.091C22.5007 132.462 22.5803 131.925 22.7393 131.48C22.9003 131.033 23.1314 130.692 23.4325 130.457C23.7356 130.221 24.0992 130.102 24.5234 130.102C24.9477 130.102 25.3104 130.221 25.6115 130.457C25.9145 130.692 26.1456 131.033 26.3047 131.48C26.4657 131.925 26.5462 132.462 26.5462 133.091C26.5462 133.723 26.4666 134.263 26.3075 134.71C26.1484 135.155 25.9183 135.495 25.6172 135.73C25.3161 135.963 24.9515 136.08 24.5234 136.08ZM24.5234 135.455C24.9477 135.455 25.2772 135.25 25.5121 134.841C25.7469 134.432 25.8643 133.848 25.8643 133.091C25.8643 132.587 25.8104 132.158 25.7024 131.804C25.5964 131.45 25.4429 131.18 25.2422 130.994C25.0433 130.809 24.8037 130.716 24.5234 130.716C24.103 130.716 23.7744 130.923 23.5376 131.338C23.3009 131.751 23.1825 132.335 23.1825 133.091C23.1825 133.595 23.2356 134.023 23.3416 134.375C23.4477 134.727 23.6001 134.995 23.799 135.179C23.9998 135.363 24.2412 135.455 24.5234 135.455ZM27.6257 136V135.489L29.5462 133.386C29.7715 133.14 29.9571 132.926 30.103 132.744C30.2488 132.561 30.3568 132.388 30.4268 132.227C30.4988 132.064 30.5348 131.894 30.5348 131.716C30.5348 131.511 30.4856 131.334 30.3871 131.185C30.2905 131.035 30.1579 130.92 29.9893 130.838C29.8208 130.757 29.6314 130.716 29.4212 130.716C29.1977 130.716 29.0026 130.762 28.8359 130.855C28.6712 130.946 28.5433 131.074 28.4524 131.239C28.3634 131.403 28.3189 131.597 28.3189 131.818H27.6484C27.6484 131.477 27.727 131.178 27.8842 130.92C28.0414 130.663 28.2554 130.462 28.5263 130.318C28.799 130.174 29.1049 130.102 29.4439 130.102C29.7848 130.102 30.0869 130.174 30.3501 130.318C30.6134 130.462 30.8198 130.656 30.9695 130.901C31.1191 131.145 31.1939 131.417 31.1939 131.716C31.1939 131.93 31.1551 132.139 31.0774 132.344C31.0017 132.546 30.8691 132.773 30.6797 133.023C30.4922 133.271 30.2318 133.574 29.8984 133.932L28.5916 135.33V135.375H31.2962V136H27.6257ZM34.4354 136.08C34.0604 136.08 33.7261 136.015 33.4325 135.886C33.1409 135.758 32.9089 135.579 32.7365 135.349C32.5661 135.118 32.4732 134.85 32.4581 134.545H33.174C33.1892 134.733 33.2536 134.895 33.3672 135.031C33.4808 135.166 33.6295 135.27 33.8132 135.344C33.9969 135.418 34.2005 135.455 34.424 135.455C34.674 135.455 34.8956 135.411 35.0888 135.324C35.282 135.237 35.4335 135.116 35.5433 134.96C35.6532 134.805 35.7081 134.625 35.7081 134.42C35.7081 134.206 35.6551 134.018 35.549 133.855C35.4429 133.69 35.2876 133.562 35.0831 133.469C34.8786 133.376 34.6286 133.33 34.3331 133.33H33.8672V132.705H34.3331C34.5642 132.705 34.7668 132.663 34.9411 132.58C35.1172 132.496 35.2545 132.379 35.353 132.227C35.4534 132.076 35.5036 131.898 35.5036 131.693C35.5036 131.496 35.46 131.325 35.3729 131.179C35.2857 131.033 35.1626 130.92 35.0036 130.838C34.8464 130.757 34.6607 130.716 34.4467 130.716C34.246 130.716 34.0566 130.753 33.8786 130.827C33.7024 130.899 33.5585 131.004 33.4467 131.142C33.335 131.278 33.2744 131.443 33.2649 131.636H32.5831C32.5945 131.331 32.6863 131.064 32.8587 130.835C33.031 130.604 33.2564 130.424 33.5348 130.295C33.8151 130.167 34.1229 130.102 34.4581 130.102C34.8179 130.102 35.1267 130.175 35.3842 130.321C35.6418 130.465 35.8397 130.655 35.978 130.892C36.1162 131.129 36.1854 131.384 36.1854 131.659C36.1854 131.987 36.0992 132.266 35.9268 132.497C35.7564 132.728 35.5244 132.888 35.2308 132.977V133.023C35.5982 133.083 35.8852 133.24 36.0916 133.491C36.2981 133.741 36.4013 134.051 36.4013 134.42C36.4013 134.737 36.3151 135.021 36.1428 135.273C35.9723 135.523 35.7393 135.72 35.4439 135.864C35.1484 136.008 34.8123 136.08 34.4354 136.08Z" fill="#AEB9E1"/>
<path d="M80.8864 131.636C80.8523 131.348 80.714 131.125 80.4716 130.966C80.2292 130.807 79.9318 130.727 79.5795 130.727C79.322 130.727 79.0966 130.769 78.9034 130.852C78.7121 130.936 78.5625 131.05 78.4545 131.196C78.3485 131.342 78.2955 131.508 78.2955 131.693C78.2955 131.848 78.3324 131.982 78.4062 132.094C78.482 132.204 78.5786 132.295 78.696 132.369C78.8134 132.441 78.9366 132.501 79.0653 132.548C79.1941 132.594 79.3125 132.631 79.4205 132.659L80.0114 132.818C80.1629 132.858 80.3314 132.913 80.517 132.983C80.7045 133.053 80.8835 133.149 81.054 133.27C81.2263 133.389 81.3684 133.543 81.4801 133.73C81.5919 133.918 81.6477 134.148 81.6477 134.42C81.6477 134.735 81.5653 135.019 81.4006 135.273C81.2377 135.527 80.9991 135.728 80.6847 135.878C80.3722 136.027 79.9924 136.102 79.5455 136.102C79.1288 136.102 78.768 136.035 78.4631 135.901C78.16 135.766 77.9214 135.579 77.7472 135.338C77.5748 135.098 77.4773 134.818 77.4545 134.5H78.1818C78.2008 134.72 78.2746 134.902 78.4034 135.045C78.5341 135.187 78.6989 135.294 78.8977 135.364C79.0985 135.432 79.3144 135.466 79.5455 135.466C79.8144 135.466 80.0559 135.422 80.2699 135.335C80.4839 135.246 80.6534 135.123 80.7784 134.966C80.9034 134.807 80.9659 134.621 80.9659 134.409C80.9659 134.216 80.9119 134.059 80.804 133.938C80.696 133.816 80.554 133.718 80.3778 133.642C80.2017 133.566 80.0114 133.5 79.8068 133.443L79.0909 133.239C78.6364 133.108 78.2765 132.921 78.0114 132.679C77.7462 132.437 77.6136 132.119 77.6136 131.727C77.6136 131.402 77.7017 131.117 77.8778 130.875C78.0559 130.631 78.2945 130.441 78.5938 130.307C78.8949 130.17 79.2311 130.102 79.6023 130.102C79.9773 130.102 80.3106 130.17 80.6023 130.304C80.8939 130.437 81.125 130.618 81.2955 130.849C81.4678 131.08 81.5587 131.343 81.5682 131.636H80.8864ZM84.5447 136.091C84.1243 136.091 83.7616 135.998 83.4567 135.812C83.1536 135.625 82.9197 135.364 82.755 135.028C82.5921 134.691 82.5107 134.299 82.5107 133.852C82.5107 133.405 82.5921 133.011 82.755 132.67C82.9197 132.328 83.1489 132.061 83.4425 131.869C83.7379 131.676 84.0826 131.58 84.4766 131.58C84.7038 131.58 84.9283 131.617 85.1499 131.693C85.3714 131.769 85.5732 131.892 85.755 132.062C85.9368 132.231 86.0817 132.455 86.1896 132.733C86.2976 133.011 86.3516 133.354 86.3516 133.761V134.045H82.9879V133.466H85.6697C85.6697 133.22 85.6205 133 85.522 132.807C85.4254 132.614 85.2872 132.461 85.1072 132.349C84.9292 132.238 84.719 132.182 84.4766 132.182C84.2095 132.182 83.9785 132.248 83.7834 132.381C83.5902 132.511 83.4415 132.682 83.3374 132.892C83.2332 133.102 83.1811 133.328 83.1811 133.568V133.955C83.1811 134.284 83.2379 134.563 83.3516 134.793C83.4671 135.02 83.6271 135.193 83.8317 135.312C84.0362 135.43 84.2739 135.489 84.5447 135.489C84.7209 135.489 84.88 135.464 85.022 135.415C85.166 135.364 85.29 135.288 85.3942 135.188C85.4983 135.085 85.5788 134.958 85.6357 134.807L86.2834 134.989C86.2152 135.208 86.1006 135.402 85.9396 135.568C85.7786 135.733 85.5798 135.862 85.343 135.955C85.1063 136.045 84.8402 136.091 84.5447 136.091ZM87.3714 137.636V131.636H88.0192V132.33H88.0987C88.148 132.254 88.2161 132.157 88.3033 132.04C88.3923 131.92 88.5192 131.814 88.6839 131.722C88.8506 131.627 89.076 131.58 89.3601 131.58C89.7275 131.58 90.0514 131.671 90.3317 131.855C90.612 132.039 90.8307 132.299 90.9879 132.636C91.1451 132.973 91.2237 133.371 91.2237 133.83C91.2237 134.292 91.1451 134.692 90.9879 135.031C90.8307 135.368 90.6129 135.63 90.3345 135.815C90.0561 135.999 89.7351 136.091 89.3714 136.091C89.0911 136.091 88.8667 136.045 88.6982 135.952C88.5296 135.857 88.3999 135.75 88.3089 135.631C88.218 135.509 88.148 135.409 88.0987 135.33H88.0419V137.636H87.3714ZM88.0305 133.818C88.0305 134.148 88.0788 134.438 88.1754 134.69C88.272 134.94 88.4131 135.136 88.5987 135.278C88.7843 135.419 89.0116 135.489 89.2805 135.489C89.5608 135.489 89.7947 135.415 89.9822 135.267C90.1716 135.117 90.3137 134.917 90.4084 134.665C90.505 134.411 90.5533 134.129 90.5533 133.818C90.5533 133.511 90.5059 133.235 90.4112 132.989C90.3184 132.741 90.1773 132.545 89.9879 132.401C89.8004 132.255 89.5646 132.182 89.2805 132.182C89.0078 132.182 88.7786 132.251 88.593 132.389C88.4074 132.526 88.2673 132.717 88.1726 132.963C88.0779 133.207 88.0305 133.492 88.0305 133.818ZM94.4851 136V135.489L96.4055 133.386C96.6309 133.14 96.8165 132.926 96.9624 132.744C97.1082 132.561 97.2161 132.388 97.2862 132.227C97.3582 132.064 97.3942 131.894 97.3942 131.716C97.3942 131.511 97.3449 131.334 97.2464 131.185C97.1499 131.035 97.0173 130.92 96.8487 130.838C96.6802 130.757 96.4908 130.716 96.2805 130.716C96.0571 130.716 95.862 130.762 95.6953 130.855C95.5305 130.946 95.4027 131.074 95.3118 131.239C95.2228 131.403 95.1783 131.597 95.1783 131.818H94.5078C94.5078 131.477 94.5864 131.178 94.7436 130.92C94.9008 130.663 95.1148 130.462 95.3857 130.318C95.6584 130.174 95.9643 130.102 96.3033 130.102C96.6442 130.102 96.9463 130.174 97.2095 130.318C97.4728 130.462 97.6792 130.656 97.8288 130.901C97.9785 131.145 98.0533 131.417 98.0533 131.716C98.0533 131.93 98.0144 132.139 97.9368 132.344C97.861 132.546 97.7285 132.773 97.5391 133.023C97.3516 133.271 97.0911 133.574 96.7578 133.932L95.451 135.33V135.375H98.1555V136H94.4851ZM101.227 136.08C100.799 136.08 100.434 135.963 100.133 135.73C99.8317 135.495 99.6016 135.155 99.4425 134.71C99.2834 134.263 99.2038 133.723 99.2038 133.091C99.2038 132.462 99.2834 131.925 99.4425 131.48C99.6035 131.033 99.8345 130.692 100.136 130.457C100.439 130.221 100.802 130.102 101.227 130.102C101.651 130.102 102.013 130.221 102.315 130.457C102.618 130.692 102.849 131.033 103.008 131.48C103.169 131.925 103.249 132.462 103.249 133.091C103.249 133.723 103.17 134.263 103.011 134.71C102.852 135.155 102.621 135.495 102.32 135.73C102.019 135.963 101.655 136.08 101.227 136.08ZM101.227 135.455C101.651 135.455 101.98 135.25 102.215 134.841C102.45 134.432 102.567 133.848 102.567 133.091C102.567 132.587 102.513 132.158 102.406 131.804C102.299 131.45 102.146 131.18 101.945 130.994C101.746 130.809 101.507 130.716 101.227 130.716C100.806 130.716 100.478 130.923 100.241 131.338C100.004 131.751 99.8857 132.335 99.8857 133.091C99.8857 133.595 99.9387 134.023 100.045 134.375C100.151 134.727 100.303 134.995 100.502 135.179C100.703 135.363 100.944 135.455 101.227 135.455ZM104.329 136V135.489L106.249 133.386C106.475 133.14 106.66 132.926 106.806 132.744C106.952 132.561 107.06 132.388 107.13 132.227C107.202 132.064 107.238 131.894 107.238 131.716C107.238 131.511 107.189 131.334 107.09 131.185C106.994 131.035 106.861 130.92 106.692 130.838C106.524 130.757 106.335 130.716 106.124 130.716C105.901 130.716 105.706 130.762 105.539 130.855C105.374 130.946 105.246 131.074 105.156 131.239C105.067 131.403 105.022 131.597 105.022 131.818H104.352C104.352 131.477 104.43 131.178 104.587 130.92C104.745 130.663 104.959 130.462 105.229 130.318C105.502 130.174 105.808 130.102 106.147 130.102C106.488 130.102 106.79 130.174 107.053 130.318C107.317 130.462 107.523 130.656 107.673 130.901C107.822 131.145 107.897 131.417 107.897 131.716C107.897 131.93 107.858 132.139 107.781 132.344C107.705 132.546 107.572 132.773 107.383 133.023C107.195 133.271 106.935 133.574 106.602 133.932L105.295 135.33V135.375H107.999V136H104.329ZM111.138 136.08C110.763 136.08 110.429 136.015 110.136 135.886C109.844 135.758 109.612 135.579 109.44 135.349C109.269 135.118 109.176 134.85 109.161 134.545H109.877C109.892 134.733 109.957 134.895 110.07 135.031C110.184 135.166 110.333 135.27 110.516 135.344C110.7 135.418 110.904 135.455 111.127 135.455C111.377 135.455 111.599 135.411 111.792 135.324C111.985 135.237 112.137 135.116 112.246 134.96C112.356 134.805 112.411 134.625 112.411 134.42C112.411 134.206 112.358 134.018 112.252 133.855C112.146 133.69 111.991 133.562 111.786 133.469C111.582 133.376 111.332 133.33 111.036 133.33H110.57V132.705H111.036C111.267 132.705 111.47 132.663 111.644 132.58C111.82 132.496 111.958 132.379 112.056 132.227C112.156 132.076 112.207 131.898 112.207 131.693C112.207 131.496 112.163 131.325 112.076 131.179C111.989 131.033 111.866 130.92 111.707 130.838C111.549 130.757 111.364 130.716 111.15 130.716C110.949 130.716 110.76 130.753 110.582 130.827C110.406 130.899 110.262 131.004 110.15 131.142C110.038 131.278 109.978 131.443 109.968 131.636H109.286C109.298 131.331 109.389 131.064 109.562 130.835C109.734 130.604 109.96 130.424 110.238 130.295C110.518 130.167 110.826 130.102 111.161 130.102C111.521 130.102 111.83 130.175 112.087 130.321C112.345 130.465 112.543 130.655 112.681 130.892C112.819 131.129 112.888 131.384 112.888 131.659C112.888 131.987 112.802 132.266 112.63 132.497C112.46 132.728 112.228 132.888 111.934 132.977V133.023C112.301 133.083 112.588 133.24 112.795 133.491C113.001 133.741 113.104 134.051 113.104 134.42C113.104 134.737 113.018 135.021 112.846 135.273C112.675 135.523 112.442 135.72 112.147 135.864C111.852 136.008 111.515 136.08 111.138 136.08Z" fill="#AEB9E1"/>
<path d="M159.614 133.091C159.614 133.705 159.503 134.235 159.281 134.682C159.06 135.129 158.756 135.473 158.369 135.716C157.983 135.958 157.542 136.08 157.045 136.08C156.549 136.08 156.108 135.958 155.722 135.716C155.335 135.473 155.031 135.129 154.81 134.682C154.588 134.235 154.477 133.705 154.477 133.091C154.477 132.477 154.588 131.947 154.81 131.5C155.031 131.053 155.335 130.708 155.722 130.466C156.108 130.223 156.549 130.102 157.045 130.102C157.542 130.102 157.983 130.223 158.369 130.466C158.756 130.708 159.06 131.053 159.281 131.5C159.503 131.947 159.614 132.477 159.614 133.091ZM158.932 133.091C158.932 132.587 158.848 132.162 158.679 131.815C158.512 131.469 158.286 131.206 158 131.028C157.716 130.85 157.398 130.761 157.045 130.761C156.693 130.761 156.374 130.85 156.088 131.028C155.804 131.206 155.578 131.469 155.409 131.815C155.242 132.162 155.159 132.587 155.159 133.091C155.159 133.595 155.242 134.02 155.409 134.366C155.578 134.713 155.804 134.975 156.088 135.153C156.374 135.331 156.693 135.42 157.045 135.42C157.398 135.42 157.716 135.331 158 135.153C158.286 134.975 158.512 134.713 158.679 134.366C158.848 134.02 158.932 133.595 158.932 133.091ZM162.48 136.091C162.071 136.091 161.719 135.994 161.423 135.801C161.128 135.608 160.901 135.342 160.741 135.003C160.582 134.664 160.503 134.277 160.503 133.841C160.503 133.398 160.584 133.007 160.747 132.668C160.912 132.327 161.141 132.061 161.435 131.869C161.73 131.676 162.075 131.58 162.469 131.58C162.776 131.58 163.052 131.636 163.298 131.75C163.545 131.864 163.746 132.023 163.903 132.227C164.061 132.432 164.158 132.67 164.196 132.943H163.526C163.474 132.744 163.361 132.568 163.185 132.415C163.01 132.259 162.776 132.182 162.48 132.182C162.219 132.182 161.99 132.25 161.793 132.386C161.598 132.521 161.445 132.711 161.335 132.957C161.227 133.202 161.173 133.489 161.173 133.818C161.173 134.155 161.226 134.449 161.332 134.699C161.44 134.949 161.592 135.143 161.787 135.281C161.984 135.42 162.215 135.489 162.48 135.489C162.654 135.489 162.812 135.458 162.955 135.398C163.097 135.337 163.217 135.25 163.315 135.136C163.414 135.023 163.484 134.886 163.526 134.727H164.196C164.158 134.985 164.064 135.217 163.915 135.423C163.767 135.628 163.571 135.791 163.327 135.912C163.084 136.031 162.802 136.091 162.48 136.091ZM167.074 131.636V132.205H164.812V131.636H167.074ZM165.472 130.591H166.142V134.75C166.142 134.939 166.17 135.081 166.224 135.176C166.281 135.269 166.353 135.331 166.44 135.364C166.529 135.394 166.623 135.409 166.722 135.409C166.795 135.409 166.856 135.405 166.903 135.398C166.951 135.388 166.989 135.381 167.017 135.375L167.153 135.977C167.108 135.994 167.045 136.011 166.963 136.028C166.882 136.047 166.778 136.057 166.653 136.057C166.464 136.057 166.278 136.016 166.097 135.935C165.917 135.853 165.767 135.729 165.648 135.562C165.53 135.396 165.472 135.186 165.472 134.932V130.591ZM170.321 136V135.489L172.241 133.386C172.467 133.14 172.652 132.926 172.798 132.744C172.944 132.561 173.052 132.388 173.122 132.227C173.194 132.064 173.23 131.894 173.23 131.716C173.23 131.511 173.181 131.334 173.082 131.185C172.986 131.035 172.853 130.92 172.685 130.838C172.516 130.757 172.327 130.716 172.116 130.716C171.893 130.716 171.698 130.762 171.531 130.855C171.366 130.946 171.239 131.074 171.148 131.239C171.059 131.403 171.014 131.597 171.014 131.818H170.344C170.344 131.477 170.422 131.178 170.58 130.92C170.737 130.663 170.951 130.462 171.222 130.318C171.494 130.174 171.8 130.102 172.139 130.102C172.48 130.102 172.782 130.174 173.045 130.318C173.309 130.462 173.515 130.656 173.665 130.901C173.814 131.145 173.889 131.417 173.889 131.716C173.889 131.93 173.85 132.139 173.773 132.344C173.697 132.546 173.564 132.773 173.375 133.023C173.188 133.271 172.927 133.574 172.594 133.932L171.287 135.33V135.375H173.991V136H170.321ZM177.062 136.08C176.634 136.08 176.27 135.963 175.969 135.73C175.668 135.495 175.438 135.155 175.278 134.71C175.119 134.263 175.04 133.723 175.04 133.091C175.04 132.462 175.119 131.925 175.278 131.48C175.439 131.033 175.67 130.692 175.972 130.457C176.275 130.221 176.638 130.102 177.062 130.102C177.487 130.102 177.849 130.221 178.151 130.457C178.454 130.692 178.685 131.033 178.844 131.48C179.005 131.925 179.085 132.462 179.085 133.091C179.085 133.723 179.006 134.263 178.847 134.71C178.688 135.155 178.457 135.495 178.156 135.73C177.855 135.963 177.491 136.08 177.062 136.08ZM177.062 135.455C177.487 135.455 177.816 135.25 178.051 134.841C178.286 134.432 178.403 133.848 178.403 133.091C178.403 132.587 178.349 132.158 178.241 131.804C178.135 131.45 177.982 131.18 177.781 130.994C177.582 130.809 177.343 130.716 177.062 130.716C176.642 130.716 176.313 130.923 176.077 131.338C175.84 131.751 175.722 132.335 175.722 133.091C175.722 133.595 175.775 134.023 175.881 134.375C175.987 134.727 176.139 134.995 176.338 135.179C176.539 135.363 176.78 135.455 177.062 135.455ZM180.165 136V135.489L182.085 133.386C182.311 133.14 182.496 132.926 182.642 132.744C182.788 132.561 182.896 132.388 182.966 132.227C183.038 132.064 183.074 131.894 183.074 131.716C183.074 131.511 183.025 131.334 182.926 131.185C182.83 131.035 182.697 130.92 182.528 130.838C182.36 130.757 182.17 130.716 181.96 130.716C181.737 130.716 181.542 130.762 181.375 130.855C181.21 130.946 181.082 131.074 180.991 131.239C180.902 131.403 180.858 131.597 180.858 131.818H180.188C180.188 131.477 180.266 131.178 180.423 130.92C180.58 130.663 180.795 130.462 181.065 130.318C181.338 130.174 181.644 130.102 181.983 130.102C182.324 130.102 182.626 130.174 182.889 130.318C183.152 130.462 183.359 130.656 183.509 130.901C183.658 131.145 183.733 131.417 183.733 131.716C183.733 131.93 183.694 132.139 183.616 132.344C183.541 132.546 183.408 132.773 183.219 133.023C183.031 133.271 182.771 133.574 182.438 133.932L181.131 135.33V135.375H183.835V136H180.165ZM186.974 136.08C186.599 136.08 186.265 136.015 185.972 135.886C185.68 135.758 185.448 135.579 185.276 135.349C185.105 135.118 185.012 134.85 184.997 134.545H185.713C185.728 134.733 185.793 134.895 185.906 135.031C186.02 135.166 186.169 135.27 186.352 135.344C186.536 135.418 186.74 135.455 186.963 135.455C187.213 135.455 187.435 135.411 187.628 135.324C187.821 135.237 187.973 135.116 188.082 134.96C188.192 134.805 188.247 134.625 188.247 134.42C188.247 134.206 188.194 134.018 188.088 133.855C187.982 133.69 187.827 133.562 187.622 133.469C187.418 133.376 187.168 133.33 186.872 133.33H186.406V132.705H186.872C187.103 132.705 187.306 132.663 187.48 132.58C187.656 132.496 187.794 132.379 187.892 132.227C187.992 132.076 188.043 131.898 188.043 131.693C188.043 131.496 187.999 131.325 187.912 131.179C187.825 131.033 187.702 130.92 187.543 130.838C187.385 130.757 187.2 130.716 186.986 130.716C186.785 130.716 186.596 130.753 186.418 130.827C186.241 130.899 186.098 131.004 185.986 131.142C185.874 131.278 185.813 131.443 185.804 131.636H185.122C185.134 131.331 185.225 131.064 185.398 130.835C185.57 130.604 185.795 130.424 186.074 130.295C186.354 130.167 186.662 130.102 186.997 130.102C187.357 130.102 187.666 130.175 187.923 130.321C188.181 130.465 188.379 130.655 188.517 130.892C188.655 131.129 188.724 131.384 188.724 131.659C188.724 131.987 188.638 132.266 188.466 132.497C188.295 132.728 188.063 132.888 187.77 132.977V133.023C188.137 133.083 188.424 133.24 188.631 133.491C188.837 133.741 188.94 134.051 188.94 134.42C188.94 134.737 188.854 135.021 188.682 135.273C188.511 135.523 188.278 135.72 187.983 135.864C187.688 136.008 187.351 136.08 186.974 136.08Z" fill="#AEB9E1"/>
<path d="M235.318 130.182V136H234.636L231.466 131.432H231.409V136H230.705V130.182H231.386L234.568 134.761H234.625V130.182H235.318ZM238.41 136.091C238.016 136.091 237.67 135.997 237.373 135.81C237.077 135.622 236.846 135.36 236.68 135.023C236.515 134.686 236.433 134.292 236.433 133.841C236.433 133.386 236.515 132.99 236.68 132.651C236.846 132.312 237.077 132.048 237.373 131.861C237.67 131.673 238.016 131.58 238.41 131.58C238.804 131.58 239.148 131.673 239.444 131.861C239.741 132.048 239.972 132.312 240.137 132.651C240.304 132.99 240.387 133.386 240.387 133.841C240.387 134.292 240.304 134.686 240.137 135.023C239.972 135.36 239.741 135.622 239.444 135.81C239.148 135.997 238.804 136.091 238.41 136.091ZM238.41 135.489C238.709 135.489 238.955 135.412 239.148 135.259C239.342 135.105 239.485 134.903 239.577 134.653C239.67 134.403 239.717 134.133 239.717 133.841C239.717 133.549 239.67 133.277 239.577 133.026C239.485 132.774 239.342 132.57 239.148 132.415C238.955 132.259 238.709 132.182 238.41 132.182C238.111 132.182 237.864 132.259 237.671 132.415C237.478 132.57 237.335 132.774 237.242 133.026C237.149 133.277 237.103 133.549 237.103 133.841C237.103 134.133 237.149 134.403 237.242 134.653C237.335 134.903 237.478 135.105 237.671 135.259C237.864 135.412 238.111 135.489 238.41 135.489ZM244.822 131.636L243.209 136H242.527L240.913 131.636H241.641L242.845 135.114H242.891L244.095 131.636H244.822ZM247.946 136V135.489L249.866 133.386C250.092 133.14 250.277 132.926 250.423 132.744C250.569 132.561 250.677 132.388 250.747 132.227C250.819 132.064 250.855 131.894 250.855 131.716C250.855 131.511 250.806 131.334 250.707 131.185C250.611 131.035 250.478 130.92 250.31 130.838C250.141 130.757 249.952 130.716 249.741 130.716C249.518 130.716 249.323 130.762 249.156 130.855C248.991 130.946 248.864 131.074 248.773 131.239C248.684 131.403 248.639 131.597 248.639 131.818H247.969C247.969 131.477 248.047 131.178 248.205 130.92C248.362 130.663 248.576 130.462 248.847 130.318C249.119 130.174 249.425 130.102 249.764 130.102C250.105 130.102 250.407 130.174 250.67 130.318C250.934 130.462 251.14 130.656 251.29 130.901C251.439 131.145 251.514 131.417 251.514 131.716C251.514 131.93 251.475 132.139 251.398 132.344C251.322 132.546 251.189 132.773 251 133.023C250.812 133.271 250.552 133.574 250.219 133.932L248.912 135.33V135.375H251.616V136H247.946ZM254.688 136.08C254.259 136.08 253.895 135.963 253.594 135.73C253.293 135.495 253.063 135.155 252.903 134.71C252.744 134.263 252.665 133.723 252.665 133.091C252.665 132.462 252.744 131.925 252.903 131.48C253.064 131.033 253.295 130.692 253.597 130.457C253.9 130.221 254.263 130.102 254.688 130.102C255.112 130.102 255.474 130.221 255.776 130.457C256.079 130.692 256.31 131.033 256.469 131.48C256.63 131.925 256.71 132.462 256.71 133.091C256.71 133.723 256.631 134.263 256.472 134.71C256.312 135.155 256.082 135.495 255.781 135.73C255.48 135.963 255.116 136.08 254.688 136.08ZM254.688 135.455C255.112 135.455 255.441 135.25 255.676 134.841C255.911 134.432 256.028 133.848 256.028 133.091C256.028 132.587 255.974 132.158 255.866 131.804C255.76 131.45 255.607 131.18 255.406 130.994C255.207 130.809 254.968 130.716 254.688 130.716C254.267 130.716 253.938 130.923 253.702 131.338C253.465 131.751 253.347 132.335 253.347 133.091C253.347 133.595 253.4 134.023 253.506 134.375C253.612 134.727 253.764 134.995 253.963 135.179C254.164 135.363 254.405 135.455 254.688 135.455ZM257.79 136V135.489L259.71 133.386C259.936 133.14 260.121 132.926 260.267 132.744C260.413 132.561 260.521 132.388 260.591 132.227C260.663 132.064 260.699 131.894 260.699 131.716C260.699 131.511 260.65 131.334 260.551 131.185C260.455 131.035 260.322 130.92 260.153 130.838C259.985 130.757 259.795 130.716 259.585 130.716C259.362 130.716 259.167 130.762 259 130.855C258.835 130.946 258.707 131.074 258.616 131.239C258.527 131.403 258.483 131.597 258.483 131.818H257.812C257.812 131.477 257.891 131.178 258.048 130.92C258.205 130.663 258.42 130.462 258.69 130.318C258.963 130.174 259.269 130.102 259.608 130.102C259.949 130.102 260.251 130.174 260.514 130.318C260.777 130.462 260.984 130.656 261.134 130.901C261.283 131.145 261.358 131.417 261.358 131.716C261.358 131.93 261.319 132.139 261.241 132.344C261.166 132.546 261.033 132.773 260.844 133.023C260.656 133.271 260.396 133.574 260.062 133.932L258.756 135.33V135.375H261.46V136H257.79ZM264.599 136.08C264.224 136.08 263.89 136.015 263.597 135.886C263.305 135.758 263.073 135.579 262.901 135.349C262.73 135.118 262.637 134.85 262.622 134.545H263.338C263.353 134.733 263.418 134.895 263.531 135.031C263.645 135.166 263.794 135.27 263.977 135.344C264.161 135.418 264.365 135.455 264.588 135.455C264.838 135.455 265.06 135.411 265.253 135.324C265.446 135.237 265.598 135.116 265.707 134.96C265.817 134.805 265.872 134.625 265.872 134.42C265.872 134.206 265.819 134.018 265.713 133.855C265.607 133.69 265.452 133.562 265.247 133.469C265.043 133.376 264.793 133.33 264.497 133.33H264.031V132.705H264.497C264.728 132.705 264.931 132.663 265.105 132.58C265.281 132.496 265.419 132.379 265.517 132.227C265.617 132.076 265.668 131.898 265.668 131.693C265.668 131.496 265.624 131.325 265.537 131.179C265.45 131.033 265.327 130.92 265.168 130.838C265.01 130.757 264.825 130.716 264.611 130.716C264.41 130.716 264.221 130.753 264.043 130.827C263.866 130.899 263.723 131.004 263.611 131.142C263.499 131.278 263.438 131.443 263.429 131.636H262.747C262.759 131.331 262.85 131.064 263.023 130.835C263.195 130.604 263.42 130.424 263.699 130.295C263.979 130.167 264.287 130.102 264.622 130.102C264.982 130.102 265.291 130.175 265.548 130.321C265.806 130.465 266.004 130.655 266.142 130.892C266.28 131.129 266.349 131.384 266.349 131.659C266.349 131.987 266.263 132.266 266.091 132.497C265.92 132.728 265.688 132.888 265.395 132.977V133.023C265.762 133.083 266.049 133.24 266.256 133.491C266.462 133.741 266.565 134.051 266.565 134.42C266.565 134.737 266.479 135.021 266.307 135.273C266.136 135.523 265.903 135.72 265.608 135.864C265.313 136.008 264.976 136.08 264.599 136.08Z" fill="#AEB9E1"/>
<path d="M310.5 136H308.705V130.182H310.58C311.144 130.182 311.627 130.298 312.028 130.531C312.43 130.762 312.738 131.095 312.952 131.528C313.166 131.96 313.273 132.477 313.273 133.08C313.273 133.686 313.165 134.207 312.949 134.645C312.733 135.08 312.419 135.416 312.006 135.651C311.593 135.884 311.091 136 310.5 136ZM309.409 135.375H310.455C310.936 135.375 311.334 135.282 311.651 135.097C311.967 134.911 312.203 134.647 312.358 134.304C312.513 133.961 312.591 133.553 312.591 133.08C312.591 132.61 312.514 132.205 312.361 131.866C312.207 131.526 311.978 131.264 311.673 131.082C311.368 130.899 310.989 130.807 310.534 130.807H309.409V135.375ZM316.193 136.091C315.773 136.091 315.41 135.998 315.105 135.812C314.802 135.625 314.568 135.364 314.403 135.028C314.241 134.691 314.159 134.299 314.159 133.852C314.159 133.405 314.241 133.011 314.403 132.67C314.568 132.328 314.797 132.061 315.091 131.869C315.386 131.676 315.731 131.58 316.125 131.58C316.352 131.58 316.577 131.617 316.798 131.693C317.02 131.769 317.222 131.892 317.403 132.062C317.585 132.231 317.73 132.455 317.838 132.733C317.946 133.011 318 133.354 318 133.761V134.045H314.636V133.466H317.318C317.318 133.22 317.269 133 317.17 132.807C317.074 132.614 316.936 132.461 316.756 132.349C316.578 132.238 316.367 132.182 316.125 132.182C315.858 132.182 315.627 132.248 315.432 132.381C315.239 132.511 315.09 132.682 314.986 132.892C314.882 133.102 314.83 133.328 314.83 133.568V133.955C314.83 134.284 314.886 134.563 315 134.793C315.116 135.02 315.276 135.193 315.48 135.312C315.685 135.43 315.922 135.489 316.193 135.489C316.369 135.489 316.528 135.464 316.67 135.415C316.814 135.364 316.938 135.288 317.043 135.188C317.147 135.085 317.227 134.958 317.284 134.807L317.932 134.989C317.864 135.208 317.749 135.402 317.588 135.568C317.427 135.733 317.228 135.862 316.991 135.955C316.755 136.045 316.489 136.091 316.193 136.091ZM320.793 136.091C320.384 136.091 320.031 135.994 319.736 135.801C319.44 135.608 319.213 135.342 319.054 135.003C318.895 134.664 318.815 134.277 318.815 133.841C318.815 133.398 318.897 133.007 319.06 132.668C319.224 132.327 319.454 132.061 319.747 131.869C320.043 131.676 320.387 131.58 320.781 131.58C321.088 131.58 321.365 131.636 321.611 131.75C321.857 131.864 322.059 132.023 322.216 132.227C322.373 132.432 322.471 132.67 322.509 132.943H321.838C321.787 132.744 321.673 132.568 321.497 132.415C321.323 132.259 321.088 132.182 320.793 132.182C320.531 132.182 320.302 132.25 320.105 132.386C319.91 132.521 319.758 132.711 319.648 132.957C319.54 133.202 319.486 133.489 319.486 133.818C319.486 134.155 319.539 134.449 319.645 134.699C319.753 134.949 319.904 135.143 320.099 135.281C320.296 135.42 320.527 135.489 320.793 135.489C320.967 135.489 321.125 135.458 321.267 135.398C321.409 135.337 321.529 135.25 321.628 135.136C321.726 135.023 321.796 134.886 321.838 134.727H322.509C322.471 134.985 322.377 135.217 322.227 135.423C322.08 135.628 321.884 135.791 321.639 135.912C321.397 136.031 321.115 136.091 320.793 136.091ZM325.727 136V135.489L327.648 133.386C327.873 133.14 328.059 132.926 328.205 132.744C328.35 132.561 328.458 132.388 328.528 132.227C328.6 132.064 328.636 131.894 328.636 131.716C328.636 131.511 328.587 131.334 328.489 131.185C328.392 131.035 328.259 130.92 328.091 130.838C327.922 130.757 327.733 130.716 327.523 130.716C327.299 130.716 327.104 130.762 326.938 130.855C326.773 130.946 326.645 131.074 326.554 131.239C326.465 131.403 326.42 131.597 326.42 131.818H325.75C325.75 131.477 325.829 131.178 325.986 130.92C326.143 130.663 326.357 130.462 326.628 130.318C326.901 130.174 327.206 130.102 327.545 130.102C327.886 130.102 328.188 130.174 328.452 130.318C328.715 130.462 328.921 130.656 329.071 130.901C329.221 131.145 329.295 131.417 329.295 131.716C329.295 131.93 329.257 132.139 329.179 132.344C329.103 132.546 328.971 132.773 328.781 133.023C328.594 133.271 328.333 133.574 328 133.932L326.693 135.33V135.375H329.398V136H325.727ZM332.469 136.08C332.041 136.08 331.676 135.963 331.375 135.73C331.074 135.495 330.844 135.155 330.685 134.71C330.526 134.263 330.446 133.723 330.446 133.091C330.446 132.462 330.526 131.925 330.685 131.48C330.846 131.033 331.077 130.692 331.378 130.457C331.681 130.221 332.045 130.102 332.469 130.102C332.893 130.102 333.256 130.221 333.557 130.457C333.86 130.692 334.091 131.033 334.25 131.48C334.411 131.925 334.491 132.462 334.491 133.091C334.491 133.723 334.412 134.263 334.253 134.71C334.094 135.155 333.864 135.495 333.562 135.73C333.261 135.963 332.897 136.08 332.469 136.08ZM332.469 135.455C332.893 135.455 333.223 135.25 333.457 134.841C333.692 134.432 333.81 133.848 333.81 133.091C333.81 132.587 333.756 132.158 333.648 131.804C333.542 131.45 333.388 131.18 333.188 130.994C332.989 130.809 332.749 130.716 332.469 130.716C332.048 130.716 331.72 130.923 331.483 131.338C331.246 131.751 331.128 132.335 331.128 133.091C331.128 133.595 331.181 134.023 331.287 134.375C331.393 134.727 331.545 134.995 331.744 135.179C331.945 135.363 332.187 135.455 332.469 135.455ZM335.571 136V135.489L337.491 133.386C337.717 133.14 337.902 132.926 338.048 132.744C338.194 132.561 338.302 132.388 338.372 132.227C338.444 132.064 338.48 131.894 338.48 131.716C338.48 131.511 338.431 131.334 338.332 131.185C338.236 131.035 338.103 130.92 337.935 130.838C337.766 130.757 337.577 130.716 337.366 130.716C337.143 130.716 336.948 130.762 336.781 130.855C336.616 130.946 336.489 131.074 336.398 131.239C336.309 131.403 336.264 131.597 336.264 131.818H335.594C335.594 131.477 335.672 131.178 335.83 130.92C335.987 130.663 336.201 130.462 336.472 130.318C336.744 130.174 337.05 130.102 337.389 130.102C337.73 130.102 338.032 130.174 338.295 130.318C338.559 130.462 338.765 130.656 338.915 130.901C339.064 131.145 339.139 131.417 339.139 131.716C339.139 131.93 339.1 132.139 339.023 132.344C338.947 132.546 338.814 132.773 338.625 133.023C338.438 133.271 338.177 133.574 337.844 133.932L336.537 135.33V135.375H339.241V136H335.571ZM342.381 136.08C342.006 136.08 341.671 136.015 341.378 135.886C341.086 135.758 340.854 135.579 340.682 135.349C340.511 135.118 340.419 134.85 340.403 134.545H341.119C341.134 134.733 341.199 134.895 341.312 135.031C341.426 135.166 341.575 135.27 341.759 135.344C341.942 135.418 342.146 135.455 342.369 135.455C342.619 135.455 342.841 135.411 343.034 135.324C343.227 135.237 343.379 135.116 343.489 134.96C343.598 134.805 343.653 134.625 343.653 134.42C343.653 134.206 343.6 134.018 343.494 133.855C343.388 133.69 343.233 133.562 343.028 133.469C342.824 133.376 342.574 133.33 342.278 133.33H341.812V132.705H342.278C342.509 132.705 342.712 132.663 342.886 132.58C343.063 132.496 343.2 132.379 343.298 132.227C343.399 132.076 343.449 131.898 343.449 131.693C343.449 131.496 343.405 131.325 343.318 131.179C343.231 131.033 343.108 130.92 342.949 130.838C342.792 130.757 342.606 130.716 342.392 130.716C342.191 130.716 342.002 130.753 341.824 130.827C341.648 130.899 341.504 131.004 341.392 131.142C341.28 131.278 341.22 131.443 341.21 131.636H340.528C340.54 131.331 340.632 131.064 340.804 130.835C340.976 130.604 341.202 130.424 341.48 130.295C341.76 130.167 342.068 130.102 342.403 130.102C342.763 130.102 343.072 130.175 343.33 130.321C343.587 130.465 343.785 130.655 343.923 130.892C344.062 131.129 344.131 131.384 344.131 131.659C344.131 131.987 344.045 132.266 343.872 132.497C343.702 132.728 343.47 132.888 343.176 132.977V133.023C343.544 133.083 343.83 133.24 344.037 133.491C344.243 133.741 344.347 134.051 344.347 134.42C344.347 134.737 344.26 135.021 344.088 135.273C343.918 135.523 343.685 135.72 343.389 135.864C343.094 136.008 342.758 136.08 342.381 136.08Z" fill="#AEB9E1"/>
<path d="M387.932 130.182H388.636V134.341C388.636 134.712 388.568 135.027 388.432 135.287C388.295 135.546 388.103 135.743 387.855 135.878C387.607 136.012 387.314 136.08 386.977 136.08C386.659 136.08 386.376 136.022 386.128 135.906C385.88 135.789 385.685 135.622 385.543 135.406C385.401 135.19 385.33 134.934 385.33 134.636H386.023C386.023 134.801 386.063 134.945 386.145 135.068C386.228 135.189 386.342 135.284 386.486 135.352C386.63 135.42 386.794 135.455 386.977 135.455C387.18 135.455 387.352 135.412 387.494 135.327C387.636 135.241 387.744 135.116 387.818 134.952C387.894 134.785 387.932 134.581 387.932 134.341V130.182ZM391.241 136.102C390.965 136.102 390.714 136.05 390.489 135.946C390.263 135.84 390.084 135.688 389.952 135.489C389.819 135.288 389.753 135.045 389.753 134.761C389.753 134.511 389.802 134.309 389.901 134.153C389.999 133.996 390.131 133.873 390.295 133.784C390.46 133.695 390.642 133.629 390.841 133.585C391.042 133.54 391.243 133.504 391.446 133.477C391.711 133.443 391.926 133.418 392.091 133.401C392.258 133.382 392.379 133.35 392.455 133.307C392.532 133.263 392.571 133.187 392.571 133.08V133.057C392.571 132.777 392.494 132.559 392.341 132.403C392.189 132.248 391.959 132.17 391.651 132.17C391.33 132.17 391.08 132.241 390.898 132.381C390.716 132.521 390.588 132.67 390.514 132.83L389.878 132.602C389.991 132.337 390.143 132.131 390.332 131.983C390.524 131.833 390.732 131.729 390.957 131.67C391.185 131.61 391.408 131.58 391.628 131.58C391.768 131.58 391.929 131.597 392.111 131.631C392.295 131.663 392.472 131.73 392.642 131.832C392.814 131.935 392.957 132.089 393.071 132.295C393.185 132.502 393.241 132.778 393.241 133.125V136H392.571V135.409H392.537C392.491 135.504 392.416 135.605 392.31 135.713C392.204 135.821 392.063 135.913 391.886 135.989C391.71 136.064 391.495 136.102 391.241 136.102ZM391.344 135.5C391.609 135.5 391.832 135.448 392.014 135.344C392.198 135.24 392.336 135.105 392.429 134.94C392.524 134.776 392.571 134.602 392.571 134.42V133.807C392.543 133.841 392.48 133.872 392.384 133.901C392.289 133.927 392.179 133.951 392.054 133.972C391.931 133.991 391.811 134.008 391.693 134.023C391.578 134.036 391.484 134.047 391.412 134.057C391.238 134.08 391.075 134.116 390.923 134.168C390.774 134.217 390.652 134.292 390.56 134.392C390.469 134.491 390.423 134.625 390.423 134.795C390.423 135.028 390.509 135.205 390.682 135.324C390.856 135.441 391.077 135.5 391.344 135.5ZM395.136 133.375V136H394.465V131.636H395.113V132.318H395.17C395.272 132.097 395.427 131.919 395.636 131.784C395.844 131.648 396.113 131.58 396.442 131.58C396.738 131.58 396.996 131.64 397.218 131.761C397.44 131.881 397.612 132.062 397.735 132.307C397.858 132.549 397.92 132.856 397.92 133.227V136H397.249V133.273C397.249 132.93 397.16 132.663 396.982 132.472C396.804 132.278 396.56 132.182 396.249 132.182C396.035 132.182 395.844 132.228 395.675 132.321C395.509 132.414 395.377 132.549 395.281 132.727C395.184 132.905 395.136 133.121 395.136 133.375ZM401.384 136V135.489L403.304 133.386C403.529 133.14 403.715 132.926 403.861 132.744C404.007 132.561 404.115 132.388 404.185 132.227C404.257 132.064 404.293 131.894 404.293 131.716C404.293 131.511 404.243 131.334 404.145 131.185C404.048 131.035 403.916 130.92 403.747 130.838C403.579 130.757 403.389 130.716 403.179 130.716C402.955 130.716 402.76 130.762 402.594 130.855C402.429 130.946 402.301 131.074 402.21 131.239C402.121 131.403 402.077 131.597 402.077 131.818H401.406C401.406 131.477 401.485 131.178 401.642 130.92C401.799 130.663 402.013 130.462 402.284 130.318C402.557 130.174 402.863 130.102 403.202 130.102C403.543 130.102 403.845 130.174 404.108 130.318C404.371 130.462 404.578 130.656 404.727 130.901C404.877 131.145 404.952 131.417 404.952 131.716C404.952 131.93 404.913 132.139 404.835 132.344C404.759 132.546 404.627 132.773 404.438 133.023C404.25 133.271 403.99 133.574 403.656 133.932L402.349 135.33V135.375H405.054V136H401.384ZM408.125 136.08C407.697 136.08 407.332 135.963 407.031 135.73C406.73 135.495 406.5 135.155 406.341 134.71C406.182 134.263 406.102 133.723 406.102 133.091C406.102 132.462 406.182 131.925 406.341 131.48C406.502 131.033 406.733 130.692 407.034 130.457C407.337 130.221 407.701 130.102 408.125 130.102C408.549 130.102 408.912 130.221 409.213 130.457C409.516 130.692 409.747 131.033 409.906 131.48C410.067 131.925 410.148 132.462 410.148 133.091C410.148 133.723 410.068 134.263 409.909 134.71C409.75 135.155 409.52 135.495 409.219 135.73C408.918 135.963 408.553 136.08 408.125 136.08ZM408.125 135.455C408.549 135.455 408.879 135.25 409.114 134.841C409.348 134.432 409.466 133.848 409.466 133.091C409.466 132.587 409.412 132.158 409.304 131.804C409.198 131.45 409.045 131.18 408.844 130.994C408.645 130.809 408.405 130.716 408.125 130.716C407.705 130.716 407.376 130.923 407.139 131.338C406.902 131.751 406.784 132.335 406.784 133.091C406.784 133.595 406.837 134.023 406.943 134.375C407.049 134.727 407.202 134.995 407.401 135.179C407.601 135.363 407.843 135.455 408.125 135.455ZM411.227 136V135.489L413.148 133.386C413.373 133.14 413.559 132.926 413.705 132.744C413.85 132.561 413.958 132.388 414.028 132.227C414.1 132.064 414.136 131.894 414.136 131.716C414.136 131.511 414.087 131.334 413.989 131.185C413.892 131.035 413.759 130.92 413.591 130.838C413.422 130.757 413.233 130.716 413.023 130.716C412.799 130.716 412.604 130.762 412.438 130.855C412.273 130.946 412.145 131.074 412.054 131.239C411.965 131.403 411.92 131.597 411.92 131.818H411.25C411.25 131.477 411.329 131.178 411.486 130.92C411.643 130.663 411.857 130.462 412.128 130.318C412.401 130.174 412.706 130.102 413.045 130.102C413.386 130.102 413.688 130.174 413.952 130.318C414.215 130.462 414.421 130.656 414.571 130.901C414.721 131.145 414.795 131.417 414.795 131.716C414.795 131.93 414.757 132.139 414.679 132.344C414.603 132.546 414.471 132.773 414.281 133.023C414.094 133.271 413.833 133.574 413.5 133.932L412.193 135.33V135.375H414.898V136H411.227ZM415.81 134.807V134.227L418.366 130.182H418.787V131.08H418.503L416.571 134.136V134.182H420.014V134.807H415.81ZM418.548 136V134.631V134.361V130.182H419.219V136H418.548Z" fill="#AEB9E1"/>
<rect x="6" width="13" height="85" fill="#00C2FF"/>
<rect x="6" y="13" width="13" height="101" fill="#CB3CFF"/>
<rect x="85" y="52" width="13" height="62" fill="#CB3CFF"/>
<path d="M85 52H98V0H85V52Z" fill="#00C2FF"/>
<rect width="13" height="36" transform="matrix(1 0 0 -1 164 36)" fill="#00C2FF"/>
<rect x="164" y="18" width="13" height="96" fill="#CB3CFF"/>
<rect x="243" y="26" width="14" height="88" fill="#CB3CFF"/>
<rect x="243" width="14" height="39" fill="#00C2FF"/>
<rect x="323" y="52" width="13" height="62" fill="#CB3CFF"/>
<rect x="323" width="13" height="83" fill="#00C2FF"/>
<rect x="402" y="11" width="15" height="103" fill="#CB3CFF"/>
<rect x="402" width="15" height="23" fill="#00C2FF"/>
</svg>
