<svg width="500" height="434" viewBox="0 0 539 434" fill="none" xmlns="http://www.w3.org/2000/svg">
<path d="M54.0213 429.468C55.2713 429.468 56.0713 428.888 56.0713 427.488V422.098H54.9913V427.398C54.9913 428.208 54.5813 428.558 53.8213 428.558C53.4913 428.558 53.2213 428.478 53.0313 428.368V429.258C53.2513 429.378 53.6213 429.468 54.0213 429.468ZM59.4736 429.478C60.3636 429.478 61.0236 429.018 61.2736 428.338H61.3336V429.388H62.3636V424.098H61.3736L61.3336 425.138H61.2736C61.0236 424.458 60.3636 424.008 59.4736 424.008C58.1836 424.008 57.3136 424.968 57.3136 426.738C57.3136 428.508 58.1836 429.478 59.4736 429.478ZM59.8336 428.628C58.9536 428.628 58.3736 427.978 58.3736 426.738C58.3736 425.488 58.9536 424.848 59.8336 424.848C60.8136 424.848 61.3236 425.628 61.3236 426.438V427.038C61.3236 427.858 60.8136 428.628 59.8336 428.628ZM63.8064 429.388H64.8264V426.498C64.8264 425.588 65.3964 424.868 66.3064 424.868C67.1464 424.868 67.5364 425.378 67.5364 426.458V429.388H68.5664V426.248C68.5664 424.628 67.7564 424.018 66.6764 424.018C65.8964 424.018 65.1964 424.398 64.8864 425.148H64.8264L64.7864 424.098H63.8064V429.388Z" fill="#AEB9E1"/>
<path d="M92.5636 429.388H93.6536V426.278H97.2536V425.378H93.6536V423.038H97.6536V422.098H92.5636V429.388ZM100.766 429.478C102.016 429.478 102.976 428.798 103.116 427.758H102.136C102.006 428.308 101.476 428.658 100.766 428.658C99.8457 428.658 99.2457 428.038 99.2257 426.948H103.146C103.306 425.288 102.466 424.018 100.726 424.018C99.1757 424.018 98.2057 425.098 98.2057 426.768C98.2057 428.398 99.1757 429.478 100.766 429.478ZM100.716 424.828C101.496 424.828 102.106 425.238 102.136 426.218H99.2457C99.3257 425.358 99.8857 424.828 100.716 424.828ZM107.149 429.478C108.439 429.478 109.309 428.518 109.309 426.748C109.309 424.978 108.439 424.008 107.149 424.008C106.259 424.008 105.599 424.468 105.349 425.138H105.289V422.098H104.259V429.388H105.249L105.289 428.348H105.349C105.599 429.028 106.259 429.478 107.149 429.478ZM106.789 428.628C105.809 428.628 105.299 427.858 105.299 427.038V426.448C105.299 425.628 105.809 424.858 106.789 424.858C107.669 424.858 108.249 425.498 108.249 426.748C108.249 427.988 107.669 428.628 106.789 428.628Z" fill="#AEB9E1"/>
<path d="M133.13 429.388H134.2V425.988L134.18 423.248H134.25L136.42 429.388H137.29L139.46 423.248H139.53L139.5 425.978V429.388H140.56V422.098H138.9L136.87 427.678H136.83L134.8 422.098H133.13V429.388ZM143.969 429.478C144.859 429.478 145.519 429.018 145.769 428.338H145.829V429.388H146.859V424.098H145.869L145.829 425.138H145.769C145.519 424.458 144.859 424.008 143.969 424.008C142.679 424.008 141.809 424.968 141.809 426.738C141.809 428.508 142.679 429.478 143.969 429.478ZM144.329 428.628C143.449 428.628 142.869 427.978 142.869 426.738C142.869 425.488 143.449 424.848 144.329 424.848C145.309 424.848 145.819 425.628 145.819 426.438V427.038C145.819 427.858 145.309 428.628 144.329 428.628ZM148.302 429.388H149.322V426.368C149.372 425.498 149.902 425.008 150.842 425.008C150.962 425.008 151.082 425.008 151.162 425.018V424.048C151.072 424.038 150.972 424.028 150.852 424.028C150.152 424.028 149.552 424.358 149.322 425.038H149.272L149.222 424.098H148.302V429.388Z" fill="#AEB9E1"/>
<path d="M174.113 429.388H175.253L175.853 427.688H179.083L179.683 429.388H180.823L178.233 422.098H176.703L174.113 429.388ZM176.113 426.838L176.933 424.588L177.443 423.098H177.503L178.013 424.588L178.813 426.838H176.113ZM181.561 431.058H182.591V428.348H182.651C182.911 429.028 183.571 429.478 184.451 429.478C185.741 429.478 186.611 428.518 186.611 426.748C186.611 424.978 185.741 424.008 184.451 424.008C183.571 424.008 182.911 424.468 182.651 425.138H182.591L182.551 424.098H181.561V431.058ZM184.091 428.628C183.111 428.628 182.601 427.858 182.601 427.038V426.448C182.601 425.628 183.111 424.858 184.091 424.858C184.971 424.858 185.561 425.498 185.561 426.748C185.561 427.988 184.971 428.628 184.091 428.628ZM187.704 429.388H188.724V426.368C188.774 425.498 189.304 425.008 190.244 425.008C190.364 425.008 190.484 425.008 190.564 425.018V424.048C190.474 424.038 190.374 424.028 190.254 424.028C189.554 424.028 188.954 424.358 188.724 425.038H188.674L188.624 424.098H187.704V429.388Z" fill="#AEB9E1"/>
<path d="M214.255 429.388H215.325V425.988L215.305 423.248H215.375L217.545 429.388H218.415L220.585 423.248H220.655L220.625 425.978V429.388H221.685V422.098H220.025L217.995 427.678H217.955L215.925 422.098H214.255V429.388ZM225.094 429.478C225.984 429.478 226.644 429.018 226.894 428.338H226.954V429.388H227.984V424.098H226.994L226.954 425.138H226.894C226.644 424.458 225.984 424.008 225.094 424.008C223.804 424.008 222.934 424.968 222.934 426.738C222.934 428.508 223.804 429.478 225.094 429.478ZM225.454 428.628C224.574 428.628 223.994 427.978 223.994 426.738C223.994 425.488 224.574 424.848 225.454 424.848C226.434 424.848 226.944 425.628 226.944 426.438V427.038C226.944 427.858 226.434 428.628 225.454 428.628ZM229.077 431.058H229.817C230.647 431.058 231.177 430.768 231.517 429.848L233.717 424.098H232.627L231.487 427.318L231.277 427.948H231.237L231.017 427.318L229.807 424.098H228.677L230.757 429.008L230.527 429.598C230.357 430.018 230.117 430.208 229.647 430.208H229.077V431.058Z" fill="#AEB9E1"/>
<path d="M257.625 429.468C258.875 429.468 259.675 428.888 259.675 427.488V422.098H258.595V427.398C258.595 428.208 258.185 428.558 257.425 428.558C257.095 428.558 256.825 428.478 256.635 428.368V429.258C256.855 429.378 257.225 429.468 257.625 429.468ZM263.127 429.478C263.947 429.478 264.637 429.048 264.897 428.318H264.957L265.007 429.388H265.987V424.098H264.957V426.958C264.957 427.928 264.377 428.618 263.507 428.618C262.617 428.618 262.257 428.078 262.257 427.098V424.098H261.227V427.358C261.227 428.758 261.927 429.478 263.127 429.478ZM267.381 429.388H268.401V426.498C268.401 425.588 268.971 424.868 269.881 424.868C270.721 424.868 271.111 425.378 271.111 426.458V429.388H272.141V426.248C272.141 424.628 271.331 424.018 270.251 424.018C269.471 424.018 268.771 424.398 268.461 425.148H268.401L268.361 424.098H267.381V429.388Z" fill="#AEB9E1"/>
<path d="M296.588 429.468C297.838 429.468 298.638 428.888 298.638 427.488V422.098H297.558V427.398C297.558 428.208 297.148 428.558 296.388 428.558C296.058 428.558 295.788 428.478 295.598 428.368V429.258C295.818 429.378 296.188 429.468 296.588 429.468ZM302.091 429.478C302.911 429.478 303.601 429.048 303.861 428.318H303.921L303.971 429.388H304.951V424.098H303.921V426.958C303.921 427.928 303.341 428.618 302.471 428.618C301.581 428.618 301.221 428.078 301.221 427.098V424.098H300.191V427.358C300.191 428.758 300.891 429.478 302.091 429.478ZM306.344 429.388H307.374V422.098H306.344V429.388Z" fill="#AEB9E1"/>
<path d="M330.613 429.388H331.753L332.353 427.688H335.583L336.183 429.388H337.323L334.733 422.098H333.203L330.613 429.388ZM332.613 426.838L333.433 424.588L333.943 423.098H334.003L334.513 424.588L335.313 426.838H332.613ZM339.715 429.478C340.535 429.478 341.225 429.048 341.485 428.318H341.545L341.595 429.388H342.575V424.098H341.545V426.958C341.545 427.928 340.965 428.618 340.095 428.618C339.205 428.618 338.845 428.078 338.845 427.098V424.098H337.815V427.358C337.815 428.758 338.515 429.478 339.715 429.478ZM346.019 431.158C347.509 431.158 348.519 430.558 348.519 428.898V424.098H347.519L347.499 425.078H347.429C347.189 424.438 346.549 424.008 345.709 424.008C344.429 424.008 343.569 424.928 343.569 426.548C343.569 428.158 344.409 429.078 345.699 429.078C346.539 429.078 347.189 428.648 347.429 428.008H347.499V429.038C347.499 430.018 346.989 430.398 346.039 430.398C345.369 430.398 344.909 430.108 344.829 429.638H343.829C343.939 430.578 344.749 431.158 346.019 431.158ZM346.049 428.278C345.189 428.278 344.629 427.668 344.629 426.548C344.629 425.448 345.179 424.818 346.059 424.818C346.989 424.818 347.479 425.528 347.489 426.218L347.499 426.858C347.479 427.558 346.969 428.278 346.049 428.278Z" fill="#AEB9E1"/>
<path d="M375.098 429.478C376.958 429.478 377.948 428.628 377.948 427.378C377.948 425.698 376.738 425.378 375.448 425.168C374.048 424.918 373.498 424.758 373.498 423.948C373.498 423.288 374.048 422.858 375.008 422.858C375.948 422.858 376.578 423.278 376.608 424.148H377.718C377.698 422.868 376.718 422.018 375.048 422.018C373.378 422.018 372.368 422.818 372.368 424.098C372.368 425.348 373.228 425.838 374.898 426.128C376.328 426.368 376.818 426.608 376.818 427.478C376.818 428.248 376.138 428.618 375.118 428.618C373.878 428.618 373.338 428.038 373.318 427.108H372.198C372.218 428.508 373.158 429.478 375.098 429.478ZM381.31 429.478C382.56 429.478 383.52 428.798 383.66 427.758H382.68C382.55 428.308 382.02 428.658 381.31 428.658C380.39 428.658 379.79 428.038 379.77 426.948H383.69C383.85 425.288 383.01 424.018 381.27 424.018C379.72 424.018 378.75 425.098 378.75 426.768C378.75 428.398 379.72 429.478 381.31 429.478ZM381.26 424.828C382.04 424.828 382.65 425.238 382.68 426.218H379.79C379.87 425.358 380.43 424.828 381.26 424.828ZM384.803 431.058H385.833V428.348H385.893C386.153 429.028 386.813 429.478 387.693 429.478C388.983 429.478 389.853 428.518 389.853 426.748C389.853 424.978 388.983 424.008 387.693 424.008C386.813 424.008 386.153 424.468 385.893 425.138H385.833L385.793 424.098H384.803V431.058ZM387.333 428.628C386.353 428.628 385.843 427.858 385.843 427.038V426.448C385.843 425.628 386.353 424.858 387.333 424.858C388.213 424.858 388.803 425.498 388.803 426.748C388.803 427.988 388.213 428.628 387.333 428.628Z" fill="#AEB9E1"/>
<path d="M416.977 429.478C419.137 429.478 420.577 428.068 420.577 425.748C420.577 423.428 419.147 422.018 416.977 422.018C414.817 422.018 413.387 423.428 413.387 425.748C413.387 428.058 414.807 429.478 416.977 429.478ZM416.977 428.538C415.467 428.538 414.507 427.518 414.507 425.748C414.507 423.978 415.457 422.958 416.977 422.958C418.497 422.958 419.457 423.978 419.457 425.748C419.457 427.508 418.497 428.538 416.977 428.538ZM423.974 429.478C425.294 429.478 426.254 428.698 426.334 427.498H425.334C425.254 428.168 424.744 428.618 423.974 428.618C423.054 428.618 422.454 427.948 422.454 426.758C422.454 425.628 423.004 424.878 423.984 424.878C424.664 424.878 425.194 425.238 425.314 425.928H426.314C426.234 424.788 425.294 424.018 424.014 424.018C422.424 424.018 421.404 425.108 421.404 426.748C421.404 428.388 422.424 429.478 423.974 429.478ZM428.889 429.388H429.949V428.538H429.229C428.899 428.538 428.779 428.448 428.779 428.098V424.938H429.949V424.098H428.779V422.448L427.749 422.568V424.098H426.749V424.938H427.749V428.288C427.749 428.998 428.019 429.388 428.889 429.388Z" fill="#AEB9E1"/>
<path d="M453.772 429.388H454.882V425.888L454.842 423.618H454.902L458.672 429.388H459.952V422.098H458.892V425.498L458.952 427.938H458.882L455.112 422.098H453.772V429.388ZM463.782 429.478C465.372 429.478 466.362 428.368 466.362 426.748C466.362 425.068 465.322 424.018 463.782 424.018C462.182 424.018 461.192 425.128 461.192 426.758C461.192 428.418 462.232 429.478 463.782 429.478ZM463.782 428.618C462.842 428.618 462.242 427.938 462.242 426.758C462.242 425.538 462.862 424.868 463.782 424.868C464.732 424.868 465.312 425.558 465.312 426.748C465.312 427.948 464.702 428.618 463.782 428.618ZM468.473 429.388H469.733L471.613 424.098H470.503L469.443 427.358L469.123 428.498H469.083L468.743 427.358L467.683 424.098H466.573L468.473 429.388Z" fill="#AEB9E1"/>
<path d="M495.234 429.388H498.184C500.284 429.388 501.484 427.938 501.484 425.748C501.484 423.558 500.284 422.098 498.184 422.098H495.234V429.388ZM496.324 428.448V423.038H498.024C499.424 423.038 500.364 423.878 500.364 425.728C500.364 427.578 499.434 428.448 498.024 428.448H496.324ZM504.871 429.478C506.121 429.478 507.081 428.798 507.221 427.758H506.241C506.111 428.308 505.581 428.658 504.871 428.658C503.951 428.658 503.351 428.038 503.331 426.948H507.251C507.411 425.288 506.571 424.018 504.831 424.018C503.281 424.018 502.311 425.098 502.311 426.768C502.311 428.398 503.281 429.478 504.871 429.478ZM504.821 424.828C505.601 424.828 506.211 425.238 506.241 426.218H503.351C503.431 425.358 503.991 424.828 504.821 424.828ZM510.672 429.478C511.992 429.478 512.952 428.698 513.032 427.498H512.032C511.952 428.168 511.442 428.618 510.672 428.618C509.752 428.618 509.152 427.948 509.152 426.758C509.152 425.628 509.702 424.878 510.682 424.878C511.362 424.878 511.892 425.238 512.012 425.928H513.012C512.932 424.788 511.992 424.018 510.712 424.018C509.122 424.018 508.102 425.108 508.102 426.748C508.102 428.388 509.122 429.478 510.672 429.478Z" fill="#AEB9E1"/>
<path d="M18.1305 398.327C19.9905 398.327 21.2505 396.779 21.2505 393.899C21.2505 391.091 20.0505 389.483 18.1425 389.483C16.2465 389.483 14.9745 391.019 14.9745 393.887C14.9745 396.707 16.1985 398.327 18.1305 398.327ZM18.1185 397.271C16.9425 397.271 16.2225 396.275 16.2225 393.899C16.2225 391.511 16.9425 390.527 18.1185 390.527C19.2945 390.527 20.0145 391.523 20.0145 393.899C20.0145 396.275 19.2945 397.271 18.1185 397.271ZM22.7355 398.231H24.0435V395.627L25.5195 394.067L28.2915 398.231H29.8395L26.4075 393.119L29.7795 389.483H28.1955L24.0435 394.067V389.483H22.7355V398.231Z" fill="#AEB9E1"/>
<line opacity="0.5" x1="45.855" y1="399.494" x2="538.401" y2="399.494" stroke="#0B1739" stroke-width="0.8"/>
<path d="M8.01716 346.41H13.8252V345.318H9.56516C9.99716 343.446 13.7292 342.798 13.7292 340.158C13.7292 338.646 12.6252 337.65 10.9452 337.65C9.18116 337.65 7.99316 338.754 8.04116 340.446H9.25316C9.19316 339.366 9.87716 338.718 10.8732 338.718C11.8212 338.718 12.4452 339.306 12.4452 340.218C12.4452 342.426 8.01716 342.822 8.01716 346.194V346.41ZM17.9915 346.518C19.8755 346.518 21.0755 345.318 21.0755 343.53C21.0755 341.826 19.9835 340.638 18.2675 340.638C17.4875 340.638 16.7915 340.95 16.4435 341.43L16.3715 341.406L16.4915 338.838H20.6195V337.758H15.3995L15.1955 342.666H16.3715C16.6115 342.09 17.1875 341.682 18.0155 341.682C19.0955 341.682 19.8035 342.402 19.8035 343.578C19.8035 344.67 19.1435 345.426 18.0035 345.426C16.9475 345.426 16.2635 344.766 16.2635 343.77H15.0275C15.0395 345.414 16.1915 346.518 17.9915 346.518ZM22.7368 346.41H24.0448V343.806L25.5208 342.246L28.2928 346.41H29.8408L26.4088 341.298L29.7808 337.662H28.1968L24.0448 342.246V337.662H22.7368V346.41Z" fill="#AEB9E1"/>
<line opacity="0.5" x1="45.856" y1="347.673" x2="538.402" y2="347.673" stroke="#0B1739" stroke-width="0.8"/>
<path d="M10.8665 294.696C12.7505 294.696 13.9505 293.496 13.9505 291.708C13.9505 290.004 12.8585 288.816 11.1425 288.816C10.3625 288.816 9.6665 289.128 9.3185 289.608L9.2465 289.584L9.3665 287.016H13.4945V285.936H8.2745L8.0705 290.844H9.2465C9.4865 290.268 10.0625 289.86 10.8905 289.86C11.9705 289.86 12.6785 290.58 12.6785 291.756C12.6785 292.848 12.0185 293.604 10.8785 293.604C9.8225 293.604 9.1385 292.944 9.1385 291.948H7.9025C7.9145 293.592 9.0665 294.696 10.8665 294.696ZM18.1318 294.684C19.9918 294.684 21.2518 293.136 21.2518 290.256C21.2518 287.448 20.0518 285.84 18.1438 285.84C16.2478 285.84 14.9758 287.376 14.9758 290.244C14.9758 293.064 16.1998 294.684 18.1318 294.684ZM18.1198 293.628C16.9438 293.628 16.2238 292.632 16.2238 290.256C16.2238 287.868 16.9438 286.884 18.1198 286.884C19.2958 286.884 20.0158 287.88 20.0158 290.256C20.0158 292.632 19.2958 293.628 18.1198 293.628ZM22.7368 294.588H24.0448V291.984L25.5208 290.424L28.2928 294.588H29.8408L26.4088 289.476L29.7808 285.84H28.1968L24.0448 290.424V285.84H22.7368V294.588Z" fill="#AEB9E1"/>
<line opacity="0.5" x1="45.856" y1="295.851" x2="538.402" y2="295.851" stroke="#0B1739" stroke-width="0.8"/>
<path d="M4.99091 242.767H6.22691V234.115H5.03891C4.95491 234.979 4.39091 235.555 3.23891 235.555H2.90291V236.503H4.99091V242.767ZM11.0056 242.863C12.8656 242.863 14.1256 241.315 14.1256 238.435C14.1256 235.627 12.9256 234.019 11.0176 234.019C9.12163 234.019 7.84963 235.555 7.84963 238.423C7.84963 241.243 9.07363 242.863 11.0056 242.863ZM10.9936 241.807C9.81763 241.807 9.09763 240.811 9.09763 238.435C9.09763 236.047 9.81763 235.063 10.9936 235.063C12.1696 235.063 12.8896 236.059 12.8896 238.435C12.8896 240.811 12.1696 241.807 10.9936 241.807ZM18.1306 242.863C19.9906 242.863 21.2506 241.315 21.2506 238.435C21.2506 235.627 20.0506 234.019 18.1426 234.019C16.2466 234.019 14.9746 235.555 14.9746 238.423C14.9746 241.243 16.1986 242.863 18.1306 242.863ZM18.1186 241.807C16.9426 241.807 16.2226 240.811 16.2226 238.435C16.2226 236.047 16.9426 235.063 18.1186 235.063C19.2946 235.063 20.0146 236.059 20.0146 238.435C20.0146 240.811 19.2946 241.807 18.1186 241.807ZM22.7356 242.767H24.0436V240.163L25.5196 238.603L28.2916 242.767H29.8396L26.4076 237.655L29.7796 234.019H28.1956L24.0436 238.603V234.019H22.7356V242.767Z" fill="#AEB9E1"/>
<line opacity="0.5" x1="45.855" y1="243.917" x2="538.401" y2="243.917" stroke="#0B1739" stroke-width="0.8"/>
<path d="M4.83857 190.945H6.07457V182.293H4.88657C4.80257 183.157 4.23857 183.733 3.08657 183.733H2.75057V184.681H4.83857V190.945ZM10.8653 191.053C12.7493 191.053 13.9493 189.853 13.9493 188.065C13.9493 186.361 12.8573 185.173 11.1413 185.173C10.3613 185.173 9.66529 185.485 9.31729 185.965L9.24529 185.941L9.36529 183.373H13.4933V182.293H8.27329L8.06929 187.201H9.24529C9.48529 186.625 10.0613 186.217 10.8893 186.217C11.9693 186.217 12.6773 186.937 12.6773 188.113C12.6773 189.205 12.0173 189.961 10.8773 189.961C9.82129 189.961 9.13729 189.301 9.13729 188.305H7.90129C7.91329 189.949 9.06529 191.053 10.8653 191.053ZM18.1306 191.041C19.9906 191.041 21.2506 189.493 21.2506 186.613C21.2506 183.805 20.0506 182.197 18.1426 182.197C16.2466 182.197 14.9746 183.733 14.9746 186.601C14.9746 189.421 16.1986 191.041 18.1306 191.041ZM18.1186 189.985C16.9426 189.985 16.2226 188.989 16.2226 186.613C16.2226 184.225 16.9426 183.241 18.1186 183.241C19.2946 183.241 20.0146 184.237 20.0146 186.613C20.0146 188.989 19.2946 189.985 18.1186 189.985ZM22.7356 190.945H24.0436V188.341L25.5196 186.781L28.2916 190.945H29.8396L26.4076 185.833L29.7796 182.197H28.1956L24.0436 186.781V182.197H22.7356V190.945Z" fill="#AEB9E1"/>
<line opacity="0.5" x1="45.855" y1="191.349" x2="538.401" y2="191.348" stroke="#0B1739" stroke-width="0.8"/>
<path d="M1.04388 139.121H6.85188V138.029H2.59188C3.02388 136.157 6.75588 135.509 6.75588 132.869C6.75588 131.357 5.65188 130.361 3.97188 130.361C2.20788 130.361 1.01988 131.465 1.06788 133.157H2.27988C2.21988 132.077 2.90388 131.429 3.89988 131.429C4.84788 131.429 5.47188 132.017 5.47188 132.929C5.47188 135.137 1.04388 135.533 1.04388 138.905V139.121ZM11.0062 139.217C12.8662 139.217 14.1262 137.669 14.1262 134.789C14.1262 131.981 12.9262 130.373 11.0182 130.373C9.12222 130.373 7.85022 131.909 7.85022 134.777C7.85022 137.597 9.07422 139.217 11.0062 139.217ZM10.9942 138.161C9.81822 138.161 9.09822 137.165 9.09822 134.789C9.09822 132.401 9.81822 131.417 10.9942 131.417C12.1702 131.417 12.8902 132.413 12.8902 134.789C12.8902 137.165 12.1702 138.161 10.9942 138.161ZM18.1312 139.217C19.9912 139.217 21.2512 137.669 21.2512 134.789C21.2512 131.981 20.0512 130.373 18.1432 130.373C16.2472 130.373 14.9752 131.909 14.9752 134.777C14.9752 137.597 16.1992 139.217 18.1312 139.217ZM18.1192 138.161C16.9432 138.161 16.2232 137.165 16.2232 134.789C16.2232 132.401 16.9432 131.417 18.1192 131.417C19.2952 131.417 20.0152 132.413 20.0152 134.789C20.0152 137.165 19.2952 138.161 18.1192 138.161ZM22.7362 139.121H24.0442V136.517L25.5202 134.957L28.2922 139.121H29.8402L26.4082 134.009L29.7802 130.373H28.1962L24.0442 134.957V130.373H22.7362V139.121Z" fill="#AEB9E1"/>
<line opacity="0.5" x1="45.855" y1="140.386" x2="538.401" y2="140.386" stroke="#0B1739" stroke-width="0.8"/>
<path d="M0.891532 87.2969H6.69953V86.2049H2.43953C2.87153 84.3329 6.60353 83.6849 6.60353 81.0449C6.60353 79.5329 5.49953 78.5369 3.81953 78.5369C2.05553 78.5369 0.867532 79.6409 0.915532 81.3329H2.12753C2.06753 80.2529 2.75153 79.6049 3.74753 79.6049C4.69553 79.6049 5.31953 80.1929 5.31953 81.1049C5.31953 83.3129 0.891532 83.7089 0.891532 87.0809V87.2969ZM10.8659 87.4049C12.7499 87.4049 13.9499 86.2049 13.9499 84.4169C13.9499 82.7129 12.8579 81.5249 11.1419 81.5249C10.3619 81.5249 9.66588 81.8369 9.31788 82.3169L9.24588 82.2929L9.36588 79.7249H13.4939V78.6449H8.27388L8.06988 83.5529H9.24588C9.48588 82.9769 10.0619 82.5689 10.8899 82.5689C11.9699 82.5689 12.6779 83.2889 12.6779 84.4649C12.6779 85.5569 12.0179 86.3129 10.8779 86.3129C9.82188 86.3129 9.13788 85.6529 9.13788 84.6569H7.90188C7.91388 86.3009 9.06588 87.4049 10.8659 87.4049ZM18.1312 87.3929C19.9912 87.3929 21.2512 85.8449 21.2512 82.9649C21.2512 80.1569 20.0512 78.5489 18.1432 78.5489C16.2472 78.5489 14.9752 80.0849 14.9752 82.9529C14.9752 85.7729 16.1992 87.3929 18.1312 87.3929ZM18.1192 86.3369C16.9432 86.3369 16.2232 85.3409 16.2232 82.9649C16.2232 80.5769 16.9432 79.5929 18.1192 79.5929C19.2952 79.5929 20.0152 80.5889 20.0152 82.9649C20.0152 85.3409 19.2952 86.3369 18.1192 86.3369ZM22.7362 87.2969H24.0442V84.6929L25.5202 83.1329L28.2922 87.2969H29.8402L26.4082 82.1849L29.7802 78.5489H28.1962L24.0442 83.1329V78.5489H22.7362V87.2969Z" fill="#AEB9E1"/>
<line opacity="0.5" x1="45.855" y1="88.5624" x2="538.401" y2="88.5624" stroke="#0B1739" stroke-width="0.8"/>
<path d="M3.37731 2.91193V1.81818H11.0137V2.91193H7.81197V12H6.57901V2.91193H3.37731ZM14.7523 12.1591C14.0629 12.1591 13.458 11.995 12.9377 11.6669C12.4206 11.3388 12.0163 10.8797 11.7246 10.2898C11.4363 9.69981 11.2921 9.01042 11.2921 8.22159C11.2921 7.42614 11.4363 6.73177 11.7246 6.13849C12.0163 5.54522 12.4206 5.08452 12.9377 4.75639C13.458 4.42827 14.0629 4.2642 14.7523 4.2642C15.4417 4.2642 16.0449 4.42827 16.562 4.75639C17.0823 5.08452 17.4867 5.54522 17.775 6.13849C18.0667 6.73177 18.2125 7.42614 18.2125 8.22159C18.2125 9.01042 18.0667 9.69981 17.775 10.2898C17.4867 10.8797 17.0823 11.3388 16.562 11.6669C16.0449 11.995 15.4417 12.1591 14.7523 12.1591ZM14.7523 11.1051C15.276 11.1051 15.7069 10.9709 16.0449 10.7024C16.383 10.4339 16.6332 10.081 16.7956 9.64347C16.958 9.20597 17.0392 8.73201 17.0392 8.22159C17.0392 7.71117 16.958 7.23556 16.7956 6.79474C16.6332 6.35393 16.383 5.99763 16.0449 5.72585C15.7069 5.45407 15.276 5.31818 14.7523 5.31818C14.2286 5.31818 13.7978 5.45407 13.4597 5.72585C13.1216 5.99763 12.8714 6.35393 12.709 6.79474C12.5466 7.23556 12.4654 7.71117 12.4654 8.22159C12.4654 8.73201 12.5466 9.20597 12.709 9.64347C12.8714 10.081 13.1216 10.4339 13.4597 10.7024C13.7978 10.9709 14.2286 11.1051 14.7523 11.1051ZM23.3246 4.36364V5.35795H19.3672V4.36364H23.3246ZM20.5206 2.53409H21.6939V9.8125C21.6939 10.1439 21.742 10.3925 21.8381 10.5582C21.9375 10.7206 22.0634 10.83 22.2159 10.8864C22.3717 10.9394 22.5357 10.9659 22.7081 10.9659C22.8374 10.9659 22.9434 10.9593 23.0263 10.946C23.1091 10.9295 23.1754 10.9162 23.2251 10.9062L23.4638 11.9602C23.3842 11.9901 23.2732 12.0199 23.1307 12.0497C22.9882 12.0829 22.8075 12.0994 22.5888 12.0994C22.2573 12.0994 21.9325 12.0282 21.6143 11.8857C21.2995 11.7431 21.0376 11.526 20.8288 11.2344C20.6233 10.9427 20.5206 10.5748 20.5206 10.1307V2.53409ZM27.3366 12.179C26.8527 12.179 26.4136 12.0878 26.0192 11.9055C25.6248 11.7199 25.3116 11.4531 25.0795 11.1051C24.8475 10.7538 24.7315 10.3295 24.7315 9.83239C24.7315 9.39489 24.8177 9.04025 24.9901 8.76847C25.1624 8.49337 25.3928 8.27794 25.6811 8.12216C25.9695 7.96638 26.2876 7.85038 26.6357 7.77415C26.987 7.6946 27.34 7.63163 27.6946 7.58523C28.1586 7.52557 28.5348 7.48082 28.8232 7.45099C29.1148 7.41785 29.3269 7.36316 29.4595 7.28693C29.5954 7.2107 29.6634 7.07812 29.6634 6.8892V6.84943C29.6634 6.3589 29.5291 5.97775 29.2607 5.70597C28.9955 5.43419 28.5928 5.2983 28.0526 5.2983C27.4924 5.2983 27.0533 5.42093 26.7351 5.66619C26.4169 5.91146 26.1932 6.1733 26.0639 6.4517L24.9503 6.05398C25.1491 5.58996 25.4143 5.22869 25.7457 4.97017C26.0805 4.70833 26.4451 4.52604 26.8395 4.4233C27.2372 4.31723 27.6283 4.2642 28.0128 4.2642C28.258 4.2642 28.5398 4.29403 28.858 4.35369C29.1795 4.41004 29.4893 4.5277 29.7876 4.70668C30.0893 4.88565 30.3395 5.15578 30.5384 5.51705C30.7372 5.87831 30.8366 6.36222 30.8366 6.96875V12H29.6634V10.9659H29.6037C29.5241 11.1316 29.3916 11.3089 29.206 11.4979C29.0204 11.6868 28.7734 11.8475 28.4652 11.9801C28.157 12.1127 27.7808 12.179 27.3366 12.179ZM27.5156 11.125C27.9796 11.125 28.3707 11.0339 28.6889 10.8516C29.0104 10.6693 29.2524 10.4339 29.4148 10.1456C29.5805 9.85724 29.6634 9.55398 29.6634 9.2358V8.16193C29.6136 8.22159 29.5043 8.27628 29.3352 8.32599C29.1695 8.3724 28.9773 8.41383 28.7585 8.45028C28.5431 8.48343 28.3326 8.51326 28.1271 8.53977C27.925 8.56297 27.7609 8.58286 27.6349 8.59943C27.33 8.6392 27.045 8.70384 26.7798 8.79332C26.518 8.8795 26.3059 9.01042 26.1435 9.18608C25.9844 9.35843 25.9048 9.59375 25.9048 9.89205C25.9048 10.2997 26.0556 10.608 26.3572 10.8168C26.6622 11.0223 27.0483 11.125 27.5156 11.125ZM34.1515 1.81818V12H32.9782V1.81818H34.1515ZM40.2379 12V4.36364H41.3714V5.51705H41.451C41.5902 5.1392 41.8421 4.83262 42.2067 4.5973C42.5713 4.36198 42.9822 4.24432 43.4396 4.24432C43.5258 4.24432 43.6335 4.24597 43.7628 4.24929C43.892 4.2526 43.9898 4.25758 44.0561 4.2642V5.45739C44.0163 5.44744 43.9252 5.43253 43.7827 5.41264C43.6435 5.38944 43.496 5.37784 43.3402 5.37784C42.969 5.37784 42.6375 5.45573 42.3459 5.61151C42.0575 5.76397 41.8288 5.97609 41.6598 6.24787C41.4941 6.51634 41.4112 6.82292 41.4112 7.16761V12H40.2379ZM48.4162 12.1591C47.6804 12.1591 47.0457 11.9967 46.5121 11.6719C45.9818 11.3438 45.5724 10.8864 45.2841 10.2997C44.9991 9.70975 44.8565 9.02367 44.8565 8.24148C44.8565 7.45928 44.9991 6.76989 45.2841 6.1733C45.5724 5.57339 45.9735 5.10606 46.4872 4.77131C47.0043 4.43324 47.6075 4.2642 48.2969 4.2642C48.6946 4.2642 49.0874 4.33049 49.4751 4.46307C49.8629 4.59564 50.2159 4.81108 50.5341 5.10938C50.8523 5.40436 51.1058 5.79545 51.2947 6.28267C51.4837 6.76989 51.5781 7.36979 51.5781 8.08239V8.57955H45.6918V7.56534H50.3849C50.3849 7.13447 50.2988 6.75 50.1264 6.41193C49.9574 6.07386 49.7154 5.80705 49.4006 5.61151C49.089 5.41596 48.7211 5.31818 48.2969 5.31818C47.8295 5.31818 47.4252 5.43419 47.0838 5.66619C46.7457 5.89489 46.4856 6.19318 46.3033 6.56108C46.121 6.92898 46.0298 7.32339 46.0298 7.74432V8.42045C46.0298 8.99716 46.1293 9.48603 46.3281 9.88707C46.5303 10.2848 46.8104 10.5881 47.1683 10.7969C47.5263 11.0024 47.9422 11.1051 48.4162 11.1051C48.7244 11.1051 49.0028 11.062 49.2514 10.9759C49.5033 10.8864 49.7204 10.7538 49.9027 10.5781C50.085 10.3991 50.2259 10.1771 50.3253 9.91193L51.4588 10.2301C51.3395 10.6146 51.139 10.9527 50.8572 11.2443C50.5755 11.5327 50.2275 11.758 49.8132 11.9205C49.3989 12.0795 48.9332 12.1591 48.4162 12.1591ZM58.5732 14.8636V10.8267H58.4737C58.3875 10.9659 58.2649 11.1416 58.1058 11.3537C57.9467 11.5625 57.7197 11.7498 57.4247 11.9155C57.1297 12.0779 56.737 12.1591 56.2464 12.1591C55.6101 12.1591 55.0483 11.9983 54.5611 11.6768C54.0739 11.352 53.6927 10.8946 53.4176 10.3047C53.1425 9.71141 53.005 9.01042 53.005 8.2017C53.005 7.39962 53.1425 6.7036 53.4176 6.11364C53.6927 5.52367 54.0755 5.06794 54.5661 4.74645C55.0566 4.42495 55.6233 4.2642 56.2663 4.2642C56.7635 4.2642 57.1563 4.34706 57.4446 4.51278C57.7363 4.67519 57.9583 4.8608 58.1108 5.0696C58.2666 5.27509 58.3875 5.44413 58.4737 5.5767H58.6129V4.36364H59.7464V14.8636H58.5732ZM56.4055 11.1051C56.8762 11.1051 57.2739 10.9825 57.5987 10.7372C57.9235 10.4886 58.1705 10.1456 58.3395 9.7081C58.5085 9.26728 58.593 8.75852 58.593 8.18182C58.593 7.61174 58.5102 7.11293 58.3445 6.68537C58.1787 6.2545 57.9335 5.91974 57.6087 5.68111C57.2839 5.43916 56.8828 5.31818 56.4055 5.31818C55.9084 5.31818 55.4941 5.44579 55.1626 5.70099C54.8345 5.95289 54.5876 6.29593 54.4219 6.73011C54.2595 7.16098 54.1783 7.64489 54.1783 8.18182C54.1783 8.72538 54.2611 9.21922 54.4268 9.66335C54.5959 10.1042 54.8445 10.4555 55.1726 10.7173C55.504 10.9759 55.915 11.1051 56.4055 11.1051ZM66.7067 8.87784V4.36364H67.88V12H66.7067V10.7074H66.6271C66.4482 11.0952 66.1697 11.425 65.7919 11.6967C65.4141 11.9652 64.9368 12.0994 64.3601 12.0994C63.8828 12.0994 63.4586 11.995 63.0874 11.7862C62.7161 11.5741 62.4245 11.2559 62.2124 10.8317C62.0002 10.4041 61.8942 9.86553 61.8942 9.21591V4.36364H63.0675V9.13636C63.0675 9.69318 63.2232 10.1373 63.5348 10.4688C63.8497 10.8002 64.2507 10.9659 64.7379 10.9659C65.0296 10.9659 65.3262 10.8913 65.6278 10.7422C65.9328 10.593 66.188 10.3643 66.3935 10.0561C66.6023 9.74787 66.7067 9.35511 66.7067 8.87784ZM73.2306 12.1591C72.4949 12.1591 71.8601 11.9967 71.3265 11.6719C70.7962 11.3438 70.3869 10.8864 70.0985 10.2997C69.8135 9.70975 69.671 9.02367 69.671 8.24148C69.671 7.45928 69.8135 6.76989 70.0985 6.1733C70.3869 5.57339 70.7879 5.10606 71.3017 4.77131C71.8187 4.43324 72.4219 4.2642 73.1113 4.2642C73.5091 4.2642 73.9018 4.33049 74.2896 4.46307C74.6774 4.59564 75.0304 4.81108 75.3485 5.10938C75.6667 5.40436 75.9203 5.79545 76.1092 6.28267C76.2981 6.76989 76.3926 7.36979 76.3926 8.08239V8.57955H70.5062V7.56534H75.1994C75.1994 7.13447 75.1132 6.75 74.9409 6.41193C74.7718 6.07386 74.5299 5.80705 74.215 5.61151C73.9035 5.41596 73.5356 5.31818 73.1113 5.31818C72.644 5.31818 72.2396 5.43419 71.8983 5.66619C71.5602 5.89489 71.3 6.19318 71.1177 6.56108C70.9354 6.92898 70.8443 7.32339 70.8443 7.74432V8.42045C70.8443 8.99716 70.9437 9.48603 71.1426 9.88707C71.3448 10.2848 71.6248 10.5881 71.9828 10.7969C72.3407 11.0024 72.7567 11.1051 73.2306 11.1051C73.5389 11.1051 73.8173 11.062 74.0659 10.9759C74.3178 10.8864 74.5349 10.7538 74.7172 10.5781C74.8994 10.3991 75.0403 10.1771 75.1397 9.91193L76.2733 10.2301C76.1539 10.6146 75.9534 10.9527 75.6717 11.2443C75.39 11.5327 75.042 11.758 74.6277 11.9205C74.2134 12.0795 73.7477 12.1591 73.2306 12.1591ZM83.5865 6.07386L82.5325 6.37216C82.4662 6.1965 82.3684 6.0258 82.2392 5.86009C82.1132 5.69105 81.9409 5.55185 81.7221 5.44247C81.5034 5.3331 81.2233 5.27841 80.8819 5.27841C80.4146 5.27841 80.0252 5.38613 79.7136 5.60156C79.4054 5.81368 79.2512 6.08381 79.2512 6.41193C79.2512 6.7036 79.3573 6.93395 79.5694 7.10298C79.7815 7.27202 80.113 7.41288 80.5637 7.52557L81.6973 7.80398C82.38 7.9697 82.8888 8.22325 83.2235 8.56463C83.5583 8.9027 83.7257 9.33854 83.7257 9.87216C83.7257 10.3097 83.5997 10.7008 83.3478 11.0455C83.0993 11.3902 82.7512 11.6619 82.3038 11.8608C81.8564 12.0597 81.336 12.1591 80.7427 12.1591C79.9638 12.1591 79.3192 11.9901 78.8088 11.652C78.2984 11.3139 77.9752 10.8201 77.8393 10.1705L78.9529 9.89205C79.059 10.303 79.2595 10.6113 79.5545 10.8168C79.8528 11.0223 80.2422 11.125 80.7228 11.125C81.2697 11.125 81.7039 11.009 82.0254 10.777C82.3502 10.5417 82.5126 10.2599 82.5126 9.93182C82.5126 9.66667 82.4198 9.4446 82.2342 9.26562C82.0486 9.08333 81.7636 8.94744 81.3791 8.85795L80.1064 8.55966C79.407 8.39394 78.8933 8.13707 78.5652 7.78906C78.2404 7.43774 78.0779 6.99858 78.0779 6.47159C78.0779 6.04072 78.1989 5.65956 78.4409 5.32812C78.6861 4.99669 79.0192 4.73651 79.4402 4.54758C79.8644 4.35866 80.345 4.2642 80.8819 4.2642C81.6376 4.2642 82.2309 4.42992 82.6618 4.76136C83.0959 5.0928 83.4042 5.5303 83.5865 6.07386ZM88.8129 4.36364V5.35795H84.8555V4.36364H88.8129ZM86.0089 2.53409H87.1822V9.8125C87.1822 10.1439 87.2302 10.3925 87.3263 10.5582C87.4258 10.7206 87.5517 10.83 87.7042 10.8864C87.86 10.9394 88.024 10.9659 88.1964 10.9659C88.3256 10.9659 88.4317 10.9593 88.5146 10.946C88.5974 10.9295 88.6637 10.9162 88.7134 10.9062L88.9521 11.9602C88.8725 11.9901 88.7615 12.0199 88.619 12.0497C88.4764 12.0829 88.2958 12.0994 88.0771 12.0994C87.7456 12.0994 87.4208 12.0282 87.1026 11.8857C86.7878 11.7431 86.5259 11.526 86.3171 11.2344C86.1116 10.9427 86.0089 10.5748 86.0089 10.1307V2.53409ZM95.8501 6.07386L94.7962 6.37216C94.7299 6.1965 94.6321 6.0258 94.5028 5.86009C94.3769 5.69105 94.2045 5.55185 93.9858 5.44247C93.767 5.3331 93.487 5.27841 93.1456 5.27841C92.6783 5.27841 92.2888 5.38613 91.9773 5.60156C91.669 5.81368 91.5149 6.08381 91.5149 6.41193C91.5149 6.7036 91.621 6.93395 91.8331 7.10298C92.0452 7.27202 92.3767 7.41288 92.8274 7.52557L93.9609 7.80398C94.6437 7.9697 95.1525 8.22325 95.4872 8.56463C95.822 8.9027 95.9893 9.33854 95.9893 9.87216C95.9893 10.3097 95.8634 10.7008 95.6115 11.0455C95.3629 11.3902 95.0149 11.6619 94.5675 11.8608C94.12 12.0597 93.5997 12.1591 93.0064 12.1591C92.2275 12.1591 91.5829 11.9901 91.0724 11.652C90.562 11.3139 90.2389 10.8201 90.103 10.1705L91.2166 9.89205C91.3227 10.303 91.5232 10.6113 91.8182 10.8168C92.1165 11.0223 92.5059 11.125 92.9865 11.125C93.5334 11.125 93.9676 11.009 94.2891 10.777C94.6139 10.5417 94.7763 10.2599 94.7763 9.93182C94.7763 9.66667 94.6835 9.4446 94.4979 9.26562C94.3123 9.08333 94.0272 8.94744 93.6428 8.85795L92.37 8.55966C91.6707 8.39394 91.157 8.13707 90.8288 7.78906C90.504 7.43774 90.3416 6.99858 90.3416 6.47159C90.3416 6.04072 90.4626 5.65956 90.7045 5.32812C90.9498 4.99669 91.2829 4.73651 91.7038 4.54758C92.1281 4.35866 92.6087 4.2642 93.1456 4.2642C93.9013 4.2642 94.4946 4.42992 94.9254 4.76136C95.3596 5.0928 95.6679 5.5303 95.8501 6.07386ZM102.449 14.8636C102.25 14.8636 102.073 14.8471 101.917 14.8139C101.761 14.7841 101.653 14.7543 101.594 14.7244L101.892 13.6903C102.177 13.7633 102.429 13.7898 102.648 13.7699C102.866 13.75 103.06 13.6522 103.229 13.4766C103.402 13.3042 103.559 13.0241 103.702 12.6364L103.92 12.0398L101.096 4.36364H102.369L104.477 10.4489H104.557L106.665 4.36364H107.937L104.696 13.1136C104.55 13.508 104.369 13.8345 104.154 14.093C103.939 14.3549 103.688 14.5488 103.403 14.6747C103.122 14.8007 102.803 14.8636 102.449 14.8636ZM112.414 12.1591C111.678 12.1591 111.044 11.9967 110.51 11.6719C109.98 11.3438 109.57 10.8864 109.282 10.2997C108.997 9.70975 108.855 9.02367 108.855 8.24148C108.855 7.45928 108.997 6.76989 109.282 6.1733C109.57 5.57339 109.972 5.10606 110.485 4.77131C111.002 4.43324 111.606 4.2642 112.295 4.2642C112.693 4.2642 113.085 4.33049 113.473 4.46307C113.861 4.59564 114.214 4.81108 114.532 5.10938C114.85 5.40436 115.104 5.79545 115.293 6.28267C115.482 6.76989 115.576 7.36979 115.576 8.08239V8.57955H109.69V7.56534H114.383C114.383 7.13447 114.297 6.75 114.124 6.41193C113.955 6.07386 113.713 5.80705 113.399 5.61151C113.087 5.41596 112.719 5.31818 112.295 5.31818C111.828 5.31818 111.423 5.43419 111.082 5.66619C110.744 5.89489 110.484 6.19318 110.301 6.56108C110.119 6.92898 110.028 7.32339 110.028 7.74432V8.42045C110.028 8.99716 110.127 9.48603 110.326 9.88707C110.528 10.2848 110.808 10.5881 111.166 10.7969C111.524 11.0024 111.94 11.1051 112.414 11.1051C112.722 11.1051 113.001 11.062 113.249 10.9759C113.501 10.8864 113.718 10.7538 113.901 10.5781C114.083 10.3991 114.224 10.1771 114.323 9.91193L115.457 10.2301C115.338 10.6146 115.137 10.9527 114.855 11.2443C114.574 11.5327 114.226 11.758 113.811 11.9205C113.397 12.0795 112.931 12.1591 112.414 12.1591ZM119.608 12.179C119.124 12.179 118.685 12.0878 118.291 11.9055C117.896 11.7199 117.583 11.4531 117.351 11.1051C117.119 10.7538 117.003 10.3295 117.003 9.83239C117.003 9.39489 117.089 9.04025 117.262 8.76847C117.434 8.49337 117.664 8.27794 117.953 8.12216C118.241 7.96638 118.559 7.85038 118.907 7.77415C119.258 7.6946 119.611 7.63163 119.966 7.58523C120.43 7.52557 120.806 7.48082 121.095 7.45099C121.386 7.41785 121.598 7.36316 121.731 7.28693C121.867 7.2107 121.935 7.07812 121.935 6.8892V6.84943C121.935 6.3589 121.801 5.97775 121.532 5.70597C121.267 5.43419 120.864 5.2983 120.324 5.2983C119.764 5.2983 119.325 5.42093 119.007 5.66619C118.688 5.91146 118.465 6.1733 118.335 6.4517L117.222 6.05398C117.421 5.58996 117.686 5.22869 118.017 4.97017C118.352 4.70833 118.717 4.52604 119.111 4.4233C119.509 4.31723 119.9 4.2642 120.284 4.2642C120.53 4.2642 120.811 4.29403 121.129 4.35369C121.451 4.41004 121.761 4.5277 122.059 4.70668C122.361 4.88565 122.611 5.15578 122.81 5.51705C123.009 5.87831 123.108 6.36222 123.108 6.96875V12H121.935V10.9659H121.875C121.796 11.1316 121.663 11.3089 121.477 11.4979C121.292 11.6868 121.045 11.8475 120.737 11.9801C120.428 12.1127 120.052 12.179 119.608 12.179ZM119.787 11.125C120.251 11.125 120.642 11.0339 120.96 10.8516C121.282 10.6693 121.524 10.4339 121.686 10.1456C121.852 9.85724 121.935 9.55398 121.935 9.2358V8.16193C121.885 8.22159 121.776 8.27628 121.607 8.32599C121.441 8.3724 121.249 8.41383 121.03 8.45028C120.815 8.48343 120.604 8.51326 120.399 8.53977C120.196 8.56297 120.032 8.58286 119.906 8.59943C119.602 8.6392 119.316 8.70384 119.051 8.79332C118.789 8.8795 118.577 9.01042 118.415 9.18608C118.256 9.35843 118.176 9.59375 118.176 9.89205C118.176 10.2997 118.327 10.608 118.629 10.8168C118.934 11.0223 119.32 11.125 119.787 11.125ZM125.25 12V4.36364H126.383V5.51705H126.463C126.602 5.1392 126.854 4.83262 127.218 4.5973C127.583 4.36198 127.994 4.24432 128.451 4.24432C128.538 4.24432 128.645 4.24597 128.775 4.24929C128.904 4.2526 129.002 4.25758 129.068 4.2642V5.45739C129.028 5.44744 128.937 5.43253 128.794 5.41264C128.655 5.38944 128.508 5.37784 128.352 5.37784C127.981 5.37784 127.649 5.45573 127.358 5.61151C127.069 5.76397 126.841 5.97609 126.672 6.24787C126.506 6.51634 126.423 6.82292 126.423 7.16761V12H125.25ZM131.632 1.81818V12H130.459V1.81818H131.632ZM134.537 14.8636C134.338 14.8636 134.16 14.8471 134.005 14.8139C133.849 14.7841 133.741 14.7543 133.681 14.7244L133.98 13.6903C134.265 13.7633 134.517 13.7898 134.735 13.7699C134.954 13.75 135.148 13.6522 135.317 13.4766C135.489 13.3042 135.647 13.0241 135.789 12.6364L136.008 12.0398L133.184 4.36364H134.457L136.565 10.4489H136.645L138.752 4.36364H140.025L136.784 13.1136C136.638 13.508 136.457 13.8345 136.242 14.093C136.026 14.3549 135.776 14.5488 135.491 14.6747C135.209 14.8007 134.891 14.8636 134.537 14.8636Z" fill="#AEB9E1"/>
<path d="M3.80682 45.4795V43.9454L9.56818 37.6386C10.2443 36.8999 10.8011 36.2579 11.2386 35.7124C11.6761 35.1613 12 34.6443 12.2102 34.1613C12.4261 33.6727 12.5341 33.1613 12.5341 32.6272C12.5341 32.0136 12.3864 31.4823 12.0909 31.0335C11.8011 30.5846 11.4034 30.238 10.8977 29.9937C10.392 29.7494 9.82386 29.6272 9.19318 29.6272C8.52273 29.6272 7.9375 29.7664 7.4375 30.0448C6.94318 30.3176 6.55966 30.7011 6.28693 31.1954C6.01989 31.6897 5.88636 32.2693 5.88636 32.934H3.875C3.875 31.9113 4.1108 31.0136 4.58239 30.2409C5.05398 29.4681 5.69602 28.8659 6.50852 28.434C7.3267 28.0022 8.24432 27.7863 9.26136 27.7863C10.2841 27.7863 11.1903 28.0022 11.9801 28.434C12.7699 28.8659 13.3892 29.4482 13.8381 30.1812C14.2869 30.9142 14.5114 31.7295 14.5114 32.6272C14.5114 33.2693 14.3949 33.8971 14.1619 34.5107C13.9347 35.1187 13.5369 35.7977 12.9688 36.5477C12.4062 37.292 11.625 38.2011 10.625 39.2749L6.70455 43.4681V43.6045H14.8182V45.4795H3.80682ZM17.554 41.8999V40.1613L25.2244 28.0249H26.4858V30.7181H25.6335L19.8381 39.8886V40.0249H30.1676V41.8999H17.554ZM25.7699 45.4795V41.3715V40.5619V28.0249H27.7812V45.4795H25.7699ZM39.0547 45.7181C37.7706 45.7181 36.6768 45.3687 35.7734 44.6698C34.87 43.9653 34.1797 42.9454 33.7024 41.6102C33.2251 40.2693 32.9865 38.6499 32.9865 36.7522C32.9865 34.8659 33.2251 33.2551 33.7024 31.9198C34.1854 30.5789 34.8786 29.5562 35.782 28.8517C36.6911 28.1414 37.782 27.7863 39.0547 27.7863C40.3274 27.7863 41.4155 28.1414 42.3189 28.8517C43.228 29.5562 43.9212 30.5789 44.3984 31.9198C44.8814 33.2551 45.1229 34.8659 45.1229 36.7522C45.1229 38.6499 44.8842 40.2693 44.407 41.6102C43.9297 42.9454 43.2393 43.9653 42.3359 44.6698C41.4325 45.3687 40.3388 45.7181 39.0547 45.7181ZM39.0547 43.8431C40.3274 43.8431 41.3161 43.2295 42.0206 42.0022C42.7251 40.7749 43.0774 39.0249 43.0774 36.7522C43.0774 35.2409 42.9155 33.9539 42.5916 32.8914C42.2734 31.8289 41.8132 31.0193 41.2109 30.4624C40.6143 29.9056 39.8956 29.6272 39.0547 29.6272C37.7933 29.6272 36.8075 30.2494 36.0973 31.4937C35.3871 32.7323 35.032 34.4852 35.032 36.7522C35.032 38.2636 35.1911 39.5477 35.5092 40.6045C35.8274 41.6613 36.2848 42.4653 36.8814 43.0164C37.4837 43.5676 38.2081 43.8431 39.0547 43.8431ZM49.2521 45.6159C48.8317 45.6159 48.4709 45.4653 48.1697 45.1642C47.8686 44.863 47.718 44.5022 47.718 44.0818C47.718 43.6613 47.8686 43.3005 48.1697 42.9994C48.4709 42.6982 48.8317 42.5477 49.2521 42.5477C49.6726 42.5477 50.0334 42.6982 50.3345 42.9994C50.6357 43.3005 50.7862 43.6613 50.7862 44.0818C50.7862 44.3602 50.7152 44.6159 50.5732 44.8488C50.4368 45.0818 50.2521 45.2693 50.0192 45.4113C49.7919 45.5477 49.5362 45.6159 49.2521 45.6159ZM59.4134 45.7181C58.2429 45.7181 57.2088 45.5107 56.3111 45.096C55.419 44.6755 54.723 44.0988 54.223 43.3659C53.723 42.6272 53.4759 41.7863 53.4815 40.8431C53.4759 40.1045 53.6207 39.4227 53.9162 38.7977C54.2116 38.167 54.6151 37.6414 55.1264 37.221C55.6435 36.7948 56.2202 36.5249 56.8565 36.4113V36.309C56.0213 36.0931 55.3565 35.6244 54.8622 34.9028C54.3679 34.1755 54.1236 33.3488 54.1293 32.4227C54.1236 31.5363 54.348 30.7437 54.8026 30.0448C55.2571 29.346 55.8821 28.7948 56.6776 28.3914C57.4787 27.988 58.3906 27.7863 59.4134 27.7863C60.4247 27.7863 61.3281 27.988 62.1236 28.3914C62.919 28.7948 63.544 29.346 63.9986 30.0448C64.4588 30.7437 64.6918 31.5363 64.6974 32.4227C64.6918 33.3488 64.4389 34.1755 63.9389 34.9028C63.4446 35.6244 62.7884 36.0931 61.9702 36.309V36.4113C62.6009 36.5249 63.169 36.7948 63.6747 37.221C64.1804 37.6414 64.5838 38.167 64.8849 38.7977C65.1861 39.4227 65.3395 40.1045 65.3452 40.8431C65.3395 41.7863 65.0838 42.6272 64.5781 43.3659C64.0781 44.0988 63.3821 44.6755 62.4901 45.096C61.6037 45.5107 60.5781 45.7181 59.4134 45.7181ZM59.4134 43.8431C60.2031 43.8431 60.8849 43.7153 61.4588 43.4596C62.0327 43.2039 62.4759 42.8431 62.7884 42.3772C63.1009 41.9113 63.2599 41.3659 63.2656 40.7409C63.2599 40.0818 63.0895 39.4994 62.7543 38.9937C62.419 38.488 61.9616 38.0903 61.3821 37.8005C60.8082 37.5107 60.152 37.3659 59.4134 37.3659C58.669 37.3659 58.0043 37.5107 57.419 37.8005C56.8395 38.0903 56.3821 38.488 56.0469 38.9937C55.7173 39.4994 55.5554 40.0818 55.5611 40.7409C55.5554 41.3659 55.706 41.9113 56.0128 42.3772C56.3253 42.8431 56.7713 43.2039 57.3509 43.4596C57.9304 43.7153 58.6179 43.8431 59.4134 43.8431ZM59.4134 35.559C60.0384 35.559 60.5923 35.434 61.0753 35.184C61.5639 34.934 61.9474 34.5846 62.2259 34.1357C62.5043 33.6869 62.6463 33.1613 62.652 32.559C62.6463 31.9681 62.5071 31.4539 62.2344 31.0164C61.9616 30.5732 61.5838 30.2323 61.1009 29.9937C60.6179 29.7494 60.0554 29.6272 59.4134 29.6272C58.7599 29.6272 58.1889 29.7494 57.7003 29.9937C57.2116 30.2323 56.8338 30.5732 56.5668 31.0164C56.2997 31.4539 56.169 31.9681 56.1747 32.559C56.169 33.1613 56.3026 33.6869 56.5753 34.1357C56.8537 34.5846 57.2372 34.934 57.7259 35.184C58.2145 35.434 58.777 35.559 59.4134 35.559ZM68.9183 45.4795V28.0249H71.032V36.684H71.2365L79.0774 28.0249H81.8388L74.5092 35.8999L81.8388 45.4795H79.282L73.2138 37.3659L71.032 39.8204V45.4795H68.9183Z" fill="white"/>
<rect x="89" y="27.4795" width="47" height="18" rx="2" fill="#05C168" fill-opacity="0.2"/>
<rect x="89.3" y="27.7795" width="46.4" height="17.4" rx="1.7" stroke="#05C168" stroke-opacity="0.2" stroke-width="0.6"/>
<path d="M93.43 39.4795H98.27V38.5695H94.72C95.08 37.0095 98.19 36.4695 98.19 34.2695C98.19 33.0095 97.27 32.1795 95.87 32.1795C94.4 32.1795 93.41 33.0995 93.45 34.5095H94.46C94.41 33.6095 94.98 33.0695 95.81 33.0695C96.6 33.0695 97.12 33.5595 97.12 34.3195C97.12 36.1595 93.43 36.4895 93.43 39.2995V39.4795ZM102.234 39.4795H103.264V37.7095H104.244V36.8595H103.264V32.2695H101.924L98.6937 36.9095V37.7095H102.234V39.4795ZM99.7437 36.8595L102.234 33.3095V36.8595H99.7437ZM105.171 39.4795H106.201V38.4295H105.171V39.4795ZM109.82 39.5595C111.31 39.5595 112.33 38.6495 112.33 37.1295C112.33 35.6995 111.43 34.7595 110.1 34.7595C109.21 34.7595 108.54 35.1995 108.31 35.8695H108.26C108.27 34.1995 108.61 33.0795 109.92 33.0795C110.63 33.0795 111.16 33.4395 111.26 34.0695H112.26C112.14 32.9195 111.29 32.1795 109.92 32.1795C108.14 32.1795 107.22 33.4395 107.22 36.1495C107.22 38.3895 108.12 39.5595 109.82 39.5595ZM109.85 38.6595C108.97 38.6595 108.39 38.0895 108.39 37.1395C108.39 36.2295 108.94 35.5495 109.86 35.5495C110.72 35.5495 111.29 36.1395 111.29 37.0895C111.29 38.0495 110.72 38.6595 109.85 38.6595ZM114.366 39.4795H115.136L119.766 32.1895H118.996L114.366 39.4795ZM114.686 36.1595C115.566 36.1595 116.156 35.4595 116.156 34.1895C116.156 32.9695 115.606 32.2295 114.706 32.2295C113.806 32.2295 113.216 32.9295 113.216 34.1795C113.216 35.4095 113.766 36.1595 114.686 36.1595ZM114.696 35.5395C114.246 35.5395 113.946 35.2095 113.946 34.1895C113.946 33.1695 114.256 32.8495 114.696 32.8495C115.126 32.8495 115.426 33.1695 115.426 34.1895C115.426 35.2095 115.126 35.5395 114.696 35.5395ZM119.446 39.5195C120.326 39.5195 120.916 38.8195 120.916 37.5595C120.916 36.3295 120.366 35.5795 119.466 35.5795C118.566 35.5795 117.976 36.2895 117.976 37.5395C117.976 38.7695 118.526 39.5195 119.446 39.5195ZM119.456 38.8995C119.006 38.8995 118.706 38.5695 118.706 37.5495C118.706 36.5295 119.006 36.2095 119.456 36.2095C119.876 36.2095 120.176 36.5295 120.176 37.5495C120.176 38.5795 119.876 38.8995 119.456 38.8995Z" fill="#14CA74"/>
<path d="M125.333 39.146L130.667 33.8127" stroke="#14CA74" stroke-width="0.8" stroke-linecap="round" stroke-linejoin="round"/>
<path d="M130.667 38.8408V33.8125H125.638" stroke="#14CA74" stroke-width="0.8" stroke-linecap="round" stroke-linejoin="round"/>
<rect x="321.217" y="21.0229" width="7" height="7" rx="3.5" fill="#00C2FF"/>
<path d="M337.274 28.5229V19.7957H340.222C340.904 19.7957 341.464 19.9122 341.901 20.1451C342.339 20.3752 342.663 20.692 342.873 21.0954C343.083 21.4988 343.188 21.9576 343.188 22.4718C343.188 22.986 343.083 23.442 342.873 23.8397C342.663 24.2374 342.34 24.5499 341.906 24.7772C341.471 25.0016 340.916 25.1139 340.24 25.1139H337.853V24.1593H340.205C340.671 24.1593 341.046 24.0911 341.33 23.9548C341.617 23.8184 341.825 23.6252 341.953 23.3752C342.083 23.1224 342.149 22.8212 342.149 22.4718C342.149 22.1224 342.083 21.817 341.953 21.5556C341.822 21.2943 341.613 21.0926 341.326 20.9505C341.039 20.8056 340.66 20.7332 340.188 20.7332H338.33V28.5229H337.274ZM341.382 24.6025L343.529 28.5229H342.302L340.188 24.6025H341.382ZM347.487 28.6593C346.856 28.6593 346.312 28.5201 345.855 28.2417C345.4 27.9604 345.05 27.5684 344.802 27.0656C344.558 26.5599 344.436 25.9718 344.436 25.3014C344.436 24.6309 344.558 24.04 344.802 23.5286C345.05 23.0144 345.393 22.6139 345.834 22.3269C346.277 22.0372 346.794 21.8923 347.385 21.8923C347.726 21.8923 348.062 21.9491 348.395 22.0627C348.727 22.1764 349.03 22.361 349.302 22.6167C349.575 22.8695 349.792 23.2048 349.954 23.6224C350.116 24.04 350.197 24.5542 350.197 25.165V25.5911H345.152V24.7218H349.175C349.175 24.3525 349.101 24.0229 348.953 23.7332C348.808 23.4434 348.601 23.2147 348.331 23.0471C348.064 22.8795 347.748 22.7957 347.385 22.7957C346.984 22.7957 346.638 22.8951 346.345 23.094C346.055 23.29 345.832 23.5457 345.676 23.861C345.52 24.1764 345.442 24.5144 345.442 24.8752V25.4548C345.442 25.9491 345.527 26.3681 345.697 26.7119C345.871 27.0528 346.111 27.3127 346.417 27.4917C346.724 27.6678 347.081 27.7559 347.487 27.7559C347.751 27.7559 347.99 27.719 348.203 27.6451C348.419 27.5684 348.605 27.4548 348.761 27.3042C348.917 27.1508 349.038 26.9604 349.123 26.7332L350.095 27.0059C349.993 27.3354 349.821 27.6252 349.579 27.8752C349.338 28.1224 349.04 28.3156 348.684 28.4548C348.329 28.5911 347.93 28.6593 347.487 28.6593ZM356.193 30.9775V27.5173H356.108C356.034 27.6366 355.929 27.7872 355.792 27.969C355.656 28.1479 355.461 28.3085 355.209 28.4505C354.956 28.5897 354.619 28.6593 354.199 28.6593C353.653 28.6593 353.172 28.5215 352.754 28.246C352.336 27.9676 352.01 27.5755 351.774 27.0698C351.538 26.5613 351.42 25.9604 351.42 25.2673C351.42 24.5798 351.538 23.9832 351.774 23.4775C352.01 22.9718 352.338 22.5812 352.758 22.3056C353.179 22.0301 353.665 21.8923 354.216 21.8923C354.642 21.8923 354.979 21.9633 355.226 22.1053C355.476 22.2445 355.666 22.4036 355.797 22.5826C355.93 22.7587 356.034 22.9036 356.108 23.0173H356.227V21.9775H357.199V30.9775H356.193ZM354.335 27.7559C354.738 27.7559 355.079 27.6508 355.358 27.4406C355.636 27.2275 355.848 26.9335 355.993 26.5585C356.138 26.1806 356.21 25.7445 356.21 25.2502C356.21 24.7616 356.139 24.334 355.997 23.9676C355.855 23.5982 355.645 23.3113 355.366 23.1068C355.088 22.8994 354.744 22.7957 354.335 22.7957C353.909 22.7957 353.554 22.9051 353.27 23.1238C352.988 23.3397 352.777 23.6337 352.635 24.0059C352.496 24.3752 352.426 24.79 352.426 25.2502C352.426 25.7161 352.497 26.1394 352.639 26.5201C352.784 26.8979 352.997 27.1991 353.278 27.4235C353.562 27.6451 353.915 27.7559 354.335 27.7559ZM363.165 25.8468V21.9775H364.17V28.5229H363.165V27.415H363.096C362.943 27.7474 362.704 28.0301 362.381 28.263C362.057 28.4931 361.648 28.6082 361.153 28.6082C360.744 28.6082 360.381 28.5187 360.062 28.3397C359.744 28.1579 359.494 27.8852 359.312 27.5215C359.131 27.1551 359.04 26.6934 359.04 26.1366V21.9775H360.045V26.0684C360.045 26.5457 360.179 26.9264 360.446 27.2104C360.716 27.4945 361.059 27.6366 361.477 27.6366C361.727 27.6366 361.981 27.5727 362.24 27.4448C362.501 27.317 362.72 27.121 362.896 26.8568C363.075 26.5926 363.165 26.2559 363.165 25.8468ZM368.757 28.6593C368.126 28.6593 367.582 28.5201 367.124 28.2417C366.67 27.9604 366.319 27.5684 366.072 27.0656C365.828 26.5599 365.705 25.9718 365.705 25.3014C365.705 24.6309 365.828 24.04 366.072 23.5286C366.319 23.0144 366.663 22.6139 367.103 22.3269C367.546 22.0372 368.063 21.8923 368.654 21.8923C368.995 21.8923 369.332 21.9491 369.664 22.0627C369.997 22.1764 370.299 22.361 370.572 22.6167C370.845 22.8695 371.062 23.2048 371.224 23.6224C371.386 24.04 371.467 24.5542 371.467 25.165V25.5911H366.421V24.7218H370.444C370.444 24.3525 370.37 24.0229 370.222 23.7332C370.078 23.4434 369.87 23.2147 369.6 23.0471C369.333 22.8795 369.018 22.7957 368.654 22.7957C368.254 22.7957 367.907 22.8951 367.615 23.094C367.325 23.29 367.102 23.5457 366.945 23.861C366.789 24.1764 366.711 24.5144 366.711 24.8752V25.4548C366.711 25.9491 366.796 26.3681 366.967 26.7119C367.14 27.0528 367.38 27.3127 367.687 27.4917C367.994 27.6678 368.35 27.7559 368.757 27.7559C369.021 27.7559 369.259 27.719 369.472 27.6451C369.688 27.5684 369.874 27.4548 370.031 27.3042C370.187 27.1508 370.308 26.9604 370.393 26.7332L371.365 27.0059C371.262 27.3354 371.09 27.6252 370.849 27.8752C370.607 28.1224 370.309 28.3156 369.954 28.4548C369.599 28.5911 369.2 28.6593 368.757 28.6593ZM377.633 23.4434L376.73 23.6991C376.673 23.5485 376.589 23.4022 376.478 23.2602C376.37 23.1153 376.222 22.996 376.035 22.9022C375.847 22.8085 375.607 22.7616 375.315 22.7616C374.914 22.7616 374.58 22.8539 374.313 23.0386C374.049 23.2204 373.917 23.4519 373.917 23.7332C373.917 23.9832 374.008 24.1806 374.19 24.3255C374.372 24.4704 374.656 24.5911 375.042 24.6877L376.014 24.9264C376.599 25.0684 377.035 25.2857 377.322 25.5783C377.609 25.8681 377.752 26.2417 377.752 26.6991C377.752 27.0741 377.644 27.4093 377.428 27.7048C377.215 28.0002 376.917 28.2332 376.534 28.4036C376.15 28.5741 375.704 28.6593 375.195 28.6593C374.528 28.6593 373.975 28.5144 373.538 28.2247C373.1 27.9349 372.823 27.5116 372.707 26.9548L373.661 26.7161C373.752 27.0684 373.924 27.3326 374.177 27.5087C374.433 27.6849 374.767 27.7729 375.178 27.7729C375.647 27.7729 376.019 27.6735 376.295 27.4747C376.573 27.2729 376.713 27.0315 376.713 26.7502C376.713 26.5229 376.633 26.3326 376.474 26.1792C376.315 26.0229 376.07 25.9065 375.741 25.8298L374.65 25.5741C374.051 25.432 373.61 25.2119 373.329 24.9136C373.051 24.6124 372.911 24.236 372.911 23.7843C372.911 23.415 373.015 23.0883 373.222 22.8042C373.433 22.5201 373.718 22.2971 374.079 22.1352C374.443 21.9732 374.855 21.8923 375.315 21.8923C375.963 21.8923 376.471 22.0343 376.84 22.3184C377.213 22.6025 377.477 22.9775 377.633 23.4434ZM382.113 21.9775V22.8298H378.721V21.9775H382.113ZM379.709 20.4093H380.715V26.6479C380.715 26.932 380.756 27.1451 380.839 27.2872C380.924 27.4264 381.032 27.5201 381.162 27.5684C381.296 27.6139 381.437 27.6366 381.584 27.6366C381.695 27.6366 381.786 27.6309 381.857 27.6195C381.928 27.6053 381.985 27.594 382.028 27.5854L382.232 28.4889C382.164 28.5144 382.069 28.54 381.947 28.5656C381.824 28.594 381.67 28.6082 381.482 28.6082C381.198 28.6082 380.92 28.5471 380.647 28.4249C380.377 28.3028 380.153 28.1167 379.974 27.8667C379.797 27.6167 379.709 27.3014 379.709 26.9207V20.4093ZM388.145 23.4434L387.241 23.6991C387.184 23.5485 387.101 23.4022 386.99 23.2602C386.882 23.1153 386.734 22.996 386.547 22.9022C386.359 22.8085 386.119 22.7616 385.827 22.7616C385.426 22.7616 385.092 22.8539 384.825 23.0386C384.561 23.2204 384.429 23.4519 384.429 23.7332C384.429 23.9832 384.52 24.1806 384.702 24.3255C384.883 24.4704 385.167 24.5911 385.554 24.6877L386.525 24.9264C387.111 25.0684 387.547 25.2857 387.834 25.5783C388.121 25.8681 388.264 26.2417 388.264 26.6991C388.264 27.0741 388.156 27.4093 387.94 27.7048C387.727 28.0002 387.429 28.2332 387.045 28.4036C386.662 28.5741 386.216 28.6593 385.707 28.6593C385.04 28.6593 384.487 28.5144 384.05 28.2247C383.612 27.9349 383.335 27.5116 383.219 26.9548L384.173 26.7161C384.264 27.0684 384.436 27.3326 384.689 27.5087C384.944 27.6849 385.278 27.7729 385.69 27.7729C386.159 27.7729 386.531 27.6735 386.807 27.4747C387.085 27.2729 387.224 27.0315 387.224 26.7502C387.224 26.5229 387.145 26.3326 386.986 26.1792C386.827 26.0229 386.582 25.9065 386.253 25.8298L385.162 25.5741C384.562 25.432 384.122 25.2119 383.841 24.9136C383.562 24.6124 383.423 24.236 383.423 23.7843C383.423 23.415 383.527 23.0883 383.734 22.8042C383.944 22.5201 384.23 22.2971 384.591 22.1352C384.954 21.9732 385.366 21.8923 385.827 21.8923C386.474 21.8923 386.983 22.0343 387.352 22.3184C387.724 22.6025 387.988 22.9775 388.145 23.4434Z" fill="#AEB9E1"/>
<rect x="240.67" y="21.0229" width="7" height="7" rx="3.5" fill="#CB3CFF"/>
<path d="M257.085 28.5229H255.977L259.181 19.7957H260.272L263.477 28.5229H262.369L259.761 21.1764H259.693L257.085 28.5229ZM257.494 25.1139H261.96V26.0514H257.494V25.1139ZM265.705 24.5854V28.5229H264.7V21.9775H265.671V23.0002H265.757C265.91 22.6678 266.143 22.4008 266.455 22.1991C266.768 21.9945 267.171 21.8923 267.666 21.8923C268.109 21.8923 268.497 21.9832 268.829 22.165C269.161 22.344 269.42 22.6167 269.605 22.9832C269.789 23.3468 269.882 23.807 269.882 24.3639V28.5229H268.876V24.432C268.876 23.9178 268.742 23.5173 268.475 23.2303C268.208 22.9406 267.842 22.7957 267.376 22.7957C267.055 22.7957 266.768 22.8653 266.515 23.0045C266.265 23.1437 266.068 23.3468 265.923 23.6139C265.778 23.8809 265.705 24.2048 265.705 24.5854ZM274.378 28.6593C273.787 28.6593 273.269 28.5187 272.823 28.2374C272.38 27.9562 272.033 27.5627 271.783 27.057C271.536 26.5514 271.412 25.9604 271.412 25.2843C271.412 24.6025 271.536 24.0073 271.783 23.4988C272.033 22.9903 272.38 22.5954 272.823 22.3141C273.269 22.0329 273.787 21.8923 274.378 21.8923C274.969 21.8923 275.486 22.0329 275.93 22.3141C276.376 22.5954 276.722 22.9903 276.969 23.4988C277.219 24.0073 277.344 24.6025 277.344 25.2843C277.344 25.9604 277.219 26.5514 276.969 27.057C276.722 27.5627 276.376 27.9562 275.93 28.2374C275.486 28.5187 274.969 28.6593 274.378 28.6593ZM274.378 27.7559C274.827 27.7559 275.197 27.6408 275.486 27.4107C275.776 27.1806 275.991 26.8781 276.13 26.5031C276.269 26.1281 276.339 25.7218 276.339 25.2843C276.339 24.8468 276.269 24.4391 276.13 24.0613C275.991 23.6835 275.776 23.3781 275.486 23.1451C275.197 22.9122 274.827 22.7957 274.378 22.7957C273.93 22.7957 273.56 22.9122 273.27 23.1451C272.981 23.3781 272.766 23.6835 272.627 24.0613C272.488 24.4391 272.418 24.8468 272.418 25.2843C272.418 25.7218 272.488 26.1281 272.627 26.5031C272.766 26.8781 272.981 27.1806 273.27 27.4107C273.56 27.6408 273.93 27.7559 274.378 27.7559ZM278.879 28.5229V21.9775H279.851V23.0002H279.936C280.073 22.6508 280.293 22.3795 280.597 22.1863C280.901 21.9903 281.266 21.8923 281.692 21.8923C282.124 21.8923 282.483 21.9903 282.77 22.1863C283.06 22.3795 283.286 22.6508 283.448 23.0002H283.516C283.683 22.6622 283.935 22.3937 284.27 22.1948C284.605 21.9931 285.007 21.8923 285.476 21.8923C286.061 21.8923 286.54 22.0755 286.912 22.442C287.284 22.8056 287.47 23.3724 287.47 24.1423V28.5229H286.465V24.1423C286.465 23.6593 286.333 23.3141 286.068 23.1068C285.804 22.8994 285.493 22.7957 285.135 22.7957C284.675 22.7957 284.318 22.9349 284.066 23.2133C283.813 23.4889 283.686 23.8383 283.686 24.2616V28.5229H282.664V24.04C282.664 23.6678 282.543 23.3681 282.301 23.1408C282.06 22.9107 281.749 22.7957 281.368 22.7957C281.107 22.7957 280.862 22.8653 280.635 23.0045C280.411 23.1437 280.229 23.3369 280.09 23.584C279.953 23.8283 279.885 24.111 279.885 24.432V28.5229H278.879ZM291.235 28.6764C290.82 28.6764 290.444 28.5982 290.106 28.442C289.768 28.2829 289.499 28.0542 289.301 27.7559C289.102 27.4548 289.002 27.0911 289.002 26.665C289.002 26.29 289.076 25.986 289.224 25.7531C289.372 25.5173 289.569 25.3326 289.816 25.1991C290.063 25.0656 290.336 24.9661 290.634 24.9008C290.936 24.8326 291.238 24.7786 291.542 24.7389C291.94 24.6877 292.262 24.6494 292.509 24.6238C292.759 24.5954 292.941 24.5485 293.055 24.4832C293.171 24.4178 293.23 24.3042 293.23 24.1423V24.1082C293.23 23.6877 293.115 23.361 292.884 23.1281C292.657 22.8951 292.312 22.7786 291.849 22.7786C291.369 22.7786 290.992 22.8837 290.72 23.094C290.447 23.3042 290.255 23.5286 290.144 23.7673L289.19 23.4264C289.36 23.0286 289.588 22.719 289.872 22.4974C290.159 22.2729 290.471 22.1167 290.809 22.0286C291.15 21.9377 291.485 21.8923 291.815 21.8923C292.025 21.8923 292.267 21.9178 292.539 21.969C292.815 22.0173 293.08 22.1181 293.336 22.2715C293.595 22.4249 293.809 22.6565 293.98 22.9661C294.15 23.2758 294.235 23.6906 294.235 24.2104V28.5229H293.23V27.6366H293.178C293.11 27.7786 292.997 27.9306 292.838 28.0926C292.678 28.2545 292.467 28.3923 292.203 28.5059C291.938 28.6195 291.616 28.6764 291.235 28.6764ZM291.389 27.7729C291.786 27.7729 292.122 27.6948 292.394 27.5386C292.67 27.3823 292.877 27.1806 293.017 26.9335C293.159 26.6863 293.23 26.4264 293.23 26.1536V25.2332C293.187 25.2843 293.093 25.3312 292.948 25.3738C292.806 25.4136 292.642 25.4491 292.454 25.4803C292.269 25.5087 292.089 25.5343 291.913 25.557C291.74 25.5769 291.599 25.594 291.491 25.6082C291.23 25.6423 290.985 25.6977 290.758 25.7744C290.534 25.8482 290.352 25.9604 290.213 26.111C290.076 26.2587 290.008 26.4604 290.008 26.7161C290.008 27.0656 290.137 27.3298 290.396 27.5087C290.657 27.6849 290.988 27.7729 291.389 27.7729ZM297.077 19.7957V28.5229H296.071V19.7957H297.077ZM298.919 28.5229V21.9775H299.924V28.5229H298.919ZM299.43 20.8866C299.234 20.8866 299.065 20.8198 298.923 20.6863C298.784 20.5528 298.714 20.3923 298.714 20.2048C298.714 20.0173 298.784 19.8568 298.923 19.7232C299.065 19.5897 299.234 19.5229 299.43 19.5229C299.626 19.5229 299.794 19.5897 299.933 19.7232C300.075 19.8568 300.146 20.0173 300.146 20.2048C300.146 20.3923 300.075 20.5528 299.933 20.6863C299.794 20.8198 299.626 20.8866 299.43 20.8866ZM304.51 28.6593C303.88 28.6593 303.336 28.5201 302.878 28.2417C302.424 27.9604 302.073 27.5684 301.826 27.0656C301.581 26.5599 301.459 25.9718 301.459 25.3014C301.459 24.6309 301.581 24.04 301.826 23.5286C302.073 23.0144 302.417 22.6139 302.857 22.3269C303.3 22.0372 303.817 21.8923 304.408 21.8923C304.749 21.8923 305.086 21.9491 305.418 22.0627C305.751 22.1764 306.053 22.361 306.326 22.6167C306.599 22.8695 306.816 23.2048 306.978 23.6224C307.14 24.04 307.221 24.5542 307.221 25.165V25.5911H302.175V24.7218H306.198C306.198 24.3525 306.124 24.0229 305.976 23.7332C305.831 23.4434 305.624 23.2147 305.354 23.0471C305.087 22.8795 304.772 22.7957 304.408 22.7957C304.008 22.7957 303.661 22.8951 303.368 23.094C303.079 23.29 302.856 23.5457 302.699 23.861C302.543 24.1764 302.465 24.5144 302.465 24.8752V25.4548C302.465 25.9491 302.55 26.3681 302.721 26.7119C302.894 27.0528 303.134 27.3127 303.441 27.4917C303.748 27.6678 304.104 27.7559 304.51 27.7559C304.775 27.7559 305.013 27.719 305.226 27.6451C305.442 27.5684 305.628 27.4548 305.785 27.3042C305.941 27.1508 306.062 26.9604 306.147 26.7332L307.118 27.0059C307.016 27.3354 306.844 27.6252 306.603 27.8752C306.361 28.1224 306.063 28.3156 305.708 28.4548C305.353 28.5911 304.954 28.6593 304.51 28.6593ZM313.387 23.4434L312.483 23.6991C312.427 23.5485 312.343 23.4022 312.232 23.2602C312.124 23.1153 311.976 22.996 311.789 22.9022C311.601 22.8085 311.361 22.7616 311.069 22.7616C310.668 22.7616 310.334 22.8539 310.067 23.0386C309.803 23.2204 309.671 23.4519 309.671 23.7332C309.671 23.9832 309.762 24.1806 309.944 24.3255C310.126 24.4704 310.41 24.5911 310.796 24.6877L311.768 24.9264C312.353 25.0684 312.789 25.2857 313.076 25.5783C313.363 25.8681 313.506 26.2417 313.506 26.6991C313.506 27.0741 313.398 27.4093 313.182 27.7048C312.969 28.0002 312.671 28.2332 312.287 28.4036C311.904 28.5741 311.458 28.6593 310.949 28.6593C310.282 28.6593 309.729 28.5144 309.292 28.2247C308.854 27.9349 308.577 27.5116 308.461 26.9548L309.415 26.7161C309.506 27.0684 309.678 27.3326 309.931 27.5087C310.187 27.6849 310.52 27.7729 310.932 27.7729C311.401 27.7729 311.773 27.6735 312.049 27.4747C312.327 27.2729 312.466 27.0315 312.466 26.7502C312.466 26.5229 312.387 26.3326 312.228 26.1792C312.069 26.0229 311.824 25.9065 311.495 25.8298L310.404 25.5741C309.805 25.432 309.364 25.2119 309.083 24.9136C308.805 24.6124 308.665 24.236 308.665 23.7843C308.665 23.415 308.769 23.0883 308.976 22.8042C309.187 22.5201 309.472 22.2971 309.833 22.1352C310.197 21.9732 310.608 21.8923 311.069 21.8923C311.716 21.8923 312.225 22.0343 312.594 22.3184C312.966 22.6025 313.231 22.9775 313.387 23.4434Z" fill="#AEB9E1"/>
<g filter="url(#filter0_d_151_3100)">
<rect x="401.259" y="10.3042" width="113" height="30" rx="4" fill="#0A1330" shape-rendering="crispEdges"/>
<rect x="401.559" y="10.6042" width="112.4" height="29.4" rx="3.7" stroke="#0B1739" stroke-width="0.6" shape-rendering="crispEdges"/>
<rect x="410.725" y="21.1831" width="9.06956" height="9.12111" rx="1" stroke="#AEB9E1" stroke-width="0.8"/>
<path d="M410.725 24.2314H419.794V29.3036C419.794 29.8559 419.346 30.3036 418.794 30.3036H411.725C411.172 30.3036 410.725 29.8559 410.725 29.3036V24.2314Z" fill="#AEB9E1" stroke="#AEB9E1" stroke-width="0.8"/>
<path d="M417.775 20.3042V21.9579" stroke="#AEB9E1" stroke-width="0.8" stroke-linecap="round" stroke-linejoin="round"/>
<path d="M412.814 20.3042V21.9579" stroke="#AEB9E1" stroke-width="0.8" stroke-linecap="round" stroke-linejoin="round"/>
<path d="M425.399 28.3842C426.649 28.3842 427.449 27.8042 427.449 26.4042V21.0142H426.369V26.3142C426.369 27.1242 425.959 27.4742 425.199 27.4742C424.869 27.4742 424.599 27.3942 424.409 27.2842V28.1742C424.629 28.2942 424.999 28.3842 425.399 28.3842ZM430.852 28.3942C431.742 28.3942 432.402 27.9342 432.652 27.2542H432.712V28.3042H433.742V23.0142H432.752L432.712 24.0542H432.652C432.402 23.3742 431.742 22.9242 430.852 22.9242C429.562 22.9242 428.692 23.8842 428.692 25.6542C428.692 27.4242 429.562 28.3942 430.852 28.3942ZM431.212 27.5442C430.332 27.5442 429.752 26.8942 429.752 25.6542C429.752 24.4042 430.332 23.7642 431.212 23.7642C432.192 23.7642 432.702 24.5442 432.702 25.3542V25.9542C432.702 26.7742 432.192 27.5442 431.212 27.5442ZM435.184 28.3042H436.204V25.4142C436.204 24.5042 436.774 23.7842 437.684 23.7842C438.524 23.7842 438.914 24.2942 438.914 25.3742V28.3042H439.944V25.1642C439.944 23.5442 439.134 22.9342 438.054 22.9342C437.274 22.9342 436.574 23.3142 436.264 24.0642H436.204L436.164 23.0142H435.184V28.3042ZM443.283 28.3042H448.123V27.3942H444.573C444.933 25.8342 448.043 25.2942 448.043 23.0942C448.043 21.8342 447.123 21.0042 445.723 21.0042C444.253 21.0042 443.263 21.9242 443.303 23.3342H444.313C444.263 22.4342 444.833 21.8942 445.663 21.8942C446.453 21.8942 446.973 22.3842 446.973 23.1442C446.973 24.9842 443.283 25.3142 443.283 28.1242V28.3042ZM451.585 28.3842C453.135 28.3842 454.185 27.0942 454.185 24.6942C454.185 22.3542 453.185 21.0142 451.595 21.0142C450.015 21.0142 448.955 22.2942 448.955 24.6842C448.955 27.0342 449.975 28.3842 451.585 28.3842ZM451.575 27.5042C450.595 27.5042 449.995 26.6742 449.995 24.6942C449.995 22.7042 450.595 21.8842 451.575 21.8842C452.555 21.8842 453.155 22.7142 453.155 24.6942C453.155 26.6742 452.555 27.5042 451.575 27.5042ZM454.972 28.3042H459.812V27.3942H456.262C456.622 25.8342 459.732 25.2942 459.732 23.0942C459.732 21.8342 458.812 21.0042 457.412 21.0042C455.942 21.0042 454.952 21.9242 454.992 23.3342H456.002C455.952 22.4342 456.522 21.8942 457.352 21.8942C458.142 21.8942 458.662 22.3842 458.662 23.1442C458.662 24.9842 454.972 25.3142 454.972 28.1242V28.3042ZM463.776 28.3042H464.806V26.5342H465.786V25.6842H464.806V21.0942H463.466L460.236 25.7342V26.5342H463.776V28.3042ZM461.286 25.6842L463.776 22.1342V25.6842H461.286ZM468.7 26.0942H471.7V25.2242H468.7V26.0942ZM475.12 28.3042H478.07C480.17 28.3042 481.37 26.8542 481.37 24.6642C481.37 22.4742 480.17 21.0142 478.07 21.0142H475.12V28.3042ZM476.21 27.3642V21.9542H477.91C479.31 21.9542 480.25 22.7942 480.25 24.6442C480.25 26.4942 479.32 27.3642 477.91 27.3642H476.21ZM484.757 28.3942C486.007 28.3942 486.967 27.7142 487.107 26.6742H486.127C485.997 27.2242 485.467 27.5742 484.757 27.5742C483.837 27.5742 483.237 26.9542 483.217 25.8642H487.137C487.297 24.2042 486.457 22.9342 484.717 22.9342C483.167 22.9342 482.197 24.0142 482.197 25.6842C482.197 27.3142 483.167 28.3942 484.757 28.3942ZM484.707 23.7442C485.487 23.7442 486.097 24.1542 486.127 25.1342H483.237C483.317 24.2742 483.877 23.7442 484.707 23.7442ZM490.558 28.3942C491.878 28.3942 492.838 27.6142 492.918 26.4142H491.918C491.838 27.0842 491.328 27.5342 490.558 27.5342C489.638 27.5342 489.038 26.8642 489.038 25.6742C489.038 24.5442 489.588 23.7942 490.568 23.7942C491.248 23.7942 491.778 24.1542 491.898 24.8442H492.898C492.818 23.7042 491.878 22.9342 490.598 22.9342C489.008 22.9342 487.988 24.0242 487.988 25.6642C487.988 27.3042 489.008 28.3942 490.558 28.3942ZM495.91 28.3042H500.75V27.3942H497.2C497.56 25.8342 500.67 25.2942 500.67 23.0942C500.67 21.8342 499.75 21.0042 498.35 21.0042C496.88 21.0042 495.89 21.9242 495.93 23.3342H496.94C496.89 22.4342 497.46 21.8942 498.29 21.8942C499.08 21.8942 499.6 22.3842 499.6 23.1442C499.6 24.9842 495.91 25.3142 495.91 28.1242V28.3042ZM504.212 28.3842C505.762 28.3842 506.812 27.0942 506.812 24.6942C506.812 22.3542 505.812 21.0142 504.222 21.0142C502.642 21.0142 501.582 22.2942 501.582 24.6842C501.582 27.0342 502.602 28.3842 504.212 28.3842ZM504.202 27.5042C503.222 27.5042 502.622 26.6742 502.622 24.6942C502.622 22.7042 503.222 21.8842 504.202 21.8842C505.182 21.8842 505.782 22.7142 505.782 24.6942C505.782 26.6742 505.182 27.5042 504.202 27.5042ZM507.599 28.3042H512.439V27.3942H508.889C509.249 25.8342 512.359 25.2942 512.359 23.0942C512.359 21.8342 511.439 21.0042 510.039 21.0042C508.569 21.0042 507.579 21.9242 507.619 23.3342H508.629C508.579 22.4342 509.149 21.8942 509.979 21.8942C510.769 21.8942 511.289 22.3842 511.289 23.1442C511.289 24.9842 507.599 25.3142 507.599 28.1242V28.3042ZM516.403 28.3042H517.433V26.5342H518.413V25.6842H517.433V21.0942H516.093L512.863 25.7342V26.5342H516.403V28.3042ZM513.913 25.6842L516.403 22.1342V25.6842H513.913Z" fill="#AEB9E1"/>
<g opacity="0.8">
<path d="M496.259 23.8042L499.259 26.8042L502.259 23.8042" stroke="#AEB9E1" stroke-linecap="round" stroke-linejoin="round"/>
</g>
</g>
<path opacity="0.2" d="M138.228 310.457C95.7937 312.414 87.6481 239.926 41.082 283.141V342.096H529.323V222.803C426.451 308.826 414.308 147.604 359.417 147.604C306.027 147.603 318.378 278.542 256.471 237.072C189.21 192.016 191.272 308.01 138.228 310.457Z" fill="url(#paint0_linear_151_3100)"/>
<path d="M41.082 283.141C87.6481 239.926 95.7937 312.414 138.228 310.457C191.272 308.01 189.21 192.016 256.471 237.072C318.378 278.542 306.027 147.603 359.417 147.604C414.308 147.604 426.451 308.826 529.323 222.803" stroke="#00C2FF" stroke-linecap="round"/>
<path opacity="0.2" d="M140.262 287.064C116.395 325.032 64.1972 339.572 41.082 342.097H529.323V95.2085C407.565 95.2085 363.619 209.817 277.744 204.769C191.868 199.72 170.097 239.605 140.262 287.064Z" fill="url(#paint1_linear_151_3100)"/>
<path d="M41.082 342.097C64.1972 339.572 116.395 325.032 140.262 287.064C170.097 239.605 191.868 199.72 277.744 204.769C363.62 209.817 407.565 95.2085 529.323 95.2085" stroke="#CB3CFF" stroke-linecap="round"/>
<path d="M248.448 204.279C248.448 206.706 250.753 208.794 253.758 208.794C256.762 208.794 259.068 206.706 259.068 204.279C259.068 201.852 256.762 199.764 253.758 199.764C250.753 199.764 248.448 201.852 248.448 204.279Z" fill="#0B1739" stroke="#CB3CFF"/>
<ellipse cx="528.767" cy="95.317" rx="2.23477" ry="1.92882" fill="#CB3CFF"/>
<ellipse cx="528.767" cy="223.005" rx="2.23477" ry="1.92882" fill="#00C2FF"/>
<path d="M175.217 167.282C176.467 167.282 177.267 166.702 177.267 165.302V159.912H176.187V165.212C176.187 166.022 175.777 166.372 175.017 166.372C174.687 166.372 174.417 166.292 174.227 166.182V167.072C174.447 167.192 174.817 167.282 175.217 167.282ZM180.719 167.292C181.539 167.292 182.229 166.862 182.489 166.132H182.549L182.599 167.202H183.579V161.912H182.549V164.772C182.549 165.742 181.969 166.432 181.099 166.432C180.209 166.432 179.849 165.892 179.849 164.912V161.912H178.819V165.172C178.819 166.572 179.519 167.292 180.719 167.292ZM184.972 167.202H185.992V164.312C185.992 163.402 186.562 162.682 187.472 162.682C188.312 162.682 188.702 163.192 188.702 164.272V167.202H189.732V164.062C189.732 162.442 188.922 161.832 187.842 161.832C187.062 161.832 186.362 162.212 186.052 162.962H185.992L185.952 161.912H184.972V167.202ZM193.325 167.292C194.575 167.292 195.535 166.612 195.675 165.572H194.695C194.565 166.122 194.035 166.472 193.325 166.472C192.405 166.472 191.805 165.852 191.785 164.762H195.705C195.865 163.102 195.025 161.832 193.285 161.832C191.735 161.832 190.765 162.912 190.765 164.582C190.765 166.212 191.735 167.292 193.325 167.292ZM193.275 162.642C194.055 162.642 194.665 163.052 194.695 164.032H191.805C191.885 163.172 192.445 162.642 193.275 162.642ZM198.764 167.202H203.604V166.292H200.054C200.414 164.732 203.524 164.192 203.524 161.992C203.524 160.732 202.604 159.902 201.204 159.902C199.734 159.902 198.744 160.822 198.784 162.232H199.794C199.744 161.332 200.314 160.792 201.144 160.792C201.934 160.792 202.454 161.282 202.454 162.042C202.454 163.882 198.764 164.212 198.764 167.022V167.202ZM206.126 167.202H207.156V159.992H206.166C206.096 160.712 205.626 161.192 204.666 161.192H204.386V161.982H206.126V167.202ZM208.489 168.792H208.749C209.329 168.762 209.669 168.482 209.669 167.722V166.152H208.649V167.202H209.109V167.662C209.109 168.002 208.989 168.222 208.639 168.242H208.489V168.792ZM212.886 167.202H217.726V166.292H214.176C214.536 164.732 217.646 164.192 217.646 161.992C217.646 160.732 216.726 159.902 215.326 159.902C213.856 159.902 212.866 160.822 212.906 162.232H213.916C213.866 161.332 214.436 160.792 215.266 160.792C216.056 160.792 216.576 161.282 216.576 162.042C216.576 163.882 212.886 164.212 212.886 167.022V167.202ZM221.188 167.282C222.738 167.282 223.788 165.992 223.788 163.592C223.788 161.252 222.788 159.912 221.198 159.912C219.618 159.912 218.558 161.192 218.558 163.582C218.558 165.932 219.578 167.282 221.188 167.282ZM221.178 166.402C220.198 166.402 219.598 165.572 219.598 163.592C219.598 161.602 220.198 160.782 221.178 160.782C222.158 160.782 222.758 161.612 222.758 163.592C222.758 165.572 222.158 166.402 221.178 166.402ZM224.575 167.202H229.415V166.292H225.865C226.225 164.732 229.335 164.192 229.335 161.992C229.335 160.732 228.415 159.902 227.015 159.902C225.545 159.902 224.555 160.822 224.595 162.232H225.605C225.555 161.332 226.125 160.792 226.955 160.792C227.745 160.792 228.265 161.282 228.265 162.042C228.265 163.882 224.575 164.212 224.575 167.022V167.202ZM232.747 167.292C234.257 167.292 235.267 166.452 235.267 165.192C235.267 164.322 234.817 163.682 234.037 163.492V163.432C234.707 163.212 235.157 162.602 235.157 161.802C235.157 160.652 234.237 159.902 232.807 159.902C231.317 159.902 230.347 160.802 230.347 162.182H231.357C231.367 161.342 231.877 160.792 232.767 160.792C233.567 160.792 234.097 161.202 234.097 161.922C234.097 162.592 233.657 163.102 232.827 163.102H232.097V163.892H232.887C233.677 163.892 234.207 164.292 234.207 165.102C234.207 165.892 233.627 166.402 232.747 166.402C231.857 166.402 231.277 165.832 231.297 164.982H230.287C230.287 166.372 231.217 167.292 232.747 167.292Z" fill="#AEB9E1"/>
<path d="M180.915 141.244V152.88H179.506V142.721H179.438L176.597 144.607V143.175L179.506 141.244H180.915ZM184.262 152.88V151.857L188.103 147.653C188.553 147.16 188.925 146.732 189.216 146.369C189.508 146.001 189.724 145.656 189.864 145.334C190.008 145.009 190.08 144.668 190.08 144.312C190.08 143.903 189.981 143.548 189.784 143.249C189.591 142.95 189.326 142.719 188.989 142.556C188.652 142.393 188.273 142.312 187.853 142.312C187.406 142.312 187.015 142.405 186.682 142.59C186.353 142.772 186.097 143.028 185.915 143.357C185.737 143.687 185.648 144.073 185.648 144.516H184.307C184.307 143.834 184.464 143.236 184.779 142.721C185.093 142.206 185.521 141.804 186.063 141.516C186.608 141.228 187.22 141.084 187.898 141.084C188.58 141.084 189.184 141.228 189.711 141.516C190.237 141.804 190.65 142.192 190.949 142.681C191.248 143.17 191.398 143.713 191.398 144.312C191.398 144.74 191.32 145.158 191.165 145.567C191.014 145.973 190.748 146.425 190.37 146.925C189.995 147.422 189.474 148.028 188.807 148.744L186.193 151.539V151.63H191.603V152.88H184.262ZM197.586 153.039C196.919 153.039 196.318 152.906 195.784 152.641C195.25 152.376 194.822 152.012 194.5 151.55C194.178 151.088 194.002 150.562 193.972 149.971H195.336C195.389 150.497 195.627 150.933 196.051 151.278C196.479 151.619 196.991 151.789 197.586 151.789C198.063 151.789 198.487 151.677 198.858 151.454C199.233 151.23 199.527 150.923 199.739 150.533C199.955 150.139 200.063 149.694 200.063 149.198C200.063 148.69 199.951 148.238 199.728 147.84C199.508 147.439 199.205 147.122 198.818 146.891C198.432 146.66 197.991 146.543 197.495 146.539C197.139 146.535 196.773 146.59 196.398 146.704C196.023 146.814 195.714 146.956 195.472 147.13L194.154 146.971L194.858 141.244H200.904V142.494H196.04L195.631 145.925H195.699C195.938 145.736 196.237 145.579 196.597 145.454C196.957 145.329 197.332 145.266 197.722 145.266C198.434 145.266 199.068 145.437 199.625 145.778C200.186 146.115 200.625 146.577 200.943 147.164C201.265 147.751 201.426 148.422 201.426 149.175C201.426 149.918 201.26 150.581 200.926 151.164C200.597 151.744 200.142 152.202 199.563 152.539C198.983 152.872 198.324 153.039 197.586 153.039ZM204.246 152.971C203.966 152.971 203.725 152.87 203.524 152.67C203.324 152.469 203.223 152.228 203.223 151.948C203.223 151.668 203.324 151.427 203.524 151.226C203.725 151.026 203.966 150.925 204.246 150.925C204.526 150.925 204.767 151.026 204.968 151.226C205.168 151.427 205.269 151.668 205.269 151.948C205.269 152.134 205.221 152.304 205.127 152.459C205.036 152.615 204.913 152.74 204.757 152.834C204.606 152.925 204.435 152.971 204.246 152.971ZM207.652 152.88V151.857L211.493 147.653C211.944 147.16 212.315 146.732 212.607 146.369C212.899 146.001 213.114 145.656 213.255 145.334C213.399 145.009 213.47 144.668 213.47 144.312C213.47 143.903 213.372 143.548 213.175 143.249C212.982 142.95 212.717 142.719 212.38 142.556C212.042 142.393 211.664 142.312 211.243 142.312C210.796 142.312 210.406 142.405 210.073 142.59C209.743 142.772 209.488 143.028 209.306 143.357C209.128 143.687 209.039 144.073 209.039 144.516H207.698C207.698 143.834 207.855 143.236 208.169 142.721C208.484 142.206 208.912 141.804 209.453 141.516C209.999 141.228 210.611 141.084 211.289 141.084C211.97 141.084 212.575 141.228 213.101 141.516C213.628 141.804 214.041 142.192 214.34 142.681C214.639 143.17 214.789 143.713 214.789 144.312C214.789 144.74 214.711 145.158 214.556 145.567C214.404 145.973 214.139 146.425 213.76 146.925C213.385 147.422 212.864 148.028 212.198 148.744L209.584 151.539V151.63H214.993V152.88H207.652ZM218.613 149.698L218.59 148.039H218.863L222.681 144.153H224.34L220.272 148.266H220.158L218.613 149.698ZM217.363 152.88V141.244H218.703V152.88H217.363ZM222.908 152.88L219.499 148.562L220.453 147.63L224.613 152.88H222.908Z" fill="white"/>
<rect x="231.62" y="137.88" width="45" height="18" rx="2" fill="#05C168" fill-opacity="0.2"/>
<rect x="231.92" y="138.18" width="44.4" height="17.4" rx="1.7" stroke="#05C168" stroke-opacity="0.2" stroke-width="0.6"/>
<path d="M237.66 149.88H238.69V142.67H237.7C237.63 143.39 237.16 143.87 236.2 143.87H235.92V144.66H237.66V149.88ZM240.122 149.88H244.962V148.97H241.412C241.772 147.41 244.882 146.87 244.882 144.67C244.882 143.41 243.962 142.58 242.562 142.58C241.092 142.58 240.102 143.5 240.142 144.91H241.152C241.102 144.01 241.672 143.47 242.502 143.47C243.292 143.47 243.812 143.96 243.812 144.72C243.812 146.56 240.122 146.89 240.122 149.7V149.88ZM245.994 149.88H247.024V148.83H245.994V149.88ZM250.563 149.97C252.133 149.97 253.133 148.97 253.133 147.48C253.133 146.06 252.223 145.07 250.793 145.07C250.143 145.07 249.563 145.33 249.273 145.73L249.213 145.71L249.313 143.57H252.753V142.67H248.403L248.233 146.76H249.213C249.413 146.28 249.893 145.94 250.583 145.94C251.483 145.94 252.073 146.54 252.073 147.52C252.073 148.43 251.523 149.06 250.573 149.06C249.693 149.06 249.123 148.51 249.123 147.68H248.093C248.103 149.05 249.063 149.97 250.563 149.97ZM255.237 149.88H256.007L260.637 142.59H259.867L255.237 149.88ZM255.557 146.56C256.437 146.56 257.027 145.86 257.027 144.59C257.027 143.37 256.477 142.63 255.577 142.63C254.677 142.63 254.087 143.33 254.087 144.58C254.087 145.81 254.637 146.56 255.557 146.56ZM255.567 145.94C255.117 145.94 254.817 145.61 254.817 144.59C254.817 143.57 255.127 143.25 255.567 143.25C255.997 143.25 256.297 143.57 256.297 144.59C256.297 145.61 255.997 145.94 255.567 145.94ZM260.317 149.92C261.197 149.92 261.787 149.22 261.787 147.96C261.787 146.73 261.237 145.98 260.337 145.98C259.437 145.98 258.847 146.69 258.847 147.94C258.847 149.17 259.397 149.92 260.317 149.92ZM260.327 149.3C259.877 149.3 259.577 148.97 259.577 147.95C259.577 146.93 259.877 146.61 260.327 146.61C260.747 146.61 261.047 146.93 261.047 147.95C261.047 148.98 260.747 149.3 260.327 149.3Z" fill="#14CA74"/>
<path d="M265.953 149.546L271.286 144.213" stroke="#14CA74" stroke-width="0.8" stroke-linecap="round" stroke-linejoin="round"/>
<path d="M271.286 149.241V144.213H266.258" stroke="#14CA74" stroke-width="0.8" stroke-linecap="round" stroke-linejoin="round"/>
<rect x="58.8271" y="359.565" width="7.22541" height="54.0069" fill="#05C168"/>
<rect x="58.8271" y="345.677" width="7.22541" height="30.0895" fill="#FF5A65"/>
<rect x="110.438" y="331.019" width="7.22541" height="82.5534" fill="#05C168"/>
<rect width="7.22541" height="20.8312" transform="matrix(1 0 0 -1 110.438 331.019)" fill="#FF5A65"/>
<rect x="158.951" y="310.187" width="7.22541" height="103.385" fill="#05C168"/>
<rect width="7.22541" height="47.8347" transform="matrix(1 0 0 -1 158.951 310.187)" fill="#FF5A65"/>
<rect x="209.529" y="297.843" width="8.25761" height="115.729" fill="#05C168"/>
<rect x="209.529" y="297.843" width="8.25761" height="16.2021" fill="#FF5A65"/>
<rect x="261.139" y="331.019" width="7.22541" height="82.5534" fill="#05C168"/>
<rect x="261.139" y="331.019" width="7.22541" height="41.6624" fill="#FF5A65"/>
<rect x="310.684" y="277.783" width="8.25761" height="135.789" fill="#05C168"/>
<rect x="310.684" y="277.783" width="8.25761" height="64.0367" fill="#FF5A65"/>
<rect x="358.166" y="366.509" width="7.22541" height="47.0631" fill="#05C168"/>
<rect x="358.166" y="366.509" width="7.22541" height="18.5166" fill="#FF5A65"/>
<rect x="405.646" y="294.757" width="7.22541" height="118.815" fill="#05C168"/>
<rect x="405.646" y="294.757" width="7.22541" height="10.0298" fill="#FF5A65"/>
<rect x="456.225" y="347.221" width="8.25761" height="66.3513" fill="#05C168"/>
<rect x="456.225" y="347.221" width="8.25761" height="29.318" fill="#FF5A65"/>
<rect x="506.803" y="393.512" width="7.22541" height="20.0597" fill="#05C168"/>
<rect x="506.803" y="354.164" width="7.22541" height="44.7486" fill="#FF5A65"/>
<rect x="332.516" y="43.5" width="7" height="7" rx="3.5" fill="#FF5A65"/>
<path d="M348.573 51V42.2727H353.84V43.2102H349.63V46.1591H353.567V47.0966H349.63V50.0625H353.908V51H348.573ZM355.608 51V44.4545H356.58V45.4432H356.648C356.768 45.1193 356.983 44.8565 357.296 44.6548C357.608 44.4531 357.961 44.3523 358.353 44.3523C358.427 44.3523 358.519 44.3537 358.63 44.3565C358.741 44.3594 358.824 44.3636 358.881 44.3693V45.392C358.847 45.3835 358.769 45.3707 358.647 45.3537C358.527 45.3338 358.401 45.3239 358.268 45.3239C357.949 45.3239 357.665 45.3906 357.415 45.5241C357.168 45.6548 356.972 45.8366 356.827 46.0696C356.685 46.2997 356.614 46.5625 356.614 46.858V51H355.608ZM360.073 51V44.4545H361.045V45.4432H361.113C361.232 45.1193 361.448 44.8565 361.761 44.6548C362.073 44.4531 362.426 44.3523 362.818 44.3523C362.891 44.3523 362.984 44.3537 363.095 44.3565C363.205 44.3594 363.289 44.3636 363.346 44.3693V45.392C363.312 45.3835 363.234 45.3707 363.112 45.3537C362.992 45.3338 362.866 45.3239 362.732 45.3239C362.414 45.3239 362.13 45.3906 361.88 45.5241C361.633 45.6548 361.437 45.8366 361.292 46.0696C361.15 46.2997 361.079 46.5625 361.079 46.858V51H360.073ZM366.998 51.1364C366.407 51.1364 365.889 50.9957 365.443 50.7145C364.999 50.4332 364.653 50.0398 364.403 49.5341C364.156 49.0284 364.032 48.4375 364.032 47.7614C364.032 47.0795 364.156 46.4844 364.403 45.9759C364.653 45.4673 364.999 45.0724 365.443 44.7912C365.889 44.5099 366.407 44.3693 366.998 44.3693C367.589 44.3693 368.106 44.5099 368.549 44.7912C368.995 45.0724 369.342 45.4673 369.589 45.9759C369.839 46.4844 369.964 47.0795 369.964 47.7614C369.964 48.4375 369.839 49.0284 369.589 49.5341C369.342 50.0398 368.995 50.4332 368.549 50.7145C368.106 50.9957 367.589 51.1364 366.998 51.1364ZM366.998 50.233C367.447 50.233 367.816 50.1179 368.106 49.8878C368.396 49.6577 368.61 49.3551 368.749 48.9801C368.889 48.6051 368.958 48.1989 368.958 47.7614C368.958 47.3239 368.889 46.9162 368.749 46.5384C368.61 46.1605 368.396 45.8551 368.106 45.6222C367.816 45.3892 367.447 45.2727 366.998 45.2727C366.549 45.2727 366.18 45.3892 365.89 45.6222C365.6 45.8551 365.386 46.1605 365.247 46.5384C365.107 46.9162 365.038 47.3239 365.038 47.7614C365.038 48.1989 365.107 48.6051 365.247 48.9801C365.386 49.3551 365.6 49.6577 365.89 49.8878C366.18 50.1179 366.549 50.233 366.998 50.233ZM371.499 51V44.4545H372.471V45.4432H372.539C372.658 45.1193 372.874 44.8565 373.187 44.6548C373.499 44.4531 373.851 44.3523 374.243 44.3523C374.317 44.3523 374.41 44.3537 374.52 44.3565C374.631 44.3594 374.715 44.3636 374.772 44.3693V45.392C374.738 45.3835 374.66 45.3707 374.537 45.3537C374.418 45.3338 374.292 45.3239 374.158 45.3239C373.84 45.3239 373.556 45.3906 373.306 45.5241C373.059 45.6548 372.863 45.8366 372.718 46.0696C372.576 46.2997 372.505 46.5625 372.505 46.858V51H371.499ZM380.6 45.9205L379.697 46.1761C379.64 46.0256 379.556 45.8793 379.445 45.7372C379.337 45.5923 379.19 45.473 379.002 45.3793C378.815 45.2855 378.575 45.2386 378.282 45.2386C377.882 45.2386 377.548 45.331 377.281 45.5156C377.016 45.6974 376.884 45.929 376.884 46.2102C376.884 46.4602 376.975 46.6577 377.157 46.8026C377.339 46.9474 377.623 47.0682 378.009 47.1648L378.981 47.4034C379.566 47.5455 380.002 47.7628 380.289 48.0554C380.576 48.3452 380.72 48.7187 380.72 49.1761C380.72 49.5511 380.612 49.8864 380.396 50.1818C380.183 50.4773 379.884 50.7102 379.501 50.8807C379.117 51.0511 378.671 51.1364 378.163 51.1364C377.495 51.1364 376.943 50.9915 376.505 50.7017C376.068 50.4119 375.791 49.9886 375.674 49.4318L376.629 49.1932C376.72 49.5455 376.891 49.8097 377.144 49.9858C377.4 50.1619 377.734 50.25 378.146 50.25C378.614 50.25 378.987 50.1506 379.262 49.9517C379.541 49.75 379.68 49.5085 379.68 49.2273C379.68 49 379.6 48.8097 379.441 48.6562C379.282 48.5 379.038 48.3835 378.708 48.3068L377.617 48.0511C377.018 47.9091 376.578 47.6889 376.296 47.3906C376.018 47.0895 375.879 46.7131 375.879 46.2614C375.879 45.892 375.982 45.5653 376.19 45.2812C376.4 44.9972 376.686 44.7741 377.046 44.6122C377.41 44.4503 377.822 44.3693 378.282 44.3693C378.93 44.3693 379.438 44.5114 379.808 44.7955C380.18 45.0795 380.444 45.4545 380.6 45.9205Z" fill="#AEB9E1"/>
<rect x="251.969" y="43.5" width="7" height="7" rx="3.5" fill="#05C168"/>
<path d="M272.799 44.4545C272.748 44.0227 272.54 43.6875 272.177 43.4489C271.813 43.2102 271.367 43.0909 270.839 43.0909C270.452 43.0909 270.114 43.1534 269.824 43.2784C269.537 43.4034 269.313 43.5753 269.151 43.794C268.992 44.0128 268.912 44.2614 268.912 44.5398C268.912 44.7727 268.968 44.973 269.079 45.1406C269.192 45.3054 269.337 45.4432 269.513 45.554C269.689 45.6619 269.874 45.7514 270.067 45.8224C270.26 45.8906 270.438 45.946 270.6 45.9886L271.486 46.2273C271.714 46.2869 271.966 46.3693 272.245 46.4744C272.526 46.5795 272.795 46.723 273.05 46.9048C273.309 47.0838 273.522 47.3139 273.689 47.5952C273.857 47.8764 273.941 48.2216 273.941 48.6307C273.941 49.1023 273.817 49.5284 273.57 49.9091C273.326 50.2898 272.968 50.5923 272.496 50.8168C272.027 51.0412 271.458 51.1534 270.787 51.1534C270.162 51.1534 269.621 51.0526 269.164 50.8509C268.709 50.6491 268.351 50.3679 268.09 50.0071C267.831 49.6463 267.685 49.2273 267.651 48.75H268.742C268.77 49.0795 268.881 49.3523 269.074 49.5682C269.27 49.7812 269.518 49.9403 269.816 50.0455C270.117 50.1477 270.441 50.1989 270.787 50.1989C271.191 50.1989 271.553 50.1335 271.874 50.0028C272.195 49.8693 272.449 49.6847 272.637 49.4489C272.824 49.2102 272.918 48.9318 272.918 48.6136C272.918 48.3239 272.837 48.0881 272.675 47.9062C272.513 47.7244 272.3 47.5767 272.036 47.4631C271.772 47.3494 271.486 47.25 271.179 47.1648L270.106 46.858C269.424 46.6619 268.884 46.3821 268.486 46.0185C268.089 45.6548 267.89 45.179 267.89 44.5909C267.89 44.1023 268.022 43.6761 268.286 43.3125C268.553 42.946 268.911 42.6619 269.36 42.4602C269.812 42.2557 270.316 42.1534 270.873 42.1534C271.435 42.1534 271.935 42.2543 272.373 42.456C272.81 42.6548 273.157 42.9276 273.412 43.2741C273.671 43.6207 273.807 44.0142 273.822 44.4545H272.799ZM279.667 48.3239V44.4545H280.673V51H279.667V49.892H279.599C279.445 50.2244 279.207 50.5071 278.883 50.7401C278.559 50.9702 278.15 51.0852 277.656 51.0852C277.247 51.0852 276.883 50.9957 276.565 50.8168C276.247 50.6349 275.997 50.3622 275.815 49.9986C275.633 49.6321 275.542 49.1705 275.542 48.6136V44.4545H276.548V48.5455C276.548 49.0227 276.681 49.4034 276.948 49.6875C277.218 49.9716 277.562 50.1136 277.98 50.1136C278.23 50.1136 278.484 50.0497 278.742 49.9219C279.004 49.794 279.222 49.598 279.399 49.3338C279.578 49.0696 279.667 48.733 279.667 48.3239ZM285.174 51.1364C284.56 51.1364 284.032 50.9915 283.589 50.7017C283.145 50.4119 282.804 50.0128 282.566 49.5043C282.327 48.9957 282.208 48.4148 282.208 47.7614C282.208 47.0966 282.33 46.5099 282.574 46.0014C282.822 45.4901 283.165 45.0909 283.606 44.804C284.049 44.5142 284.566 44.3693 285.157 44.3693C285.617 44.3693 286.032 44.4545 286.401 44.625C286.77 44.7955 287.073 45.0341 287.309 45.3409C287.545 45.6477 287.691 46.0057 287.748 46.4148H286.742C286.665 46.1165 286.495 45.8523 286.231 45.6222C285.969 45.3892 285.617 45.2727 285.174 45.2727C284.782 45.2727 284.438 45.375 284.143 45.5795C283.85 45.7812 283.621 46.0668 283.456 46.4361C283.295 46.8026 283.214 47.233 283.214 47.7273C283.214 48.233 283.293 48.6733 283.452 49.0483C283.614 49.4233 283.841 49.7145 284.134 49.9219C284.429 50.1293 284.776 50.233 285.174 50.233C285.435 50.233 285.672 50.1875 285.885 50.0966C286.098 50.0057 286.279 49.875 286.427 49.7045C286.574 49.5341 286.679 49.3295 286.742 49.0909H287.748C287.691 49.4773 287.55 49.8253 287.326 50.1349C287.104 50.4418 286.81 50.6861 286.444 50.8679C286.08 51.0469 285.657 51.1364 285.174 51.1364ZM291.877 51.1364C291.263 51.1364 290.735 50.9915 290.292 50.7017C289.848 50.4119 289.508 50.0128 289.269 49.5043C289.03 48.9957 288.911 48.4148 288.911 47.7614C288.911 47.0966 289.033 46.5099 289.277 46.0014C289.525 45.4901 289.868 45.0909 290.309 44.804C290.752 44.5142 291.269 44.3693 291.86 44.3693C292.32 44.3693 292.735 44.4545 293.104 44.625C293.473 44.7955 293.776 45.0341 294.012 45.3409C294.248 45.6477 294.394 46.0057 294.451 46.4148H293.445C293.368 46.1165 293.198 45.8523 292.934 45.6222C292.672 45.3892 292.32 45.2727 291.877 45.2727C291.485 45.2727 291.141 45.375 290.846 45.5795C290.553 45.7812 290.324 46.0668 290.16 46.4361C289.998 46.8026 289.917 47.233 289.917 47.7273C289.917 48.233 289.996 48.6733 290.155 49.0483C290.317 49.4233 290.545 49.7145 290.837 49.9219C291.133 50.1293 291.479 50.233 291.877 50.233C292.138 50.233 292.375 50.1875 292.589 50.0966C292.802 50.0057 292.982 49.875 293.13 49.7045C293.277 49.5341 293.383 49.3295 293.445 49.0909H294.451C294.394 49.4773 294.253 49.8253 294.029 50.1349C293.807 50.4418 293.513 50.6861 293.147 50.8679C292.783 51.0469 292.36 51.1364 291.877 51.1364ZM298.665 51.1364C298.035 51.1364 297.491 50.9972 297.033 50.7188C296.579 50.4375 296.228 50.0455 295.981 49.5426C295.736 49.0369 295.614 48.4489 295.614 47.7784C295.614 47.108 295.736 46.517 295.981 46.0057C296.228 45.4915 296.572 45.0909 297.012 44.804C297.455 44.5142 297.972 44.3693 298.563 44.3693C298.904 44.3693 299.241 44.4261 299.573 44.5398C299.905 44.6534 300.208 44.8381 300.481 45.0938C300.753 45.3466 300.971 45.6818 301.133 46.0994C301.295 46.517 301.375 47.0312 301.375 47.642V48.0682H296.33V47.1989H300.353C300.353 46.8295 300.279 46.5 300.131 46.2102C299.986 45.9205 299.779 45.6918 299.509 45.5241C299.242 45.3565 298.927 45.2727 298.563 45.2727C298.162 45.2727 297.816 45.3722 297.523 45.571C297.233 45.767 297.01 46.0227 296.854 46.3381C296.698 46.6534 296.62 46.9915 296.62 47.3523V47.9318C296.62 48.4261 296.705 48.8452 296.875 49.1889C297.049 49.5298 297.289 49.7898 297.596 49.9688C297.902 50.1449 298.259 50.233 298.665 50.233C298.929 50.233 299.168 50.196 299.381 50.1222C299.597 50.0455 299.783 49.9318 299.939 49.7812C300.096 49.6278 300.216 49.4375 300.302 49.2102L301.273 49.483C301.171 49.8125 300.999 50.1023 300.758 50.3523C300.516 50.5994 300.218 50.7926 299.863 50.9318C299.508 51.0682 299.108 51.1364 298.665 51.1364ZM307.542 45.9205L306.638 46.1761C306.581 46.0256 306.498 45.8793 306.387 45.7372C306.279 45.5923 306.131 45.473 305.944 45.3793C305.756 45.2855 305.516 45.2386 305.223 45.2386C304.823 45.2386 304.489 45.331 304.222 45.5156C303.958 45.6974 303.826 45.929 303.826 46.2102C303.826 46.4602 303.917 46.6577 304.098 46.8026C304.28 46.9474 304.564 47.0682 304.951 47.1648L305.922 47.4034C306.508 47.5455 306.944 47.7628 307.231 48.0554C307.518 48.3452 307.661 48.7187 307.661 49.1761C307.661 49.5511 307.553 49.8864 307.337 50.1818C307.124 50.4773 306.826 50.7102 306.442 50.8807C306.059 51.0511 305.613 51.1364 305.104 51.1364C304.437 51.1364 303.884 50.9915 303.447 50.7017C303.009 50.4119 302.732 49.9886 302.616 49.4318L303.57 49.1932C303.661 49.5455 303.833 49.8097 304.086 49.9858C304.341 50.1619 304.675 50.25 305.087 50.25C305.556 50.25 305.928 50.1506 306.204 49.9517C306.482 49.75 306.621 49.5085 306.621 49.2273C306.621 49 306.542 48.8097 306.383 48.6562C306.223 48.5 305.979 48.3835 305.65 48.3068L304.559 48.0511C303.959 47.9091 303.519 47.6889 303.238 47.3906C302.959 47.0895 302.82 46.7131 302.82 46.2614C302.82 45.892 302.924 45.5653 303.131 45.2812C303.341 44.9972 303.627 44.7741 303.988 44.6122C304.351 44.4503 304.763 44.3693 305.223 44.3693C305.871 44.3693 306.38 44.5114 306.749 44.7955C307.121 45.0795 307.385 45.4545 307.542 45.9205ZM313.811 45.9205L312.908 46.1761C312.851 46.0256 312.767 45.8793 312.656 45.7372C312.548 45.5923 312.401 45.473 312.213 45.3793C312.026 45.2855 311.786 45.2386 311.493 45.2386C311.092 45.2386 310.759 45.331 310.492 45.5156C310.227 45.6974 310.095 45.929 310.095 46.2102C310.095 46.4602 310.186 46.6577 310.368 46.8026C310.55 46.9474 310.834 47.0682 311.22 47.1648L312.192 47.4034C312.777 47.5455 313.213 47.7628 313.5 48.0554C313.787 48.3452 313.931 48.7187 313.931 49.1761C313.931 49.5511 313.823 49.8864 313.607 50.1818C313.394 50.4773 313.095 50.7102 312.712 50.8807C312.328 51.0511 311.882 51.1364 311.374 51.1364C310.706 51.1364 310.154 50.9915 309.716 50.7017C309.279 50.4119 309.002 49.9886 308.885 49.4318L309.84 49.1932C309.931 49.5455 310.102 49.8097 310.355 49.9858C310.611 50.1619 310.945 50.25 311.357 50.25C311.825 50.25 312.198 50.1506 312.473 49.9517C312.752 49.75 312.891 49.5085 312.891 49.2273C312.891 49 312.811 48.8097 312.652 48.6562C312.493 48.5 312.249 48.3835 311.919 48.3068L310.828 48.0511C310.229 47.9091 309.788 47.6889 309.507 47.3906C309.229 47.0895 309.09 46.7131 309.09 46.2614C309.09 45.892 309.193 45.5653 309.401 45.2812C309.611 44.9972 309.896 44.7741 310.257 44.6122C310.621 44.4503 311.033 44.3693 311.493 44.3693C312.141 44.3693 312.649 44.5114 313.019 44.7955C313.391 45.0795 313.655 45.4545 313.811 45.9205Z" fill="#AEB9E1"/>
<defs>
<filter id="filter0_d_151_3100" x="401.259" y="10.3042" width="119.154" height="32" filterUnits="userSpaceOnUse" color-interpolation-filters="sRGB">
<feFlood flood-opacity="0" result="BackgroundImageFix"/>
<feColorMatrix in="SourceAlpha" type="matrix" values="0 0 0 0 0 0 0 0 0 0 0 0 0 0 0 0 0 0 127 0" result="hardAlpha"/>
<feOffset dx="1" dy="1"/>
<feGaussianBlur stdDeviation="0.5"/>
<feComposite in2="hardAlpha" operator="out"/>
<feColorMatrix type="matrix" values="0 0 0 0 0.06125 0 0 0 0 0.0969792 0 0 0 0 0.204167 0 0 0 0.4 0"/>
<feBlend mode="normal" in2="BackgroundImageFix" result="effect1_dropShadow_151_3100"/>
<feBlend mode="normal" in="SourceGraphic" in2="effect1_dropShadow_151_3100" result="shape"/>
</filter>
<linearGradient id="paint0_linear_151_3100" x1="285.203" y1="147.604" x2="285.203" y2="342.096" gradientUnits="userSpaceOnUse">
<stop stop-color="#57C3FF"/>
<stop offset="1" stop-color="#57C3FF" stop-opacity="0"/>
</linearGradient>
<linearGradient id="paint1_linear_151_3100" x1="285.203" y1="95.2085" x2="285.203" y2="342.097" gradientUnits="userSpaceOnUse">
<stop stop-color="#575DFF"/>
<stop offset="1" stop-color="#575DFF" stop-opacity="0"/>
</linearGradient>
</defs>
</svg>
