<svg width="99" height="43" viewBox="0 0 99 43" fill="none" xmlns="http://www.w3.org/2000/svg">
<path d="M1 13.4242C4.74876 13.4242 4.74876 7.21212 8.49752 7.21212C12.2463 7.21212 12.2463 32.0606 15.995 32.0606C19.7438 32.0606 19.7438 14.6667 23.4926 14.6667C27.2413 14.6667 27.2413 25.8485 30.9901 25.8485C34.7389 25.8485 34.7389 34.5455 38.4876 34.5455C42.2364 34.5455 42.2364 1 45.9851 1C49.7339 1 49.7339 38.2727 53.4827 38.2727C57.2314 38.2727 57.2314 40.7576 60.9802 40.7576C64.7289 40.7576 64.7289 42 68.4777 42C72.2265 42 72.2265 8.45455 75.9752 8.45455C79.724 8.45455 79.724 19.6364 83.4728 19.6364C87.2215 19.6364 87.2215 10.9394 90.9703 10.9394C94.719 10.9394 94.2512 29.4722 98 29.4722M75 18C75 19.1046 74.1046 20 73 20C71.8954 20 71 19.1046 71 18C71 16.8954 71.8954 16 73 16C74.1046 16 75 16.8954 75 18Z" stroke="#AEB9E1" stroke-width="1.6" stroke-linecap="round"/>
</svg>
