<svg width="343" height="162" viewBox="0 0 343 162" fill="none" xmlns="http://www.w3.org/2000/svg">
<mask id="path-1-outside-1_201_2483" maskUnits="userSpaceOnUse" x="263" y="6" width="52" height="18" fill="black">
<rect fill="white" x="263" y="6" width="52" height="18"/>
<path d="M264.592 19V8.568H266.784V17.16H270.976V19H264.592ZM276.107 19.192C275.361 19.192 274.683 19.0267 274.075 18.696C273.478 18.3653 273.003 17.896 272.651 17.288C272.299 16.6693 272.123 15.9227 272.123 15.048C272.123 14.1947 272.299 13.4587 272.651 12.84C273.014 12.2213 273.478 11.7413 274.043 11.4C274.609 11.0587 275.206 10.888 275.835 10.888C276.571 10.888 277.185 11.0533 277.675 11.384C278.177 11.7147 278.55 12.168 278.795 12.744C279.051 13.3093 279.179 13.9547 279.179 14.68C279.179 14.872 279.169 15.064 279.147 15.256C279.126 15.4373 279.105 15.576 279.083 15.672H273.851L273.835 14.216H277.291C277.291 13.7253 277.179 13.3307 276.955 13.032C276.731 12.7227 276.374 12.568 275.883 12.568C275.595 12.568 275.318 12.648 275.051 12.808C274.785 12.968 274.566 13.2347 274.395 13.608C274.225 13.9707 274.139 14.4507 274.139 15.048C274.139 15.656 274.246 16.1413 274.459 16.504C274.683 16.856 274.966 17.112 275.307 17.272C275.649 17.432 276.011 17.512 276.395 17.512C276.715 17.512 277.014 17.4693 277.291 17.384C277.579 17.288 277.867 17.1547 278.155 16.984L278.875 18.312C278.481 18.5787 278.038 18.792 277.547 18.952C277.067 19.112 276.587 19.192 276.107 19.192ZM283.622 22.408C283.003 22.408 282.443 22.3333 281.942 22.184C281.441 22.0453 281.046 21.8267 280.758 21.528C280.47 21.2293 280.326 20.8453 280.326 20.376C280.326 20.0453 280.422 19.7413 280.614 19.464C280.817 19.1973 281.094 18.9627 281.446 18.76V18.696C281.254 18.5573 281.083 18.3813 280.934 18.168C280.795 17.944 280.726 17.672 280.726 17.352C280.726 17.064 280.811 16.792 280.982 16.536C281.163 16.2693 281.371 16.0507 281.606 15.88V15.816C281.339 15.6133 281.094 15.336 280.87 14.984C280.657 14.6213 280.55 14.2107 280.55 13.752C280.55 13.1227 280.699 12.6 280.998 12.184C281.307 11.7573 281.707 11.4373 282.198 11.224C282.689 11 283.217 10.888 283.782 10.888C284.006 10.888 284.219 10.9093 284.422 10.952C284.635 10.984 284.827 11.0267 284.998 11.08H287.862V12.696H286.534C286.63 12.824 286.71 12.9893 286.774 13.192C286.838 13.384 286.87 13.592 286.87 13.816C286.87 14.424 286.731 14.9253 286.454 15.32C286.177 15.7147 285.803 16.008 285.334 16.2C284.875 16.392 284.358 16.488 283.782 16.488C283.633 16.488 283.473 16.4773 283.302 16.456C283.142 16.424 282.971 16.3813 282.79 16.328C282.683 16.4133 282.603 16.504 282.55 16.6C282.497 16.6853 282.47 16.808 282.47 16.968C282.47 17.1707 282.561 17.3253 282.742 17.432C282.934 17.5387 283.249 17.592 283.686 17.592H285.014C285.974 17.592 286.71 17.752 287.222 18.072C287.734 18.3813 287.99 18.8827 287.99 19.576C287.99 20.12 287.809 20.6053 287.446 21.032C287.094 21.4587 286.593 21.7947 285.942 22.04C285.291 22.2853 284.518 22.408 283.622 22.408ZM283.974 21.016C284.347 21.016 284.678 20.968 284.966 20.872C285.254 20.7867 285.478 20.6587 285.638 20.488C285.809 20.328 285.894 20.1467 285.894 19.944C285.894 19.6773 285.782 19.5013 285.558 19.416C285.345 19.3307 285.035 19.288 284.63 19.288H283.718C283.473 19.288 283.265 19.2773 283.094 19.256C282.923 19.2347 282.769 19.208 282.63 19.176C282.459 19.3147 282.331 19.4533 282.246 19.592C282.171 19.7307 282.134 19.88 282.134 20.04C282.134 20.36 282.299 20.6 282.63 20.76C282.971 20.9307 283.419 21.016 283.974 21.016ZM283.782 15.16C284.006 15.16 284.203 15.1067 284.374 15C284.555 14.8933 284.694 14.7333 284.79 14.52C284.897 14.3067 284.95 14.0507 284.95 13.752C284.95 13.4533 284.897 13.2027 284.79 13C284.694 12.7973 284.555 12.6427 284.374 12.536C284.203 12.4293 284.006 12.376 283.782 12.376C283.451 12.376 283.174 12.4933 282.95 12.728C282.726 12.9627 282.614 13.304 282.614 13.752C282.614 14.0507 282.662 14.3067 282.758 14.52C282.865 14.7333 283.003 14.8933 283.174 15C283.355 15.1067 283.558 15.16 283.782 15.16ZM292.81 19.192C292.064 19.192 291.386 19.0267 290.778 18.696C290.181 18.3653 289.706 17.896 289.354 17.288C289.002 16.6693 288.826 15.9227 288.826 15.048C288.826 14.1947 289.002 13.4587 289.354 12.84C289.717 12.2213 290.181 11.7413 290.746 11.4C291.312 11.0587 291.909 10.888 292.538 10.888C293.274 10.888 293.888 11.0533 294.378 11.384C294.88 11.7147 295.253 12.168 295.498 12.744C295.754 13.3093 295.882 13.9547 295.882 14.68C295.882 14.872 295.872 15.064 295.85 15.256C295.829 15.4373 295.808 15.576 295.786 15.672H290.554L290.538 14.216H293.994C293.994 13.7253 293.882 13.3307 293.658 13.032C293.434 12.7227 293.077 12.568 292.586 12.568C292.298 12.568 292.021 12.648 291.754 12.808C291.488 12.968 291.269 13.2347 291.098 13.608C290.928 13.9707 290.842 14.4507 290.842 15.048C290.842 15.656 290.949 16.1413 291.162 16.504C291.386 16.856 291.669 17.112 292.01 17.272C292.352 17.432 292.714 17.512 293.098 17.512C293.418 17.512 293.717 17.4693 293.994 17.384C294.282 17.288 294.57 17.1547 294.858 16.984L295.578 18.312C295.184 18.5787 294.741 18.792 294.25 18.952C293.77 19.112 293.29 19.192 292.81 19.192ZM297.525 19V11.08H299.317L299.477 12.104H299.541C299.882 11.7733 300.256 11.4907 300.661 11.256C301.077 11.0107 301.557 10.888 302.101 10.888C302.954 10.888 303.573 11.1707 303.957 11.736C304.352 12.3013 304.549 13.08 304.549 14.072V19H302.357V14.36C302.357 13.7627 302.272 13.3467 302.101 13.112C301.93 12.8773 301.664 12.76 301.301 12.76C300.981 12.76 300.709 12.8347 300.485 12.984C300.261 13.1227 300.005 13.3307 299.717 13.608V19H297.525ZM309.435 19.192C308.454 19.192 307.664 18.824 307.067 18.088C306.48 17.352 306.187 16.3387 306.187 15.048C306.187 14.184 306.342 13.4427 306.651 12.824C306.971 12.2053 307.382 11.7307 307.883 11.4C308.395 11.0587 308.934 10.888 309.499 10.888C309.947 10.888 310.32 10.9627 310.619 11.112C310.918 11.2613 311.206 11.4693 311.483 11.736L311.403 10.504V7.768H313.595V19H311.803L311.643 18.2H311.579C311.302 18.4773 310.971 18.712 310.587 18.904C310.214 19.096 309.83 19.192 309.435 19.192ZM309.995 17.4C310.272 17.4 310.523 17.3413 310.747 17.224C310.971 17.1067 311.19 16.9093 311.403 16.632V13.24C311.179 13.0373 310.944 12.8987 310.699 12.824C310.464 12.7387 310.23 12.696 309.995 12.696C309.718 12.696 309.462 12.7813 309.227 12.952C308.992 13.1227 308.8 13.384 308.651 13.736C308.512 14.0773 308.443 14.504 308.443 15.016C308.443 15.816 308.576 16.4133 308.843 16.808C309.12 17.2027 309.504 17.4 309.995 17.4Z"/>
</mask>
<path d="M264.592 19V8.568H266.784V17.16H270.976V19H264.592ZM276.107 19.192C275.361 19.192 274.683 19.0267 274.075 18.696C273.478 18.3653 273.003 17.896 272.651 17.288C272.299 16.6693 272.123 15.9227 272.123 15.048C272.123 14.1947 272.299 13.4587 272.651 12.84C273.014 12.2213 273.478 11.7413 274.043 11.4C274.609 11.0587 275.206 10.888 275.835 10.888C276.571 10.888 277.185 11.0533 277.675 11.384C278.177 11.7147 278.55 12.168 278.795 12.744C279.051 13.3093 279.179 13.9547 279.179 14.68C279.179 14.872 279.169 15.064 279.147 15.256C279.126 15.4373 279.105 15.576 279.083 15.672H273.851L273.835 14.216H277.291C277.291 13.7253 277.179 13.3307 276.955 13.032C276.731 12.7227 276.374 12.568 275.883 12.568C275.595 12.568 275.318 12.648 275.051 12.808C274.785 12.968 274.566 13.2347 274.395 13.608C274.225 13.9707 274.139 14.4507 274.139 15.048C274.139 15.656 274.246 16.1413 274.459 16.504C274.683 16.856 274.966 17.112 275.307 17.272C275.649 17.432 276.011 17.512 276.395 17.512C276.715 17.512 277.014 17.4693 277.291 17.384C277.579 17.288 277.867 17.1547 278.155 16.984L278.875 18.312C278.481 18.5787 278.038 18.792 277.547 18.952C277.067 19.112 276.587 19.192 276.107 19.192ZM283.622 22.408C283.003 22.408 282.443 22.3333 281.942 22.184C281.441 22.0453 281.046 21.8267 280.758 21.528C280.47 21.2293 280.326 20.8453 280.326 20.376C280.326 20.0453 280.422 19.7413 280.614 19.464C280.817 19.1973 281.094 18.9627 281.446 18.76V18.696C281.254 18.5573 281.083 18.3813 280.934 18.168C280.795 17.944 280.726 17.672 280.726 17.352C280.726 17.064 280.811 16.792 280.982 16.536C281.163 16.2693 281.371 16.0507 281.606 15.88V15.816C281.339 15.6133 281.094 15.336 280.87 14.984C280.657 14.6213 280.55 14.2107 280.55 13.752C280.55 13.1227 280.699 12.6 280.998 12.184C281.307 11.7573 281.707 11.4373 282.198 11.224C282.689 11 283.217 10.888 283.782 10.888C284.006 10.888 284.219 10.9093 284.422 10.952C284.635 10.984 284.827 11.0267 284.998 11.08H287.862V12.696H286.534C286.63 12.824 286.71 12.9893 286.774 13.192C286.838 13.384 286.87 13.592 286.87 13.816C286.87 14.424 286.731 14.9253 286.454 15.32C286.177 15.7147 285.803 16.008 285.334 16.2C284.875 16.392 284.358 16.488 283.782 16.488C283.633 16.488 283.473 16.4773 283.302 16.456C283.142 16.424 282.971 16.3813 282.79 16.328C282.683 16.4133 282.603 16.504 282.55 16.6C282.497 16.6853 282.47 16.808 282.47 16.968C282.47 17.1707 282.561 17.3253 282.742 17.432C282.934 17.5387 283.249 17.592 283.686 17.592H285.014C285.974 17.592 286.71 17.752 287.222 18.072C287.734 18.3813 287.99 18.8827 287.99 19.576C287.99 20.12 287.809 20.6053 287.446 21.032C287.094 21.4587 286.593 21.7947 285.942 22.04C285.291 22.2853 284.518 22.408 283.622 22.408ZM283.974 21.016C284.347 21.016 284.678 20.968 284.966 20.872C285.254 20.7867 285.478 20.6587 285.638 20.488C285.809 20.328 285.894 20.1467 285.894 19.944C285.894 19.6773 285.782 19.5013 285.558 19.416C285.345 19.3307 285.035 19.288 284.63 19.288H283.718C283.473 19.288 283.265 19.2773 283.094 19.256C282.923 19.2347 282.769 19.208 282.63 19.176C282.459 19.3147 282.331 19.4533 282.246 19.592C282.171 19.7307 282.134 19.88 282.134 20.04C282.134 20.36 282.299 20.6 282.63 20.76C282.971 20.9307 283.419 21.016 283.974 21.016ZM283.782 15.16C284.006 15.16 284.203 15.1067 284.374 15C284.555 14.8933 284.694 14.7333 284.79 14.52C284.897 14.3067 284.95 14.0507 284.95 13.752C284.95 13.4533 284.897 13.2027 284.79 13C284.694 12.7973 284.555 12.6427 284.374 12.536C284.203 12.4293 284.006 12.376 283.782 12.376C283.451 12.376 283.174 12.4933 282.95 12.728C282.726 12.9627 282.614 13.304 282.614 13.752C282.614 14.0507 282.662 14.3067 282.758 14.52C282.865 14.7333 283.003 14.8933 283.174 15C283.355 15.1067 283.558 15.16 283.782 15.16ZM292.81 19.192C292.064 19.192 291.386 19.0267 290.778 18.696C290.181 18.3653 289.706 17.896 289.354 17.288C289.002 16.6693 288.826 15.9227 288.826 15.048C288.826 14.1947 289.002 13.4587 289.354 12.84C289.717 12.2213 290.181 11.7413 290.746 11.4C291.312 11.0587 291.909 10.888 292.538 10.888C293.274 10.888 293.888 11.0533 294.378 11.384C294.88 11.7147 295.253 12.168 295.498 12.744C295.754 13.3093 295.882 13.9547 295.882 14.68C295.882 14.872 295.872 15.064 295.85 15.256C295.829 15.4373 295.808 15.576 295.786 15.672H290.554L290.538 14.216H293.994C293.994 13.7253 293.882 13.3307 293.658 13.032C293.434 12.7227 293.077 12.568 292.586 12.568C292.298 12.568 292.021 12.648 291.754 12.808C291.488 12.968 291.269 13.2347 291.098 13.608C290.928 13.9707 290.842 14.4507 290.842 15.048C290.842 15.656 290.949 16.1413 291.162 16.504C291.386 16.856 291.669 17.112 292.01 17.272C292.352 17.432 292.714 17.512 293.098 17.512C293.418 17.512 293.717 17.4693 293.994 17.384C294.282 17.288 294.57 17.1547 294.858 16.984L295.578 18.312C295.184 18.5787 294.741 18.792 294.25 18.952C293.77 19.112 293.29 19.192 292.81 19.192ZM297.525 19V11.08H299.317L299.477 12.104H299.541C299.882 11.7733 300.256 11.4907 300.661 11.256C301.077 11.0107 301.557 10.888 302.101 10.888C302.954 10.888 303.573 11.1707 303.957 11.736C304.352 12.3013 304.549 13.08 304.549 14.072V19H302.357V14.36C302.357 13.7627 302.272 13.3467 302.101 13.112C301.93 12.8773 301.664 12.76 301.301 12.76C300.981 12.76 300.709 12.8347 300.485 12.984C300.261 13.1227 300.005 13.3307 299.717 13.608V19H297.525ZM309.435 19.192C308.454 19.192 307.664 18.824 307.067 18.088C306.48 17.352 306.187 16.3387 306.187 15.048C306.187 14.184 306.342 13.4427 306.651 12.824C306.971 12.2053 307.382 11.7307 307.883 11.4C308.395 11.0587 308.934 10.888 309.499 10.888C309.947 10.888 310.32 10.9627 310.619 11.112C310.918 11.2613 311.206 11.4693 311.483 11.736L311.403 10.504V7.768H313.595V19H311.803L311.643 18.2H311.579C311.302 18.4773 310.971 18.712 310.587 18.904C310.214 19.096 309.83 19.192 309.435 19.192ZM309.995 17.4C310.272 17.4 310.523 17.3413 310.747 17.224C310.971 17.1067 311.19 16.9093 311.403 16.632V13.24C311.179 13.0373 310.944 12.8987 310.699 12.824C310.464 12.7387 310.23 12.696 309.995 12.696C309.718 12.696 309.462 12.7813 309.227 12.952C308.992 13.1227 308.8 13.384 308.651 13.736C308.512 14.0773 308.443 14.504 308.443 15.016C308.443 15.816 308.576 16.4133 308.843 16.808C309.12 17.2027 309.504 17.4 309.995 17.4Z" fill="white"/>
<path d="M264.592 19H263.592V20H264.592V19ZM264.592 8.568V7.568H263.592V8.568H264.592ZM266.784 8.568H267.784V7.568H266.784V8.568ZM266.784 17.16H265.784V18.16H266.784V17.16ZM270.976 17.16H271.976V16.16H270.976V17.16ZM270.976 19V20H271.976V19H270.976ZM265.592 19V8.568H263.592V19H265.592ZM264.592 9.568H266.784V7.568H264.592V9.568ZM265.784 8.568V17.16H267.784V8.568H265.784ZM266.784 18.16H270.976V16.16H266.784V18.16ZM269.976 17.16V19H271.976V17.16H269.976ZM270.976 18H264.592V20H270.976V18ZM274.075 18.696L273.591 19.5709L273.597 19.5745L274.075 18.696ZM272.651 17.288L271.782 17.7825L271.786 17.789L272.651 17.288ZM272.651 12.84L271.788 12.3342L271.782 12.3455L272.651 12.84ZM277.675 11.384L277.116 12.2133L277.125 12.2188L277.675 11.384ZM278.795 12.744L277.875 13.1359L277.88 13.1462L277.884 13.1565L278.795 12.744ZM279.147 15.256L280.14 15.3728L280.141 15.3664L279.147 15.256ZM279.083 15.672V16.672H279.885L280.059 15.8889L279.083 15.672ZM273.851 15.672L272.851 15.683L272.862 16.672H273.851V15.672ZM273.835 14.216V13.216H272.824L272.835 14.227L273.835 14.216ZM277.291 14.216V15.216H278.291V14.216H277.291ZM276.955 13.032L276.145 13.6185L276.15 13.6253L276.155 13.632L276.955 13.032ZM275.051 12.808L274.537 11.9505L275.051 12.808ZM274.395 13.608L275.3 14.0338L275.305 14.0238L274.395 13.608ZM274.459 16.504L273.597 17.011L273.606 17.0261L273.616 17.0409L274.459 16.504ZM275.307 17.272L275.732 16.3665L275.307 17.272ZM277.291 17.384L277.585 18.3398L277.596 18.3364L277.607 18.3327L277.291 17.384ZM278.155 16.984L279.034 16.5074L278.539 15.5941L277.645 16.1237L278.155 16.984ZM278.875 18.312L279.435 19.1406L280.187 18.6328L279.754 17.8354L278.875 18.312ZM277.547 18.952L277.237 18.0013L277.231 18.0033L277.547 18.952ZM276.107 18.192C275.514 18.192 275.003 18.0622 274.553 17.8175L273.597 19.5745C274.364 19.9911 275.207 20.192 276.107 20.192V18.192ZM274.56 17.8211C274.126 17.5809 273.781 17.2429 273.517 16.787L271.786 17.789C272.226 18.5491 272.83 19.1498 273.591 19.5709L274.56 17.8211ZM273.52 16.7935C273.272 16.3564 273.123 15.7886 273.123 15.048H271.123C271.123 16.0567 271.327 16.9823 271.782 17.7825L273.52 16.7935ZM273.123 15.048C273.123 14.3336 273.27 13.7751 273.52 13.3345L271.782 12.3455C271.329 13.1422 271.123 14.0557 271.123 15.048H273.123ZM273.514 13.3457C273.8 12.8582 274.15 12.504 274.56 12.2561L273.526 10.5439C272.806 10.9787 272.228 11.5845 271.789 12.3343L273.514 13.3457ZM274.56 12.2561C274.978 12.004 275.397 11.888 275.835 11.888V9.888C275.015 9.888 274.24 10.1133 273.526 10.5439L274.56 12.2561ZM275.835 11.888C276.421 11.888 276.827 12.0183 277.116 12.2133L278.234 10.5547C277.542 10.0883 276.722 9.888 275.835 9.888V11.888ZM277.125 12.2188C277.455 12.4365 277.703 12.7325 277.875 13.1359L279.715 12.3521C279.396 11.6035 278.898 10.9928 278.226 10.5492L277.125 12.2188ZM277.884 13.1565C278.073 13.5722 278.179 14.0731 278.179 14.68H280.179C280.179 13.8362 280.03 13.0465 279.706 12.3315L277.884 13.1565ZM278.179 14.68C278.179 14.8349 278.171 14.99 278.153 15.1456L280.141 15.3664C280.167 15.138 280.179 14.9091 280.179 14.68H278.179ZM278.154 15.1392C278.134 15.3101 278.117 15.409 278.107 15.4551L280.059 15.8889C280.092 15.743 280.118 15.5646 280.14 15.3728L278.154 15.1392ZM279.083 14.672H273.851V16.672H279.083V14.672ZM274.851 15.661L274.835 14.205L272.835 14.227L272.851 15.683L274.851 15.661ZM273.835 15.216H277.291V13.216H273.835V15.216ZM278.291 14.216C278.291 13.5768 278.145 12.9512 277.755 12.432L276.155 13.632C276.214 13.7102 276.291 13.8738 276.291 14.216H278.291ZM277.765 12.4455C277.301 11.8042 276.594 11.568 275.883 11.568V13.568C276.026 13.568 276.097 13.5908 276.122 13.6017C276.139 13.6092 276.141 13.6123 276.145 13.6185L277.765 12.4455ZM275.883 11.568C275.4 11.568 274.946 11.705 274.537 11.9505L275.566 13.6655C275.69 13.591 275.791 13.568 275.883 13.568V11.568ZM274.537 11.9505C274.049 12.2431 273.714 12.6932 273.486 13.1922L275.305 14.0238C275.418 13.7762 275.52 13.6929 275.566 13.6655L274.537 11.9505ZM273.49 13.1822C273.234 13.7271 273.139 14.3694 273.139 15.048H275.139C275.139 14.5319 275.215 14.2143 275.3 14.0338L273.49 13.1822ZM273.139 15.048C273.139 15.7597 273.262 16.4411 273.597 17.011L275.321 15.997C275.23 15.8416 275.139 15.5523 275.139 15.048H273.139ZM273.616 17.0409C273.93 17.5353 274.352 17.9284 274.883 18.1775L275.732 16.3665C275.58 16.2956 275.436 16.1767 275.303 15.9671L273.616 17.0409ZM274.883 18.1775C275.36 18.4009 275.867 18.512 276.395 18.512V16.512C276.155 16.512 275.938 16.4631 275.732 16.3665L274.883 18.1775ZM276.395 18.512C276.805 18.512 277.203 18.4573 277.585 18.3398L276.997 16.4282C276.824 16.4814 276.626 16.512 276.395 16.512V18.512ZM277.607 18.3327C277.969 18.212 278.322 18.0476 278.665 17.8443L277.645 16.1237C277.412 16.2618 277.189 16.364 276.975 16.4353L277.607 18.3327ZM277.276 17.4606L277.996 18.7886L279.754 17.8354L279.034 16.5074L277.276 17.4606ZM278.315 17.4834C278.004 17.6938 277.647 17.8678 277.237 18.0013L277.857 19.9027C278.429 19.7162 278.957 19.4636 279.435 19.1406L278.315 17.4834ZM277.231 18.0033C276.847 18.1312 276.474 18.192 276.107 18.192V20.192C276.7 20.192 277.287 20.0928 277.863 19.9007L277.231 18.0033ZM281.942 22.184L282.227 21.2256L282.218 21.2228L282.209 21.2202L281.942 22.184ZM280.758 21.528L280.038 22.2221L280.758 21.528ZM280.614 19.464L279.818 18.8589L279.804 18.8766L279.792 18.8948L280.614 19.464ZM281.446 18.76L281.945 19.6266L282.446 19.3381V18.76H281.446ZM281.446 18.696H282.446V18.1847L282.031 17.8853L281.446 18.696ZM280.934 18.168L280.084 18.6944L280.099 18.7183L280.115 18.7415L280.934 18.168ZM280.982 16.536L280.155 15.9737L280.15 15.9813L280.982 16.536ZM281.606 15.88L282.194 16.6887L282.606 16.3892V15.88H281.606ZM281.606 15.816H282.606V15.32L282.211 15.0198L281.606 15.816ZM280.87 14.984L280.008 15.491L280.017 15.5061L280.026 15.5209L280.87 14.984ZM280.998 12.184L280.188 11.597L280.186 11.6008L280.998 12.184ZM282.198 11.224L282.597 12.1411L282.605 12.1375L282.613 12.1337L282.198 11.224ZM284.422 10.952L284.216 11.9305L284.245 11.9366L284.274 11.9409L284.422 10.952ZM284.998 11.08L284.7 12.0345L284.845 12.08H284.998V11.08ZM287.862 11.08H288.862V10.08H287.862V11.08ZM287.862 12.696V13.696H288.862V12.696H287.862ZM286.534 12.696V11.696H284.534L285.734 13.296L286.534 12.696ZM286.774 13.192L285.82 13.4931L285.823 13.5007L285.825 13.5082L286.774 13.192ZM286.454 15.32L287.272 15.8949L287.272 15.8949L286.454 15.32ZM285.334 16.2L284.955 15.2744L284.948 15.2776L285.334 16.2ZM283.302 16.456L283.106 17.4366L283.142 17.4437L283.178 17.4483L283.302 16.456ZM282.79 16.328L283.072 15.3686L282.572 15.2216L282.165 15.5471L282.79 16.328ZM282.55 16.6L283.398 17.13L283.412 17.1082L283.424 17.0856L282.55 16.6ZM282.742 17.432L282.235 18.2939L282.246 18.3002L282.256 18.3062L282.742 17.432ZM287.222 18.072L286.692 18.92L286.698 18.924L286.705 18.9279L287.222 18.072ZM287.446 21.032L286.684 20.3844L286.679 20.3899L286.675 20.3956L287.446 21.032ZM285.942 22.04L286.295 22.9757L285.942 22.04ZM284.966 20.872L284.682 19.9132L284.666 19.918L284.65 19.9233L284.966 20.872ZM285.638 20.488L284.954 19.7585L284.931 19.7805L284.908 19.8041L285.638 20.488ZM285.558 19.416L285.187 20.3445L285.194 20.3475L285.202 20.3505L285.558 19.416ZM282.63 19.176L282.855 18.2016L282.379 18.0917L281.999 18.3999L282.63 19.176ZM282.246 19.592L281.394 19.0679L281.379 19.0925L281.366 19.1179L282.246 19.592ZM282.63 20.76L283.077 19.8655L283.066 19.8598L282.63 20.76ZM284.374 15L283.867 14.1381L283.855 14.1449L283.844 14.152L284.374 15ZM284.79 14.52L283.896 14.0728L283.886 14.091L283.878 14.1096L284.79 14.52ZM284.79 13L283.886 13.4281L283.895 13.4471L283.905 13.4657L284.79 13ZM284.374 12.536L283.844 13.384L283.855 13.3911L283.867 13.3979L284.374 12.536ZM282.95 12.728L282.227 12.0375L282.95 12.728ZM282.758 14.52L281.846 14.9304L281.854 14.949L281.864 14.9672L282.758 14.52ZM283.174 15L282.644 15.848L282.655 15.8551L282.667 15.8619L283.174 15ZM283.622 21.408C283.083 21.408 282.621 21.3429 282.227 21.2256L281.657 23.1424C282.266 23.3238 282.924 23.408 283.622 23.408V21.408ZM282.209 21.2202C281.836 21.1173 281.614 20.9748 281.478 20.8339L280.038 22.2221C280.478 22.6785 281.045 22.9734 281.675 23.1478L282.209 21.2202ZM281.478 20.8339C281.394 20.7465 281.326 20.6232 281.326 20.376H279.326C279.326 21.0674 279.546 21.7122 280.038 22.2221L281.478 20.8339ZM281.326 20.376C281.326 20.2531 281.357 20.1469 281.436 20.0332L279.792 18.8948C279.487 19.3358 279.326 19.8376 279.326 20.376H281.326ZM281.41 20.0691C281.517 19.9285 281.684 19.7766 281.945 19.6266L280.947 17.8934C280.504 18.1487 280.116 18.4661 279.818 18.8589L281.41 20.0691ZM282.446 18.76V18.696H280.446V18.76H282.446ZM282.031 17.8853C281.939 17.8183 281.845 17.7254 281.753 17.5945L280.115 18.7415C280.322 19.0373 280.569 19.2964 280.861 19.5067L282.031 17.8853ZM281.784 17.6416C281.763 17.6067 281.726 17.5261 281.726 17.352H279.726C279.726 17.8179 279.828 18.2813 280.084 18.6944L281.784 17.6416ZM281.726 17.352C281.726 17.2751 281.745 17.1942 281.814 17.0907L280.15 15.9813C279.878 16.3898 279.726 16.8529 279.726 17.352H281.726ZM281.809 17.0983C281.933 16.9164 282.062 16.7845 282.194 16.6887L281.018 15.0713C280.68 15.3168 280.394 15.6223 280.155 15.9737L281.809 17.0983ZM282.606 15.88V15.816H280.606V15.88H282.606ZM282.211 15.0198C282.059 14.904 281.889 14.7229 281.714 14.4471L280.026 15.5209C280.299 15.9491 280.62 16.3227 281.001 16.6122L282.211 15.0198ZM281.732 14.477C281.617 14.2817 281.55 14.0489 281.55 13.752H279.55C279.55 14.3724 279.696 14.961 280.008 15.491L281.732 14.477ZM281.55 13.752C281.55 13.2833 281.659 12.9776 281.81 12.7672L280.186 11.6008C279.739 12.2224 279.55 12.9621 279.55 13.752H281.55ZM281.808 12.771C282.01 12.4914 282.267 12.2842 282.597 12.1411L281.799 10.3069C281.147 10.5904 280.604 11.0233 280.188 11.597L281.808 12.771ZM282.613 12.1337C282.967 11.9721 283.353 11.888 283.782 11.888V9.888C283.08 9.888 282.41 10.0279 281.783 10.3143L282.613 12.1337ZM283.782 11.888C283.942 11.888 284.086 11.9032 284.216 11.9305L284.628 9.97345C284.352 9.91542 284.07 9.888 283.782 9.888V11.888ZM284.274 11.9409C284.446 11.9668 284.587 11.9992 284.7 12.0345L285.296 10.1255C285.068 10.0541 284.824 10.0012 284.57 9.96306L284.274 11.9409ZM284.998 12.08H287.862V10.08H284.998V12.08ZM286.862 11.08V12.696H288.862V11.08H286.862ZM287.862 11.696H286.534V13.696H287.862V11.696ZM285.734 13.296C285.744 13.3096 285.78 13.3649 285.82 13.4931L287.728 12.8909C287.64 12.6138 287.516 12.3384 287.334 12.096L285.734 13.296ZM285.825 13.5082C285.852 13.588 285.87 13.6881 285.87 13.816H287.87C287.87 13.4959 287.824 13.18 287.723 12.8758L285.825 13.5082ZM285.87 13.816C285.87 14.2721 285.767 14.558 285.636 14.7451L287.272 15.8949C287.695 15.2926 287.87 14.5759 287.87 13.816H285.87ZM285.636 14.7451C285.474 14.975 285.257 15.151 284.955 15.2745L285.713 17.1255C286.349 16.865 286.879 16.4543 287.272 15.8949L285.636 14.7451ZM284.948 15.2776C284.629 15.4109 284.246 15.488 283.782 15.488V17.488C284.47 17.488 285.121 17.3731 285.72 17.1224L284.948 15.2776ZM283.782 15.488C283.68 15.488 283.562 15.4807 283.426 15.4637L283.178 17.4483C283.384 17.474 283.586 17.488 283.782 17.488V15.488ZM283.498 15.4754C283.371 15.45 283.229 15.4149 283.072 15.3686L282.508 17.2874C282.713 17.3478 282.913 17.398 283.106 17.4366L283.498 15.4754ZM282.165 15.5471C281.981 15.6946 281.806 15.8806 281.676 16.1144L283.424 17.0856C283.413 17.1066 283.403 17.1183 283.4 17.1216C283.397 17.1247 283.401 17.12 283.415 17.1089L282.165 15.5471ZM281.702 16.07C281.507 16.3822 281.47 16.7213 281.47 16.968H283.47C283.47 16.941 283.472 16.944 283.467 16.9684C283.462 16.9929 283.445 17.0543 283.398 17.13L281.702 16.07ZM281.47 16.968C281.47 17.5413 281.762 18.016 282.235 18.2939L283.249 16.5701C283.28 16.5881 283.346 16.6368 283.401 16.7303C283.457 16.8255 283.47 16.9152 283.47 16.968H281.47ZM282.256 18.3062C282.683 18.5431 283.216 18.592 283.686 18.592V16.592C283.504 16.592 283.375 16.5807 283.289 16.5661C283.197 16.5505 283.191 16.5373 283.228 16.5578L282.256 18.3062ZM283.686 18.592H285.014V16.592H283.686V18.592ZM285.014 18.592C285.887 18.592 286.407 18.7418 286.692 18.92L287.752 17.224C287.013 16.7622 286.061 16.592 285.014 16.592V18.592ZM286.705 18.9279C286.865 19.0245 286.99 19.1669 286.99 19.576H288.99C288.99 18.5984 288.603 17.7382 287.739 17.2161L286.705 18.9279ZM286.99 19.576C286.99 19.8752 286.898 20.1327 286.684 20.3844L288.208 21.6796C288.719 21.078 288.99 20.3648 288.99 19.576H286.99ZM286.675 20.3956C286.459 20.6573 286.118 20.9049 285.589 21.1043L286.295 22.9757C287.067 22.6844 287.729 22.2601 288.217 21.6684L286.675 20.3956ZM285.589 21.1043C285.079 21.2968 284.431 21.408 283.622 21.408V23.408C284.605 23.408 285.504 23.2738 286.295 22.9757L285.589 21.1043ZM283.974 22.016C284.431 22.016 284.872 21.9574 285.282 21.8207L284.65 19.9233C284.484 19.9786 284.264 20.016 283.974 20.016V22.016ZM285.25 21.8308C285.661 21.7091 286.056 21.504 286.368 21.1719L284.908 19.8041C284.9 19.8133 284.847 19.8643 284.682 19.9132L285.25 21.8308ZM286.322 21.2175C286.66 20.9004 286.894 20.4665 286.894 19.944H284.894C284.894 19.8998 284.904 19.8503 284.925 19.8062C284.944 19.7652 284.962 19.7506 284.954 19.7585L286.322 21.2175ZM286.894 19.944C286.894 19.6729 286.837 19.3627 286.654 19.0751C286.465 18.7793 286.196 18.5889 285.914 18.4815L285.202 20.3505C285.144 20.3284 285.043 20.2687 284.966 20.1489C284.895 20.0373 284.894 19.9485 284.894 19.944H286.894ZM285.929 18.4875C285.54 18.3318 285.08 18.288 284.63 18.288V20.288C284.99 20.288 285.149 20.3295 285.187 20.3445L285.929 18.4875ZM284.63 18.288H283.718V20.288H284.63V18.288ZM283.718 18.288C283.498 18.288 283.334 18.2783 283.218 18.2637L282.97 20.2483C283.195 20.2764 283.447 20.288 283.718 20.288V18.288ZM283.218 18.2637C283.075 18.2458 282.954 18.2245 282.855 18.2016L282.405 20.1504C282.583 20.1915 282.772 20.2235 282.97 20.2483L283.218 18.2637ZM281.999 18.3999C281.77 18.5863 281.555 18.8064 281.394 19.0679L283.098 20.1161C283.107 20.1003 283.149 20.043 283.261 19.9521L281.999 18.3999ZM281.366 19.1179C281.211 19.4047 281.134 19.7173 281.134 20.04H283.134C283.134 20.0385 283.134 20.0428 283.132 20.0505C283.13 20.0583 283.128 20.064 283.126 20.0661L281.366 19.1179ZM281.134 20.04C281.134 20.3818 281.226 20.7241 281.434 21.0273C281.638 21.3226 281.913 21.524 282.194 21.6602L283.066 19.8598C283.016 19.836 283.043 19.8374 283.082 19.8927C283.1 19.9198 283.115 19.9507 283.124 19.9818C283.133 20.0121 283.134 20.0333 283.134 20.04H281.134ZM282.183 21.6544C282.711 21.9188 283.329 22.016 283.974 22.016V20.016C283.509 20.016 283.231 19.9426 283.077 19.8656L282.183 21.6544ZM283.782 16.16C284.172 16.16 284.557 16.065 284.904 15.848L283.844 14.152C283.843 14.1524 283.842 14.1532 283.837 14.1546C283.831 14.1562 283.814 14.16 283.782 14.16V16.16ZM284.881 15.8619C285.261 15.6386 285.531 15.3104 285.702 14.9304L283.878 14.1096C283.872 14.1234 283.867 14.1325 283.863 14.1378C283.862 14.1405 283.86 14.1423 283.86 14.1435C283.859 14.1446 283.858 14.1451 283.858 14.1451C283.858 14.1451 283.858 14.145 283.859 14.1448C283.859 14.1446 283.859 14.1444 283.859 14.1441C283.86 14.1434 283.861 14.1426 283.862 14.1418C283.864 14.14 283.866 14.1387 283.867 14.1381L284.881 15.8619ZM285.684 14.9672C285.876 14.5845 285.95 14.1677 285.95 13.752H283.95C283.95 13.9337 283.918 14.0289 283.896 14.0728L285.684 14.9672ZM285.95 13.752C285.95 13.3388 285.877 12.9175 285.675 12.5343L283.905 13.4657C283.917 13.4878 283.95 13.5679 283.95 13.752H285.95ZM285.694 12.5719C285.518 12.2007 285.247 11.8892 284.881 11.6741L283.867 13.3979C283.869 13.3992 283.87 13.3998 283.869 13.3995C283.869 13.3993 283.869 13.3992 283.869 13.3995C283.87 13.3997 283.876 13.4069 283.886 13.4281L285.694 12.5719ZM284.904 11.688C284.557 11.471 284.172 11.376 283.782 11.376V13.376C283.814 13.376 283.831 13.3798 283.837 13.3814C283.842 13.3828 283.843 13.3836 283.844 13.384L284.904 11.688ZM283.782 11.376C283.184 11.376 282.643 11.6009 282.227 12.0375L283.673 13.4185C283.698 13.3922 283.712 13.3864 283.716 13.385C283.719 13.3834 283.737 13.376 283.782 13.376V11.376ZM282.227 12.0375C281.767 12.5194 281.614 13.1461 281.614 13.752H283.614C283.614 13.6089 283.632 13.5205 283.648 13.4718C283.656 13.4482 283.663 13.4346 283.667 13.4279C283.671 13.4215 283.673 13.4191 283.673 13.4185L282.227 12.0375ZM281.614 13.752C281.614 14.1544 281.678 14.5576 281.846 14.9304L283.67 14.1096C283.646 14.0558 283.614 13.9469 283.614 13.752H281.614ZM281.864 14.9672C282.037 15.3144 282.29 15.6271 282.644 15.848L283.704 14.152C283.707 14.1541 283.705 14.1538 283.698 14.1451C283.689 14.1356 283.673 14.114 283.652 14.0728L281.864 14.9672ZM282.667 15.8619C283.012 16.0649 283.392 16.16 283.782 16.16V14.16C283.724 14.16 283.699 14.1484 283.681 14.1381L282.667 15.8619ZM290.778 18.696L290.294 19.5709L290.301 19.5745L290.778 18.696ZM289.354 17.288L288.485 17.7825L288.489 17.789L289.354 17.288ZM289.354 12.84L288.492 12.3342L288.485 12.3455L289.354 12.84ZM294.378 11.384L293.819 12.2133L293.828 12.2188L294.378 11.384ZM295.498 12.744L294.578 13.1359L294.583 13.1462L294.587 13.1565L295.498 12.744ZM295.85 15.256L296.844 15.3728L296.844 15.3664L295.85 15.256ZM295.786 15.672V16.672H296.589L296.763 15.8889L295.786 15.672ZM290.554 15.672L289.554 15.683L289.565 16.672H290.554V15.672ZM290.538 14.216V13.216H289.527L289.538 14.227L290.538 14.216ZM293.994 14.216V15.216H294.994V14.216H293.994ZM293.658 13.032L292.848 13.6185L292.853 13.6253L292.858 13.632L293.658 13.032ZM291.754 12.808L291.24 11.9505L291.754 12.808ZM291.098 13.608L292.003 14.0338L292.008 14.0238L291.098 13.608ZM291.162 16.504L290.3 17.011L290.309 17.0261L290.319 17.0409L291.162 16.504ZM292.01 17.272L292.435 16.3665L292.01 17.272ZM293.994 17.384L294.288 18.3398L294.3 18.3364L294.311 18.3327L293.994 17.384ZM294.858 16.984L295.737 16.5074L295.242 15.5941L294.349 16.1237L294.858 16.984ZM295.578 18.312L296.138 19.1406L296.89 18.6328L296.457 17.8354L295.578 18.312ZM294.25 18.952L293.94 18.0013L293.934 18.0033L294.25 18.952ZM292.81 18.192C292.217 18.192 291.706 18.0622 291.256 17.8175L290.301 19.5745C291.067 19.9911 291.91 20.192 292.81 20.192V18.192ZM291.263 17.8211C290.829 17.5809 290.484 17.2429 290.22 16.787L288.489 17.789C288.929 18.5491 289.533 19.1498 290.294 19.5709L291.263 17.8211ZM290.224 16.7935C289.975 16.3564 289.826 15.7886 289.826 15.048H287.826C287.826 16.0567 288.03 16.9823 288.485 17.7825L290.224 16.7935ZM289.826 15.048C289.826 14.3336 289.973 13.7751 290.224 13.3345L288.485 12.3455C288.032 13.1422 287.826 14.0557 287.826 15.048H289.826ZM290.217 13.3457C290.503 12.8582 290.853 12.504 291.263 12.2561L290.23 10.5439C289.509 10.9787 288.931 11.5845 288.492 12.3343L290.217 13.3457ZM291.263 12.2561C291.681 12.004 292.1 11.888 292.538 11.888V9.888C291.718 9.888 290.943 10.1133 290.23 10.5439L291.263 12.2561ZM292.538 11.888C293.124 11.888 293.53 12.0183 293.82 12.2133L294.937 10.5547C294.245 10.0883 293.425 9.888 292.538 9.888V11.888ZM293.828 12.2188C294.158 12.4365 294.407 12.7325 294.578 13.1359L296.418 12.3521C296.1 11.6035 295.601 10.9928 294.929 10.5492L293.828 12.2188ZM294.587 13.1565C294.776 13.5722 294.882 14.0731 294.882 14.68H296.882C296.882 13.8362 296.733 13.0465 296.409 12.3315L294.587 13.1565ZM294.882 14.68C294.882 14.8349 294.874 14.99 294.856 15.1456L296.844 15.3664C296.87 15.138 296.882 14.9091 296.882 14.68H294.882ZM294.857 15.1392C294.837 15.3101 294.82 15.409 294.81 15.4551L296.763 15.8889C296.795 15.743 296.821 15.5646 296.844 15.3728L294.857 15.1392ZM295.786 14.672H290.554V16.672H295.786V14.672ZM291.554 15.661L291.538 14.205L289.538 14.227L289.554 15.683L291.554 15.661ZM290.538 15.216H293.994V13.216H290.538V15.216ZM294.994 14.216C294.994 13.5768 294.848 12.9512 294.458 12.432L292.858 13.632C292.917 13.7102 292.994 13.8738 292.994 14.216H294.994ZM294.468 12.4455C294.004 11.8042 293.297 11.568 292.586 11.568V13.568C292.729 13.568 292.8 13.5908 292.825 13.6017C292.842 13.6092 292.844 13.6123 292.848 13.6185L294.468 12.4455ZM292.586 11.568C292.103 11.568 291.649 11.705 291.24 11.9505L292.269 13.6655C292.393 13.591 292.494 13.568 292.586 13.568V11.568ZM291.24 11.9505C290.752 12.2431 290.417 12.6932 290.189 13.1922L292.008 14.0238C292.121 13.7762 292.223 13.6929 292.269 13.6655L291.24 11.9505ZM290.194 13.1822C289.937 13.7271 289.842 14.3694 289.842 15.048H291.842C291.842 14.5319 291.918 14.2143 292.003 14.0338L290.194 13.1822ZM289.842 15.048C289.842 15.7597 289.965 16.4411 290.3 17.011L292.024 15.997C291.933 15.8416 291.842 15.5523 291.842 15.048H289.842ZM290.319 17.0409C290.633 17.5353 291.055 17.9284 291.586 18.1775L292.435 16.3665C292.283 16.2956 292.139 16.1767 292.006 15.9671L290.319 17.0409ZM291.586 18.1775C292.063 18.4009 292.57 18.512 293.098 18.512V16.512C292.858 16.512 292.641 16.4631 292.435 16.3665L291.586 18.1775ZM293.098 18.512C293.508 18.512 293.907 18.4573 294.288 18.3398L293.7 16.4282C293.527 16.4814 293.329 16.512 293.098 16.512V18.512ZM294.311 18.3327C294.673 18.212 295.025 18.0476 295.368 17.8443L294.349 16.1237C294.116 16.2618 293.892 16.364 293.678 16.4353L294.311 18.3327ZM293.979 17.4606L294.699 18.7886L296.457 17.8354L295.737 16.5074L293.979 17.4606ZM295.019 17.4834C294.707 17.6938 294.35 17.8678 293.94 18.0013L294.56 19.9027C295.132 19.7162 295.66 19.4636 296.138 19.1406L295.019 17.4834ZM293.934 18.0033C293.551 18.1312 293.177 18.192 292.81 18.192V20.192C293.404 20.192 293.99 20.0928 294.567 19.9007L293.934 18.0033ZM297.525 19H296.525V20H297.525V19ZM297.525 11.08V10.08H296.525V11.08H297.525ZM299.317 11.08L300.305 10.9256L300.173 10.08H299.317V11.08ZM299.477 12.104L298.489 12.2584L298.621 13.104H299.477V12.104ZM299.541 12.104V13.104H299.946L300.237 12.8222L299.541 12.104ZM300.661 11.256L301.162 12.1215L301.169 12.1174L300.661 11.256ZM303.957 11.736L303.13 12.2979L303.137 12.3084L303.957 11.736ZM304.549 19V20H305.549V19H304.549ZM302.357 19H301.357V20H302.357V19ZM302.101 13.112L302.91 12.5238L302.101 13.112ZM300.485 12.984L301.011 13.8343L301.026 13.8254L301.04 13.816L300.485 12.984ZM299.717 13.608L299.023 12.8877L298.717 13.1827V13.608H299.717ZM299.717 19V20H300.717V19H299.717ZM298.525 19V11.08H296.525V19H298.525ZM297.525 12.08H299.317V10.08H297.525V12.08ZM298.329 11.2344L298.489 12.2584L300.465 11.9496L300.305 10.9256L298.329 11.2344ZM299.477 13.104H299.541V11.104H299.477V13.104ZM300.237 12.8222C300.52 12.5476 300.829 12.3146 301.162 12.1214L300.16 10.3906C299.683 10.6668 299.244 10.9991 298.845 11.3858L300.237 12.8222ZM301.169 12.1174C301.412 11.9738 301.713 11.888 302.101 11.888V9.888C301.402 9.888 300.742 10.0475 300.153 10.3946L301.169 12.1174ZM302.101 11.888C302.716 11.888 302.979 12.0755 303.13 12.2979L304.784 11.1741C304.167 10.2658 303.193 9.888 302.101 9.888V11.888ZM303.137 12.3084C303.373 12.6469 303.549 13.1987 303.549 14.072H305.549C305.549 12.9613 305.33 11.9557 304.777 11.1636L303.137 12.3084ZM303.549 14.072V19H305.549V14.072H303.549ZM304.549 18H302.357V20H304.549V18ZM303.357 19V14.36H301.357V19H303.357ZM303.357 14.36C303.357 13.7352 303.281 13.0344 302.91 12.5238L301.292 13.7002C301.264 13.6614 301.287 13.6732 301.314 13.8009C301.338 13.9222 301.357 14.1039 301.357 14.36H303.357ZM302.91 12.5238C302.504 11.9659 301.895 11.76 301.301 11.76V13.76C301.377 13.76 301.391 13.7724 301.37 13.7633C301.36 13.7586 301.344 13.7502 301.328 13.737C301.312 13.7238 301.3 13.7104 301.292 13.7002L302.91 12.5238ZM301.301 11.76C300.822 11.76 300.348 11.8738 299.93 12.1519L301.04 13.816C301.071 13.7955 301.141 13.76 301.301 13.76V11.76ZM299.959 12.1337C299.652 12.3235 299.339 12.5837 299.023 12.8877L300.411 14.3283C300.671 14.0776 300.87 13.9218 301.011 13.8343L299.959 12.1337ZM298.717 13.608V19H300.717V13.608H298.717ZM299.717 18H297.525V20H299.717V18ZM307.067 18.088L306.285 18.7113L306.29 18.7182L307.067 18.088ZM306.651 12.824L305.763 12.3645L305.756 12.3768L306.651 12.824ZM307.883 11.4L308.433 12.2348L308.438 12.232L307.883 11.4ZM310.619 11.112L310.172 12.0064L310.619 11.112ZM311.483 11.736L310.79 12.4568L312.648 14.2434L312.481 11.6712L311.483 11.736ZM311.403 10.504H310.403V10.5364L310.405 10.5688L311.403 10.504ZM311.403 7.768V6.768H310.403V7.768H311.403ZM313.595 7.768H314.595V6.768H313.595V7.768ZM313.595 19V20H314.595V19H313.595ZM311.803 19L310.822 19.1961L310.983 20H311.803V19ZM311.643 18.2L312.623 18.0039L312.463 17.2H311.643V18.2ZM311.579 18.2V17.2H311.165L310.872 17.4929L311.579 18.2ZM310.587 18.904L310.14 18.0095L310.13 18.0147L310.587 18.904ZM310.747 17.224L310.283 16.3382L310.747 17.224ZM311.403 16.632L312.195 17.2417L312.403 16.9721V16.632H311.403ZM311.403 13.24H312.403V12.7962L312.074 12.4985L311.403 13.24ZM310.699 12.824L310.357 13.7638L310.382 13.7729L310.408 13.7807L310.699 12.824ZM308.651 13.736L307.73 13.3454L307.727 13.3525L307.724 13.3596L308.651 13.736ZM308.843 16.808L308.014 17.3679L308.019 17.3754L308.025 17.3829L308.843 16.808ZM309.435 18.192C308.743 18.192 308.243 17.9505 307.843 17.4578L306.29 18.7182C307.085 19.6975 308.165 20.192 309.435 20.192V18.192ZM307.849 17.4647C307.448 16.9615 307.187 16.1955 307.187 15.048H305.187C305.187 16.4818 305.513 17.7425 306.285 18.7113L307.849 17.4647ZM307.187 15.048C307.187 14.3015 307.321 13.7208 307.545 13.2712L305.756 12.3768C305.363 13.1646 305.187 14.0665 305.187 15.048H307.187ZM307.539 13.2834C307.793 12.7922 308.096 12.4572 308.433 12.2348L307.332 10.5652C306.667 11.0042 306.149 11.6185 305.763 12.3646L307.539 13.2834ZM308.438 12.232C308.8 11.9901 309.148 11.888 309.499 11.888V9.888C308.719 9.888 307.989 10.1272 307.328 10.5679L308.438 12.232ZM309.499 11.888C309.842 11.888 310.051 11.9461 310.172 12.0064L311.066 10.2176C310.589 9.97926 310.052 9.888 309.499 9.888V11.888ZM310.172 12.0064C310.368 12.1044 310.574 12.2497 310.79 12.4568L312.176 11.0152C311.837 10.689 311.468 10.4183 311.066 10.2176L310.172 12.0064ZM312.481 11.6712L312.401 10.4392L310.405 10.5688L310.485 11.8008L312.481 11.6712ZM312.403 10.504V7.768H310.403V10.504H312.403ZM311.403 8.768H313.595V6.768H311.403V8.768ZM312.595 7.768V19H314.595V7.768H312.595ZM313.595 18H311.803V20H313.595V18ZM312.783 18.8039L312.623 18.0039L310.662 18.3961L310.822 19.1961L312.783 18.8039ZM311.643 17.2H311.579V19.2H311.643V17.2ZM310.872 17.4929C310.677 17.6874 310.437 17.8611 310.14 18.0096L311.034 19.7984C311.505 19.5629 311.926 19.2673 312.286 18.9071L310.872 17.4929ZM310.13 18.0147C309.888 18.1387 309.66 18.192 309.435 18.192V20.192C309.999 20.192 310.539 20.0533 311.044 19.7933L310.13 18.0147ZM309.995 18.4C310.418 18.4 310.83 18.3092 311.211 18.1098L310.283 16.3382C310.216 16.3734 310.127 16.4 309.995 16.4V18.4ZM311.211 18.1098C311.602 17.9047 311.926 17.5925 312.195 17.2417L310.61 16.0223C310.453 16.2262 310.339 16.3086 310.283 16.3382L311.211 18.1098ZM312.403 16.632V13.24H310.403V16.632H312.403ZM312.074 12.4985C311.76 12.2144 311.399 11.9918 310.99 11.8673L310.408 13.7807C310.489 13.8055 310.598 13.8602 310.732 13.9815L312.074 12.4985ZM311.041 11.8842C310.703 11.7616 310.353 11.696 309.995 11.696V13.696C310.106 13.696 310.225 13.7157 310.357 13.7638L311.041 11.8842ZM309.995 11.696C309.496 11.696 309.036 11.8544 308.639 12.1433L309.815 13.7607C309.887 13.7082 309.939 13.696 309.995 13.696V11.696ZM308.639 12.1433C308.218 12.4494 307.929 12.8782 307.73 13.3454L309.571 14.1265C309.672 13.8898 309.767 13.7959 309.815 13.7607L308.639 12.1433ZM307.724 13.3596C307.522 13.8573 307.443 14.4218 307.443 15.016H309.443C309.443 14.5862 309.502 14.2974 309.577 14.1124L307.724 13.3596ZM307.443 15.016C307.443 15.8939 307.583 16.7297 308.014 17.3679L309.671 16.2481C309.569 16.0969 309.443 15.7381 309.443 15.016H307.443ZM308.025 17.3829C308.493 18.0495 309.185 18.4 309.995 18.4V16.4C309.823 16.4 309.747 16.3558 309.661 16.2331L308.025 17.3829Z" fill="#0B1739" mask="url(#path-1-outside-1_201_2483)"/>
<rect x="235" y="38" width="16" height="16" rx="8" fill="#440154"/>
<path d="M260.992 50L259.288 42.116H260.212L261.076 46.496C261.156 46.92 261.236 47.344 261.316 47.768C261.396 48.192 261.476 48.62 261.556 49.052H261.604C261.692 48.62 261.784 48.192 261.88 47.768C261.984 47.344 262.08 46.92 262.168 46.496L263.308 42.116H264.124L265.252 46.496C265.356 46.92 265.456 47.344 265.552 47.768C265.648 48.192 265.744 48.62 265.84 49.052H265.888C265.968 48.62 266.044 48.192 266.116 47.768C266.196 47.344 266.276 46.92 266.356 46.496L267.22 42.116H268.084L266.416 50H265.36L264.1 45.092C264.036 44.78 263.972 44.48 263.908 44.192C263.844 43.904 263.78 43.608 263.716 43.304H263.668C263.604 43.608 263.536 43.904 263.464 44.192C263.4 44.48 263.332 44.78 263.26 45.092L262.036 50H260.992ZM271.627 50.144C271.155 50.144 270.715 50.024 270.307 49.784C269.899 49.544 269.571 49.2 269.323 48.752C269.075 48.296 268.951 47.744 268.951 47.096C268.951 46.448 269.075 45.896 269.323 45.44C269.571 44.984 269.899 44.636 270.307 44.396C270.715 44.156 271.155 44.036 271.627 44.036C272.099 44.036 272.535 44.156 272.935 44.396C273.343 44.636 273.671 44.984 273.919 45.44C274.175 45.896 274.303 46.448 274.303 47.096C274.303 47.744 274.175 48.296 273.919 48.752C273.671 49.2 273.343 49.544 272.935 49.784C272.535 50.024 272.099 50.144 271.627 50.144ZM271.627 49.412C271.979 49.412 272.287 49.316 272.551 49.124C272.823 48.932 273.031 48.664 273.175 48.32C273.327 47.968 273.403 47.56 273.403 47.096C273.403 46.64 273.327 46.236 273.175 45.884C273.031 45.532 272.823 45.26 272.551 45.068C272.287 44.868 271.979 44.768 271.627 44.768C271.283 44.768 270.975 44.868 270.703 45.068C270.439 45.26 270.231 45.532 270.079 45.884C269.935 46.236 269.863 46.64 269.863 47.096C269.863 47.56 269.935 47.968 270.079 48.32C270.231 48.664 270.439 48.932 270.703 49.124C270.975 49.316 271.283 49.412 271.627 49.412ZM275.887 50V44.18H276.607L276.679 45.248H276.715C276.915 44.88 277.155 44.588 277.435 44.372C277.723 44.148 278.035 44.036 278.371 44.036C278.491 44.036 278.599 44.048 278.695 44.072C278.791 44.088 278.883 44.116 278.971 44.156L278.803 44.924C278.707 44.892 278.619 44.868 278.539 44.852C278.467 44.836 278.371 44.828 278.251 44.828C278.003 44.828 277.743 44.932 277.471 45.14C277.199 45.34 276.959 45.696 276.751 46.208V50H275.887ZM279.965 50V44.18H280.685L280.757 45.044H280.793C281.049 44.764 281.329 44.528 281.633 44.336C281.945 44.136 282.269 44.036 282.605 44.036C283.061 44.036 283.413 44.14 283.661 44.348C283.917 44.548 284.101 44.82 284.213 45.164C284.525 44.828 284.837 44.556 285.149 44.348C285.469 44.14 285.801 44.036 286.145 44.036C286.745 44.036 287.189 44.228 287.477 44.612C287.765 44.996 287.909 45.56 287.909 46.304V50H287.033V46.412C287.033 45.852 286.941 45.444 286.757 45.188C286.573 44.932 286.285 44.804 285.893 44.804C285.661 44.804 285.417 44.884 285.161 45.044C284.913 45.196 284.649 45.428 284.369 45.74V50H283.493V46.412C283.493 45.852 283.401 45.444 283.217 45.188C283.041 44.932 282.757 44.804 282.365 44.804C281.901 44.804 281.389 45.116 280.829 45.74V50H279.965ZM291.356 50.144C290.94 50.144 290.544 50.068 290.168 49.916C289.792 49.756 289.468 49.564 289.196 49.34L289.64 48.752C289.896 48.952 290.16 49.12 290.432 49.256C290.704 49.392 291.024 49.46 291.392 49.46C291.792 49.46 292.092 49.364 292.292 49.172C292.492 48.98 292.592 48.752 292.592 48.488C292.592 48.28 292.524 48.108 292.388 47.972C292.252 47.828 292.08 47.708 291.872 47.612C291.664 47.508 291.452 47.416 291.236 47.336C290.964 47.24 290.692 47.124 290.42 46.988C290.148 46.852 289.92 46.68 289.736 46.472C289.56 46.264 289.472 45.996 289.472 45.668C289.472 45.212 289.644 44.828 289.988 44.516C290.34 44.196 290.828 44.036 291.452 44.036C291.804 44.036 292.132 44.1 292.436 44.228C292.74 44.356 293 44.508 293.216 44.684L292.796 45.248C292.596 45.104 292.388 44.984 292.172 44.888C291.964 44.784 291.724 44.732 291.452 44.732C291.068 44.732 290.784 44.824 290.6 45.008C290.416 45.184 290.324 45.388 290.324 45.62C290.324 45.812 290.384 45.972 290.504 46.1C290.632 46.22 290.796 46.324 290.996 46.412C291.196 46.5 291.408 46.588 291.632 46.676C291.92 46.78 292.2 46.9 292.472 47.036C292.752 47.164 292.984 47.336 293.168 47.552C293.352 47.768 293.444 48.064 293.444 48.44C293.444 48.744 293.364 49.028 293.204 49.292C293.044 49.548 292.808 49.756 292.496 49.916C292.184 50.068 291.804 50.144 291.356 50.144Z" fill="#AEB9E1"/>
<rect x="235" y="66" width="16" height="16" rx="8" fill="#00C2FF"/>
<path d="M262.252 78.144C261.7 78.144 261.192 78.036 260.728 77.82C260.264 77.604 259.86 77.32 259.516 76.968L260.056 76.356C260.344 76.66 260.676 76.904 261.052 77.088C261.436 77.272 261.84 77.364 262.264 77.364C262.808 77.364 263.232 77.24 263.536 76.992C263.84 76.736 263.992 76.404 263.992 75.996C263.992 75.716 263.932 75.492 263.812 75.324C263.692 75.148 263.532 75.004 263.332 74.892C263.132 74.772 262.904 74.656 262.648 74.544L261.508 74.04C261.268 73.936 261.024 73.8 260.776 73.632C260.528 73.464 260.32 73.252 260.152 72.996C259.992 72.74 259.912 72.416 259.912 72.024C259.912 71.632 260.016 71.284 260.224 70.98C260.432 70.668 260.72 70.424 261.088 70.248C261.456 70.064 261.872 69.972 262.336 69.972C262.808 69.972 263.24 70.064 263.632 70.248C264.032 70.432 264.364 70.664 264.628 70.944L264.148 71.52C263.916 71.28 263.648 71.092 263.344 70.956C263.048 70.82 262.712 70.752 262.336 70.752C261.88 70.752 261.508 70.864 261.22 71.088C260.94 71.304 260.8 71.6 260.8 71.976C260.8 72.24 260.868 72.456 261.004 72.624C261.14 72.792 261.308 72.932 261.508 73.044C261.716 73.148 261.92 73.244 262.12 73.332L263.26 73.836C263.572 73.964 263.848 74.116 264.088 74.292C264.328 74.468 264.52 74.688 264.664 74.952C264.816 75.216 264.892 75.544 264.892 75.936C264.892 76.344 264.784 76.716 264.568 77.052C264.36 77.388 264.056 77.656 263.656 77.856C263.264 78.048 262.796 78.144 262.252 78.144ZM269.335 78.144C268.679 78.144 268.099 77.976 267.595 77.64C267.091 77.304 266.695 76.828 266.407 76.212C266.127 75.596 265.987 74.868 265.987 74.028C265.987 73.188 266.127 72.468 266.407 71.868C266.695 71.26 267.091 70.792 267.595 70.464C268.099 70.136 268.679 69.972 269.335 69.972C269.983 69.972 270.559 70.136 271.063 70.464C271.567 70.792 271.959 71.26 272.239 71.868C272.527 72.468 272.671 73.188 272.671 74.028C272.671 74.868 272.527 75.596 272.239 76.212C271.959 76.828 271.567 77.304 271.063 77.64C270.559 77.976 269.983 78.144 269.335 78.144ZM271.723 79.956C270.979 79.956 270.363 79.764 269.875 79.38C269.387 79.004 269.039 78.536 268.831 77.976L269.767 77.916C269.871 78.196 270.023 78.432 270.223 78.624C270.423 78.816 270.655 78.96 270.919 79.056C271.191 79.152 271.487 79.2 271.807 79.2C271.983 79.2 272.139 79.188 272.275 79.164C272.411 79.14 272.527 79.112 272.623 79.08L272.803 79.788C272.691 79.828 272.539 79.864 272.347 79.896C272.155 79.936 271.947 79.956 271.723 79.956ZM269.335 77.4C269.815 77.4 270.235 77.264 270.595 76.992C270.963 76.712 271.247 76.32 271.447 75.816C271.647 75.312 271.747 74.716 271.747 74.028C271.747 73.356 271.647 72.776 271.447 72.288C271.247 71.8 270.963 71.424 270.595 71.16C270.235 70.888 269.815 70.752 269.335 70.752C268.847 70.752 268.419 70.888 268.051 71.16C267.691 71.424 267.411 71.8 267.211 72.288C267.011 72.776 266.911 73.356 266.911 74.028C266.911 74.716 267.011 75.312 267.211 75.816C267.411 76.32 267.691 76.712 268.051 76.992C268.419 77.264 268.847 77.4 269.335 77.4ZM274.401 78V70.116H275.289V77.244H278.769V78H274.401ZM279.566 75.336V74.652H282.29V75.336H279.566ZM283.87 78V70.116H284.758V78H283.87ZM286.868 78V72.18H287.588L287.66 73.044H287.696C287.976 72.756 288.272 72.516 288.584 72.324C288.904 72.132 289.26 72.036 289.652 72.036C290.268 72.036 290.716 72.228 290.996 72.612C291.284 72.996 291.428 73.56 291.428 74.304V78H290.552V74.412C290.552 73.852 290.46 73.444 290.276 73.188C290.1 72.932 289.808 72.804 289.4 72.804C289.096 72.804 288.82 72.884 288.572 73.044C288.324 73.196 288.044 73.428 287.732 73.74V78H286.868ZM292.759 80.64C292.591 80.64 292.439 80.624 292.303 80.592C292.159 80.56 292.035 80.528 291.931 80.496L292.111 79.824C292.183 79.848 292.267 79.868 292.363 79.884C292.467 79.908 292.571 79.92 292.675 79.92C292.971 79.92 293.167 79.812 293.263 79.596C293.359 79.388 293.407 79.108 293.407 78.756L293.419 72.18H294.283V78.768C294.283 79.16 294.231 79.496 294.127 79.776C294.023 80.056 293.859 80.268 293.635 80.412C293.411 80.564 293.119 80.64 292.759 80.64ZM292.759 80.64C292.591 80.64 292.439 80.624 292.303 80.592C292.159 80.56 292.035 80.528 291.931 80.496L292.111 79.824C292.183 79.848 292.267 79.868 292.363 79.884C292.467 79.908 292.571 79.92 292.675 79.92C292.971 79.92 293.167 79.812 293.263 79.596C293.359 79.388 293.407 79.108 293.407 78.756L293.419 72.18H294.283V78.768C294.283 79.16 294.231 79.496 294.127 79.776C294.023 80.056 293.859 80.268 293.635 80.412C293.411 80.564 293.119 80.64 292.759 80.64ZM293.827 70.932C293.659 70.932 293.515 70.876 293.395 70.764C293.283 70.652 293.227 70.504 293.227 70.32C293.227 70.144 293.283 70.004 293.395 69.9C293.515 69.788 293.659 69.732 293.827 69.732C294.003 69.732 294.147 69.788 294.259 69.9C294.371 70.004 294.427 70.144 294.427 70.32C294.427 70.504 294.371 70.652 294.259 70.764C294.147 70.876 294.003 70.932 293.827 70.932ZM298.594 78.144C298.09 78.144 297.626 78.024 297.202 77.784C296.786 77.536 296.454 77.188 296.206 76.74C295.958 76.284 295.834 75.736 295.834 75.096C295.834 74.464 295.958 73.92 296.206 73.464C296.454 73.008 296.774 72.656 297.166 72.408C297.566 72.16 297.99 72.036 298.438 72.036C298.918 72.036 299.33 72.148 299.674 72.372C300.018 72.596 300.278 72.912 300.454 73.32C300.638 73.72 300.73 74.2 300.73 74.76C300.73 74.856 300.726 74.952 300.718 75.048C300.718 75.136 300.71 75.216 300.694 75.288H296.518L296.506 74.652H299.95C299.95 74.028 299.818 73.556 299.554 73.236C299.29 72.908 298.922 72.744 298.45 72.744C298.162 72.744 297.882 72.828 297.61 72.996C297.338 73.164 297.114 73.42 296.938 73.764C296.762 74.108 296.674 74.552 296.674 75.096C296.674 75.616 296.766 76.048 296.95 76.392C297.134 76.736 297.378 76.996 297.682 77.172C297.994 77.348 298.334 77.436 298.702 77.436C298.998 77.436 299.262 77.392 299.494 77.304C299.734 77.216 299.962 77.104 300.178 76.968L300.502 77.544C300.254 77.704 299.974 77.844 299.662 77.964C299.358 78.084 299.002 78.144 298.594 78.144ZM304.452 78.144C303.94 78.144 303.48 78.024 303.072 77.784C302.664 77.544 302.34 77.2 302.1 76.752C301.86 76.296 301.74 75.744 301.74 75.096C301.74 74.448 301.868 73.896 302.124 73.44C302.388 72.984 302.728 72.636 303.144 72.396C303.56 72.156 304.016 72.036 304.512 72.036C304.896 72.036 305.224 72.108 305.496 72.252C305.768 72.388 306.004 72.548 306.204 72.732L305.748 73.308C305.58 73.148 305.396 73.02 305.196 72.924C305.004 72.82 304.788 72.768 304.548 72.768C304.18 72.768 303.852 72.868 303.564 73.068C303.284 73.26 303.06 73.532 302.892 73.884C302.732 74.236 302.652 74.64 302.652 75.096C302.652 75.56 302.728 75.968 302.88 76.32C303.04 76.664 303.26 76.932 303.54 77.124C303.82 77.316 304.148 77.412 304.524 77.412C304.804 77.412 305.064 77.352 305.304 77.232C305.544 77.112 305.756 76.972 305.94 76.812L306.324 77.4C306.068 77.632 305.78 77.816 305.46 77.952C305.14 78.08 304.804 78.144 304.452 78.144ZM309.409 78.144C308.809 78.144 308.389 77.968 308.149 77.616C307.917 77.264 307.801 76.808 307.801 76.248V72.9H306.925V72.24L307.837 72.18L307.945 70.536H308.677V72.18H310.273V72.9H308.677V76.272C308.677 76.632 308.741 76.916 308.869 77.124C309.005 77.324 309.249 77.424 309.601 77.424C309.705 77.424 309.817 77.408 309.937 77.376C310.065 77.344 310.177 77.308 310.273 77.268L310.453 77.928C310.293 77.984 310.121 78.032 309.937 78.072C309.753 78.12 309.577 78.144 309.409 78.144ZM311.618 78V72.18H312.482V78H311.618ZM312.062 70.932C311.894 70.932 311.75 70.876 311.63 70.764C311.518 70.652 311.462 70.504 311.462 70.32C311.462 70.144 311.518 70.004 311.63 69.9C311.75 69.788 311.894 69.732 312.062 69.732C312.238 69.732 312.382 69.788 312.494 69.9C312.606 70.004 312.662 70.144 312.662 70.32C312.662 70.504 312.606 70.652 312.494 70.764C312.382 70.876 312.238 70.932 312.062 70.932ZM316.744 78.144C316.272 78.144 315.832 78.024 315.424 77.784C315.016 77.544 314.688 77.2 314.44 76.752C314.192 76.296 314.068 75.744 314.068 75.096C314.068 74.448 314.192 73.896 314.44 73.44C314.688 72.984 315.016 72.636 315.424 72.396C315.832 72.156 316.272 72.036 316.744 72.036C317.216 72.036 317.652 72.156 318.052 72.396C318.46 72.636 318.788 72.984 319.036 73.44C319.292 73.896 319.42 74.448 319.42 75.096C319.42 75.744 319.292 76.296 319.036 76.752C318.788 77.2 318.46 77.544 318.052 77.784C317.652 78.024 317.216 78.144 316.744 78.144ZM316.744 77.412C317.096 77.412 317.404 77.316 317.668 77.124C317.94 76.932 318.148 76.664 318.292 76.32C318.444 75.968 318.52 75.56 318.52 75.096C318.52 74.64 318.444 74.236 318.292 73.884C318.148 73.532 317.94 73.26 317.668 73.068C317.404 72.868 317.096 72.768 316.744 72.768C316.4 72.768 316.092 72.868 315.82 73.068C315.556 73.26 315.348 73.532 315.196 73.884C315.052 74.236 314.98 74.64 314.98 75.096C314.98 75.56 315.052 75.968 315.196 76.32C315.348 76.664 315.556 76.932 315.82 77.124C316.092 77.316 316.4 77.412 316.744 77.412ZM321.004 78V72.18H321.724L321.796 73.044H321.832C322.112 72.756 322.408 72.516 322.72 72.324C323.04 72.132 323.396 72.036 323.788 72.036C324.404 72.036 324.852 72.228 325.132 72.612C325.42 72.996 325.564 73.56 325.564 74.304V78H324.688V74.412C324.688 73.852 324.596 73.444 324.412 73.188C324.236 72.932 323.944 72.804 323.536 72.804C323.232 72.804 322.956 72.884 322.708 73.044C322.46 73.196 322.18 73.428 321.868 73.74V78H321.004Z" fill="#AEB9E1"/>
<rect x="235" y="94" width="16" height="16" rx="8" fill="#CB3CFF"/>
<path d="M261.52 106.144C261.04 106.144 260.62 106.04 260.26 105.832C259.908 105.616 259.624 105.308 259.408 104.908L260.044 104.464C260.228 104.776 260.432 105.004 260.656 105.148C260.888 105.292 261.152 105.364 261.448 105.364C261.88 105.364 262.204 105.228 262.42 104.956C262.636 104.684 262.744 104.244 262.744 103.636V98.116H263.632V103.72C263.632 104.168 263.56 104.576 263.416 104.944C263.272 105.304 263.044 105.596 262.732 105.82C262.428 106.036 262.024 106.144 261.52 106.144ZM267.947 106.144C267.395 106.144 266.887 106.036 266.423 105.82C265.959 105.604 265.555 105.32 265.211 104.968L265.751 104.356C266.039 104.66 266.371 104.904 266.747 105.088C267.131 105.272 267.535 105.364 267.959 105.364C268.503 105.364 268.927 105.24 269.231 104.992C269.535 104.736 269.687 104.404 269.687 103.996C269.687 103.716 269.627 103.492 269.507 103.324C269.387 103.148 269.227 103.004 269.027 102.892C268.827 102.772 268.599 102.656 268.343 102.544L267.203 102.04C266.963 101.936 266.719 101.8 266.471 101.632C266.223 101.464 266.015 101.252 265.847 100.996C265.687 100.74 265.607 100.416 265.607 100.024C265.607 99.632 265.711 99.284 265.919 98.98C266.127 98.668 266.415 98.424 266.783 98.248C267.151 98.064 267.567 97.972 268.031 97.972C268.503 97.972 268.935 98.064 269.327 98.248C269.727 98.432 270.059 98.664 270.323 98.944L269.843 99.52C269.611 99.28 269.343 99.092 269.039 98.956C268.743 98.82 268.407 98.752 268.031 98.752C267.575 98.752 267.203 98.864 266.915 99.088C266.635 99.304 266.495 99.6 266.495 99.976C266.495 100.24 266.563 100.456 266.699 100.624C266.835 100.792 267.003 100.932 267.203 101.044C267.411 101.148 267.615 101.244 267.815 101.332L268.955 101.836C269.267 101.964 269.543 102.116 269.783 102.292C270.023 102.468 270.215 102.688 270.359 102.952C270.511 103.216 270.587 103.544 270.587 103.936C270.587 104.344 270.479 104.716 270.263 105.052C270.055 105.388 269.751 105.656 269.351 105.856C268.959 106.048 268.491 106.144 267.947 106.144ZM271.551 103.336V102.652H274.275V103.336H271.551ZM275.77 106V100.18H276.634V106H275.77ZM276.214 98.932C276.046 98.932 275.902 98.876 275.782 98.764C275.67 98.652 275.614 98.504 275.614 98.32C275.614 98.144 275.67 98.004 275.782 97.9C275.902 97.788 276.046 97.732 276.214 97.732C276.39 97.732 276.534 97.788 276.646 97.9C276.758 98.004 276.814 98.144 276.814 98.32C276.814 98.504 276.758 98.652 276.646 98.764C276.534 98.876 276.39 98.932 276.214 98.932ZM278.676 106V100.18H279.396L279.468 101.044H279.504C279.784 100.756 280.08 100.516 280.392 100.324C280.712 100.132 281.068 100.036 281.46 100.036C282.076 100.036 282.524 100.228 282.804 100.612C283.092 100.996 283.236 101.56 283.236 102.304V106H282.36V102.412C282.36 101.852 282.268 101.444 282.084 101.188C281.908 100.932 281.616 100.804 281.208 100.804C280.904 100.804 280.628 100.884 280.38 101.044C280.132 101.196 279.852 101.428 279.54 101.74V106H278.676ZM284.568 108.64C284.4 108.64 284.248 108.624 284.112 108.592C283.968 108.56 283.844 108.528 283.74 108.496L283.92 107.824C283.992 107.848 284.076 107.868 284.172 107.884C284.276 107.908 284.38 107.92 284.484 107.92C284.78 107.92 284.976 107.812 285.072 107.596C285.168 107.388 285.216 107.108 285.216 106.756L285.228 100.18H286.092V106.768C286.092 107.16 286.04 107.496 285.936 107.776C285.832 108.056 285.668 108.268 285.444 108.412C285.22 108.564 284.928 108.64 284.568 108.64ZM284.568 108.64C284.4 108.64 284.248 108.624 284.112 108.592C283.968 108.56 283.844 108.528 283.74 108.496L283.92 107.824C283.992 107.848 284.076 107.868 284.172 107.884C284.276 107.908 284.38 107.92 284.484 107.92C284.78 107.92 284.976 107.812 285.072 107.596C285.168 107.388 285.216 107.108 285.216 106.756L285.228 100.18H286.092V106.768C286.092 107.16 286.04 107.496 285.936 107.776C285.832 108.056 285.668 108.268 285.444 108.412C285.22 108.564 284.928 108.64 284.568 108.64ZM285.636 98.932C285.468 98.932 285.324 98.876 285.204 98.764C285.092 98.652 285.036 98.504 285.036 98.32C285.036 98.144 285.092 98.004 285.204 97.9C285.324 97.788 285.468 97.732 285.636 97.732C285.812 97.732 285.956 97.788 286.068 97.9C286.18 98.004 286.236 98.144 286.236 98.32C286.236 98.504 286.18 98.652 286.068 98.764C285.956 98.876 285.812 98.932 285.636 98.932ZM290.402 106.144C289.898 106.144 289.434 106.024 289.01 105.784C288.594 105.536 288.262 105.188 288.014 104.74C287.766 104.284 287.642 103.736 287.642 103.096C287.642 102.464 287.766 101.92 288.014 101.464C288.262 101.008 288.582 100.656 288.974 100.408C289.374 100.16 289.798 100.036 290.246 100.036C290.726 100.036 291.138 100.148 291.482 100.372C291.826 100.596 292.086 100.912 292.262 101.32C292.446 101.72 292.538 102.2 292.538 102.76C292.538 102.856 292.534 102.952 292.526 103.048C292.526 103.136 292.518 103.216 292.502 103.288H288.326L288.314 102.652H291.758C291.758 102.028 291.626 101.556 291.362 101.236C291.098 100.908 290.73 100.744 290.258 100.744C289.97 100.744 289.69 100.828 289.418 100.996C289.146 101.164 288.922 101.42 288.746 101.764C288.57 102.108 288.482 102.552 288.482 103.096C288.482 103.616 288.574 104.048 288.758 104.392C288.942 104.736 289.186 104.996 289.49 105.172C289.802 105.348 290.142 105.436 290.51 105.436C290.806 105.436 291.07 105.392 291.302 105.304C291.542 105.216 291.77 105.104 291.986 104.968L292.31 105.544C292.062 105.704 291.782 105.844 291.47 105.964C291.166 106.084 290.81 106.144 290.402 106.144ZM296.26 106.144C295.748 106.144 295.288 106.024 294.88 105.784C294.472 105.544 294.148 105.2 293.908 104.752C293.668 104.296 293.548 103.744 293.548 103.096C293.548 102.448 293.676 101.896 293.932 101.44C294.196 100.984 294.536 100.636 294.952 100.396C295.368 100.156 295.824 100.036 296.32 100.036C296.704 100.036 297.032 100.108 297.304 100.252C297.576 100.388 297.812 100.548 298.012 100.732L297.556 101.308C297.388 101.148 297.204 101.02 297.004 100.924C296.812 100.82 296.596 100.768 296.356 100.768C295.988 100.768 295.66 100.868 295.372 101.068C295.092 101.26 294.868 101.532 294.7 101.884C294.54 102.236 294.46 102.64 294.46 103.096C294.46 103.56 294.536 103.968 294.688 104.32C294.848 104.664 295.068 104.932 295.348 105.124C295.628 105.316 295.956 105.412 296.332 105.412C296.612 105.412 296.872 105.352 297.112 105.232C297.352 105.112 297.564 104.972 297.748 104.812L298.132 105.4C297.876 105.632 297.588 105.816 297.268 105.952C296.948 106.08 296.612 106.144 296.26 106.144ZM301.218 106.144C300.618 106.144 300.198 105.968 299.958 105.616C299.726 105.264 299.61 104.808 299.61 104.248V100.9H298.734V100.24L299.646 100.18L299.754 98.536H300.486V100.18H302.082V100.9H300.486V104.272C300.486 104.632 300.55 104.916 300.678 105.124C300.814 105.324 301.058 105.424 301.41 105.424C301.514 105.424 301.626 105.408 301.746 105.376C301.874 105.344 301.986 105.308 302.082 105.268L302.262 105.928C302.102 105.984 301.93 106.032 301.746 106.072C301.562 106.12 301.386 106.144 301.218 106.144ZM303.426 106V100.18H304.29V106H303.426ZM303.87 98.932C303.702 98.932 303.558 98.876 303.438 98.764C303.326 98.652 303.27 98.504 303.27 98.32C303.27 98.144 303.326 98.004 303.438 97.9C303.558 97.788 303.702 97.732 303.87 97.732C304.046 97.732 304.19 97.788 304.302 97.9C304.414 98.004 304.47 98.144 304.47 98.32C304.47 98.504 304.414 98.652 304.302 98.764C304.19 98.876 304.046 98.932 303.87 98.932ZM308.553 106.144C308.081 106.144 307.641 106.024 307.233 105.784C306.825 105.544 306.497 105.2 306.249 104.752C306.001 104.296 305.877 103.744 305.877 103.096C305.877 102.448 306.001 101.896 306.249 101.44C306.497 100.984 306.825 100.636 307.233 100.396C307.641 100.156 308.081 100.036 308.553 100.036C309.025 100.036 309.461 100.156 309.861 100.396C310.269 100.636 310.597 100.984 310.845 101.44C311.101 101.896 311.229 102.448 311.229 103.096C311.229 103.744 311.101 104.296 310.845 104.752C310.597 105.2 310.269 105.544 309.861 105.784C309.461 106.024 309.025 106.144 308.553 106.144ZM308.553 105.412C308.905 105.412 309.213 105.316 309.477 105.124C309.749 104.932 309.957 104.664 310.101 104.32C310.253 103.968 310.329 103.56 310.329 103.096C310.329 102.64 310.253 102.236 310.101 101.884C309.957 101.532 309.749 101.26 309.477 101.068C309.213 100.868 308.905 100.768 308.553 100.768C308.209 100.768 307.901 100.868 307.629 101.068C307.365 101.26 307.157 101.532 307.005 101.884C306.861 102.236 306.789 102.64 306.789 103.096C306.789 103.56 306.861 103.968 307.005 104.32C307.157 104.664 307.365 104.932 307.629 105.124C307.901 105.316 308.209 105.412 308.553 105.412ZM312.813 106V100.18H313.533L313.605 101.044H313.641C313.921 100.756 314.217 100.516 314.529 100.324C314.849 100.132 315.205 100.036 315.597 100.036C316.213 100.036 316.661 100.228 316.941 100.612C317.229 100.996 317.373 101.56 317.373 102.304V106H316.497V102.412C316.497 101.852 316.405 101.444 316.221 101.188C316.045 100.932 315.753 100.804 315.345 100.804C315.041 100.804 314.765 100.884 314.517 101.044C314.269 101.196 313.989 101.428 313.677 101.74V106H312.813Z" fill="#AEB9E1"/>
<rect x="235" y="122" width="16" height="16" rx="8" fill="#FF5A65"/>
<path d="M260.104 134V126.116H261.196L262.744 130.436C262.848 130.708 262.944 130.984 263.032 131.264C263.128 131.544 263.224 131.824 263.32 132.104H263.368C263.472 131.824 263.568 131.544 263.656 131.264C263.744 130.984 263.836 130.708 263.932 130.436L265.456 126.116H266.56V134H265.732V129.44C265.732 129.216 265.736 128.972 265.744 128.708C265.76 128.444 265.776 128.18 265.792 127.916C265.808 127.644 265.824 127.392 265.84 127.16H265.792L265.168 128.948L263.632 133.184H263.008L261.46 128.948L260.836 127.16H260.788C260.804 127.392 260.82 127.644 260.836 127.916C260.86 128.18 260.876 128.444 260.884 128.708C260.9 128.972 260.908 129.216 260.908 129.44V134H260.104ZM268.668 134V128.18H269.532V134H268.668ZM269.112 126.932C268.944 126.932 268.8 126.876 268.68 126.764C268.568 126.652 268.512 126.504 268.512 126.32C268.512 126.144 268.568 126.004 268.68 125.9C268.8 125.788 268.944 125.732 269.112 125.732C269.288 125.732 269.432 125.788 269.544 125.9C269.656 126.004 269.712 126.144 269.712 126.32C269.712 126.504 269.656 126.652 269.544 126.764C269.432 126.876 269.288 126.932 269.112 126.932ZM273.063 134.144C272.647 134.144 272.251 134.068 271.875 133.916C271.499 133.756 271.175 133.564 270.903 133.34L271.347 132.752C271.603 132.952 271.867 133.12 272.139 133.256C272.411 133.392 272.731 133.46 273.099 133.46C273.499 133.46 273.799 133.364 273.999 133.172C274.199 132.98 274.299 132.752 274.299 132.488C274.299 132.28 274.231 132.108 274.095 131.972C273.959 131.828 273.787 131.708 273.579 131.612C273.371 131.508 273.159 131.416 272.943 131.336C272.671 131.24 272.399 131.124 272.127 130.988C271.855 130.852 271.627 130.68 271.443 130.472C271.267 130.264 271.179 129.996 271.179 129.668C271.179 129.212 271.351 128.828 271.695 128.516C272.047 128.196 272.535 128.036 273.159 128.036C273.511 128.036 273.839 128.1 274.143 128.228C274.447 128.356 274.707 128.508 274.923 128.684L274.503 129.248C274.303 129.104 274.095 128.984 273.879 128.888C273.671 128.784 273.431 128.732 273.159 128.732C272.775 128.732 272.491 128.824 272.307 129.008C272.123 129.184 272.031 129.388 272.031 129.62C272.031 129.812 272.091 129.972 272.211 130.1C272.339 130.22 272.503 130.324 272.703 130.412C272.903 130.5 273.115 130.588 273.339 130.676C273.627 130.78 273.907 130.9 274.179 131.036C274.459 131.164 274.691 131.336 274.875 131.552C275.059 131.768 275.151 132.064 275.151 132.44C275.151 132.744 275.071 133.028 274.911 133.292C274.751 133.548 274.515 133.756 274.203 133.916C273.891 134.068 273.511 134.144 273.063 134.144ZM278.823 134.144C278.311 134.144 277.851 134.024 277.443 133.784C277.035 133.544 276.711 133.2 276.471 132.752C276.231 132.296 276.111 131.744 276.111 131.096C276.111 130.448 276.239 129.896 276.495 129.44C276.759 128.984 277.099 128.636 277.515 128.396C277.931 128.156 278.387 128.036 278.883 128.036C279.267 128.036 279.595 128.108 279.867 128.252C280.139 128.388 280.375 128.548 280.575 128.732L280.119 129.308C279.951 129.148 279.767 129.02 279.567 128.924C279.375 128.82 279.159 128.768 278.919 128.768C278.551 128.768 278.223 128.868 277.935 129.068C277.655 129.26 277.431 129.532 277.263 129.884C277.103 130.236 277.023 130.64 277.023 131.096C277.023 131.56 277.099 131.968 277.251 132.32C277.411 132.664 277.631 132.932 277.911 133.124C278.191 133.316 278.519 133.412 278.895 133.412C279.175 133.412 279.435 133.352 279.675 133.232C279.915 133.112 280.127 132.972 280.311 132.812L280.695 133.4C280.439 133.632 280.151 133.816 279.831 133.952C279.511 134.08 279.175 134.144 278.823 134.144ZM284.236 134.144C283.764 134.144 283.324 134.024 282.916 133.784C282.508 133.544 282.18 133.2 281.932 132.752C281.684 132.296 281.56 131.744 281.56 131.096C281.56 130.448 281.684 129.896 281.932 129.44C282.18 128.984 282.508 128.636 282.916 128.396C283.324 128.156 283.764 128.036 284.236 128.036C284.708 128.036 285.144 128.156 285.544 128.396C285.952 128.636 286.28 128.984 286.528 129.44C286.784 129.896 286.912 130.448 286.912 131.096C286.912 131.744 286.784 132.296 286.528 132.752C286.28 133.2 285.952 133.544 285.544 133.784C285.144 134.024 284.708 134.144 284.236 134.144ZM284.236 133.412C284.588 133.412 284.896 133.316 285.16 133.124C285.432 132.932 285.64 132.664 285.784 132.32C285.936 131.968 286.012 131.56 286.012 131.096C286.012 130.64 285.936 130.236 285.784 129.884C285.64 129.532 285.432 129.26 285.16 129.068C284.896 128.868 284.588 128.768 284.236 128.768C283.892 128.768 283.584 128.868 283.312 129.068C283.048 129.26 282.84 129.532 282.688 129.884C282.544 130.236 282.472 130.64 282.472 131.096C282.472 131.56 282.544 131.968 282.688 132.32C282.84 132.664 283.048 132.932 283.312 133.124C283.584 133.316 283.892 133.412 284.236 133.412ZM288.497 134V128.18H289.217L289.289 129.044H289.325C289.605 128.756 289.901 128.516 290.213 128.324C290.533 128.132 290.889 128.036 291.281 128.036C291.897 128.036 292.345 128.228 292.625 128.612C292.913 128.996 293.057 129.56 293.057 130.304V134H292.181V130.412C292.181 129.852 292.089 129.444 291.905 129.188C291.729 128.932 291.437 128.804 291.029 128.804C290.725 128.804 290.449 128.884 290.201 129.044C289.953 129.196 289.673 129.428 289.361 129.74V134H288.497ZM295.144 134V127.172C295.144 126.78 295.204 126.444 295.324 126.164C295.444 125.884 295.624 125.668 295.864 125.516C296.112 125.364 296.42 125.288 296.788 125.288C296.956 125.288 297.12 125.308 297.28 125.348C297.448 125.38 297.596 125.424 297.724 125.48L297.532 126.152C297.42 126.096 297.308 126.06 297.196 126.044C297.084 126.02 296.972 126.008 296.86 126.008C296.58 126.008 296.368 126.108 296.224 126.308C296.088 126.508 296.02 126.8 296.02 127.184V134H295.144ZM294.352 128.9V128.24L295.18 128.18H297.28V128.9H294.352ZM298.42 134V128.18H299.284V134H298.42ZM298.864 126.932C298.696 126.932 298.552 126.876 298.432 126.764C298.32 126.652 298.264 126.504 298.264 126.32C298.264 126.144 298.32 126.004 298.432 125.9C298.552 125.788 298.696 125.732 298.864 125.732C299.04 125.732 299.184 125.788 299.296 125.9C299.408 126.004 299.464 126.144 299.464 126.32C299.464 126.504 299.408 126.652 299.296 126.764C299.184 126.876 299.04 126.932 298.864 126.932ZM303.273 136.712C302.793 136.712 302.373 136.648 302.013 136.52C301.653 136.392 301.373 136.212 301.173 135.98C300.973 135.748 300.873 135.468 300.873 135.14C300.873 134.884 300.949 134.64 301.101 134.408C301.253 134.176 301.461 133.972 301.725 133.796V133.748C301.581 133.652 301.457 133.528 301.353 133.376C301.257 133.216 301.209 133.024 301.209 132.8C301.209 132.552 301.277 132.336 301.413 132.152C301.557 131.968 301.701 131.824 301.845 131.72V131.672C301.661 131.52 301.489 131.308 301.329 131.036C301.177 130.764 301.101 130.456 301.101 130.112C301.101 129.688 301.197 129.324 301.389 129.02C301.589 128.708 301.849 128.468 302.169 128.3C302.497 128.124 302.857 128.036 303.249 128.036C303.409 128.036 303.557 128.052 303.693 128.084C303.837 128.108 303.957 128.14 304.053 128.18H306.069V128.864H304.833C304.985 129.008 305.109 129.188 305.205 129.404C305.301 129.62 305.349 129.86 305.349 130.124C305.349 130.54 305.253 130.9 305.061 131.204C304.877 131.508 304.625 131.744 304.305 131.912C303.993 132.072 303.641 132.152 303.249 132.152C303.105 132.152 302.953 132.136 302.793 132.104C302.641 132.064 302.497 132.012 302.361 131.948C302.249 132.036 302.153 132.136 302.073 132.248C302.001 132.36 301.965 132.5 301.965 132.668C301.965 132.86 302.037 133.02 302.181 133.148C302.333 133.268 302.605 133.328 302.997 133.328H304.161C304.833 133.328 305.333 133.44 305.661 133.664C305.997 133.88 306.165 134.228 306.165 134.708C306.165 135.06 306.045 135.388 305.805 135.692C305.573 135.996 305.241 136.24 304.809 136.424C304.377 136.616 303.865 136.712 303.273 136.712ZM303.393 136.088C303.777 136.088 304.109 136.028 304.389 135.908C304.677 135.788 304.901 135.632 305.061 135.44C305.221 135.248 305.301 135.044 305.301 134.828C305.301 134.548 305.197 134.352 304.989 134.24C304.789 134.128 304.489 134.072 304.089 134.072H303.021C302.933 134.072 302.821 134.064 302.685 134.048C302.557 134.032 302.421 134.008 302.277 133.976C302.053 134.136 301.889 134.304 301.785 134.48C301.689 134.664 301.641 134.844 301.641 135.02C301.641 135.348 301.797 135.608 302.109 135.8C302.421 135.992 302.849 136.088 303.393 136.088ZM303.249 131.552C303.481 131.552 303.693 131.492 303.885 131.372C304.085 131.252 304.245 131.084 304.365 130.868C304.485 130.652 304.545 130.4 304.545 130.112C304.545 129.816 304.485 129.564 304.365 129.356C304.253 129.14 304.097 128.976 303.897 128.864C303.705 128.744 303.489 128.684 303.249 128.684C302.889 128.684 302.581 128.812 302.325 129.068C302.069 129.316 301.941 129.664 301.941 130.112C301.941 130.4 302.001 130.652 302.121 130.868C302.241 131.084 302.401 131.252 302.601 131.372C302.801 131.492 303.017 131.552 303.249 131.552ZM309.009 134.144C308.409 134.144 307.965 133.952 307.677 133.568C307.389 133.184 307.245 132.62 307.245 131.876V128.18H308.109V131.768C308.109 132.328 308.201 132.74 308.385 133.004C308.569 133.26 308.865 133.388 309.273 133.388C309.577 133.388 309.853 133.308 310.101 133.148C310.349 132.98 310.617 132.716 310.905 132.356V128.18H311.781V134H311.049L310.977 133.076H310.941C310.669 133.396 310.381 133.656 310.077 133.856C309.773 134.048 309.417 134.144 309.009 134.144ZM313.809 134V128.18H314.529L314.601 129.248H314.637C314.837 128.88 315.077 128.588 315.357 128.372C315.645 128.148 315.957 128.036 316.293 128.036C316.413 128.036 316.521 128.048 316.617 128.072C316.713 128.088 316.805 128.116 316.893 128.156L316.725 128.924C316.629 128.892 316.541 128.868 316.461 128.852C316.389 128.836 316.293 128.828 316.173 128.828C315.925 128.828 315.665 128.932 315.393 129.14C315.121 129.34 314.881 129.696 314.673 130.208V134H313.809ZM319.207 134.144C318.887 134.144 318.599 134.08 318.343 133.952C318.087 133.824 317.883 133.64 317.731 133.4C317.579 133.152 317.503 132.852 317.503 132.5C317.503 131.868 317.791 131.384 318.367 131.048C318.951 130.704 319.871 130.464 321.127 130.328C321.127 130.064 321.091 129.812 321.019 129.572C320.955 129.332 320.831 129.14 320.647 128.996C320.471 128.844 320.215 128.768 319.879 128.768C319.527 128.768 319.199 128.836 318.895 128.972C318.599 129.108 318.339 129.252 318.115 129.404L317.767 128.804C317.935 128.692 318.135 128.576 318.367 128.456C318.599 128.336 318.855 128.236 319.135 128.156C319.415 128.076 319.711 128.036 320.023 128.036C320.495 128.036 320.875 128.136 321.163 128.336C321.451 128.536 321.659 128.812 321.787 129.164C321.923 129.516 321.991 129.928 321.991 130.4V134H321.271L321.199 133.292H321.163C320.883 133.524 320.579 133.724 320.251 133.892C319.923 134.06 319.575 134.144 319.207 134.144ZM319.435 133.436C319.739 133.436 320.019 133.368 320.275 133.232C320.539 133.088 320.823 132.884 321.127 132.62V130.916C320.439 130.996 319.895 131.108 319.495 131.252C319.095 131.388 318.807 131.556 318.631 131.756C318.455 131.956 318.367 132.188 318.367 132.452C318.367 132.796 318.471 133.048 318.679 133.208C318.895 133.36 319.147 133.436 319.435 133.436ZM325.663 134.144C325.063 134.144 324.643 133.968 324.403 133.616C324.171 133.264 324.055 132.808 324.055 132.248V128.9H323.179V128.24L324.091 128.18L324.199 126.536H324.931V128.18H326.527V128.9H324.931V132.272C324.931 132.632 324.995 132.916 325.123 133.124C325.259 133.324 325.503 133.424 325.855 133.424C325.959 133.424 326.071 133.408 326.191 133.376C326.319 133.344 326.431 133.308 326.527 133.268L326.707 133.928C326.547 133.984 326.375 134.032 326.191 134.072C326.007 134.12 325.831 134.144 325.663 134.144ZM327.872 134V128.18H328.736V134H327.872ZM328.316 126.932C328.148 126.932 328.004 126.876 327.884 126.764C327.772 126.652 327.716 126.504 327.716 126.32C327.716 126.144 327.772 126.004 327.884 125.9C328.004 125.788 328.148 125.732 328.316 125.732C328.492 125.732 328.636 125.788 328.748 125.9C328.86 126.004 328.916 126.144 328.916 126.32C328.916 126.504 328.86 126.652 328.748 126.764C328.636 126.876 328.492 126.932 328.316 126.932ZM332.998 134.144C332.526 134.144 332.086 134.024 331.678 133.784C331.27 133.544 330.942 133.2 330.694 132.752C330.446 132.296 330.322 131.744 330.322 131.096C330.322 130.448 330.446 129.896 330.694 129.44C330.942 128.984 331.27 128.636 331.678 128.396C332.086 128.156 332.526 128.036 332.998 128.036C333.47 128.036 333.906 128.156 334.306 128.396C334.714 128.636 335.042 128.984 335.29 129.44C335.546 129.896 335.674 130.448 335.674 131.096C335.674 131.744 335.546 132.296 335.29 132.752C335.042 133.2 334.714 133.544 334.306 133.784C333.906 134.024 333.47 134.144 332.998 134.144ZM332.998 133.412C333.35 133.412 333.658 133.316 333.922 133.124C334.194 132.932 334.402 132.664 334.546 132.32C334.698 131.968 334.774 131.56 334.774 131.096C334.774 130.64 334.698 130.236 334.546 129.884C334.402 129.532 334.194 129.26 333.922 129.068C333.658 128.868 333.35 128.768 332.998 128.768C332.654 128.768 332.346 128.868 332.074 129.068C331.81 129.26 331.602 129.532 331.45 129.884C331.306 130.236 331.234 130.64 331.234 131.096C331.234 131.56 331.306 131.968 331.45 132.32C331.602 132.664 331.81 132.932 332.074 133.124C332.346 133.316 332.654 133.412 332.998 133.412ZM337.258 134V128.18H337.978L338.05 129.044H338.086C338.366 128.756 338.662 128.516 338.974 128.324C339.294 128.132 339.65 128.036 340.042 128.036C340.658 128.036 341.106 128.228 341.386 128.612C341.674 128.996 341.818 129.56 341.818 130.304V134H340.942V130.412C340.942 129.852 340.85 129.444 340.666 129.188C340.49 128.932 340.198 128.804 339.79 128.804C339.486 128.804 339.21 128.884 338.962 129.044C338.714 129.196 338.434 129.428 338.122 129.74V134H337.258Z" fill="#AEB9E1"/>
<path d="M156.763 62.2342C156.763 50.291 153.27 38.6085 146.715 28.625C140.16 18.6415 130.828 10.7929 119.869 6.04541L95.5283 62.2342H156.763Z" fill="#00C2FF" stroke="#343B4F"/>
<path d="M119.87 6.04575C106.087 0.0750116 90.5902 -0.621608 76.3273 4.08839C62.0643 8.79839 50.03 18.5864 42.5133 31.5908C34.9965 44.5952 32.5217 59.9088 35.5595 74.6189C38.5973 89.3291 46.9359 102.41 58.9892 111.373L95.5286 62.2346L119.87 6.04575Z" fill="#440154" stroke="#343B4F"/>
<path d="M58.9893 111.373C70.2329 119.734 84.0037 123.986 98.0038 123.419C112.004 122.853 125.386 117.503 135.918 108.261L95.5288 62.2349L58.9893 111.373Z" fill="#CB3CFF" stroke="#343B4F"/>
<path d="M135.917 108.261C142.467 102.514 147.714 95.4352 151.309 87.4981C154.903 79.561 156.763 70.9481 156.763 62.2349H95.5283L135.917 108.261Z" fill="#FF5A65" stroke="#343B4F"/>
<path d="M146.715 28.625L159.512 20.2227" stroke="#343B4F"/>
<path d="M42.5126 31.5906L29.2588 23.9297" stroke="#343B4F"/>
<path d="M98.0039 123.419L98.6227 138.715" stroke="#343B4F"/>
<path d="M151.309 87.498L165.254 93.8139" stroke="#343B4F"/>
<g filter="url(#filter0_d_201_2483)">
<rect x="4" y="15.543" width="25.2593" height="17.6049" rx="4" fill="#343B4F" shape-rendering="crispEdges"/>
<path d="M11.1364 28.8452V23.9252C11.1364 23.7092 11.1444 23.4532 11.1604 23.1572C11.1764 22.8532 11.1884 22.5972 11.1964 22.3892H11.1484C11.0524 22.5732 10.9524 22.7612 10.8484 22.9532C10.7444 23.1372 10.6364 23.3292 10.5244 23.5292L8.96441 25.8692H13.2724V26.8172H7.74041V26.0012L10.8724 21.2012H12.2764V28.8452H11.1364ZM16.6427 28.9892C16.1547 28.9892 15.7147 28.9012 15.3227 28.7252C14.9387 28.5412 14.6347 28.2932 14.4107 27.9812C14.1947 27.6612 14.0867 27.2972 14.0867 26.8892C14.0867 26.5612 14.1547 26.2732 14.2907 26.0252C14.4267 25.7692 14.5987 25.5492 14.8067 25.3652C15.0227 25.1732 15.2507 25.0132 15.4907 24.8852V24.8372C15.2107 24.6292 14.9627 24.3812 14.7467 24.0932C14.5387 23.8052 14.4347 23.4612 14.4347 23.0612C14.4347 22.6532 14.5307 22.3012 14.7227 22.0052C14.9227 21.7012 15.1907 21.4692 15.5267 21.3092C15.8627 21.1412 16.2467 21.0572 16.6787 21.0572C17.3587 21.0572 17.8947 21.2492 18.2867 21.6332C18.6867 22.0092 18.8867 22.5012 18.8867 23.1092C18.8867 23.3652 18.8307 23.6092 18.7187 23.8412C18.6147 24.0732 18.4827 24.2812 18.3227 24.4652C18.1707 24.6412 18.0107 24.7892 17.8427 24.9092V24.9572C18.0747 25.0852 18.2907 25.2372 18.4907 25.4132C18.6987 25.5892 18.8627 25.8012 18.9827 26.0492C19.1107 26.2972 19.1747 26.5892 19.1747 26.9252C19.1747 27.3172 19.0667 27.6692 18.8507 27.9812C18.6427 28.2852 18.3467 28.5292 17.9627 28.7132C17.5867 28.8972 17.1467 28.9892 16.6427 28.9892ZM16.6667 28.1132C16.9307 28.1132 17.1667 28.0652 17.3747 27.9692C17.5827 27.8652 17.7427 27.7212 17.8547 27.5372C17.9747 27.3532 18.0347 27.1372 18.0347 26.8892C18.0347 26.5852 17.9467 26.3372 17.7707 26.1452C17.5947 25.9532 17.3587 25.7892 17.0627 25.6532C16.7667 25.5172 16.4427 25.3772 16.0907 25.2332C15.8267 25.4172 15.6027 25.6412 15.4187 25.9052C15.2427 26.1612 15.1547 26.4492 15.1547 26.7692C15.1547 27.0332 15.2187 27.2692 15.3467 27.4772C15.4827 27.6772 15.6627 27.8332 15.8867 27.9452C16.1187 28.0572 16.3787 28.1132 16.6667 28.1132ZM17.1587 24.5972C17.3907 24.3812 17.5667 24.1572 17.6867 23.9252C17.8067 23.6852 17.8667 23.4372 17.8667 23.1812C17.8667 22.9412 17.8187 22.7292 17.7227 22.5452C17.6347 22.3532 17.4987 22.2052 17.3147 22.1012C17.1307 21.9892 16.9107 21.9332 16.6547 21.9332C16.3347 21.9332 16.0667 22.0332 15.8507 22.2332C15.6347 22.4332 15.5267 22.7092 15.5267 23.0612C15.5267 23.3332 15.5987 23.5652 15.7427 23.7572C15.8947 23.9412 16.0947 24.1012 16.3427 24.2372C16.5907 24.3652 16.8627 24.4852 17.1587 24.5972ZM22.929 28.9892C22.553 28.9892 22.201 28.9132 21.873 28.7612C21.545 28.6092 21.257 28.3812 21.009 28.0772C20.769 27.7732 20.577 27.3892 20.433 26.9252C20.289 26.4612 20.217 25.9132 20.217 25.2812C20.217 24.5292 20.297 23.8852 20.457 23.3492C20.625 22.8132 20.845 22.3772 21.117 22.0412C21.397 21.7052 21.713 21.4572 22.065 21.2972C22.417 21.1372 22.789 21.0572 23.181 21.0572C23.621 21.0572 24.001 21.1372 24.321 21.2972C24.641 21.4572 24.913 21.6572 25.137 21.8972L24.477 22.6412C24.325 22.4652 24.137 22.3252 23.913 22.2212C23.697 22.1092 23.473 22.0532 23.241 22.0532C22.897 22.0532 22.581 22.1572 22.293 22.3652C22.005 22.5652 21.773 22.9012 21.597 23.3732C21.429 23.8372 21.345 24.4732 21.345 25.2812C21.345 25.9132 21.409 26.4332 21.537 26.8412C21.665 27.2492 21.845 27.5532 22.077 27.7532C22.317 27.9532 22.597 28.0532 22.917 28.0532C23.141 28.0532 23.345 27.9932 23.529 27.8732C23.721 27.7452 23.869 27.5652 23.973 27.3332C24.085 27.1012 24.141 26.8252 24.141 26.5052C24.141 26.1932 24.089 25.9292 23.985 25.7132C23.889 25.4892 23.745 25.3212 23.553 25.2092C23.361 25.0892 23.125 25.0292 22.845 25.0292C22.613 25.0292 22.361 25.1052 22.089 25.2572C21.817 25.4092 21.565 25.6692 21.333 26.0372L21.285 25.1492C21.517 24.8372 21.793 24.5932 22.113 24.4172C22.441 24.2332 22.757 24.1412 23.061 24.1412C23.501 24.1412 23.885 24.2292 24.213 24.4052C24.549 24.5812 24.809 24.8452 24.993 25.1972C25.177 25.5412 25.269 25.9772 25.269 26.5052C25.269 27.0092 25.161 27.4452 24.945 27.8132C24.729 28.1812 24.445 28.4692 24.093 28.6772C23.741 28.8852 23.353 28.9892 22.929 28.9892Z" fill="white"/>
</g>
<g filter="url(#filter1_d_201_2483)">
<rect x="159.383" y="11.7158" width="24.4938" height="17.6049" rx="4" fill="#343B4F" shape-rendering="crispEdges"/>
<path d="M163.322 25.0181V24.0221H165.05V18.7421H163.646V17.9741C164.014 17.9021 164.334 17.8181 164.606 17.7221C164.878 17.6261 165.126 17.5101 165.35 17.3741H166.262V24.0221H167.798V25.0181H163.322ZM170.881 25.1621C170.441 25.1621 170.061 25.0821 169.741 24.9221C169.421 24.7541 169.149 24.5541 168.925 24.3221L169.585 23.5781C169.729 23.7541 169.913 23.8981 170.137 24.0101C170.361 24.1141 170.589 24.1661 170.821 24.1661C171.165 24.1661 171.481 24.0661 171.769 23.8661C172.057 23.6581 172.285 23.3221 172.453 22.8581C172.629 22.3861 172.717 21.7461 172.717 20.9381C172.717 20.3061 172.653 19.7861 172.525 19.3781C172.397 18.9701 172.213 18.6661 171.973 18.4661C171.741 18.2661 171.465 18.1661 171.145 18.1661C170.913 18.1661 170.705 18.2301 170.521 18.3581C170.337 18.4781 170.189 18.6541 170.077 18.8861C169.973 19.1101 169.921 19.3861 169.921 19.7141C169.921 20.0261 169.969 20.2941 170.065 20.5181C170.169 20.7341 170.317 20.9021 170.509 21.0221C170.701 21.1341 170.937 21.1901 171.217 21.1901C171.449 21.1901 171.701 21.1141 171.973 20.9621C172.245 20.8101 172.497 20.5501 172.729 20.1821L172.777 21.0701C172.553 21.3741 172.277 21.6181 171.949 21.8021C171.621 21.9861 171.305 22.0781 171.001 22.0781C170.561 22.0781 170.173 21.9901 169.837 21.8141C169.509 21.6381 169.253 21.3781 169.069 21.0341C168.885 20.6821 168.793 20.2421 168.793 19.7141C168.793 19.2101 168.897 18.7741 169.105 18.4061C169.321 18.0301 169.605 17.7421 169.957 17.5421C170.317 17.3341 170.709 17.2301 171.133 17.2301C171.509 17.2301 171.861 17.3061 172.189 17.4581C172.517 17.6021 172.801 17.8301 173.041 18.1421C173.289 18.4461 173.485 18.8301 173.629 19.2941C173.773 19.7581 173.845 20.3061 173.845 20.9381C173.845 21.6901 173.761 22.3341 173.593 22.8701C173.433 23.4061 173.213 23.8421 172.933 24.1781C172.661 24.5141 172.345 24.7621 171.985 24.9221C171.633 25.0821 171.265 25.1621 170.881 25.1621ZM178.019 25.0181V20.0981C178.019 19.8821 178.027 19.6261 178.043 19.3301C178.059 19.0261 178.071 18.7701 178.079 18.5621H178.031C177.935 18.7461 177.835 18.9341 177.731 19.1261C177.627 19.3101 177.519 19.5021 177.407 19.7021L175.847 22.0421H180.155V22.9901H174.623V22.1741L177.755 17.3741H179.159V25.0181H178.019Z" fill="white"/>
</g>
<g filter="url(#filter2_d_201_2483)">
<rect x="165.506" y="85.1978" width="24.4938" height="17.6049" rx="4" fill="#343B4F" shape-rendering="crispEdges"/>
<path d="M169.445 98.5V97.504H171.173V92.224H169.769V91.456C170.137 91.384 170.457 91.3 170.729 91.204C171.001 91.108 171.249 90.992 171.473 90.856H172.385V97.504H173.921V98.5H169.445ZM178.072 98.5V93.58C178.072 93.364 178.08 93.108 178.096 92.812C178.112 92.508 178.124 92.252 178.132 92.044H178.084C177.988 92.228 177.888 92.416 177.784 92.608C177.68 92.792 177.572 92.984 177.46 93.184L175.9 95.524H180.208V96.472H174.676V95.656L177.808 90.856H179.212V98.5H178.072ZM180.998 98.5V97.792C181.734 97.072 182.362 96.432 182.882 95.872C183.41 95.312 183.814 94.808 184.094 94.36C184.374 93.904 184.514 93.476 184.514 93.076C184.514 92.652 184.402 92.316 184.178 92.068C183.954 91.812 183.618 91.684 183.17 91.684C182.866 91.684 182.582 91.768 182.318 91.936C182.062 92.104 181.83 92.312 181.622 92.56L180.938 91.888C181.274 91.52 181.626 91.232 181.994 91.024C182.37 90.816 182.814 90.712 183.326 90.712C183.806 90.712 184.222 90.808 184.574 91C184.926 91.184 185.198 91.452 185.39 91.804C185.59 92.148 185.69 92.552 185.69 93.016C185.69 93.48 185.558 93.952 185.294 94.432C185.038 94.904 184.686 95.396 184.238 95.908C183.798 96.42 183.306 96.964 182.762 97.54C182.962 97.524 183.178 97.508 183.41 97.492C183.642 97.476 183.854 97.468 184.046 97.468H186.062V98.5H180.998Z" fill="white"/>
</g>
<g filter="url(#filter3_d_201_2483)">
<rect x="85.9014" y="138.778" width="25.2593" height="17.6049" rx="4" fill="#343B4F" shape-rendering="crispEdges"/>
<path d="M89.8938 152.08V151.372C90.6298 150.652 91.2578 150.012 91.7778 149.452C92.3058 148.892 92.7098 148.388 92.9898 147.94C93.2698 147.484 93.4098 147.056 93.4098 146.656C93.4098 146.232 93.2978 145.896 93.0738 145.648C92.8498 145.392 92.5138 145.264 92.0658 145.264C91.7618 145.264 91.4778 145.348 91.2138 145.516C90.9578 145.684 90.7258 145.892 90.5178 146.14L89.8338 145.468C90.1698 145.1 90.5218 144.812 90.8898 144.604C91.2658 144.396 91.7098 144.292 92.2218 144.292C92.7018 144.292 93.1178 144.388 93.4698 144.58C93.8218 144.764 94.0938 145.032 94.2858 145.384C94.4858 145.728 94.5858 146.132 94.5858 146.596C94.5858 147.06 94.4538 147.532 94.1898 148.012C93.9338 148.484 93.5818 148.976 93.1338 149.488C92.6938 150 92.2018 150.544 91.6578 151.12C91.8578 151.104 92.0738 151.088 92.3058 151.072C92.5378 151.056 92.7498 151.048 92.9418 151.048H94.9578V152.08H89.8938ZM95.9641 152.08V151.372C96.7001 150.652 97.3281 150.012 97.8481 149.452C98.3761 148.892 98.7801 148.388 99.0601 147.94C99.3401 147.484 99.4801 147.056 99.4801 146.656C99.4801 146.232 99.3681 145.896 99.1441 145.648C98.9201 145.392 98.5841 145.264 98.1361 145.264C97.8321 145.264 97.5481 145.348 97.2841 145.516C97.0281 145.684 96.7961 145.892 96.5881 146.14L95.9041 145.468C96.2401 145.1 96.5921 144.812 96.9601 144.604C97.3361 144.396 97.7801 144.292 98.2921 144.292C98.7721 144.292 99.1881 144.388 99.5401 144.58C99.8921 144.764 100.164 145.032 100.356 145.384C100.556 145.728 100.656 146.132 100.656 146.596C100.656 147.06 100.524 147.532 100.26 148.012C100.004 148.484 99.6521 148.976 99.2041 149.488C98.7641 150 98.2721 150.544 97.7281 151.12C97.9281 151.104 98.1441 151.088 98.3761 151.072C98.6081 151.056 98.8201 151.048 99.0121 151.048H101.028V152.08H95.9641ZM103.63 152.08C103.678 151.152 103.774 150.32 103.918 149.584C104.07 148.848 104.294 148.152 104.59 147.496C104.894 146.832 105.294 146.156 105.79 145.468H102.094V144.436H107.134V145.18C106.678 145.74 106.31 146.28 106.03 146.8C105.75 147.312 105.53 147.832 105.37 148.36C105.218 148.888 105.102 149.452 105.022 150.052C104.95 150.652 104.898 151.328 104.866 152.08H103.63Z" fill="white"/>
</g>
<defs>
<filter id="filter0_d_201_2483" x="0" y="12.543" width="33.2588" height="25.605" filterUnits="userSpaceOnUse" color-interpolation-filters="sRGB">
<feFlood flood-opacity="0" result="BackgroundImageFix"/>
<feColorMatrix in="SourceAlpha" type="matrix" values="0 0 0 0 0 0 0 0 0 0 0 0 0 0 0 0 0 0 127 0" result="hardAlpha"/>
<feOffset dy="1"/>
<feGaussianBlur stdDeviation="2"/>
<feComposite in2="hardAlpha" operator="out"/>
<feColorMatrix type="matrix" values="0 0 0 0 0 0 0 0 0 0 0 0 0 0 0 0 0 0 0.25 0"/>
<feBlend mode="normal" in2="BackgroundImageFix" result="effect1_dropShadow_201_2483"/>
<feBlend mode="normal" in="SourceGraphic" in2="effect1_dropShadow_201_2483" result="shape"/>
</filter>
<filter id="filter1_d_201_2483" x="155.383" y="8.71582" width="32.4941" height="25.605" filterUnits="userSpaceOnUse" color-interpolation-filters="sRGB">
<feFlood flood-opacity="0" result="BackgroundImageFix"/>
<feColorMatrix in="SourceAlpha" type="matrix" values="0 0 0 0 0 0 0 0 0 0 0 0 0 0 0 0 0 0 127 0" result="hardAlpha"/>
<feOffset dy="1"/>
<feGaussianBlur stdDeviation="2"/>
<feComposite in2="hardAlpha" operator="out"/>
<feColorMatrix type="matrix" values="0 0 0 0 0 0 0 0 0 0 0 0 0 0 0 0 0 0 0.25 0"/>
<feBlend mode="normal" in2="BackgroundImageFix" result="effect1_dropShadow_201_2483"/>
<feBlend mode="normal" in="SourceGraphic" in2="effect1_dropShadow_201_2483" result="shape"/>
</filter>
<filter id="filter2_d_201_2483" x="161.506" y="82.1978" width="32.4941" height="25.605" filterUnits="userSpaceOnUse" color-interpolation-filters="sRGB">
<feFlood flood-opacity="0" result="BackgroundImageFix"/>
<feColorMatrix in="SourceAlpha" type="matrix" values="0 0 0 0 0 0 0 0 0 0 0 0 0 0 0 0 0 0 127 0" result="hardAlpha"/>
<feOffset dy="1"/>
<feGaussianBlur stdDeviation="2"/>
<feComposite in2="hardAlpha" operator="out"/>
<feColorMatrix type="matrix" values="0 0 0 0 0 0 0 0 0 0 0 0 0 0 0 0 0 0 0.25 0"/>
<feBlend mode="normal" in2="BackgroundImageFix" result="effect1_dropShadow_201_2483"/>
<feBlend mode="normal" in="SourceGraphic" in2="effect1_dropShadow_201_2483" result="shape"/>
</filter>
<filter id="filter3_d_201_2483" x="81.9014" y="135.778" width="33.2588" height="25.605" filterUnits="userSpaceOnUse" color-interpolation-filters="sRGB">
<feFlood flood-opacity="0" result="BackgroundImageFix"/>
<feColorMatrix in="SourceAlpha" type="matrix" values="0 0 0 0 0 0 0 0 0 0 0 0 0 0 0 0 0 0 127 0" result="hardAlpha"/>
<feOffset dy="1"/>
<feGaussianBlur stdDeviation="2"/>
<feComposite in2="hardAlpha" operator="out"/>
<feColorMatrix type="matrix" values="0 0 0 0 0 0 0 0 0 0 0 0 0 0 0 0 0 0 0.25 0"/>
<feBlend mode="normal" in2="BackgroundImageFix" result="effect1_dropShadow_201_2483"/>
<feBlend mode="normal" in="SourceGraphic" in2="effect1_dropShadow_201_2483" result="shape"/>
</filter>
</defs>
</svg>
