<svg width="194" height="162" viewBox="0 0 194 162" fill="none" xmlns="http://www.w3.org/2000/svg">
<path d="M156.763 62.2342C156.763 50.291 153.27 38.6085 146.715 28.625C140.16 18.6415 130.828 10.7929 119.869 6.04541L95.5283 62.2342H156.763Z" fill="#00C2FF" stroke="#343B4F"/>
<path d="M119.87 6.04575C106.087 0.0750116 90.5902 -0.621608 76.3273 4.08839C62.0643 8.79839 50.03 18.5864 42.5133 31.5908C34.9965 44.5952 32.5217 59.9088 35.5595 74.6189C38.5973 89.3291 46.9359 102.41 58.9892 111.373L95.5286 62.2346L119.87 6.04575Z" fill="#440154" stroke="#343B4F"/>
<path d="M58.9893 111.373C70.2329 119.734 84.0037 123.986 98.0038 123.419C112.004 122.853 125.386 117.503 135.918 108.261L95.5288 62.2349L58.9893 111.373Z" fill="#CB3CFF" stroke="#343B4F"/>
<path d="M135.917 108.261C142.467 102.514 147.714 95.4352 151.309 87.4981C154.903 79.561 156.763 70.9481 156.763 62.2349H95.5283L135.917 108.261Z" fill="#FF5A65" stroke="#343B4F"/>
<path d="M146.715 28.625L159.512 20.2227" stroke="#343B4F"/>
<path d="M42.5126 31.5906L29.2588 23.9297" stroke="#343B4F"/>
<path d="M98.0039 123.419L98.6227 138.715" stroke="#343B4F"/>
<path d="M151.309 87.498L165.254 93.8139" stroke="#343B4F"/>
<g filter="url(#filter0_d_89_6426)">
<rect x="4" y="15.543" width="25.2593" height="17.6049" rx="4" fill="#343B4F" shape-rendering="crispEdges"/>
<path d="M11.1364 28.8452V23.9252C11.1364 23.7092 11.1444 23.4532 11.1604 23.1572C11.1764 22.8532 11.1884 22.5972 11.1964 22.3892H11.1484C11.0524 22.5732 10.9524 22.7612 10.8484 22.9532C10.7444 23.1372 10.6364 23.3292 10.5244 23.5292L8.96441 25.8692H13.2724V26.8172H7.74041V26.0012L10.8724 21.2012H12.2764V28.8452H11.1364ZM16.6427 28.9892C16.1547 28.9892 15.7147 28.9012 15.3227 28.7252C14.9387 28.5412 14.6347 28.2932 14.4107 27.9812C14.1947 27.6612 14.0867 27.2972 14.0867 26.8892C14.0867 26.5612 14.1547 26.2732 14.2907 26.0252C14.4267 25.7692 14.5987 25.5492 14.8067 25.3652C15.0227 25.1732 15.2507 25.0132 15.4907 24.8852V24.8372C15.2107 24.6292 14.9627 24.3812 14.7467 24.0932C14.5387 23.8052 14.4347 23.4612 14.4347 23.0612C14.4347 22.6532 14.5307 22.3012 14.7227 22.0052C14.9227 21.7012 15.1907 21.4692 15.5267 21.3092C15.8627 21.1412 16.2467 21.0572 16.6787 21.0572C17.3587 21.0572 17.8947 21.2492 18.2867 21.6332C18.6867 22.0092 18.8867 22.5012 18.8867 23.1092C18.8867 23.3652 18.8307 23.6092 18.7187 23.8412C18.6147 24.0732 18.4827 24.2812 18.3227 24.4652C18.1707 24.6412 18.0107 24.7892 17.8427 24.9092V24.9572C18.0747 25.0852 18.2907 25.2372 18.4907 25.4132C18.6987 25.5892 18.8627 25.8012 18.9827 26.0492C19.1107 26.2972 19.1747 26.5892 19.1747 26.9252C19.1747 27.3172 19.0667 27.6692 18.8507 27.9812C18.6427 28.2852 18.3467 28.5292 17.9627 28.7132C17.5867 28.8972 17.1467 28.9892 16.6427 28.9892ZM16.6667 28.1132C16.9307 28.1132 17.1667 28.0652 17.3747 27.9692C17.5827 27.8652 17.7427 27.7212 17.8547 27.5372C17.9747 27.3532 18.0347 27.1372 18.0347 26.8892C18.0347 26.5852 17.9467 26.3372 17.7707 26.1452C17.5947 25.9532 17.3587 25.7892 17.0627 25.6532C16.7667 25.5172 16.4427 25.3772 16.0907 25.2332C15.8267 25.4172 15.6027 25.6412 15.4187 25.9052C15.2427 26.1612 15.1547 26.4492 15.1547 26.7692C15.1547 27.0332 15.2187 27.2692 15.3467 27.4772C15.4827 27.6772 15.6627 27.8332 15.8867 27.9452C16.1187 28.0572 16.3787 28.1132 16.6667 28.1132ZM17.1587 24.5972C17.3907 24.3812 17.5667 24.1572 17.6867 23.9252C17.8067 23.6852 17.8667 23.4372 17.8667 23.1812C17.8667 22.9412 17.8187 22.7292 17.7227 22.5452C17.6347 22.3532 17.4987 22.2052 17.3147 22.1012C17.1307 21.9892 16.9107 21.9332 16.6547 21.9332C16.3347 21.9332 16.0667 22.0332 15.8507 22.2332C15.6347 22.4332 15.5267 22.7092 15.5267 23.0612C15.5267 23.3332 15.5987 23.5652 15.7427 23.7572C15.8947 23.9412 16.0947 24.1012 16.3427 24.2372C16.5907 24.3652 16.8627 24.4852 17.1587 24.5972ZM22.929 28.9892C22.553 28.9892 22.201 28.9132 21.873 28.7612C21.545 28.6092 21.257 28.3812 21.009 28.0772C20.769 27.7732 20.577 27.3892 20.433 26.9252C20.289 26.4612 20.217 25.9132 20.217 25.2812C20.217 24.5292 20.297 23.8852 20.457 23.3492C20.625 22.8132 20.845 22.3772 21.117 22.0412C21.397 21.7052 21.713 21.4572 22.065 21.2972C22.417 21.1372 22.789 21.0572 23.181 21.0572C23.621 21.0572 24.001 21.1372 24.321 21.2972C24.641 21.4572 24.913 21.6572 25.137 21.8972L24.477 22.6412C24.325 22.4652 24.137 22.3252 23.913 22.2212C23.697 22.1092 23.473 22.0532 23.241 22.0532C22.897 22.0532 22.581 22.1572 22.293 22.3652C22.005 22.5652 21.773 22.9012 21.597 23.3732C21.429 23.8372 21.345 24.4732 21.345 25.2812C21.345 25.9132 21.409 26.4332 21.537 26.8412C21.665 27.2492 21.845 27.5532 22.077 27.7532C22.317 27.9532 22.597 28.0532 22.917 28.0532C23.141 28.0532 23.345 27.9932 23.529 27.8732C23.721 27.7452 23.869 27.5652 23.973 27.3332C24.085 27.1012 24.141 26.8252 24.141 26.5052C24.141 26.1932 24.089 25.9292 23.985 25.7132C23.889 25.4892 23.745 25.3212 23.553 25.2092C23.361 25.0892 23.125 25.0292 22.845 25.0292C22.613 25.0292 22.361 25.1052 22.089 25.2572C21.817 25.4092 21.565 25.6692 21.333 26.0372L21.285 25.1492C21.517 24.8372 21.793 24.5932 22.113 24.4172C22.441 24.2332 22.757 24.1412 23.061 24.1412C23.501 24.1412 23.885 24.2292 24.213 24.4052C24.549 24.5812 24.809 24.8452 24.993 25.1972C25.177 25.5412 25.269 25.9772 25.269 26.5052C25.269 27.0092 25.161 27.4452 24.945 27.8132C24.729 28.1812 24.445 28.4692 24.093 28.6772C23.741 28.8852 23.353 28.9892 22.929 28.9892Z" fill="white"/>
</g>
<g filter="url(#filter1_d_89_6426)">
<rect x="159.383" y="11.7158" width="24.4938" height="17.6049" rx="4" fill="#343B4F" shape-rendering="crispEdges"/>
<path d="M163.322 25.0181V24.0221H165.05V18.7421H163.646V17.9741C164.014 17.9021 164.334 17.8181 164.606 17.7221C164.878 17.6261 165.126 17.5101 165.35 17.3741H166.262V24.0221H167.798V25.0181H163.322ZM170.881 25.1621C170.441 25.1621 170.061 25.0821 169.741 24.9221C169.421 24.7541 169.149 24.5541 168.925 24.3221L169.585 23.5781C169.729 23.7541 169.913 23.8981 170.137 24.0101C170.361 24.1141 170.589 24.1661 170.821 24.1661C171.165 24.1661 171.481 24.0661 171.769 23.8661C172.057 23.6581 172.285 23.3221 172.453 22.8581C172.629 22.3861 172.717 21.7461 172.717 20.9381C172.717 20.3061 172.653 19.7861 172.525 19.3781C172.397 18.9701 172.213 18.6661 171.973 18.4661C171.741 18.2661 171.465 18.1661 171.145 18.1661C170.913 18.1661 170.705 18.2301 170.521 18.3581C170.337 18.4781 170.189 18.6541 170.077 18.8861C169.973 19.1101 169.921 19.3861 169.921 19.7141C169.921 20.0261 169.969 20.2941 170.065 20.5181C170.169 20.7341 170.317 20.9021 170.509 21.0221C170.701 21.1341 170.937 21.1901 171.217 21.1901C171.449 21.1901 171.701 21.1141 171.973 20.9621C172.245 20.8101 172.497 20.5501 172.729 20.1821L172.777 21.0701C172.553 21.3741 172.277 21.6181 171.949 21.8021C171.621 21.9861 171.305 22.0781 171.001 22.0781C170.561 22.0781 170.173 21.9901 169.837 21.8141C169.509 21.6381 169.253 21.3781 169.069 21.0341C168.885 20.6821 168.793 20.2421 168.793 19.7141C168.793 19.2101 168.897 18.7741 169.105 18.4061C169.321 18.0301 169.605 17.7421 169.957 17.5421C170.317 17.3341 170.709 17.2301 171.133 17.2301C171.509 17.2301 171.861 17.3061 172.189 17.4581C172.517 17.6021 172.801 17.8301 173.041 18.1421C173.289 18.4461 173.485 18.8301 173.629 19.2941C173.773 19.7581 173.845 20.3061 173.845 20.9381C173.845 21.6901 173.761 22.3341 173.593 22.8701C173.433 23.4061 173.213 23.8421 172.933 24.1781C172.661 24.5141 172.345 24.7621 171.985 24.9221C171.633 25.0821 171.265 25.1621 170.881 25.1621ZM178.019 25.0181V20.0981C178.019 19.8821 178.027 19.6261 178.043 19.3301C178.059 19.0261 178.071 18.7701 178.079 18.5621H178.031C177.935 18.7461 177.835 18.9341 177.731 19.1261C177.627 19.3101 177.519 19.5021 177.407 19.7021L175.847 22.0421H180.155V22.9901H174.623V22.1741L177.755 17.3741H179.159V25.0181H178.019Z" fill="white"/>
</g>
<g filter="url(#filter2_d_89_6426)">
<rect x="165.506" y="85.1978" width="24.4938" height="17.6049" rx="4" fill="#343B4F" shape-rendering="crispEdges"/>
<path d="M169.445 98.5V97.504H171.173V92.224H169.769V91.456C170.137 91.384 170.457 91.3 170.729 91.204C171.001 91.108 171.249 90.992 171.473 90.856H172.385V97.504H173.921V98.5H169.445ZM178.072 98.5V93.58C178.072 93.364 178.08 93.108 178.096 92.812C178.112 92.508 178.124 92.252 178.132 92.044H178.084C177.988 92.228 177.888 92.416 177.784 92.608C177.68 92.792 177.572 92.984 177.46 93.184L175.9 95.524H180.208V96.472H174.676V95.656L177.808 90.856H179.212V98.5H178.072ZM180.998 98.5V97.792C181.734 97.072 182.362 96.432 182.882 95.872C183.41 95.312 183.814 94.808 184.094 94.36C184.374 93.904 184.514 93.476 184.514 93.076C184.514 92.652 184.402 92.316 184.178 92.068C183.954 91.812 183.618 91.684 183.17 91.684C182.866 91.684 182.582 91.768 182.318 91.936C182.062 92.104 181.83 92.312 181.622 92.56L180.938 91.888C181.274 91.52 181.626 91.232 181.994 91.024C182.37 90.816 182.814 90.712 183.326 90.712C183.806 90.712 184.222 90.808 184.574 91C184.926 91.184 185.198 91.452 185.39 91.804C185.59 92.148 185.69 92.552 185.69 93.016C185.69 93.48 185.558 93.952 185.294 94.432C185.038 94.904 184.686 95.396 184.238 95.908C183.798 96.42 183.306 96.964 182.762 97.54C182.962 97.524 183.178 97.508 183.41 97.492C183.642 97.476 183.854 97.468 184.046 97.468H186.062V98.5H180.998Z" fill="white"/>
</g>
<g filter="url(#filter3_d_89_6426)">
<rect x="85.9014" y="138.778" width="25.2593" height="17.6049" rx="4" fill="#343B4F" shape-rendering="crispEdges"/>
<path d="M89.8938 152.08V151.372C90.6298 150.652 91.2578 150.012 91.7778 149.452C92.3058 148.892 92.7098 148.388 92.9898 147.94C93.2698 147.484 93.4098 147.056 93.4098 146.656C93.4098 146.232 93.2978 145.896 93.0738 145.648C92.8498 145.392 92.5138 145.264 92.0658 145.264C91.7618 145.264 91.4778 145.348 91.2138 145.516C90.9578 145.684 90.7258 145.892 90.5178 146.14L89.8338 145.468C90.1698 145.1 90.5218 144.812 90.8898 144.604C91.2658 144.396 91.7098 144.292 92.2218 144.292C92.7018 144.292 93.1178 144.388 93.4698 144.58C93.8218 144.764 94.0938 145.032 94.2858 145.384C94.4858 145.728 94.5858 146.132 94.5858 146.596C94.5858 147.06 94.4538 147.532 94.1898 148.012C93.9338 148.484 93.5818 148.976 93.1338 149.488C92.6938 150 92.2018 150.544 91.6578 151.12C91.8578 151.104 92.0738 151.088 92.3058 151.072C92.5378 151.056 92.7498 151.048 92.9418 151.048H94.9578V152.08H89.8938ZM95.9641 152.08V151.372C96.7001 150.652 97.3281 150.012 97.8481 149.452C98.3761 148.892 98.7801 148.388 99.0601 147.94C99.3401 147.484 99.4801 147.056 99.4801 146.656C99.4801 146.232 99.3681 145.896 99.1441 145.648C98.9201 145.392 98.5841 145.264 98.1361 145.264C97.8321 145.264 97.5481 145.348 97.2841 145.516C97.0281 145.684 96.7961 145.892 96.5881 146.14L95.9041 145.468C96.2401 145.1 96.5921 144.812 96.9601 144.604C97.3361 144.396 97.7801 144.292 98.2921 144.292C98.7721 144.292 99.1881 144.388 99.5401 144.58C99.8921 144.764 100.164 145.032 100.356 145.384C100.556 145.728 100.656 146.132 100.656 146.596C100.656 147.06 100.524 147.532 100.26 148.012C100.004 148.484 99.6521 148.976 99.2041 149.488C98.7641 150 98.2721 150.544 97.7281 151.12C97.9281 151.104 98.1441 151.088 98.3761 151.072C98.6081 151.056 98.8201 151.048 99.0121 151.048H101.028V152.08H95.9641ZM103.63 152.08C103.678 151.152 103.774 150.32 103.918 149.584C104.07 148.848 104.294 148.152 104.59 147.496C104.894 146.832 105.294 146.156 105.79 145.468H102.094V144.436H107.134V145.18C106.678 145.74 106.31 146.28 106.03 146.8C105.75 147.312 105.53 147.832 105.37 148.36C105.218 148.888 105.102 149.452 105.022 150.052C104.95 150.652 104.898 151.328 104.866 152.08H103.63Z" fill="white"/>
</g>
<defs>
<filter id="filter0_d_89_6426" x="0" y="12.543" width="33.2588" height="25.605" filterUnits="userSpaceOnUse" color-interpolation-filters="sRGB">
<feFlood flood-opacity="0" result="BackgroundImageFix"/>
<feColorMatrix in="SourceAlpha" type="matrix" values="0 0 0 0 0 0 0 0 0 0 0 0 0 0 0 0 0 0 127 0" result="hardAlpha"/>
<feOffset dy="1"/>
<feGaussianBlur stdDeviation="2"/>
<feComposite in2="hardAlpha" operator="out"/>
<feColorMatrix type="matrix" values="0 0 0 0 0 0 0 0 0 0 0 0 0 0 0 0 0 0 0.25 0"/>
<feBlend mode="normal" in2="BackgroundImageFix" result="effect1_dropShadow_89_6426"/>
<feBlend mode="normal" in="SourceGraphic" in2="effect1_dropShadow_89_6426" result="shape"/>
</filter>
<filter id="filter1_d_89_6426" x="155.383" y="8.71582" width="32.4941" height="25.605" filterUnits="userSpaceOnUse" color-interpolation-filters="sRGB">
<feFlood flood-opacity="0" result="BackgroundImageFix"/>
<feColorMatrix in="SourceAlpha" type="matrix" values="0 0 0 0 0 0 0 0 0 0 0 0 0 0 0 0 0 0 127 0" result="hardAlpha"/>
<feOffset dy="1"/>
<feGaussianBlur stdDeviation="2"/>
<feComposite in2="hardAlpha" operator="out"/>
<feColorMatrix type="matrix" values="0 0 0 0 0 0 0 0 0 0 0 0 0 0 0 0 0 0 0.25 0"/>
<feBlend mode="normal" in2="BackgroundImageFix" result="effect1_dropShadow_89_6426"/>
<feBlend mode="normal" in="SourceGraphic" in2="effect1_dropShadow_89_6426" result="shape"/>
</filter>
<filter id="filter2_d_89_6426" x="161.506" y="82.1978" width="32.4941" height="25.605" filterUnits="userSpaceOnUse" color-interpolation-filters="sRGB">
<feFlood flood-opacity="0" result="BackgroundImageFix"/>
<feColorMatrix in="SourceAlpha" type="matrix" values="0 0 0 0 0 0 0 0 0 0 0 0 0 0 0 0 0 0 127 0" result="hardAlpha"/>
<feOffset dy="1"/>
<feGaussianBlur stdDeviation="2"/>
<feComposite in2="hardAlpha" operator="out"/>
<feColorMatrix type="matrix" values="0 0 0 0 0 0 0 0 0 0 0 0 0 0 0 0 0 0 0.25 0"/>
<feBlend mode="normal" in2="BackgroundImageFix" result="effect1_dropShadow_89_6426"/>
<feBlend mode="normal" in="SourceGraphic" in2="effect1_dropShadow_89_6426" result="shape"/>
</filter>
<filter id="filter3_d_89_6426" x="81.9014" y="135.778" width="33.2588" height="25.605" filterUnits="userSpaceOnUse" color-interpolation-filters="sRGB">
<feFlood flood-opacity="0" result="BackgroundImageFix"/>
<feColorMatrix in="SourceAlpha" type="matrix" values="0 0 0 0 0 0 0 0 0 0 0 0 0 0 0 0 0 0 127 0" result="hardAlpha"/>
<feOffset dy="1"/>
<feGaussianBlur stdDeviation="2"/>
<feComposite in2="hardAlpha" operator="out"/>
<feColorMatrix type="matrix" values="0 0 0 0 0 0 0 0 0 0 0 0 0 0 0 0 0 0 0.25 0"/>
<feBlend mode="normal" in2="BackgroundImageFix" result="effect1_dropShadow_89_6426"/>
<feBlend mode="normal" in="SourceGraphic" in2="effect1_dropShadow_89_6426" result="shape"/>
</filter>
</defs>
</svg>
