<svg width="28" height="27" viewBox="0 0 28 27" fill="none" xmlns="http://www.w3.org/2000/svg">
<path d="M13.917 14.625C14.5576 14.625 15.0768 14.1213 15.0768 13.5C15.0768 12.8787 14.5576 12.375 13.917 12.375C13.2765 12.375 12.7572 12.8787 12.7572 13.5C12.7572 14.1213 13.2765 14.625 13.917 14.625Z" fill="#AEB9E1"/>
<path d="M22.0356 14.625C22.6761 14.625 23.1954 14.1213 23.1954 13.5C23.1954 12.8787 22.6761 12.375 22.0356 12.375C21.395 12.375 20.8758 12.8787 20.8758 13.5C20.8758 14.1213 21.395 14.625 22.0356 14.625Z" fill="#AEB9E1"/>
<path d="M5.79847 14.625C6.439 14.625 6.95826 14.1213 6.95826 13.5C6.95826 12.8787 6.439 12.375 5.79847 12.375C5.15793 12.375 4.63867 12.8787 4.63867 13.5C4.63867 14.1213 5.15793 14.625 5.79847 14.625Z" fill="#AEB9E1"/>
<path d="M13.917 14.625C14.5576 14.625 15.0768 14.1213 15.0768 13.5C15.0768 12.8787 14.5576 12.375 13.917 12.375C13.2765 12.375 12.7572 12.8787 12.7572 13.5C12.7572 14.1213 13.2765 14.625 13.917 14.625Z" stroke="#AEB9E1" stroke-width="3" stroke-linecap="round" stroke-linejoin="round"/>
<path d="M22.0356 14.625C22.6761 14.625 23.1954 14.1213 23.1954 13.5C23.1954 12.8787 22.6761 12.375 22.0356 12.375C21.395 12.375 20.8758 12.8787 20.8758 13.5C20.8758 14.1213 21.395 14.625 22.0356 14.625Z" stroke="#AEB9E1" stroke-width="3" stroke-linecap="round" stroke-linejoin="round"/>
<path d="M5.79847 14.625C6.439 14.625 6.95826 14.1213 6.95826 13.5C6.95826 12.8787 6.439 12.375 5.79847 12.375C5.15793 12.375 4.63867 12.8787 4.63867 13.5C4.63867 14.1213 5.15793 14.625 5.79847 14.625Z" stroke="#AEB9E1" stroke-width="3" stroke-linecap="round" stroke-linejoin="round"/>
</svg>
