<svg width="30" height="30" viewBox="0 0 30 30" fill="none" xmlns="http://www.w3.org/2000/svg">
<g clip-path="url(#clip0_150_419)">
<path d="M15 15.693C15.5909 15.693 16.1761 15.5766 16.7221 15.3505C17.268 15.1243 17.7641 14.7928 18.182 14.375C18.5998 13.9571 18.9313 13.461 19.1575 12.9151C19.3836 12.3691 19.5 11.7839 19.5 11.193C19.5 10.602 19.3836 10.0169 19.1575 9.47092C18.9313 8.92495 18.5998 8.42888 18.182 8.01101C17.7641 7.59315 17.268 7.26168 16.7221 7.03554C16.1761 6.80939 15.5909 6.69299 15 6.69299C13.8065 6.69299 12.6619 7.1671 11.818 8.01101C10.9741 8.85493 10.5 9.99952 10.5 11.193C10.5 12.3865 10.9741 13.5311 11.818 14.375C12.6619 15.2189 13.8065 15.693 15 15.693Z" stroke="#AEB9E1" stroke-width="2.4" stroke-linecap="round" stroke-linejoin="round"/>
<path d="M6.12891 25.176C7.05624 23.6546 8.35928 22.3972 9.91281 21.5248C11.4663 20.6523 13.2182 20.1941 14.9999 20.1941C16.7817 20.1941 18.5335 20.6523 20.087 21.5248C21.6405 22.3972 22.9436 23.6546 23.8709 25.176" stroke="#AEB9E1" stroke-width="2.4" stroke-linecap="round" stroke-linejoin="round"/>
<path d="M15 28.5C18.5804 28.5 22.0142 27.0777 24.5459 24.5459C27.0777 22.0142 28.5 18.5804 28.5 15C28.5 11.4196 27.0777 7.9858 24.5459 5.45406C22.0142 2.92232 18.5804 1.5 15 1.5C11.4196 1.5 7.9858 2.92232 5.45406 5.45406C2.92232 7.9858 1.5 11.4196 1.5 15C1.5 18.5804 2.92232 22.0142 5.45406 24.5459C7.9858 27.0777 11.4196 28.5 15 28.5Z" stroke="#AEB9E1" stroke-width="2.4" stroke-linecap="round" stroke-linejoin="round"/>
</g>
<defs>
<clipPath id="clip0_150_419">
<rect width="30" height="30" fill="white"/>
</clipPath>
</defs>
</svg>
