<svg width="31" height="30" viewBox="0 0 31 30" fill="none" xmlns="http://www.w3.org/2000/svg">
  <path d="M6.629 25.176C7.55633 23.6546 8.85937 22.3972 10.4129 21.5248C11.9664 20.6523 13.7182 20.1941 15.5 20.1941C17.2817 20.1941 19.0336 20.6523 20.5871 21.5248C22.1406 22.3972 23.4437 23.6546 24.371 25.176M15.5 15.693C16.0909 15.693 16.6761 15.5766 17.2221 15.3504C17.768 15.1243 18.2641 14.7928 18.682 14.3749C19.0998 13.9571 19.4313 13.461 19.6575 12.915C19.8836 12.3691 20 11.7839 20 11.193C20 10.602 19.8836 10.0169 19.6575 9.47089C19.4313 8.92492 19.0998 8.42885 18.682 8.01098C18.2641 7.59312 17.768 7.26165 17.2221 7.03551C16.6761 6.80936 16.0909 6.69296 15.5 6.69296C14.3065 6.69296 13.1619 7.16707 12.318 8.01098C11.4741 8.8549 11 9.99949 11 11.193C11 12.3864 11.4741 13.531 12.318 14.3749C13.1619 15.2189 14.3065 15.693 15.5 15.693ZM15.5 28.5C19.0804 28.5 22.5142 27.0777 25.0459 24.5459C27.5777 22.0142 29 18.5804 29 15C29 11.4196 27.5777 7.9858 25.0459 5.45406C22.5142 2.92232 19.0804 1.5 15.5 1.5C11.9196 1.5 8.4858 2.92232 5.95406 5.45406C3.42232 7.9858 2 11.4196 2 15C2 18.5804 3.42232 22.0142 5.95406 24.5459C8.4858 27.0777 11.9196 28.5 15.5 28.5Z"   stroke-width="2.4" stroke-linecap="round" stroke-linejoin="round"/>
</svg>