<svg width="31" height="30" viewBox="0 0 31 30" fill="none" xmlns="http://www.w3.org/2000/svg">
  <path d="M24.845 1.5H26.924C27.4746 1.5 28.0026 1.71872 28.3919 2.10805C28.7813 2.49737 29 3.02541 29 3.576V5.655M2 5.655V3.576C2 3.30338 2.0537 3.03342 2.15803 2.78155C2.26235 2.52968 2.41527 2.30082 2.60805 2.10805C2.99737 1.71872 3.52541 1.5 4.076 1.5H6.155M12.383 1.5H18.614M2 11.886V18.114M2 24.345V26.424C2 26.9746 2.21872 27.5026 2.60805 27.8919C2.99737 28.2812 3.52541 28.5 4.076 28.5H6.155M29 28.5L23.714 23.214M20.684 17.25H14.816M17.75 14.316V20.184M17.75 25.689C18.8714 25.7101 19.9858 25.5075 21.028 25.093C22.0702 24.6785 23.0193 24.0604 23.8199 23.2748C24.6204 22.4892 25.2563 21.5519 25.6904 20.5177C26.1245 19.4835 26.3481 18.3731 26.3481 17.2515C26.3481 16.1299 26.1245 15.0195 25.6904 13.9853C25.2563 12.9511 24.6204 12.0138 23.8199 11.2282C23.0193 10.4426 22.0702 9.82452 21.028 9.40999C19.9858 8.99547 18.8714 8.79285 17.75 8.814C15.5398 8.85568 13.4342 9.76294 11.8858 11.3407C10.3375 12.9185 9.47011 15.0409 9.47011 17.2515C9.47011 19.4621 10.3375 21.5845 11.8858 23.1623C13.4342 24.7401 15.5398 25.6473 17.75 25.689Z"   stroke-width="2.4" stroke-linecap="round" stroke-linejoin="round"/>
</svg>