<svg width="30" height="30" viewBox="0 0 30 30" fill="none" xmlns="http://www.w3.org/2000/svg">
<path d="M10.9951 17.5889C10.9951 18.5834 11.3902 19.5373 12.0935 20.2405C12.7967 20.9438 13.7506 21.3389 14.7451 21.3389C15.7397 21.3389 16.6935 20.9438 17.3968 20.2405C18.1 19.5373 18.4951 18.5834 18.4951 17.5889C18.4951 16.5943 18.1 15.6405 17.3968 14.9372C16.6935 14.234 15.7397 13.8389 14.7451 13.8389C13.7506 13.8389 12.7967 14.234 12.0935 14.9372C11.3902 15.6405 10.9951 16.5943 10.9951 17.5889Z" stroke="#AEB9E1" stroke-width="2.4" stroke-linecap="round" stroke-linejoin="round"/>
<path d="M17.7451 9.35107C17.5462 9.35107 17.3554 9.27206 17.2148 9.1314C17.0741 8.99075 16.9951 8.79999 16.9951 8.60107C16.9951 8.40216 17.0741 8.2114 17.2148 8.07074C17.3554 7.93009 17.5462 7.85107 17.7451 7.85107" stroke="#AEB9E1" stroke-width="2.4"/>
<path d="M17.7451 9.35107C17.944 9.35107 18.1348 9.27206 18.2754 9.1314C18.4161 8.99075 18.4951 8.79999 18.4951 8.60107C18.4951 8.40216 18.4161 8.2114 18.2754 8.07074C18.1348 7.93009 17.944 7.85107 17.7451 7.85107" stroke="#AEB9E1" stroke-width="2.4"/>
<path d="M24.4886 16.4098C24.2186 13.9588 24.5486 11.2198 24.5486 8.7568C24.5492 7.94573 24.3849 7.14301 24.0657 6.39737C23.7465 5.65174 23.2791 4.97876 22.6919 4.4193C22.1047 3.85984 21.4098 3.42558 20.6496 3.14289C19.8894 2.86019 19.0797 2.73496 18.2696 2.7748C13.2266 3.0148 8.50159 8.5948 6.20959 13.0888C5.52669 14.4351 5.1677 15.9224 5.16122 17.432C5.15474 18.9416 5.50096 20.4318 6.17227 21.784C6.84358 23.1361 7.82144 24.3127 9.02792 25.2201C10.2344 26.1275 11.6361 26.7406 13.1214 27.0104C14.6067 27.2803 16.1345 27.1995 17.5831 26.7745C19.0316 26.3495 20.3609 25.592 21.4649 24.5624C22.569 23.5328 23.4173 22.2596 23.9422 20.8442C24.4672 19.4288 24.6543 17.9103 24.4886 16.4098Z" stroke="#AEB9E1" stroke-width="2.4" stroke-linecap="round" stroke-linejoin="round"/>
<path d="M24.2794 1.73096L22.4014 4.13696" stroke="#AEB9E1" stroke-width="2.4" stroke-linecap="round" stroke-linejoin="round"/>
<path d="M27.5038 8.55615L24.5488 9.31215" stroke="#AEB9E1" stroke-width="2.4" stroke-linecap="round" stroke-linejoin="round"/>
<path d="M6.34766 7.24219L9.03866 8.68219" stroke="#AEB9E1" stroke-width="2.4" stroke-linecap="round" stroke-linejoin="round"/>
<path d="M24.4287 15.7979H27.4797" stroke="#AEB9E1" stroke-width="2.4" stroke-linecap="round" stroke-linejoin="round"/>
<path d="M2.49609 14.3398L5.47809 14.9758" stroke="#AEB9E1" stroke-width="2.4" stroke-linecap="round" stroke-linejoin="round"/>
<path d="M23.6035 21.6899L26.4715 22.7339" stroke="#AEB9E1" stroke-width="2.4" stroke-linecap="round" stroke-linejoin="round"/>
<path d="M6.11995 21.6782L3.25195 22.7222" stroke="#AEB9E1" stroke-width="2.4" stroke-linecap="round" stroke-linejoin="round"/>
<path d="M12.4893 1.5L14.0253 4.14" stroke="#AEB9E1" stroke-width="2.4" stroke-linecap="round" stroke-linejoin="round"/>
<path d="M8.45996 28.4999L9.99596 25.8599" stroke="#AEB9E1" stroke-width="2.4" stroke-linecap="round" stroke-linejoin="round"/>
<path d="M21.3182 28.4999L19.7852 25.8599" stroke="#AEB9E1" stroke-width="2.4" stroke-linecap="round" stroke-linejoin="round"/>
</svg>
