<svg width="29" height="30" viewBox="0 0 29 30" fill="none" xmlns="http://www.w3.org/2000/svg">
    <path d="M10.499 17.589L9.299 17.589L10.499 17.589ZM23.993 16.41L22.8002 16.5414L22.8002 16.5417L23.993 16.41ZM24.053 8.757L22.853 8.75615V8.757H24.053ZM17.774 2.775L17.831 3.97365L17.8329 3.97355L17.774 2.775ZM5.714 13.089L4.645 12.5438L4.6438 12.5462L5.714 13.089ZM24.7289 2.46936C25.1367 1.94693 25.0438 1.19283 24.5214 0.785048C23.9989 0.377263 23.2448 0.470203 22.837 0.992638L24.7289 2.46936ZM20.959 3.39864C20.5513 3.92107 20.6442 4.67516 21.1666 5.08295C21.6891 5.49074 22.4432 5.39779 22.8509 4.87536L20.959 3.39864ZM27.3054 9.71856C27.9475 9.5543 28.3348 8.90064 28.1706 8.25858C28.0063 7.61652 27.3526 7.22918 26.7106 7.39345L27.3054 9.71856ZM23.7556 8.14945C23.1135 8.31371 22.7262 8.96737 22.8904 9.60943C23.0547 10.2515 23.7084 10.6388 24.3504 10.4746L23.7556 8.14945ZM6.41817 6.18397C5.83383 5.87128 5.10665 6.09149 4.79396 6.67583C4.48127 7.26017 4.70148 7.98735 5.28582 8.30004L6.41817 6.18397ZM7.97682 9.74004C8.56116 10.0527 9.28834 9.83252 9.60103 9.24818C9.91372 8.66384 9.69351 7.93666 9.10917 7.62397L7.97682 9.74004ZM23.933 14.598C23.2703 14.598 22.733 15.1353 22.733 15.798C22.733 16.4607 23.2703 16.998 23.933 16.998V14.598ZM26.984 16.998C27.6467 16.998 28.184 16.4607 28.184 15.798C28.184 15.1353 27.6467 14.598 26.984 14.598V16.998ZM2.25031 13.1664C1.60214 13.0282 0.964636 13.4415 0.826396 14.0897C0.688156 14.7379 1.10153 15.3754 1.74969 15.5136L2.25031 13.1664ZM4.73169 16.1496C5.37986 16.2878 6.01736 15.8745 6.1556 15.2263C6.29384 14.5781 5.88047 13.9406 5.23231 13.8024L4.73169 16.1496ZM23.5185 20.5624C22.8957 20.3357 22.2071 20.6568 21.9804 21.2795C21.7537 21.9023 22.0748 22.5909 22.6975 22.8176L23.5185 20.5624ZM25.5655 23.8616C26.1883 24.0883 26.8769 23.7672 27.1036 23.1445C27.3303 22.5217 27.0092 21.8331 26.3865 21.6064L25.5655 23.8616ZM6.03447 22.8056C6.65723 22.5789 6.97831 21.8903 6.75161 21.2675C6.52491 20.6448 5.83629 20.3237 5.21353 20.5504L6.03447 22.8056ZM2.34553 21.5944C1.72276 21.8211 1.40169 22.5097 1.62838 23.1325C1.85508 23.7552 2.5437 24.0763 3.16647 23.8496L2.34553 21.5944ZM13.0302 0.896528C12.6969 0.323688 11.9624 0.129493 11.3895 0.462782C10.8167 0.796071 10.6225 1.53063 10.9558 2.10347L13.0302 0.896528ZM12.4918 4.74347C12.8251 5.31631 13.5596 5.51051 14.1325 5.17722C14.7053 4.84393 14.8995 4.10937 14.5662 3.53653L12.4918 4.74347ZM6.92678 27.8965C6.59349 28.4694 6.78768 29.2039 7.36052 29.5372C7.93336 29.8705 8.66793 29.6763 9.00121 29.1035L6.92678 27.8965ZM10.5372 26.4635C10.8705 25.8906 10.6763 25.1561 10.1035 24.8228C9.53063 24.4895 8.79607 24.6837 8.46278 25.2565L10.5372 26.4635ZM19.7843 29.1026C20.1171 29.6757 20.8515 29.8705 21.4246 29.5377C21.9977 29.2049 22.1925 28.4705 21.8597 27.8974L19.7843 29.1026ZM20.3267 25.2574C19.9939 24.6843 19.2595 24.4895 18.6864 24.8223C18.1133 25.1551 17.9185 25.8895 18.2513 26.4626L20.3267 25.2574ZM9.299 17.589C9.299 18.9018 9.82052 20.1609 10.7488 21.0892L12.4459 19.3921C11.9677 18.9139 11.699 18.2653 11.699 17.589L9.299 17.589ZM10.7488 21.0892C11.6771 22.0175 12.9362 22.539 14.249 22.539V20.139C13.5727 20.139 12.9241 19.8703 12.4459 19.3921L10.7488 21.0892ZM14.249 22.539C15.5618 22.539 16.8209 22.0175 17.7492 21.0892L16.0521 19.3921C15.5739 19.8703 14.9253 20.139 14.249 20.139V22.539ZM17.7492 21.0892C18.6775 20.1609 19.199 18.9018 19.199 17.589H16.799C16.799 18.2653 16.5303 18.9139 16.0521 19.3921L17.7492 21.0892ZM19.199 17.589C19.199 16.2762 18.6775 15.0171 17.7492 14.0888L16.0521 15.7859C16.5303 16.2641 16.799 16.9127 16.799 17.589H19.199ZM17.7492 14.0888C16.8209 13.1605 15.5618 12.639 14.249 12.639V15.039C14.9253 15.039 15.5739 15.3077 16.0521 15.7859L17.7492 14.0888ZM14.249 12.639C12.9362 12.639 11.6771 13.1605 10.7488 14.0888L12.4459 15.7859C12.9241 15.3077 13.5727 15.039 14.249 15.039V12.639ZM10.7488 14.0888C9.82052 15.0171 9.299 16.2762 9.299 17.589L11.699 17.589C11.699 16.9127 11.9677 16.2641 12.4459 15.7859L10.7488 14.0888ZM17.249 8.151C17.3683 8.151 17.4828 8.19841 17.5672 8.2828L15.8701 9.97986C16.2358 10.3456 16.7318 10.551 17.249 10.551V8.151ZM17.5672 8.2828C17.6516 8.3672 17.699 8.48166 17.699 8.601H15.299C15.299 9.11817 15.5044 9.61416 15.8701 9.97986L17.5672 8.2828ZM17.699 8.601C17.699 8.72035 17.6516 8.83481 17.5672 8.9192L15.8701 7.22214C15.5044 7.58784 15.299 8.08383 15.299 8.601H17.699ZM17.5672 8.9192C17.4828 9.00359 17.3683 9.051 17.249 9.051V6.651C16.7318 6.651 16.2358 6.85644 15.8701 7.22214L17.5672 8.9192ZM17.249 10.551C17.7662 10.551 18.2622 10.3456 18.6279 9.97986L16.9308 8.2828C17.0152 8.19841 17.1297 8.151 17.249 8.151V10.551ZM18.6279 9.97986C18.9936 9.61416 19.199 9.11817 19.199 8.601H16.799C16.799 8.48166 16.8464 8.3672 16.9308 8.2828L18.6279 9.97986ZM19.199 8.601C19.199 8.08383 18.9936 7.58784 18.6279 7.22214L16.9308 8.9192C16.8464 8.83481 16.799 8.72035 16.799 8.601H19.199ZM18.6279 7.22214C18.2622 6.85644 17.7662 6.651 17.249 6.651V9.051C17.1297 9.051 17.0152 9.00359 16.9308 8.9192L18.6279 7.22214ZM25.1858 16.2786C25.0609 15.1449 25.0726 13.9202 25.1209 12.633C25.168 11.3779 25.253 10.0178 25.253 8.757H22.853C22.853 9.95921 22.773 11.2001 22.7226 12.543C22.6734 13.8538 22.6551 15.2241 22.8002 16.5414L25.1858 16.2786ZM25.253 8.75785C25.2537 7.78416 25.0565 6.82048 24.6733 5.92535L22.4669 6.86979C22.7221 7.46592 22.8535 8.1077 22.853 8.75615L25.253 8.75785ZM24.6733 5.92535C24.2901 5.03022 23.729 4.2223 23.024 3.55067L21.3686 5.28833C21.8381 5.73561 22.2118 6.27366 22.4669 6.86979L24.6733 5.92535ZM23.024 3.55067C22.3191 2.87904 21.4849 2.35771 20.5723 2.01833L19.7358 4.26783C20.3436 4.49385 20.8991 4.84104 21.3686 5.28833L23.024 3.55067ZM20.5723 2.01833C19.6597 1.67896 18.6876 1.52862 17.7151 1.57645L17.8329 3.97355C18.4806 3.9417 19.128 4.04182 19.7358 4.26783L20.5723 2.01833ZM17.717 1.57636C14.7832 1.71598 12.08 3.38911 9.88729 5.46541C7.67554 7.55976 5.84348 10.1939 4.645 12.5438L6.783 13.6342C7.87652 11.4901 9.55296 9.08725 11.5375 7.20809C13.541 5.3109 15.7218 4.07403 17.831 3.97365L17.717 1.57636ZM4.6438 12.5462C3.87636 14.0592 3.47293 15.7305 3.46565 17.427L5.86563 17.4373C5.8713 16.1146 6.18585 14.8115 6.7842 13.6318L4.6438 12.5462ZM3.46565 17.427C3.45837 19.1235 3.84744 20.7982 4.60186 22.3178L6.7515 21.2505C6.1633 20.0658 5.85995 18.76 5.86563 17.4373L3.46565 17.427ZM4.60186 22.3178C5.35629 23.8373 6.4552 25.1596 7.81104 26.1794L9.25362 24.2613C8.19651 23.4662 7.33971 22.4353 6.7515 21.2505L4.60186 22.3178ZM7.81104 26.1794C9.16688 27.1991 10.7422 27.888 12.4113 28.1913L12.8404 25.83C11.5389 25.5935 10.3107 25.0564 9.25362 24.2613L7.81104 26.1794ZM12.4113 28.1913C14.0805 28.4946 15.7975 28.4038 17.4254 27.9261L16.7497 25.6232C15.4804 25.9956 14.1418 26.0664 12.8404 25.83L12.4113 28.1913ZM17.4254 27.9261C19.0532 27.4485 20.5471 26.5972 21.7878 25.4402L20.1509 23.685C19.1836 24.5871 18.0189 25.2508 16.7497 25.6232L17.4254 27.9261ZM21.7878 25.4402C23.0285 24.2831 23.9818 22.8523 24.5717 21.2616L22.3215 20.4271C21.8616 21.6673 21.1183 22.7829 20.1509 23.685L21.7878 25.4402ZM24.5717 21.2616C25.1617 19.671 25.3719 17.9646 25.1858 16.2783L22.8002 16.5417C22.9454 17.8564 22.7815 19.1869 22.3215 20.4271L24.5717 21.2616ZM22.837 0.992638L20.959 3.39864L22.8509 4.87536L24.7289 2.46936L22.837 0.992638ZM26.7106 7.39345L23.7556 8.14945L24.3504 10.4746L27.3054 9.71856L26.7106 7.39345ZM5.28582 8.30004L7.97682 9.74004L9.10917 7.62397L6.41817 6.18397L5.28582 8.30004ZM23.933 16.998H26.984V14.598H23.933V16.998ZM1.74969 15.5136L4.73169 16.1496L5.23231 13.8024L2.25031 13.1664L1.74969 15.5136ZM22.6975 22.8176L25.5655 23.8616L26.3865 21.6064L23.5185 20.5624L22.6975 22.8176ZM5.21353 20.5504L2.34553 21.5944L3.16647 23.8496L6.03447 22.8056L5.21353 20.5504ZM10.9558 2.10347L12.4918 4.74347L14.5662 3.53653L13.0302 0.896528L10.9558 2.10347ZM9.00121 29.1035L10.5372 26.4635L8.46278 25.2565L6.92678 27.8965L9.00121 29.1035ZM21.8597 27.8974L20.3267 25.2574L18.2513 26.4626L19.7843 29.1026L21.8597 27.8974Z" 
    fill="#AEB9E1"/>
</svg>