<svg width="14" height="14" viewBox="0 0 14 14" fill="none" xmlns="http://www.w3.org/2000/svg">
<g clip-path="url(#clip0_47_20430)">
<path d="M3.98073 12.4555C3.64585 12.4562 3.31497 12.3829 3.01177 12.2407C2.70858 12.0985 2.44059 11.891 2.22701 11.6331L0.228842 9.08888C0.138706 8.98736 0.0702676 8.86849 0.0277255 8.73957C-0.0148167 8.61064 -0.0305649 8.47439 -0.0185528 8.33916C-0.00654058 8.20393 0.0329786 8.07258 0.0975796 7.95318C0.16218 7.83377 0.2505 7.72883 0.357119 7.64478C0.463738 7.56074 0.586406 7.49937 0.717596 7.46444C0.848786 7.42951 0.985731 7.42176 1.12002 7.44166C1.25432 7.46156 1.38313 7.50869 1.49855 7.58016C1.61398 7.65164 1.71358 7.74594 1.79124 7.85729L3.78144 10.3789C3.80502 10.4112 3.83722 10.4362 3.87435 10.451C3.91148 10.4658 3.95204 10.4698 3.99136 10.4626C4.03478 10.4626 4.07764 10.4529 4.11675 10.434C4.15586 10.4151 4.1902 10.3877 4.21721 10.3537L11.5058 1.21311C11.5849 1.10399 11.6854 1.01206 11.8011 0.942896C11.9168 0.873731 12.0454 0.828766 12.179 0.810723C12.3126 0.79268 12.4484 0.801933 12.5783 0.837923C12.7083 0.873914 12.8295 0.935892 12.9348 1.02011C13.0401 1.10432 13.1271 1.20902 13.1908 1.32787C13.2544 1.44672 13.2933 1.57724 13.305 1.71154C13.3167 1.84584 13.3011 1.98112 13.259 2.10919C13.2169 2.23727 13.1493 2.35547 13.0602 2.45665L5.7557 11.6065C5.54348 11.8699 5.27528 12.0828 4.97057 12.2296C4.66585 12.3765 4.33226 12.4536 3.99401 12.4555H3.98073Z" fill="#AEB9E1"/>
</g>
<defs>
<clipPath id="clip0_47_20430">
<rect width="13.2857" height="13.2857" fill="white"/>
</clipPath>
</defs>
</svg>
