<svg width="30" height="30" viewBox="0 0 30 30" fill="none" xmlns="http://www.w3.org/2000/svg">
<g clip-path="url(#clip0_150_351)">
<path d="M12 1.5H1.5V12H12V1.5Z" stroke="#AEB9E1" stroke-width="2.4" stroke-linecap="round" stroke-linejoin="round"/>
<path d="M28.5 27H18" stroke="#AEB9E1" stroke-width="2.4" stroke-linecap="round" stroke-linejoin="round"/>
<path d="M18 19.5H28.5" stroke="#AEB9E1" stroke-width="2.4" stroke-linecap="round" stroke-linejoin="round"/>
<path d="M28.5 12H18L22.971 1.5L28.5 12Z" stroke="#AEB9E1" stroke-width="2.4" stroke-linecap="round" stroke-linejoin="round"/>
<path d="M6.75 28.5C7.43944 28.5 8.12213 28.3642 8.75909 28.1004C9.39605 27.8365 9.9748 27.4498 10.4623 26.9623C10.9498 26.4748 11.3365 25.896 11.6004 25.2591C11.8642 24.6221 12 23.9394 12 23.25C12 22.5606 11.8642 21.8779 11.6004 21.2409C11.3365 20.604 10.9498 20.0252 10.4623 19.5377C9.9748 19.0502 9.39605 18.6635 8.75909 18.3996C8.12213 18.1358 7.43944 18 6.75 18C5.35761 18 4.02225 18.5531 3.03769 19.5377C2.05312 20.5223 1.5 21.8576 1.5 23.25C1.5 24.6424 2.05312 25.9777 3.03769 26.9623C4.02225 27.9469 5.35761 28.5 6.75 28.5Z" stroke="#AEB9E1" stroke-width="2.4" stroke-linecap="round" stroke-linejoin="round"/>
</g>
<defs>
<clipPath id="clip0_150_351">
<rect width="30" height="30" fill="white"/>
</clipPath>
</defs>
</svg>
