<svg width="35" height="34" viewBox="0 0 35 34" fill="none" xmlns="http://www.w3.org/2000/svg">
<path fill-rule="evenodd" clip-rule="evenodd" d="M2.1875 4.375H25.8125C26.3927 4.375 26.9491 4.14453 27.3593 3.7343C27.7695 3.32406 28 2.76766 28 2.1875C28 1.60734 27.7695 1.05094 27.3593 0.640704C26.9491 0.230468 26.3927 0 25.8125 0H2.1875C1.60734 0 1.05094 0.230468 0.640704 0.640704C0.230468 1.05094 0 1.60734 0 2.1875C0 2.76766 0.230468 3.32406 0.640704 3.7343C1.05094 4.14453 1.60734 4.375 2.1875 4.375ZM2.1875 14H31.9375C32.5177 14 33.0741 13.7695 33.4843 13.3593C33.8945 12.9491 34.125 12.3927 34.125 11.8125C34.125 11.2323 33.8945 10.6759 33.4843 10.2657C33.0741 9.85547 32.5177 9.625 31.9375 9.625H2.1875C1.60734 9.625 1.05094 9.85547 0.640704 10.2657C0.230468 10.6759 0 11.2323 0 11.8125C0 12.3927 0.230468 12.9491 0.640704 13.3593C1.05094 13.7695 1.60734 14 2.1875 14ZM25.8125 23.625H2.1875C1.60734 23.625 1.05094 23.3945 0.640704 22.9843C0.230468 22.5741 0 22.0177 0 21.4375C0 20.8573 0.230468 20.3009 0.640704 19.8907C1.05094 19.4805 1.60734 19.25 2.1875 19.25H25.8125C26.3927 19.25 26.9491 19.4805 27.3593 19.8907C27.7695 20.3009 28 20.8573 28 21.4375C28 22.0177 27.7695 22.5741 27.3593 22.9843C26.9491 23.3945 26.3927 23.625 25.8125 23.625ZM2.1875 33.25H31.9375C32.5177 33.25 33.0741 33.0195 33.4843 32.6093C33.8945 32.1991 34.125 31.6427 34.125 31.0625C34.125 30.4823 33.8945 29.9259 33.4843 29.5157C33.0741 29.1055 32.5177 28.875 31.9375 28.875H2.1875C1.60734 28.875 1.05094 29.1055 0.640704 29.5157C0.230468 29.9259 0 30.4823 0 31.0625C0 31.6427 0.230468 32.1991 0.640704 32.6093C1.05094 33.0195 1.60734 33.25 2.1875 33.25Z" fill="#AEB9E1"/>
</svg>
