<svg width="30" height="30" viewBox="0 0 30 30" fill="none" xmlns="http://www.w3.org/2000/svg">
<g clip-path="url(#clip0_150_376)">
<path d="M1.5 1.5V28.5H28.5" stroke="#AEB9E1" stroke-width="2.4" stroke-linecap="round" stroke-linejoin="round"/>
<path d="M10.5721 9.135C11.0649 9.135 11.553 9.23207 12.0083 9.42068C12.4636 9.60929 12.8774 9.88573 13.2259 10.2342C13.5744 10.5827 13.8508 10.9965 14.0394 11.4518C14.228 11.9071 14.3251 12.3951 14.3251 12.888C14.3251 13.3809 14.228 13.8689 14.0394 14.3242C13.8508 14.7795 13.5744 15.1933 13.2259 15.5418C12.8774 15.8903 12.4636 16.1667 12.0083 16.3553C11.553 16.5439 11.0649 16.641 10.5721 16.641C9.57673 16.641 8.62214 16.2456 7.91832 15.5418C7.2145 14.8379 6.81909 13.8834 6.81909 12.888C6.81909 11.8926 7.2145 10.9381 7.91832 10.2342C8.62214 9.5304 9.57673 9.135 10.5721 9.135Z" stroke="#AEB9E1" stroke-width="2.4" stroke-linecap="round" stroke-linejoin="round"/>
<path d="M24.6151 2.862C25.6104 2.862 26.565 3.25741 27.2688 3.96123C27.9727 4.66505 28.3681 5.61964 28.3681 6.615C28.3681 7.61036 27.9727 8.56495 27.2688 9.26877C26.565 9.9726 25.6104 10.368 24.6151 10.368C23.6197 10.368 22.6651 9.9726 21.9613 9.26877C21.2575 8.56495 20.8621 7.61036 20.8621 6.615C20.8621 5.61964 21.2575 4.66505 21.9613 3.96123C22.6651 3.25741 23.6197 2.862 24.6151 2.862Z" stroke="#AEB9E1" stroke-width="2.4" stroke-linecap="round" stroke-linejoin="round"/>
<path d="M20.898 15.891C21.8934 15.891 22.848 16.2864 23.5518 16.9902C24.2556 17.6941 24.651 18.6486 24.651 19.644C24.651 20.6394 24.2556 21.594 23.5518 22.2978C22.848 23.0016 21.8934 23.397 20.898 23.397C19.9027 23.397 18.9481 23.0016 18.2442 22.2978C17.5404 21.594 17.145 20.6394 17.145 19.644C17.145 18.6486 17.5404 17.6941 18.2442 16.9902C18.9481 16.2864 19.9027 15.891 20.898 15.891Z" stroke="#AEB9E1" stroke-width="2.4" stroke-linecap="round" stroke-linejoin="round"/>
<path d="M1.5 20.904L7.266 14.748" stroke="#AEB9E1" stroke-width="2.4" stroke-linecap="round" stroke-linejoin="round"/>
<path d="M13.6079 15.234L17.6369 17.733" stroke="#AEB9E1" stroke-width="2.4" stroke-linecap="round" stroke-linejoin="round"/>
<path d="M21.8911 15.891L23.5711 10.323" stroke="#AEB9E1" stroke-width="2.4" stroke-linecap="round" stroke-linejoin="round"/>
</g>
<defs>
<clipPath id="clip0_150_376">
<rect width="30" height="30" fill="white"/>
</clipPath>
</defs>
</svg>
