<svg width="31" height="30" viewBox="0 0 31 30" fill="none" xmlns="http://www.w3.org/2000/svg">
  <path d="M2 1.5V28.5H29M2 20.904L7.766 14.748M14.108 15.234L18.137 17.733M22.391 15.891L24.071 10.323M11.072 9.135C11.5649 9.135 12.0529 9.23207 12.5082 9.42068C12.9635 9.60929 13.3773 9.88573 13.7258 10.2342C14.0743 10.5827 14.3507 10.9965 14.5393 11.4518C14.7279 11.9071 14.825 12.3951 14.825 12.888C14.825 13.3809 14.7279 13.8689 14.5393 14.3242C14.3507 14.7795 14.0743 15.1933 13.7258 15.5418C13.3773 15.8903 12.9635 16.1667 12.5082 16.3553C12.0529 16.5439 11.5649 16.641 11.072 16.641C10.0766 16.641 9.12206 16.2456 8.41823 15.5418C7.71441 14.8379 7.319 13.8834 7.319 12.888C7.319 11.8926 7.71441 10.9381 8.41823 10.2342C9.12206 9.5304 10.0766 9.135 11.072 9.135ZM25.115 2.862C26.1104 2.862 27.065 3.25741 27.7688 3.96123C28.4726 4.66505 28.868 5.61964 28.868 6.615C28.868 7.61036 28.4726 8.56495 27.7688 9.26877C27.065 9.9726 26.1104 10.368 25.115 10.368C24.1196 10.368 23.1651 9.9726 22.4612 9.26877C21.7574 8.56495 21.362 7.61036 21.362 6.615C21.362 5.61964 21.7574 4.66505 22.4612 3.96123C23.1651 3.25741 24.1196 2.862 25.115 2.862ZM21.398 15.891C22.3934 15.891 23.3479 16.2864 24.0518 16.9902C24.7556 17.6941 25.151 18.6486 25.151 19.644C25.151 20.6394 24.7556 21.594 24.0518 22.2978C23.3479 23.0016 22.3934 23.397 21.398 23.397C20.4026 23.397 19.4481 23.0016 18.7442 22.2978C18.0404 21.594 17.645 20.6394 17.645 19.644C17.645 18.6486 18.0404 17.6941 18.7442 16.9902C19.4481 16.2864 20.4026 15.891 21.398 15.891Z"   stroke-width="2.4" stroke-linecap="round" stroke-linejoin="round"/>
</svg>