<svg width="13" height="14" viewBox="0 0 13 14" fill="none" xmlns="http://www.w3.org/2000/svg">
<path d="M2.0039 0.553874C1.85582 0.553874 1.70758 0.610281 1.59473 0.72342L0.437288 1.88086C0.211008 2.10714 0.211008 2.4735 0.437288 2.6992L4.65787 6.91978L0.437288 11.1404C0.211008 11.3666 0.211008 11.733 0.437288 11.9587L1.59473 13.1161C1.821 13.3424 2.18737 13.3424 2.41307 13.1161L6.63365 8.89557L10.8542 13.1161C11.0799 13.3424 11.4469 13.3424 11.6726 13.1161L12.83 11.9587C13.0563 11.7324 13.0563 11.3661 12.83 11.1404L8.60943 6.91978L12.83 2.6992C13.0563 2.4735 13.0563 2.10656 12.83 1.88086L11.6726 0.72342C11.4463 0.497141 11.0799 0.497141 10.8542 0.72342L6.63365 4.944L2.41307 0.72342C2.29993 0.610281 2.15198 0.553874 2.0039 0.553874Z" fill="#AEB9E1"/>
</svg>
