<svg width="30" height="30" viewBox="0 0 30 30" fill="none" xmlns="http://www.w3.org/2000/svg">
<path d="M11.313 5.136L12.213 2.82C12.3658 2.42934 12.6333 2.09411 12.9803 1.85848C13.3273 1.62285 13.7376 1.49787 14.157 1.5H15.843C16.2609 1.49968 16.6692 1.62552 17.0145 1.86103C17.3597 2.09654 17.6258 2.43077 17.778 2.82L18.678 5.136L21.678 6.876L24.138 6.504C24.5493 6.44328 24.9694 6.50748 25.3438 6.68827C25.7183 6.86906 26.0298 7.15812 26.238 7.518L27.084 8.982C27.2923 9.34383 27.3868 9.75998 27.3552 10.1763C27.3236 10.5926 27.1675 10.9897 26.907 11.316L25.356 13.26V16.74L26.907 18.684C27.1675 19.0103 27.3236 19.4074 27.3552 19.8237C27.3868 20.24 27.2923 20.6562 27.084 21.018L26.238 22.482C26.0298 22.8419 25.7183 23.1309 25.3438 23.3117C24.9694 23.4925 24.5493 23.5567 24.138 23.496L21.678 23.124L18.678 24.864L17.778 27.18C17.6258 27.5692 17.3597 27.9034 17.0145 28.139C16.6692 28.3745 16.2609 28.5003 15.843 28.5H14.157C13.7391 28.5003 13.3308 28.3745 12.9856 28.139C12.6403 27.9034 12.3742 27.5692 12.222 27.18L11.322 24.864L8.32202 23.124L5.86202 23.496C5.45069 23.5567 5.03061 23.4925 4.65619 23.3117C4.28177 23.1309 3.97026 22.8419 3.76202 22.482L2.88602 21.018C2.67776 20.6562 2.58327 20.24 2.61484 19.8237C2.64641 19.4074 2.80258 19.0103 3.06302 18.684L4.61402 16.74V13.26L3.06302 11.316C2.80258 10.9897 2.64641 10.5926 2.61484 10.1763C2.58327 9.75998 2.67776 9.34383 2.88602 8.982L3.73202 7.518C3.94026 7.15812 4.25177 6.86906 4.62619 6.68827C5.00061 6.50748 5.42069 6.44328 5.83202 6.504L8.29202 6.876L11.313 5.136ZM11.25 15C11.25 15.9946 11.6451 16.9484 12.3484 17.6516C13.0516 18.3549 14.0055 18.75 15 18.75C15.9946 18.75 16.9484 18.3549 17.6517 17.6516C18.3549 16.9484 18.75 15.9946 18.75 15C18.75 14.0054 18.3549 13.0516 17.6517 12.3483C16.9484 11.6451 15.9946 11.25 15 11.25C14.0055 11.25 13.0516 11.6451 12.3484 12.3483C11.6451 13.0516 11.25 14.0054 11.25 15Z" stroke="#AEB9E1" stroke-width="2.4" stroke-linecap="round" stroke-linejoin="round"/>
</svg>
