<svg width="28" height="30" viewBox="0 0 28 30" fill="none" xmlns="http://www.w3.org/2000/svg">
  <path d="M10.7041 5.13603L11.6041 2.82003C11.7569 2.42937 12.0244 2.09414 12.3714 1.85851C12.7184 1.62288 13.1287 1.4979 13.5481 1.50003H15.2341C15.6521 1.49972 16.0603 1.62555 16.4056 1.86106C16.7508 2.09657 17.0169 2.4308 17.1691 2.82003L18.0691 5.13603L21.0691 6.87603L23.5291 6.50403C23.9405 6.44331 24.3605 6.50751 24.735 6.6883C25.1094 6.86909 25.4209 7.15815 25.6291 7.51803L26.4751 8.98203C26.6834 9.34386 26.7779 9.76001 26.7463 10.1763C26.7147 10.5926 26.5586 10.9897 26.2981 11.316L24.7471 13.26V16.74L26.2981 18.684C26.5586 19.0103 26.7147 19.4075 26.7463 19.8237C26.7779 20.24 26.6834 20.6562 26.4751 21.018L25.6291 22.482C25.4209 22.8419 25.1094 23.131 24.735 23.3118C24.3605 23.4925 23.9405 23.5567 23.5291 23.496L21.0691 23.124L18.0691 24.864L17.1691 27.18C17.0169 27.5693 16.7508 27.9035 16.4056 28.139C16.0603 28.3745 15.6521 28.5003 15.2341 28.5H13.5481C13.1302 28.5003 12.7219 28.3745 12.3767 28.139C12.0314 27.9035 11.7653 27.5693 11.6131 27.18L10.7131 24.864L7.71313 23.124L5.25313 23.496C4.8418 23.5567 4.42172 23.4925 4.0473 23.3118C3.67288 23.131 3.36137 22.8419 3.15313 22.482L2.27713 21.018C2.06888 20.6562 1.97438 20.24 2.00595 19.8237C2.03752 19.4075 2.19369 19.0103 2.45413 18.684L4.00513 16.74V13.26L2.45413 11.316C2.19369 10.9897 2.03752 10.5926 2.00595 10.1763C1.97438 9.76001 2.06888 9.34386 2.27713 8.98203L3.12313 7.51803C3.33137 7.15815 3.64288 6.86909 4.0173 6.6883C4.39172 6.50751 4.8118 6.44331 5.22313 6.50403L7.68313 6.87603L10.7041 5.13603ZM10.6411 15C10.6411 15.9946 11.0362 16.9484 11.7395 17.6517C12.4427 18.3549 13.3966 18.75 14.3911 18.75C15.3857 18.75 16.3395 18.3549 17.0428 17.6517C17.746 16.9484 18.1411 15.9946 18.1411 15C18.1411 14.0055 17.746 13.0516 17.0428 12.3484C16.3395 11.6451 15.3857 11.25 14.3911 11.25C13.3966 11.25 12.4427 11.6451 11.7395 12.3484C11.0362 13.0516 10.6411 14.0055 10.6411 15Z"   stroke-width="2.4" stroke-linecap="round" stroke-linejoin="round"/>
</svg>