<svg xmlns="http://www.w3.org/2000/svg" width="35" height="36" viewBox="0 0 35 36" fill="none">
<rect x="1.35938" y="1.67969" width="32.6406" height="32.6406" rx="16.3203" fill="#0B1739" stroke="#AEB9E1" stroke-width="2"/>
<path d="M17.9335 2.84486C17.6522 2.84925 17.3841 2.96509 17.188 3.16694C16.992 3.36879 16.8841 3.64016 16.888 3.9215V7.10788C16.886 7.24862 16.912 7.38836 16.9645 7.51897C17.0169 7.64957 17.0949 7.76845 17.1937 7.86868C17.2925 7.96891 17.4103 8.04851 17.5401 8.10283C17.67 8.15716 17.8093 8.18513 17.9501 8.18513C18.0908 8.18513 18.2302 8.15716 18.36 8.10283C18.4899 8.04851 18.6076 7.96891 18.7065 7.86868C18.8053 7.76845 18.8832 7.64957 18.9357 7.51897C18.9882 7.38836 19.0142 7.24862 19.0122 7.10788V3.9215C19.0141 3.7794 18.9875 3.63835 18.934 3.50671C18.8804 3.37507 18.801 3.25552 18.7004 3.15512C18.5999 3.05473 18.4802 2.97554 18.3484 2.92225C18.2167 2.86895 18.0756 2.84264 17.9335 2.84486ZM8.17536 6.89421C7.96425 6.89468 7.75806 6.95804 7.58312 7.07622C7.40818 7.19439 7.27242 7.36201 7.19318 7.55769C7.11393 7.75337 7.09478 7.96822 7.13819 8.17483C7.18159 8.38143 7.28557 8.57042 7.43686 8.71766L9.68969 10.9705C9.78756 11.0725 9.90478 11.1538 10.0345 11.2099C10.1642 11.266 10.3038 11.2956 10.4451 11.297C10.5864 11.2985 10.7266 11.2717 10.8574 11.2183C10.9882 11.1649 11.1071 11.0859 11.207 10.986C11.3069 10.886 11.3859 10.7672 11.4393 10.6364C11.4927 10.5055 11.5195 10.3654 11.5181 10.224C11.5166 10.0827 11.487 9.94314 11.431 9.81343C11.3749 9.68371 11.2935 9.56649 11.1916 9.46862L8.93875 7.21575C8.83953 7.11375 8.72082 7.03273 8.58969 6.9775C8.45855 6.92226 8.31765 6.89394 8.17536 6.89421ZM27.6916 6.89421C27.4157 6.90243 27.1538 7.01776 26.9614 7.21575L24.7086 9.46862C24.6066 9.56649 24.5253 9.68371 24.4692 9.81343C24.4131 9.94314 24.3835 10.0827 24.3821 10.224C24.3807 10.3653 24.4074 10.5055 24.4608 10.6363C24.5142 10.7672 24.5932 10.886 24.6931 10.986C24.7931 11.0859 24.9119 11.1649 25.0427 11.2183C25.1736 11.2717 25.3137 11.2985 25.455 11.297C25.5963 11.2956 25.7359 11.266 25.8657 11.2099C25.9954 11.1538 26.1126 11.0725 26.2105 10.9705L28.4633 8.71766C28.6168 8.56847 28.7216 8.3764 28.764 8.16661C28.8065 7.95682 28.7845 7.7391 28.7011 7.54198C28.6177 7.34487 28.4767 7.17755 28.2965 7.06196C28.1164 6.94637 27.9055 6.8879 27.6916 6.89421ZM17.9501 10.2943C15.9783 10.2943 14.0872 11.0776 12.6929 12.4719C11.2986 13.8662 10.5153 15.7573 10.5153 17.7291C10.5153 19.701 11.2986 21.5921 12.6929 22.9864C14.0872 24.3807 15.9783 25.164 17.9501 25.164C19.9219 25.164 21.813 24.3807 23.2072 22.9864C24.6015 21.5921 25.3848 19.701 25.3848 17.7291C25.3848 15.7573 24.6015 13.8662 23.2072 12.4719C21.813 11.0776 19.9219 10.2943 17.9501 10.2943ZM4.14267 16.667C4.00192 16.665 3.86219 16.691 3.73158 16.7435C3.60098 16.796 3.48211 16.8739 3.38187 16.9727C3.28164 17.0716 3.20205 17.1893 3.14773 17.3192C3.0934 17.449 3.06543 17.5884 3.06543 17.7291C3.06543 17.8699 3.0934 18.0092 3.14773 18.1391C3.20205 18.269 3.28164 18.3867 3.38187 18.4855C3.48211 18.5844 3.60098 18.6623 3.73158 18.7148C3.86219 18.7672 4.00192 18.7932 4.14267 18.7913H7.32899C7.46973 18.7932 7.60947 18.7672 7.74007 18.7148C7.87068 18.6623 7.98955 18.5844 8.08978 18.4855C8.19001 18.3867 8.2696 18.269 8.32393 18.1391C8.37825 18.0092 8.40623 17.8699 8.40623 17.7291C8.40623 17.5884 8.37825 17.449 8.32393 17.3192C8.2696 17.1893 8.19001 17.0716 8.08978 16.9727C7.98955 16.8739 7.87068 16.796 7.74007 16.7435C7.60947 16.691 7.46973 16.665 7.32899 16.667H4.14267ZM28.5712 16.667C28.4304 16.665 28.2907 16.691 28.1601 16.7435C28.0295 16.796 27.9106 16.8739 27.8104 16.9727C27.7101 17.0716 27.6305 17.1893 27.5762 17.3192C27.5219 17.449 27.4939 17.5884 27.4939 17.7291C27.4939 17.8699 27.5219 18.0092 27.5762 18.1391C27.6305 18.269 27.7101 18.3867 27.8104 18.4855C27.9106 18.5844 28.0295 18.6623 28.1601 18.7148C28.2907 18.7672 28.4304 18.7932 28.5712 18.7913H31.7575C31.8982 18.7932 32.038 18.7672 32.1686 18.7148C32.2992 18.6623 32.418 18.5844 32.5183 18.4855C32.6185 18.3867 32.6981 18.269 32.7524 18.1391C32.8067 18.0092 32.8347 17.8699 32.8347 17.7291C32.8347 17.5884 32.8067 17.449 32.7524 17.3192C32.6981 17.1893 32.6185 17.0716 32.5183 16.9727C32.418 16.8739 32.2992 16.796 32.1686 16.7435C32.038 16.691 31.8982 16.665 31.7575 16.667H28.5712ZM10.4199 24.1662C10.144 24.1744 9.88206 24.2897 9.68969 24.4877L7.43686 26.7406C7.33493 26.8385 7.25355 26.9557 7.19749 27.0854C7.14143 27.2151 7.11181 27.3547 7.11038 27.496C7.10894 27.6373 7.13571 27.7775 7.18913 27.9083C7.24254 28.0392 7.32152 28.158 7.42144 28.2579C7.52136 28.3579 7.64021 28.4368 7.77104 28.4903C7.90186 28.5437 8.04203 28.5704 8.18333 28.569C8.32464 28.5676 8.46423 28.538 8.59394 28.4819C8.72366 28.4258 8.84088 28.3444 8.93875 28.2425L11.1916 25.9896C11.3451 25.8405 11.4499 25.6484 11.4923 25.4386C11.5348 25.2288 11.5128 25.0111 11.4294 24.814C11.346 24.6169 11.205 24.4495 11.0248 24.3339C10.8447 24.2184 10.6338 24.1599 10.4199 24.1662ZM25.4491 24.1662C25.2379 24.1662 25.0314 24.2293 24.8561 24.3473C24.6809 24.4653 24.5448 24.633 24.4653 24.8287C24.3858 25.0245 24.3665 25.2395 24.4098 25.4463C24.4531 25.6531 24.5572 25.8423 24.7086 25.9896L26.9614 28.2425C27.0593 28.3444 27.1765 28.4258 27.3062 28.4819C27.4359 28.5379 27.5755 28.5676 27.7168 28.569C27.8581 28.5704 27.9983 28.5437 28.1291 28.4902C28.2599 28.4368 28.3788 28.3579 28.4787 28.2579C28.5786 28.158 28.6576 28.0392 28.711 27.9083C28.7644 27.7775 28.7912 27.6373 28.7898 27.496C28.7883 27.3547 28.7587 27.2151 28.7027 27.0854C28.6466 26.9557 28.5652 26.8385 28.4633 26.7406L26.2105 24.4877C26.1115 24.386 25.9931 24.3051 25.8624 24.2499C25.7316 24.1947 25.5911 24.1662 25.4491 24.1662ZM17.9335 27.2737C17.6522 27.2781 17.3841 27.394 17.188 27.5958C16.992 27.7977 16.8841 28.069 16.888 28.3504V31.5368C16.886 31.6775 16.912 31.8172 16.9645 31.9478C17.0169 32.0785 17.0949 32.1973 17.1937 32.2976C17.2925 32.3978 17.4103 32.4774 17.5401 32.5317C17.67 32.586 17.8093 32.614 17.9501 32.614C18.0908 32.614 18.2302 32.586 18.36 32.5317C18.4899 32.4774 18.6076 32.3978 18.7065 32.2976C18.8053 32.1973 18.8832 32.0785 18.9357 31.9478C18.9882 31.8172 19.0142 31.6775 19.0122 31.5368V28.3504C19.0141 28.2083 18.9875 28.0672 18.934 27.9356C18.8804 27.804 18.801 27.6844 18.7004 27.584C18.5999 27.4836 18.4802 27.4044 18.3484 27.3511C18.2167 27.2978 18.0756 27.2715 17.9335 27.2737Z" fill="#AEB9E1"/>
</svg>